<svg width="200" height="200" viewBox="0 0 200 200" fill="none" xmlns="http://www.w3.org/2000/svg">
<path d="M100 160C79.1666 160 60.75 149.333 50 133.333C50.25 116.667 83.3333 107.5 100 107.5C116.667 107.5 149.75 116.667 150 133.333C144.491 141.537 137.049 148.26 128.33 152.91C119.61 157.56 109.882 159.995 100 160ZM100 41.6666C106.63 41.6666 112.989 44.3006 117.678 48.989C122.366 53.6774 125 60.0362 125 66.6666C125 73.297 122.366 79.6559 117.678 84.3443C112.989 89.0327 106.63 91.6666 100 91.6666C93.3696 91.6666 87.0107 89.0327 82.3223 84.3443C77.6339 79.6559 75 73.297 75 66.6666C75 60.0362 77.6339 53.6774 82.3223 48.989C87.0107 44.3006 93.3696 41.6666 100 41.6666ZM100 16.6666C89.0565 16.6666 78.2201 18.8221 68.1097 23.01C57.9992 27.1979 48.8126 33.3362 41.0744 41.0744C25.4464 56.7024 16.6666 77.8986 16.6666 100C16.6666 122.101 25.4464 143.298 41.0744 158.926C48.8126 166.664 57.9992 172.802 68.1097 176.99C78.2201 181.178 89.0565 183.333 100 183.333C122.101 183.333 143.298 174.554 158.926 158.926C174.554 143.298 183.333 122.101 183.333 100C183.333 53.9166 145.833 16.6666 100 16.6666Z" fill="#453C67"/>
</svg>
