<svg width="320" height="320" viewBox="0 0 320 320" fill="none" xmlns="http://www.w3.org/2000/svg">
<path d="M59.2876 202.973L49.7945 203.151L44.9849 203.223C43.3785 203.253 41.7644 203.247 40.1536 203.258L39.8694 203.26L39.8681 202.973L39.8336 194.888L39.8323 194.566L40.1536 194.568L49.7203 194.608C52.9094 194.611 56.0979 194.68 59.287 194.713L59.463 194.715L59.4617 194.888C59.4496 196.257 59.4067 197.619 59.3779 198.968L59.2876 202.973ZM59.2876 202.973L59.1968 198.893C59.168 197.547 59.1251 196.214 59.1129 194.888L59.2876 195.062C56.0985 195.095 52.91 195.164 49.7209 195.167L40.1542 195.208L40.4736 194.888L40.439 202.973L40.1536 202.688C41.7318 202.7 43.3068 202.693 44.8896 202.723L49.6467 202.795L59.2876 202.973Z" fill="#EBEBEB"/>
<path d="M48.6137 213.168L39.1206 213.347L34.311 213.418C32.7046 213.448 31.0905 213.443 29.4797 213.453L29.1955 213.455L29.1942 213.168L29.1597 205.083L29.1584 204.762L29.4797 204.763L39.0464 204.803C42.2355 204.806 45.424 204.875 48.6131 204.908L48.7891 204.91L48.7878 205.083C48.7757 206.452 48.7328 207.814 48.704 209.163L48.6137 213.168ZM48.6137 213.168L48.5229 209.088C48.4941 207.741 48.4512 206.409 48.439 205.083L48.6137 205.258C45.4246 205.29 42.2361 205.359 39.047 205.363L29.4803 205.403L29.7997 205.084L29.7651 213.169L29.4797 212.883C31.0579 212.895 32.6329 212.888 34.2157 212.918L38.9728 212.99L48.6137 213.168Z" fill="#EBEBEB"/>
<path d="M48.6137 38.2169L39.1206 38.3955L34.311 38.4672C32.7046 38.4973 31.0905 38.4909 29.4797 38.5024L29.1955 38.5043L29.1942 38.2169L29.1597 30.1318L29.1584 29.8105L29.4797 29.8118L39.0464 29.8521C42.2355 29.8553 45.424 29.9238 48.6131 29.9571L48.7891 29.959L48.7878 30.1318C48.7757 31.5008 48.7328 32.8633 48.704 34.2118L48.6137 38.2169ZM48.6137 38.2169L48.5229 34.1369C48.4941 32.791 48.4512 31.4579 48.439 30.1318L48.6137 30.3065C45.4246 30.3392 42.2361 30.4083 39.047 30.4115L29.4803 30.4512L29.7997 30.1318L29.7651 38.2169L29.4797 37.9315C31.0579 37.943 32.6329 37.9366 34.2157 37.9667L38.9728 38.0384L48.6137 38.2169Z" fill="#EBEBEB"/>
<path d="M290.52 38.2169L281.027 38.3955L276.217 38.4672C274.611 38.4973 272.997 38.4909 271.386 38.5024L271.101 38.5043L271.1 38.2169L271.066 30.1318L271.064 29.8105L271.386 29.8118L280.952 29.8521C284.141 29.8553 287.33 29.9238 290.519 29.9571L290.695 29.959L290.694 30.1318C290.682 31.5008 290.639 32.8633 290.61 34.2118L290.52 38.2169ZM290.52 38.2169L290.429 34.1369C290.4 32.791 290.357 31.4579 290.345 30.1318L290.52 30.3065C287.331 30.3392 284.141 30.4083 280.953 30.4115L271.386 30.4518L271.706 30.1325L271.671 38.2176L271.386 37.9321C272.964 37.9437 274.539 37.9373 276.122 37.9673L280.879 38.039L290.52 38.2169Z" fill="#EBEBEB"/>
<path d="M279.846 48.4121L270.353 48.5907L265.544 48.6624C263.937 48.6925 262.323 48.6861 260.712 48.6976L260.428 48.6995L260.427 48.4121L260.392 40.327L260.391 40.0057L260.712 40.007L270.279 40.0473C273.468 40.0505 276.657 40.119 279.846 40.1523L280.022 40.1542L280.02 40.327C280.008 41.696 279.965 43.0585 279.937 44.407L279.846 48.4121ZM279.846 48.4121L279.756 44.3321C279.727 42.9862 279.684 41.6531 279.672 40.327L279.846 40.5017C276.657 40.5344 273.469 40.6035 270.28 40.6067L260.713 40.647L261.032 40.3277L260.998 48.4128L260.712 48.1273C262.291 48.1389 263.866 48.1325 265.448 48.1625L270.205 48.2342L279.846 48.4121Z" fill="#EBEBEB"/>
<path d="M230.843 143L221.35 143.178L216.54 143.25C214.934 143.28 213.32 143.274 211.709 143.285L211.425 143.287L211.423 143L211.389 134.915L211.388 134.593L211.709 134.595L221.276 134.635C224.465 134.638 227.653 134.707 230.842 134.74L231.018 134.742L231.017 134.915C231.005 136.284 230.962 137.646 230.933 138.995L230.843 143ZM230.843 143L230.752 138.92C230.723 137.573 230.68 136.241 230.668 134.915L230.843 135.089C227.654 135.122 224.465 135.191 221.276 135.194L211.709 135.235L212.029 134.915L211.994 143L211.709 142.715C213.287 142.726 214.862 142.721 216.445 142.751L221.202 142.822L230.843 143Z" fill="#EBEBEB"/>
<path d="M220.169 153.195L210.676 153.373L205.866 153.445C204.26 153.475 202.646 153.469 201.035 153.48L200.751 153.482L200.749 153.195L200.715 145.11L200.714 144.788L201.035 144.79L210.602 144.83C213.791 144.833 216.979 144.902 220.168 144.935L220.344 144.937L220.343 145.11C220.331 146.479 220.288 147.841 220.259 149.19L220.169 153.195ZM220.169 153.195L220.078 149.115C220.049 147.769 220.006 146.436 219.994 145.11L220.169 145.284C216.98 145.317 213.791 145.386 210.602 145.389L201.035 145.43L201.355 145.11L201.32 153.195L201.035 152.91C202.613 152.922 204.188 152.915 205.771 152.945L210.528 153.017L220.169 153.195Z" fill="#EBEBEB"/>
<path d="M209.538 143L200.045 143.178L195.235 143.25C193.629 143.28 192.015 143.274 190.404 143.285L190.12 143.287L190.118 143L190.084 134.915L190.083 134.593L190.404 134.595L199.971 134.635C203.16 134.638 206.348 134.707 209.537 134.74L209.713 134.742L209.712 134.915C209.7 136.284 209.657 137.646 209.628 138.995L209.538 143ZM209.538 143L209.447 138.92C209.418 137.573 209.375 136.241 209.363 134.915L209.538 135.089C206.349 135.122 203.16 135.191 199.971 135.194L190.404 135.235L190.724 134.915L190.689 143L190.404 142.715C191.982 142.726 193.557 142.721 195.14 142.751L199.897 142.822L209.538 143Z" fill="#EBEBEB"/>
<path d="M290.52 213.168L281.027 213.347L276.217 213.418C274.611 213.448 272.997 213.443 271.386 213.453L271.101 213.455L271.1 213.168L271.066 205.083L271.064 204.762L271.386 204.763L280.952 204.803C284.141 204.806 287.331 204.875 290.519 204.908L290.695 204.91L290.694 205.083C290.682 206.452 290.639 207.814 290.61 209.163L290.52 213.168ZM290.52 213.168L290.429 209.088C290.4 207.741 290.357 206.409 290.345 205.083L290.52 205.258C287.331 205.29 284.142 205.359 280.953 205.363L271.386 205.403L271.706 205.084L271.671 213.169L271.386 212.883C272.964 212.895 274.539 212.888 276.122 212.918L280.879 212.99L290.52 213.168Z" fill="#EBEBEB"/>
<path d="M127.953 62.2598L118.46 62.4383L113.65 62.51C112.044 62.5401 110.429 62.5337 108.819 62.5452L108.534 62.5472L108.533 62.2598L108.499 54.1747L108.497 53.8534L108.819 53.8547L118.385 53.895C121.574 53.8982 124.763 53.9667 127.952 54L128.128 54.0019L128.127 54.1747C128.115 55.5436 128.072 56.9062 128.043 58.2547L127.953 62.2598ZM127.953 62.2598L127.862 58.1798C127.833 56.8339 127.79 55.5008 127.778 54.1747L127.953 54.3494C124.763 54.382 121.575 54.4512 118.386 54.4544L108.819 54.4947L109.139 54.1753L109.104 62.2604L108.819 61.975C110.397 61.9865 111.972 61.9801 113.555 62.0102L118.312 62.0819L127.953 62.2598Z" fill="#EBEBEB"/>
<path d="M270.864 115.821L274.632 109.747L272.771 108.595C272.224 108.256 271.928 107.638 271.983 106.996C272.013 106.642 272.024 106.285 272.017 105.928C272.003 105.286 272.338 104.689 272.904 104.385L274.832 103.351L271.453 97.0502L269.525 98.0844C268.959 98.3878 268.276 98.3366 267.75 97.9699C267.456 97.7657 267.153 97.5775 266.841 97.4067C266.276 97.0975 265.925 96.5081 265.946 95.8655L266.015 93.678L258.87 93.4559L258.804 95.6511C258.785 96.295 258.39 96.855 257.808 97.1302C257.65 97.2051 257.493 97.2838 257.338 97.367C257.183 97.4502 257.03 97.5372 256.881 97.6275C256.333 97.959 255.651 97.9782 255.107 97.6409L253.233 96.4799L249.465 102.554L251.329 103.711C251.875 104.05 252.171 104.669 252.116 105.311C252.085 105.663 252.074 106.019 252.081 106.375C252.094 107.016 251.759 107.613 251.194 107.915L249.265 108.95L252.644 115.25L254.573 114.216C255.138 113.913 255.82 113.964 256.347 114.33C256.639 114.532 256.942 114.719 257.253 114.889C257.818 115.197 258.17 115.787 258.15 116.43L258.083 118.623L265.227 118.845L265.296 116.651C265.316 116.01 265.709 115.452 266.289 115.178C266.448 115.103 266.606 115.023 266.763 114.939C266.918 114.856 267.071 114.769 267.22 114.678C267.772 114.346 268.456 114.326 269.004 114.666L270.864 115.821ZM264.815 111.311C261.966 112.839 258.42 111.768 256.892 108.919C255.364 106.07 256.431 102.519 259.281 100.991C262.131 99.4623 265.684 100.535 267.212 103.384C268.74 106.234 267.665 109.783 264.815 111.311Z" fill="#454545"/>
<path d="M64.9792 184.646L68.7469 178.572L66.8864 177.419C66.3392 177.08 66.0429 176.462 66.0979 175.821C66.1286 175.466 66.1395 175.11 66.1318 174.752C66.1177 174.11 66.4531 173.513 67.0189 173.21L68.9472 172.175L65.568 165.875L63.6403 166.909C63.0745 167.212 62.3917 167.161 61.8649 166.794C61.5712 166.59 61.2678 166.402 60.9561 166.231C60.3917 165.922 60.0403 165.332 60.0608 164.69L60.1299 162.502L52.9856 162.28L52.9197 164.475C52.9005 165.119 52.5056 165.679 51.9232 165.955C51.7651 166.029 51.6083 166.108 51.4534 166.191C51.2979 166.275 51.1456 166.362 50.9965 166.452C50.448 166.783 49.7664 166.803 49.2217 166.465L47.3478 165.304L43.5801 171.379L45.4438 172.535C45.9904 172.875 46.2867 173.494 46.231 174.135C46.2003 174.488 46.1888 174.843 46.1958 175.199C46.2093 175.84 45.8739 176.437 45.3088 176.74L43.3798 177.774L46.759 184.075L48.688 183.041C49.2531 182.737 49.9353 182.788 50.4621 183.154C50.7545 183.357 51.0573 183.544 51.3683 183.713C51.9334 184.022 52.2854 184.611 52.2656 185.254L52.1984 187.447L59.3427 187.669L59.4112 185.476C59.431 184.835 59.8246 184.276 60.4045 184.003C60.5632 183.928 60.7213 183.848 60.8781 183.764C61.0336 183.681 61.1859 183.594 61.3357 183.503C61.8873 183.171 62.5715 183.151 63.1193 183.491L64.9792 184.646ZM58.9299 180.136C56.0806 181.664 52.535 180.593 51.0067 177.744C49.4784 174.895 50.5459 171.344 53.3958 169.816C56.2451 168.287 59.7984 169.36 61.3267 172.209C62.855 175.059 61.7792 178.607 58.9299 180.136Z" fill="#454545"/>
<path d="M138.155 68.3123L135.653 63.975L134.326 64.7417C133.935 64.9677 133.455 64.9459 133.078 64.6995C132.869 64.5632 132.653 64.4384 132.429 64.3245C132.029 64.1209 131.771 63.7158 131.771 63.2665V61.7344H126.762V63.2672C126.762 63.7165 126.504 64.1216 126.104 64.3251C125.88 64.4384 125.664 64.5638 125.455 64.7001C125.078 64.9459 124.598 64.9683 124.207 64.7424L122.88 63.9757L120.378 68.3129L121.711 69.0803C122.102 69.3056 122.317 69.7344 122.294 70.1849C122.287 70.3072 122.284 70.4301 122.284 70.5536C122.284 70.6771 122.287 70.8 122.294 70.9222C122.317 71.3709 122.103 71.7977 121.715 72.0224L120.378 72.7949L122.88 77.1321L124.211 76.3648C124.602 76.1395 125.082 76.1619 125.46 76.4083C125.668 76.544 125.883 76.6688 126.106 76.7821C126.506 76.9862 126.763 77.3907 126.763 77.84V79.3734H131.771V77.84C131.771 77.3907 132.029 76.9862 132.429 76.7821C132.651 76.6688 132.867 76.544 133.074 76.4083C133.451 76.1619 133.932 76.1395 134.323 76.3648L135.654 77.1321L138.156 72.7949L136.825 72.0269C136.435 71.8022 136.221 71.3747 136.244 70.9254C136.25 70.8025 136.253 70.679 136.253 70.5542C136.253 70.4307 136.25 70.3078 136.244 70.1856C136.221 69.735 136.436 69.3056 136.827 69.0803L138.155 68.3123ZM133.368 70.5536C133.368 72.8185 131.533 74.6534 129.268 74.6534C127.003 74.6534 125.165 72.8185 125.165 70.5536C125.165 68.2886 127.003 66.4499 129.268 66.4499C131.533 66.4499 133.368 68.2886 133.368 70.5536Z" fill="#454545"/>
<path d="M56.8543 194.458C48.4902 202.646 47.0867 215.313 48.8492 226.409C48.8947 226.66 49.2844 226.592 49.2844 226.356C49.2844 223.83 49.2083 221.327 49.2159 218.831C49.2614 218.717 49.2998 218.61 49.3459 218.495C51.5283 216.908 53.5353 215.115 54.7795 212.657C56.1759 209.91 56.7251 206.812 57.7939 203.942C57.8931 203.668 57.5999 203.748 57.4086 203.89C52.3212 207.642 50.6995 211.68 49.2396 217.076C49.3081 214.275 49.5219 211.475 50.1247 208.674C51.2236 203.553 53.3983 198.479 57.0771 194.678C57.2134 194.534 56.9996 194.312 56.8543 194.458Z" fill="#263238"/>
<path d="M58.4262 195.412C59.8649 195.46 60.7673 197.76 61.8886 198.431C62.4819 198.788 63.0598 198.767 63.4764 198.182C64.5875 196.631 63.063 194.717 61.6294 193.647C62.6547 194.069 63.5052 194.81 64.6105 195.019C65.28 195.142 65.8003 194.894 65.9564 194.214C66.4435 192.099 63.7913 191.158 61.9718 191.114C62.8537 190.501 65.3824 188.834 64.039 188.014C62.6777 187.191 59.7107 189.575 58.743 190.36C57.3209 191.514 55.6243 193.238 55.5603 195.043C55.4771 197.151 57.319 195.854 58.4262 195.412Z" fill="#7B49BA"/>
<path opacity="0.1" d="M58.4262 195.412C59.8649 195.46 60.7673 197.76 61.8886 198.431C62.4819 198.788 63.0598 198.767 63.4764 198.182C64.5875 196.631 63.063 194.717 61.6294 193.647C62.6547 194.069 63.5052 194.81 64.6105 195.019C65.28 195.142 65.8003 194.894 65.9564 194.214C66.4435 192.099 63.7913 191.158 61.9718 191.114C62.8537 190.501 65.3824 188.834 64.039 188.014C62.6777 187.191 59.7107 189.575 58.743 190.36C57.3209 191.514 55.6243 193.238 55.5603 195.043C55.4771 197.151 57.319 195.854 58.4262 195.412Z" fill="black"/>
<path d="M58.0102 195.767C59.8502 194.931 63.3836 196.134 63.6844 195.438C64.2937 194.021 61.4694 193.048 59.9449 192.86C61.3491 192.48 64.039 191.874 63.9564 190.52C63.8553 188.867 59.8304 190.288 57.7932 191.85C55.2268 193.818 55.2435 195.717 55.6678 196.097C56.2496 196.62 57.7062 195.905 58.0102 195.767Z" fill="#7B49BA"/>
<path d="M37.8067 193.647C46.4755 201.511 48.3609 214.116 47.0214 225.271C46.9855 225.525 46.5939 225.471 46.5849 225.235C46.4889 222.71 46.4697 220.206 46.3673 217.713C46.3174 217.601 46.2751 217.496 46.2246 217.382C43.9833 215.879 41.9097 214.164 40.5734 211.756C39.0732 209.064 38.4063 205.989 37.23 203.162C37.1206 202.891 37.4163 202.96 37.6134 203.094C42.8396 206.65 44.6143 210.624 46.2783 215.96C46.103 213.164 45.783 210.373 45.0745 207.597C43.7817 202.522 41.4156 197.534 37.5955 193.877C37.4515 193.737 37.6563 193.507 37.8067 193.647Z" fill="#263238"/>
<path d="M36.2726 194.66C34.8364 194.764 34.023 197.096 32.928 197.809C32.3488 198.189 31.7709 198.189 31.3318 197.62C30.1625 196.113 31.6128 194.143 33.0048 193.019C31.9961 193.479 31.1744 194.251 30.0781 194.504C29.4137 194.651 28.8845 194.424 28.7021 193.75C28.135 191.655 30.7494 190.614 32.5657 190.501C31.6608 189.922 29.0707 188.352 30.3821 187.482C31.7107 186.607 34.7667 188.876 35.7632 189.624C37.2281 190.723 38.9888 192.382 39.1219 194.183C39.2851 196.285 37.3958 195.06 36.2726 194.66Z" fill="#7B49BA"/>
<path opacity="0.1" d="M36.2726 194.66C34.8364 194.764 34.023 197.096 32.928 197.809C32.3488 198.189 31.7709 198.189 31.3318 197.62C30.1625 196.113 31.6128 194.143 33.0048 193.019C31.9961 193.479 31.1744 194.251 30.0781 194.504C29.4137 194.651 28.8845 194.424 28.7021 193.75C28.135 191.655 30.7494 190.614 32.5657 190.501C31.6608 189.922 29.0707 188.352 30.3821 187.482C31.7107 186.607 34.7667 188.876 35.7632 189.624C37.2281 190.723 38.9888 192.382 39.1219 194.183C39.2851 196.285 37.3958 195.06 36.2726 194.66Z" fill="black"/>
<path d="M36.7021 194.999C34.832 194.233 31.3459 195.571 31.0195 194.886C30.3571 193.493 33.1418 192.415 34.6579 192.168C33.2403 191.842 30.5293 191.339 30.5606 189.983C30.5984 188.327 34.6746 189.594 36.7699 191.078C39.4093 192.947 39.465 194.845 39.0554 195.241C38.4934 195.784 37.0106 195.126 36.7021 194.999Z" fill="#7B49BA"/>
<path d="M46.672 214.417C47.312 218.561 48.1056 222.847 49.3638 226.851C49.4841 227.216 50.0256 227.123 49.9699 226.729C49.4003 222.897 48.3622 219.136 47.7932 215.304C47.2147 211.427 46.9056 207.496 47.1276 203.575C47.4924 197.118 49.246 190.25 53.4598 185.197C53.5526 185.077 53.3561 184.907 53.2608 185.019C44.8249 194.854 46.167 206.914 46.1747 207.995C44.9804 203.922 43.7497 199.256 39.2326 195.109C39.038 194.93 38.8857 195.015 38.9184 195.319C39.726 202.872 41.8259 206.815 46.2048 210.852C46.3276 212.049 46.4819 213.24 46.672 214.417Z" fill="#263238"/>
<path d="M53.5347 186.328C55.0521 185.654 57.1455 187.586 58.647 187.718C59.4419 187.789 60.0307 187.476 60.1689 186.66C60.5414 184.491 57.9961 183.274 55.9699 182.884C57.246 182.806 58.5011 183.146 59.7535 182.808C60.51 182.598 60.9247 182.079 60.7449 181.294C60.1855 178.854 56.9606 179.213 55.0502 180.084C55.6569 179.003 57.4406 176.001 55.6345 175.827C53.8079 175.658 51.9295 179.624 51.3203 180.926C50.4255 182.84 49.5334 185.482 50.3756 187.387C51.3503 189.616 52.6086 187.343 53.5347 186.328Z" fill="#7B49BA"/>
<path opacity="0.1" d="M53.5347 186.328C55.0521 185.654 57.1455 187.586 58.647 187.718C59.4419 187.789 60.0307 187.476 60.1689 186.66C60.5414 184.491 57.9961 183.274 55.9699 182.884C57.246 182.806 58.5011 183.146 59.7535 182.808C60.51 182.598 60.9247 182.079 60.7449 181.294C60.1855 178.854 56.9606 179.213 55.0502 180.084C55.6569 179.003 57.4406 176.001 55.6345 175.827C53.8079 175.658 51.9295 179.624 51.3203 180.926C50.4255 182.84 49.5334 185.482 50.3756 187.387C51.3503 189.616 52.6086 187.343 53.5347 186.328Z" fill="black"/>
<path d="M53.2812 186.906C54.7692 185.112 59.0418 184.582 59.0028 183.708C58.9215 181.932 55.502 182.344 53.8252 182.916C55.0905 181.814 57.5762 179.832 56.8089 178.468C55.8719 176.804 52.4114 180.305 51.0841 182.952C49.4118 186.285 50.3846 188.247 51.0169 188.428C51.8841 188.676 53.0361 187.202 53.2812 186.906Z" fill="#7B49BA"/>
<path d="M41.1219 216.69L37.4016 245.116H60.0409C59.5744 242.597 55.3606 216.657 55.3606 216.657L41.1219 216.69Z" fill="#7B49BA"/>
<path d="M27.7593 245.212L60.8192 245.056L93.8797 245L160 244.892L226.12 244.999L259.18 245.055L292.241 245.212L259.18 245.368L226.12 245.425L160 245.531L93.8797 245.424L60.8192 245.367L27.7593 245.212Z" fill="#263238"/>
<path d="M160 300.874C212.686 300.874 255.396 294.835 255.396 287.386C255.396 279.936 212.686 273.898 160 273.898C107.314 273.898 64.6035 279.936 64.6035 287.386C64.6035 294.835 107.314 300.874 160 300.874Z" fill="#454545"/>
<path d="M100.847 145.71L96.873 130.075L65.4887 138.051L61.3408 121.731L86.4211 64.5715L98.8608 61.4099L110.956 109L120.998 106.447L125.175 122.881L115.132 125.434L119.106 141.069L100.847 145.71ZM79.344 117.034L94.8653 113.09L89.7312 92.8896L79.344 117.034Z" fill="#263238"/>
<path d="M190.733 93.5155C190.733 98.6969 189.948 103.466 188.378 107.823C186.807 112.18 184.648 115.947 181.901 119.127C179.152 122.307 175.914 124.779 172.187 126.545C168.457 128.312 164.394 129.195 159.999 129.195C155.601 129.195 151.521 128.312 147.752 126.545C143.984 124.779 140.726 122.306 137.979 119.127C135.23 115.947 133.092 112.18 131.562 107.823C130.031 103.466 129.265 98.6969 129.265 93.5155C129.265 88.3347 130.031 83.5654 131.562 79.2089C133.093 74.8518 135.23 71.0841 137.979 67.9046C140.726 64.7251 143.984 62.2342 147.752 60.4275C151.521 58.6227 155.601 57.719 159.999 57.719C164.394 57.719 168.456 58.6227 172.187 60.4275C175.914 62.2342 179.152 64.7251 181.901 67.9046C184.648 71.0841 186.807 74.8518 188.378 79.2089C189.948 83.5654 190.733 88.3347 190.733 93.5155ZM171.775 93.5155C171.775 88.0217 170.675 83.5654 168.477 80.1504C166.278 76.736 163.453 75.0284 159.999 75.0284C156.388 75.0284 153.503 76.736 151.345 80.1504C149.185 83.5654 148.106 88.0217 148.106 93.5155C148.106 99.0112 149.185 103.448 151.345 106.822C153.503 110.198 156.388 111.885 159.999 111.885C163.453 111.885 166.278 110.198 168.477 106.822C170.675 103.448 171.775 99.0112 171.775 93.5155Z" fill="#263238"/>
<path d="M224.54 142.697L227.119 126.772L195.155 121.594L197.848 104.971L243.613 62.5234L256.283 64.5759L248.43 113.047L258.659 114.704L255.948 131.442L245.718 129.786L243.139 145.71L224.54 142.697ZM216.232 107.831L232.04 110.392L235.373 89.8182L216.232 107.831Z" fill="#263238"/>
<path d="M133.552 46.375C132.207 46.375 130.988 46.112 129.894 45.5865C128.799 45.0611 127.86 44.3629 127.076 43.4925C126.291 42.6227 125.684 41.6269 125.253 40.5069C124.822 39.3869 124.607 38.2406 124.607 37.0681C124.607 35.8445 124.835 34.6726 125.292 33.552C125.748 32.432 126.378 31.4406 127.179 30.5785C127.98 29.7165 128.933 29.0317 130.036 28.5229C131.139 28.0147 132.337 27.7606 133.629 27.7606C134.957 27.7606 136.167 28.032 137.262 28.5747C138.357 29.1174 139.292 29.8285 140.067 30.7078C140.843 31.5872 141.446 32.5869 141.877 33.7069C142.308 34.8275 142.524 35.9648 142.524 37.12C142.524 38.3443 142.299 39.511 141.852 40.6233C141.403 41.735 140.783 42.7174 139.99 43.5705C139.197 44.4237 138.249 45.1046 137.146 45.6128C136.042 46.1209 134.845 46.375 133.552 46.375ZM128.226 37.0675C128.226 37.8605 128.346 38.6278 128.588 39.3683C128.829 40.1094 129.178 40.7648 129.635 41.3331C130.091 41.9021 130.652 42.3584 131.315 42.7033C131.978 43.0483 132.733 43.2205 133.578 43.2205C134.439 43.2205 135.202 43.0438 135.866 42.6905C136.529 42.3379 137.089 41.8675 137.546 41.2813C138.003 40.6957 138.348 40.0365 138.581 39.3037C138.813 38.5709 138.929 37.8259 138.929 37.0669C138.929 36.2745 138.804 35.5072 138.554 34.7661C138.304 34.0249 137.951 33.3702 137.494 32.8013C137.037 32.2323 136.477 31.7805 135.814 31.4438C135.151 31.1078 134.405 30.9395 133.578 30.9395C132.716 30.9395 131.949 31.1161 131.277 31.4694C130.605 31.8227 130.045 32.288 129.597 32.8653C129.148 33.4432 128.808 34.0979 128.575 34.8301C128.342 35.5641 128.226 36.3091 128.226 37.0675Z" fill="#263238"/>
<path d="M151.185 46.5043C150.081 46.5043 149.091 46.3148 148.212 45.9353C147.333 45.5564 146.587 45.0431 145.975 44.3974C145.363 43.751 144.893 43.0054 144.566 42.1606C144.238 41.3164 144.074 40.4281 144.074 39.4975C144.074 38.5497 144.238 37.6537 144.566 36.8089C144.893 35.9647 145.363 35.2191 145.975 34.5727C146.587 33.9263 147.333 33.4137 148.212 33.0342C149.091 32.6553 150.081 32.4652 151.185 32.4652C152.287 32.4652 153.274 32.6553 154.145 33.0342C155.015 33.4137 155.757 33.9263 156.369 34.5727C156.981 35.2191 157.45 35.9647 157.778 36.8089C158.105 37.6537 158.269 38.5497 158.269 39.4975C158.269 40.4281 158.105 41.3164 157.778 42.1606C157.45 43.0054 156.985 43.7503 156.382 44.3974C155.779 45.0438 155.037 45.5571 154.159 45.9353C153.279 46.3142 152.287 46.5043 151.185 46.5043ZM147.642 39.4975C147.642 40.101 147.733 40.6482 147.914 41.1391C148.095 41.6306 148.344 42.0569 148.663 42.4191C148.982 42.7807 149.357 43.0611 149.788 43.2595C150.218 43.4579 150.684 43.557 151.184 43.557C151.684 43.557 152.149 43.4579 152.58 43.2595C153.011 43.0617 153.386 42.7814 153.704 42.4191C154.023 42.0569 154.273 41.6262 154.454 41.1263C154.635 40.6265 154.725 40.0754 154.725 39.4719C154.725 38.8863 154.634 38.3436 154.454 37.8431C154.273 37.3433 154.023 36.9126 153.704 36.5503C153.385 36.1881 153.01 35.9084 152.58 35.71C152.149 35.5116 151.684 35.4124 151.184 35.4124C150.684 35.4124 150.218 35.5161 149.788 35.7228C149.357 35.9295 148.982 36.2143 148.663 36.5759C148.344 36.9382 148.094 37.3689 147.914 37.8687C147.733 38.3692 147.642 38.9119 147.642 39.4975Z" fill="#263238"/>
<path d="M168.712 46.5043C167.644 46.5043 166.713 46.2675 165.921 45.7932C165.128 45.3196 164.507 44.6777 164.059 43.8674V51.7529H160.595V32.6982H163.619V35.0246C164.119 34.2323 164.765 33.607 165.558 33.15C166.351 32.6937 167.265 32.4652 168.298 32.4652C169.212 32.4652 170.056 32.6508 170.832 33.0214C171.608 33.3919 172.276 33.8918 172.836 34.5209C173.396 35.15 173.836 35.8911 174.155 36.7442C174.474 37.5974 174.633 38.4985 174.633 39.4463C174.633 40.4287 174.486 41.351 174.193 42.2124C173.9 43.0745 173.491 43.8246 172.965 44.462C172.439 45.1001 171.814 45.5993 171.091 45.9615C170.367 46.3231 169.574 46.5043 168.712 46.5043ZM167.549 43.557C168.067 43.557 168.545 43.445 168.984 43.221C169.423 42.997 169.798 42.6956 170.109 42.3161C170.419 41.9372 170.66 41.4975 170.833 40.997C171.005 40.4972 171.091 39.9807 171.091 39.4463C171.091 38.8774 170.997 38.3475 170.807 37.8566C170.617 37.3651 170.355 36.9388 170.019 36.5766C169.683 36.215 169.286 35.9302 168.829 35.7234C168.373 35.5167 167.877 35.413 167.343 35.413C167.016 35.413 166.68 35.4694 166.335 35.5814C165.99 35.6934 165.672 35.8527 165.379 36.0601C165.085 36.2668 164.823 36.5087 164.59 36.7839C164.358 37.0598 164.181 37.3618 164.06 37.6889V40.8691C164.371 41.6447 164.845 42.2866 165.482 42.7948C166.118 43.303 166.808 43.557 167.549 43.557Z" fill="#263238"/>
<path d="M182.105 46.5042C180.968 46.5042 179.855 46.3231 178.77 45.9615C177.684 45.5999 176.753 45.0822 175.978 44.4102L177.27 42.2386C178.098 42.8249 178.904 43.2684 179.688 43.5698C180.472 43.8719 181.252 44.0223 182.028 44.0223C182.716 44.0223 183.26 43.893 183.656 43.6345C184.053 43.3759 184.251 43.0054 184.251 42.5228C184.251 42.0402 184.019 41.687 183.553 41.463C183.087 41.239 182.329 40.9804 181.277 40.6873C180.399 40.446 179.649 40.213 179.028 39.989C178.407 39.765 177.907 39.511 177.528 39.2262C177.149 38.942 176.874 38.6143 176.701 38.2438C176.528 37.8732 176.443 37.429 176.443 36.9119C176.443 36.2226 176.576 35.6025 176.844 35.0502C177.11 34.4991 177.485 34.0287 177.968 33.6409C178.451 33.253 179.016 32.9561 179.661 32.7494C180.308 32.5426 181.009 32.439 181.768 32.439C182.785 32.439 183.737 32.5855 184.625 32.8786C185.513 33.1718 186.327 33.6454 187.068 34.3007L185.672 36.3948C184.982 35.8777 184.315 35.4988 183.668 35.2575C183.021 35.0162 182.38 34.8959 181.742 34.8959C181.156 34.8959 180.664 35.0169 180.268 35.2575C179.871 35.4988 179.673 35.8866 179.673 36.421C179.673 36.6623 179.72 36.8607 179.816 37.0156C179.91 37.1705 180.061 37.3087 180.268 37.429C180.475 37.55 180.746 37.6665 181.082 37.7778C181.418 37.8905 181.836 38.0063 182.336 38.1266C183.267 38.3679 184.063 38.6092 184.727 38.8505C185.391 39.0918 185.933 39.3676 186.356 39.6774C186.778 39.9878 187.089 40.3455 187.287 40.75C187.485 41.1551 187.584 41.6422 187.584 42.2111C187.584 43.5385 187.093 44.5855 186.11 45.3522C185.13 46.1209 183.794 46.5042 182.105 46.5042Z" fill="#263238"/>
<path d="M190.507 39.3427V27.7081H193.971V39.3427H190.507ZM190.507 46.2457V42.3417H193.971V46.2457H190.507Z" fill="#263238"/>
<path d="M173.185 200.861H150.457V202.723H173.185V200.861Z" fill="#37474F"/>
<path d="M173.185 203.286H150.457V205.148H173.185V203.286Z" fill="#37474F"/>
<path d="M173.185 205.711H150.457V207.573H173.185V205.711Z" fill="#37474F"/>
<path d="M173.185 208.136H150.457V209.998H173.185V208.136Z" fill="#37474F"/>
<path d="M173.185 210.561H150.457V212.423H173.185V210.561Z" fill="#37474F"/>
<path d="M183.023 258.94H139.813V260.802H183.023V258.94Z" fill="#37474F"/>
<path d="M183.023 261.365H139.813V263.227H183.023V261.365Z" fill="#37474F"/>
<path d="M183.023 263.79H139.813V265.652H183.023V263.79Z" fill="#37474F"/>
<path d="M183.023 266.215H139.813V268.077H183.023V266.215Z" fill="#37474F"/>
<path d="M183.023 268.641H139.813V270.502H183.023V268.641Z" fill="#37474F"/>
<path d="M120.854 185.471C120.875 185.219 111.396 182.044 111.396 182.044L111.956 149.477L124.525 146.78L120.854 185.471Z" fill="#6D67E4"/>
<path opacity="0.2" d="M120.854 185.471C120.875 185.219 111.396 182.044 111.396 182.044L111.956 149.477L124.525 146.78L120.854 185.471Z" fill="black"/>
<path d="M207.673 198.254C207.74 198.01 217.732 198.291 217.732 198.291L228.414 167.521L217.541 160.663L207.673 198.254Z" fill="#6D67E4"/>
<path opacity="0.2" d="M207.673 198.254C207.74 198.01 217.732 198.291 217.732 198.291L228.414 167.521L217.541 160.663L207.673 198.254Z" fill="black"/>
<path d="M119.029 197.463C119.029 197.463 122.543 144.792 125.626 127.466C125.626 127.466 189.252 132.278 223.601 145.406C223.601 145.406 205.892 206.928 204.976 209.981C204.976 209.981 160.171 201.155 119.029 197.463Z" fill="#6D67E4"/>
<path opacity="0.1" d="M175.822 134.499C174.788 140.841 173.741 147.181 172.657 153.514L169.378 172.509L169.201 172.241L190.52 177.305L201.169 179.885L211.805 182.517L201.112 180.124L190.432 177.681L169.094 172.696L168.878 172.646L168.917 172.427L172.312 153.453C173.453 147.13 174.632 140.813 175.822 134.499Z" fill="black"/>
<path opacity="0.1" d="M173.483 138.114C173.494 138.695 173.031 139.292 172.365 139.35C172.043 139.381 171.692 139.278 171.43 139.05C171.167 138.821 171.011 138.469 171.009 138.114C171.011 137.759 171.166 137.406 171.429 137.178C171.691 136.947 172.043 136.846 172.365 136.876C173.032 136.934 173.494 137.533 173.483 138.114ZM173.483 138.114C173.48 137.821 173.35 137.533 173.132 137.348C172.913 137.163 172.627 137.087 172.366 137.117C171.829 137.18 171.481 137.661 171.489 138.114C171.48 138.566 171.828 139.051 172.366 139.112C172.627 139.141 172.914 139.066 173.133 138.881C173.35 138.695 173.48 138.407 173.483 138.114Z" fill="black"/>
<path opacity="0.1" d="M172.365 145.951C172.377 146.532 171.914 147.13 171.248 147.187C170.925 147.218 170.575 147.115 170.312 146.886C170.05 146.658 169.893 146.306 169.891 145.951C169.893 145.596 170.049 145.243 170.312 145.014C170.573 144.784 170.925 144.683 171.248 144.713C171.915 144.772 172.378 145.37 172.365 145.951ZM172.365 145.951C172.363 145.658 172.233 145.37 172.015 145.185C171.796 145 171.509 144.924 171.249 144.954C170.712 145.016 170.364 145.498 170.371 145.951C170.363 146.403 170.71 146.888 171.249 146.948C171.509 146.978 171.796 146.902 172.015 146.717C172.234 146.532 172.363 146.244 172.365 145.951Z" fill="black"/>
<path opacity="0.1" d="M170.989 154.232C171.001 154.813 170.538 155.41 169.872 155.468C169.549 155.499 169.199 155.396 168.936 155.167C168.674 154.939 168.517 154.587 168.515 154.232C168.517 153.876 168.673 153.524 168.936 153.295C169.197 153.065 169.549 152.964 169.872 152.994C170.539 153.053 171.002 153.65 170.989 154.232ZM170.989 154.232C170.987 153.938 170.857 153.65 170.639 153.466C170.42 153.281 170.133 153.205 169.873 153.235C169.336 153.297 168.988 153.779 168.995 154.232C168.987 154.684 169.334 155.169 169.873 155.229C170.133 155.259 170.42 155.183 170.639 154.998C170.857 154.813 170.987 154.525 170.989 154.232Z" fill="black"/>
<path opacity="0.1" d="M169.613 162.513C169.626 163.094 169.162 163.691 168.496 163.749C168.173 163.779 167.823 163.677 167.56 163.448C167.298 163.22 167.141 162.868 167.139 162.513C167.141 162.157 167.297 161.805 167.56 161.576C167.821 161.346 168.173 161.245 168.496 161.275C169.163 161.333 169.626 161.931 169.613 162.513ZM169.613 162.513C169.611 162.219 169.481 161.931 169.262 161.747C169.043 161.562 168.756 161.486 168.496 161.516C167.959 161.578 167.611 162.06 167.619 162.513C167.61 162.965 167.958 163.45 168.496 163.51C168.756 163.54 169.044 163.464 169.263 163.279C169.481 163.094 169.611 162.806 169.613 162.513Z" fill="black"/>
<path opacity="0.1" d="M174.302 175.719C174.314 176.3 173.85 176.897 173.185 176.955C172.862 176.986 172.511 176.883 172.249 176.655C171.987 176.426 171.83 176.074 171.828 175.719C171.829 175.364 171.985 175.011 172.248 174.783C172.51 174.552 172.862 174.451 173.185 174.481C173.851 174.539 174.314 175.138 174.302 175.719ZM174.302 175.719C174.3 175.426 174.17 175.138 173.951 174.953C173.732 174.768 173.445 174.692 173.185 174.723C172.648 174.785 172.3 175.267 172.307 175.719C172.299 176.171 172.646 176.656 173.185 176.717C173.445 176.747 173.733 176.671 173.951 176.485C174.17 176.3 174.299 176.012 174.302 175.719Z" fill="black"/>
<path opacity="0.1" d="M182.118 177.626C182.131 178.207 181.667 178.804 181.001 178.862C180.678 178.892 180.328 178.79 180.065 178.561C179.803 178.333 179.646 177.981 179.644 177.626C179.646 177.27 179.802 176.918 180.065 176.689C180.326 176.459 180.678 176.358 181.001 176.388C181.668 176.447 182.131 177.044 182.118 177.626ZM182.118 177.626C182.116 177.332 181.986 177.044 181.768 176.859C181.549 176.674 181.262 176.599 181.002 176.629C180.465 176.691 180.116 177.173 180.124 177.626C180.116 178.078 180.463 178.562 181.002 178.623C181.262 178.653 181.549 178.577 181.768 178.392C181.986 178.207 182.116 177.919 182.118 177.626Z" fill="black"/>
<path opacity="0.1" d="M189.935 179.533C189.947 180.114 189.484 180.711 188.818 180.769C188.495 180.799 188.145 180.697 187.882 180.468C187.62 180.24 187.463 179.888 187.461 179.533C187.463 179.178 187.619 178.825 187.882 178.596C188.143 178.366 188.495 178.265 188.818 178.295C189.484 178.353 189.947 178.952 189.935 179.533ZM189.935 179.533C189.933 179.24 189.803 178.952 189.585 178.767C189.366 178.582 189.079 178.506 188.819 178.536C188.282 178.598 187.933 179.08 187.941 179.533C187.933 179.985 188.28 180.47 188.819 180.53C189.079 180.56 189.366 180.484 189.585 180.299C189.803 180.114 189.932 179.825 189.935 179.533Z" fill="black"/>
<path opacity="0.1" d="M197.752 181.439C197.764 182.02 197.3 182.618 196.634 182.676C196.312 182.706 195.961 182.604 195.699 182.375C195.436 182.147 195.279 181.795 195.277 181.439C195.279 181.084 195.435 180.732 195.698 180.503C195.96 180.273 196.312 180.172 196.634 180.202C197.301 180.26 197.763 180.858 197.752 181.439ZM197.752 181.439C197.749 181.146 197.619 180.858 197.401 180.673C197.182 180.488 196.895 180.413 196.635 180.443C196.098 180.505 195.75 180.987 195.757 181.439C195.749 181.892 196.097 182.376 196.635 182.437C196.895 182.467 197.183 182.391 197.402 182.206C197.619 182.02 197.749 181.732 197.752 181.439Z" fill="black"/>
<path opacity="0.1" d="M205.565 183.432C205.532 184.012 205.024 184.572 204.356 184.578C204.032 184.584 203.69 184.455 203.446 184.207C203.201 183.958 203.072 183.596 203.098 183.241C203.126 182.888 203.309 182.548 203.589 182.34C203.868 182.131 204.227 182.057 204.546 182.112C205.206 182.221 205.621 182.854 205.565 183.432ZM205.565 183.432C205.585 183.139 205.477 182.842 205.274 182.641C205.069 182.439 204.789 182.342 204.527 182.352C203.987 182.372 203.603 182.826 203.576 183.278C203.532 183.729 203.842 184.238 204.374 184.34C204.631 184.39 204.924 184.337 205.156 184.169C205.388 184.001 205.54 183.724 205.565 183.432Z" fill="black"/>
<path opacity="0.1" d="M168.237 170.794C168.249 171.375 167.786 171.972 167.12 172.03C166.797 172.061 166.447 171.958 166.184 171.729C165.922 171.501 165.765 171.149 165.763 170.794C165.765 170.438 165.921 170.086 166.184 169.857C166.445 169.627 166.797 169.525 167.12 169.556C167.787 169.614 168.25 170.212 168.237 170.794ZM168.237 170.794C168.235 170.5 168.105 170.212 167.886 170.027C167.667 169.842 167.38 169.767 167.12 169.797C166.583 169.859 166.235 170.341 166.243 170.794C166.234 171.246 166.582 171.73 167.12 171.791C167.38 171.821 167.668 171.745 167.886 171.56C168.106 171.375 168.235 171.087 168.237 170.794Z" fill="black"/>
<path opacity="0.2" d="M155.074 184.514C162.494 177.843 163.101 166.419 156.429 158.999C149.757 151.579 138.334 150.972 130.914 157.644C123.494 164.316 122.887 175.739 129.559 183.159C136.23 190.579 147.654 191.186 155.074 184.514Z" fill="black"/>
<path d="M156.54 176.209C159.373 168.725 155.602 160.362 148.118 157.529C140.634 154.696 132.27 158.466 129.437 165.95C126.604 173.434 130.375 181.798 137.859 184.631C145.343 187.464 153.707 183.694 156.54 176.209Z" fill="#263238"/>
<path d="M142.12 165.752L138.733 165.203L138.184 168.591L141.572 169.14L142.12 165.752Z" fill="#6D67E4"/>
<path d="M139.281 161.816L135.894 161.268L135.345 164.655L138.733 165.204L139.281 161.816Z" fill="#6D67E4"/>
<path d="M152.831 164.011L149.444 163.462L148.895 166.85L152.282 167.399L152.831 164.011Z" fill="#6D67E4"/>
<path d="M137.099 175.289L133.711 174.74L133.163 178.128L136.55 178.677L137.099 175.289Z" fill="#6D67E4"/>
<path d="M150.648 177.484L147.261 176.935L146.712 180.323L150.1 180.871L150.648 177.484Z" fill="#6D67E4"/>
<path d="M141.035 172.451L137.648 171.902L137.099 175.29L140.486 175.838L141.035 172.451Z" fill="#6D67E4"/>
<path d="M144.965 169.65L141.578 169.101L141.029 172.489L144.417 173.038L144.965 169.65Z" fill="#6D67E4"/>
<path d="M148.895 166.85L145.508 166.301L144.959 169.688L148.347 170.237L148.895 166.85Z" fill="#6D67E4"/>
<path d="M147.814 173.546L144.426 172.997L143.877 176.385L147.265 176.934L147.814 173.546Z" fill="#6D67E4"/>
<path d="M205.458 190.093C211.782 182.375 210.652 170.991 202.934 164.666C195.215 158.342 183.831 159.472 177.507 167.19C171.183 174.909 172.313 186.293 180.031 192.617C187.749 198.942 199.133 197.812 205.458 190.093Z" fill="#6D67E4"/>
<path opacity="0.2" d="M205.458 190.093C211.782 182.375 210.652 170.991 202.934 164.666C195.215 158.342 183.831 159.472 177.507 167.19C171.183 174.909 172.313 186.293 180.031 192.617C187.749 198.942 199.133 197.812 205.458 190.093Z" fill="black"/>
<path opacity="0.2" d="M209.062 182.83C208.979 183.186 208.884 183.53 208.778 183.873L173.56 176.362C173.643 175.733 173.756 175.105 173.903 174.47C176.21 164.765 185.951 158.765 195.663 161.071C205.369 163.377 211.369 173.118 209.062 182.83Z" fill="black"/>
<path d="M197.066 192.023C204.45 188.938 207.935 180.451 204.85 173.066C201.765 165.682 193.278 162.197 185.894 165.282C178.51 168.367 175.025 176.854 178.11 184.238C181.195 191.623 189.682 195.108 197.066 192.023Z" fill="#263238"/>
<path d="M195.13 170.733L191.791 169.94L187.842 186.558L191.181 187.351L195.13 170.733Z" fill="#6D67E4"/>
<path d="M210.111 182.49L173.118 173.699C175.546 163.485 185.796 157.175 196.009 159.602C206.223 162.03 212.538 172.277 210.111 182.49Z" fill="#6D67E4"/>
<path opacity="0.2" d="M210.111 182.49L173.118 173.699C175.546 163.485 185.796 157.175 196.009 159.602C206.223 162.03 212.538 172.277 210.111 182.49Z" fill="black"/>
<path opacity="0.1" d="M160.045 189.39C160.139 187.946 160.669 186.481 161.717 185.322C162.234 184.739 162.923 184.28 163.682 184.001C164.445 183.721 165.269 183.672 166.051 183.738C166.846 183.831 167.658 184.111 168.321 184.613C168.971 185.125 169.47 185.793 169.763 186.511C170.367 187.944 170.433 189.475 170.14 190.894C169.899 189.475 169.533 188.097 168.867 186.966C168.205 185.827 167.16 185.118 165.914 185.008C164.643 184.85 163.402 185.191 162.403 186.035C161.404 186.877 160.641 188.082 160.045 189.39Z" fill="black"/>
<path d="M123.978 152.538C124.128 150.607 124.345 148.686 124.528 146.76C124.733 144.838 124.945 142.916 125.178 140.998C125.4 139.078 125.651 137.162 125.896 135.244C126.137 133.327 126.415 131.414 126.672 129.499L126.741 128.988L127.259 129.02C131.428 129.283 135.588 129.619 139.742 130.047C141.819 130.26 143.893 130.501 145.965 130.767C148.033 131.064 150.104 131.338 152.159 131.715L139.669 130.941L127.19 130.134L127.777 129.656C127.494 131.567 127.23 133.482 126.93 135.391C126.634 137.301 126.343 139.211 126.024 141.117C125.717 143.025 125.388 144.931 125.052 146.835C124.694 148.735 124.369 150.641 123.978 152.538Z" fill="white"/>
<path d="M126.983 167.14C127.402 164.819 128.457 162.608 129.874 160.682C130.227 160.198 130.628 159.75 131.014 159.29C131.432 158.858 131.866 158.441 132.295 158.018C132.763 157.638 133.235 157.261 133.715 156.895C134.225 156.572 134.729 156.235 135.247 155.925C135.793 155.662 136.336 155.392 136.887 155.142L138.604 154.549L140.38 154.182C140.977 154.095 141.583 154.076 142.181 154.031C144.59 153.969 146.961 154.483 149.137 155.365C146.821 154.931 144.513 154.69 142.238 154.907C139.969 155.118 137.763 155.797 135.791 156.908C133.804 157.992 132.044 159.489 130.557 161.227C129.077 162.974 127.852 164.953 126.983 167.14Z" fill="white"/>
<path d="M176.824 172.021C177.56 169.78 178.909 167.736 180.579 166.024C180.995 165.593 181.454 165.205 181.9 164.802C182.373 164.433 182.861 164.079 183.345 163.719C183.861 163.407 184.38 163.099 184.906 162.803C185.456 162.554 186.001 162.289 186.558 162.053C187.135 161.869 187.71 161.676 188.29 161.505L190.072 161.154L191.883 161.036C192.486 161.032 193.088 161.098 193.687 161.135C196.082 161.407 198.358 162.243 200.392 163.416C198.158 162.667 195.906 162.11 193.622 162.011C191.345 161.907 189.068 162.275 186.961 163.103C184.844 163.903 182.893 165.142 181.181 166.658C179.472 168.184 177.985 169.974 176.824 172.021Z" fill="white"/>
<path d="M121.05 229.921C116.422 229.921 106.289 228.881 99.7689 220.497C91.4271 209.772 94.4422 189.192 94.574 188.321L98.1958 188.871C98.1657 189.069 95.2876 208.769 102.66 218.248C109.869 227.516 122.943 226.186 123.074 226.17L123.487 229.809C123.344 229.827 122.447 229.921 121.05 229.921Z" fill="#6D67E4"/>
<path opacity="0.4" d="M121.05 229.921C116.422 229.921 106.289 228.881 99.7689 220.497C91.4271 209.772 94.4422 189.192 94.574 188.321L98.1958 188.871C98.1657 189.069 95.2876 208.769 102.66 218.248C109.869 227.516 122.943 226.186 123.074 226.17L123.487 229.809C123.344 229.827 122.447 229.921 121.05 229.921Z" fill="white"/>
<path d="M99.262 191.363C98.6015 191.363 97.927 191.308 97.2403 191.197C91.1308 190.207 88.4262 186.552 87.2326 183.659C86.0364 180.76 85.7599 177.252 86.4108 173.236L94.1587 174.492C93.7555 176.98 93.8726 179.173 94.4883 180.666C94.9273 181.731 95.7798 183.009 98.4953 183.449C99.7356 183.65 101.076 183.544 102.481 181.426C103.564 179.791 104.216 177.567 104.443 176.157L112.191 177.412C112.012 178.521 111.252 182.399 109.022 185.763C106.596 189.422 103.182 191.363 99.262 191.363Z" fill="#6D67E4"/>
<path d="M128.704 240.405C128.69 240.238 122.14 239.192 122.14 239.192L118.961 217.812L126.895 214.678L128.704 240.405Z" fill="#6D67E4"/>
<path opacity="0.2" d="M128.704 240.405C128.69 240.238 122.14 239.192 122.14 239.192L118.961 217.812L126.895 214.678L128.704 240.405Z" fill="black"/>
<path d="M193.469 240.445C193.487 240.278 200.059 239.377 200.059 239.377L203.71 218.073L195.847 214.764L193.469 240.445Z" fill="#6D67E4"/>
<path opacity="0.2" d="M193.469 240.445C193.487 240.278 200.059 239.377 200.059 239.377L203.71 218.073L195.847 214.764L193.469 240.445Z" fill="black"/>
<path d="M125.978 209.891C125.978 209.891 178.961 207.626 196.859 210.609C196.859 210.609 191.603 261.876 191.319 262.871C191.319 262.871 138.614 262.729 130.376 262.871C130.376 262.871 125.91 228.78 125.978 209.891Z" fill="#6D67E4"/>
<path opacity="0.2" d="M142.072 223.94C142.072 223.94 170.995 222.797 180.766 224.301C180.766 224.301 177.897 250.154 177.742 250.655C177.742 250.655 148.97 250.583 144.473 250.655C144.472 250.655 142.495 232.961 142.072 223.94Z" fill="black"/>
<path opacity="0.2" d="M146.025 250.644C145.363 250.644 144.838 250.652 144.47 250.657C144.47 250.657 142.497 232.96 142.07 223.939C142.07 223.939 142.728 223.913 143.876 223.875L146.025 250.644Z" fill="black"/>
<path d="M154.556 230.319C152.935 229.808 151.208 230.708 150.697 232.328C150.186 233.951 151.087 235.676 152.708 236.187C154.328 236.698 156.053 235.798 156.564 234.177C157.075 232.558 156.176 230.829 154.556 230.319ZM156.207 234.065C155.759 235.489 154.243 236.279 152.82 235.83C151.397 235.382 150.607 233.866 151.056 232.442C151.505 231.019 153.021 230.229 154.445 230.678C155.866 231.126 156.656 232.642 156.207 234.065ZM154.556 230.319C152.935 229.808 151.208 230.708 150.697 232.328C150.186 233.951 151.087 235.676 152.708 236.187C154.328 236.698 156.053 235.798 156.564 234.177C157.075 232.558 156.176 230.829 154.556 230.319ZM156.207 234.065C155.759 235.489 154.243 236.279 152.82 235.83C151.397 235.382 150.607 233.866 151.056 232.442C151.505 231.019 153.021 230.229 154.445 230.678C155.866 231.126 156.656 232.642 156.207 234.065ZM154.556 230.319C152.935 229.808 151.208 230.708 150.697 232.328C150.186 233.951 151.087 235.676 152.708 236.187C154.328 236.698 156.053 235.798 156.564 234.177C157.075 232.558 156.176 230.829 154.556 230.319ZM156.207 234.065C155.759 235.489 154.243 236.279 152.82 235.83C151.397 235.382 150.607 233.866 151.056 232.442C151.505 231.019 153.021 230.229 154.445 230.678C155.866 231.126 156.656 232.642 156.207 234.065ZM155.581 227.069C152.163 225.992 148.523 227.891 147.446 231.304C146.371 234.719 148.266 238.362 151.683 239.437C155.096 240.513 158.739 238.616 159.814 235.201C160.891 231.788 158.995 228.144 155.581 227.069ZM157.021 234.321C156.432 236.191 154.433 237.233 152.564 236.644C150.695 236.055 149.653 234.056 150.242 232.185C150.831 230.314 152.832 229.274 154.701 229.863C156.568 230.453 157.61 232.452 157.021 234.321ZM156.564 234.178C157.075 232.558 156.176 230.83 154.556 230.319C152.935 229.809 151.208 230.709 150.697 232.328C150.186 233.951 151.087 235.677 152.708 236.188C154.328 236.698 156.053 235.799 156.564 234.178ZM156.207 234.065C155.759 235.489 154.243 236.279 152.82 235.83C151.397 235.382 150.607 233.866 151.056 232.442C151.505 231.019 153.021 230.229 154.445 230.678C155.866 231.126 156.656 232.642 156.207 234.065ZM154.556 230.319C152.935 229.808 151.208 230.708 150.697 232.328C150.186 233.951 151.087 235.676 152.708 236.187C154.328 236.698 156.053 235.798 156.564 234.177C157.075 232.558 156.176 230.829 154.556 230.319ZM156.207 234.065C155.759 235.489 154.243 236.279 152.82 235.83C151.397 235.382 150.607 233.866 151.056 232.442C151.505 231.019 153.021 230.229 154.445 230.678C155.866 231.126 156.656 232.642 156.207 234.065ZM154.556 230.319C152.935 229.808 151.208 230.708 150.697 232.328C150.186 233.951 151.087 235.676 152.708 236.187C154.328 236.698 156.053 235.798 156.564 234.177C157.075 232.558 156.176 230.829 154.556 230.319ZM156.207 234.065C155.759 235.489 154.243 236.279 152.82 235.83C151.397 235.382 150.607 233.866 151.056 232.442C151.505 231.019 153.021 230.229 154.445 230.678C155.866 231.126 156.656 232.642 156.207 234.065Z" fill="#6D67E4"/>
<path d="M152.952 239.555L150.575 238.806L150.175 240.531L152.29 241.197L152.952 239.555Z" fill="#6D67E4"/>
<path d="M148.679 237.328L147.527 235.117L146.026 236.054L147.05 238.021L148.679 237.328Z" fill="#6D67E4"/>
<path d="M147.232 232.731L147.981 230.353L146.257 229.955L145.59 232.069L147.232 232.731Z" fill="#6D67E4"/>
<path d="M149.459 228.458L151.67 227.306L150.733 225.804L148.766 226.829L149.459 228.458Z" fill="#6D67E4"/>
<path d="M154.056 227.011L156.434 227.76L156.833 226.035L154.718 225.369L154.056 227.011Z" fill="#6D67E4"/>
<path d="M158.33 229.238L159.481 231.449L160.983 230.512L159.958 228.545L158.33 229.238Z" fill="#6D67E4"/>
<path d="M159.777 233.835L159.027 236.213L160.752 236.612L161.418 234.497L159.777 233.835Z" fill="#6D67E4"/>
<path d="M157.549 238.108L155.338 239.26L156.275 240.762L158.242 239.738L157.549 238.108Z" fill="#6D67E4"/>
<path d="M165.014 239.368C164.056 238.743 162.772 239.015 162.148 239.973C161.523 240.933 161.796 242.214 162.755 242.839C163.713 243.463 164.994 243.192 165.619 242.233C166.243 241.276 165.972 239.992 165.014 239.368ZM165.408 242.095C164.859 242.938 163.733 243.176 162.891 242.628C162.05 242.08 161.812 240.954 162.36 240.111C162.908 239.27 164.035 239.032 164.877 239.58C165.718 240.128 165.956 241.254 165.408 242.095ZM165.014 239.368C164.056 238.743 162.772 239.015 162.148 239.973C161.523 240.933 161.796 242.214 162.755 242.839C163.713 243.463 164.994 243.192 165.619 242.233C166.243 241.276 165.972 239.992 165.014 239.368ZM165.408 242.095C164.859 242.938 163.733 243.176 162.891 242.628C162.05 242.08 161.812 240.954 162.36 240.111C162.908 239.27 164.035 239.032 164.877 239.58C165.718 240.128 165.956 241.254 165.408 242.095ZM165.014 239.368C164.056 238.743 162.772 239.015 162.148 239.973C161.523 240.933 161.796 242.214 162.755 242.839C163.713 243.463 164.994 243.192 165.619 242.233C166.243 241.276 165.972 239.992 165.014 239.368ZM165.408 242.095C164.859 242.938 163.733 243.176 162.891 242.628C162.05 242.08 161.812 240.954 162.36 240.111C162.908 239.27 164.035 239.032 164.877 239.58C165.718 240.128 165.956 241.254 165.408 242.095ZM166.267 237.446C164.244 236.13 161.541 236.703 160.225 238.722C158.91 240.742 159.48 243.447 161.501 244.762C163.521 246.077 166.226 245.505 167.541 243.485C168.857 241.466 168.286 238.76 166.267 237.446ZM165.889 242.409C165.169 243.516 163.684 243.83 162.579 243.11C161.473 242.39 161.158 240.905 161.879 239.798C162.6 238.692 164.085 238.379 165.19 239.099C166.295 239.818 166.609 241.303 165.889 242.409ZM165.619 242.233C166.243 241.275 165.972 239.992 165.014 239.368C164.056 238.744 162.772 239.016 162.148 239.973C161.523 240.933 161.796 242.215 162.755 242.84C163.713 243.464 164.994 243.192 165.619 242.233ZM165.408 242.095C164.859 242.938 163.733 243.176 162.891 242.628C162.05 242.08 161.812 240.954 162.36 240.111C162.908 239.27 164.035 239.032 164.877 239.58C165.718 240.128 165.956 241.254 165.408 242.095ZM165.014 239.368C164.056 238.743 162.772 239.015 162.148 239.973C161.523 240.933 161.796 242.214 162.755 242.839C163.713 243.463 164.994 243.192 165.619 242.233C166.243 241.276 165.972 239.992 165.014 239.368ZM165.408 242.095C164.859 242.938 163.733 243.176 162.891 242.628C162.05 242.08 161.812 240.954 162.36 240.111C162.908 239.27 164.035 239.032 164.877 239.58C165.718 240.128 165.956 241.254 165.408 242.095ZM165.014 239.368C164.056 238.743 162.772 239.015 162.148 239.973C161.523 240.933 161.796 242.214 162.755 242.839C163.713 243.463 164.994 243.192 165.619 242.233C166.243 241.276 165.972 239.992 165.014 239.368ZM165.408 242.095C164.859 242.938 163.733 243.176 162.891 242.628C162.05 242.08 161.812 240.954 162.36 240.111C162.908 239.27 164.035 239.032 164.877 239.58C165.718 240.128 165.956 241.254 165.408 242.095Z" fill="#DBDBDB"/>
<path d="M162.304 245.068L160.897 244.152L160.327 245.198L161.578 246.013L162.304 245.068Z" fill="#DBDBDB"/>
<path d="M159.935 242.851L159.588 241.208L158.445 241.545L158.754 243.006L159.935 242.851Z" fill="#DBDBDB"/>
<path d="M159.828 239.608L160.744 238.201L159.698 237.631L158.883 238.882L159.828 239.608Z" fill="#DBDBDB"/>
<path d="M162.045 237.239L163.688 236.892L163.351 235.749L161.891 236.058L162.045 237.239Z" fill="#DBDBDB"/>
<path d="M165.288 237.132L166.694 238.048L167.265 237.002L166.014 236.187L165.288 237.132Z" fill="#DBDBDB"/>
<path d="M167.657 239.349L168.004 240.991L169.147 240.655L168.838 239.194L167.657 239.349Z" fill="#DBDBDB"/>
<path d="M167.764 242.592L166.848 243.999L167.894 244.569L168.709 243.318L167.764 242.592Z" fill="#DBDBDB"/>
<path d="M165.547 244.961L163.905 245.308L164.241 246.451L165.702 246.142L165.547 244.961Z" fill="#DBDBDB"/>
<path d="M195.58 256.905L197.617 257.284L203.44 217.843L201.12 217.416L195.58 256.905Z" fill="#6D67E4"/>
<path d="M177.741 250.655L180.765 224.301L201.12 217.416C201.12 217.416 195.58 257.331 195.58 256.905L177.741 250.655Z" fill="#6D67E4"/>
<path opacity="0.4" d="M177.741 250.655L180.765 224.301L201.12 217.416C201.12 217.416 195.58 257.331 195.58 256.905L177.741 250.655Z" fill="white"/>
<path d="M128.41 225.369C128.078 223.186 127.899 220.985 127.762 218.782C127.7 217.68 127.672 216.577 127.647 215.473C127.626 214.37 127.606 213.265 127.639 212.161L127.648 211.871L127.93 211.856C131.974 211.639 136.015 211.373 140.061 211.197C144.106 210.997 148.15 210.816 152.198 210.689C148.163 211.055 144.126 211.366 140.088 211.659C136.05 211.974 132.009 212.201 127.97 212.476L128.26 212.171L128.244 215.467L128.282 218.764C128.288 219.864 128.308 220.964 128.34 222.064L128.41 225.369Z" fill="white"/>
<path d="M183.604 224.688C184.865 224.089 186.146 223.532 187.442 223.018C188.734 222.492 190.038 221.994 191.357 221.537C192.678 221.086 194.003 220.645 195.351 220.27C196.696 219.891 198.054 219.541 199.442 219.314L199.783 219.258L199.722 219.584C199.403 221.29 199.069 222.994 198.674 224.688C198.822 222.955 199.03 221.231 199.254 219.51L199.534 219.78C198.189 220.101 196.856 220.476 195.526 220.869C194.197 221.266 192.872 221.685 191.551 222.115L183.604 224.688Z" fill="white"/>
<path opacity="0.1" d="M137.218 209.998L137.561 216.589L137.854 223.183L138.362 236.372L138.76 249.565L138.918 256.163L139.027 262.762L138.683 256.171L138.39 249.578L137.883 236.388L137.487 223.195L137.327 216.598L137.218 209.998Z" fill="black"/>
<path opacity="0.1" d="M135.33 213.971C135.457 214.539 135.12 215.216 134.479 215.404C134.169 215.498 133.805 215.467 133.503 215.294C133.2 215.122 132.977 214.808 132.905 214.46C132.836 214.111 132.92 213.735 133.132 213.459C133.343 213.182 133.668 213.012 133.99 212.978C134.655 212.904 135.227 213.4 135.33 213.971ZM135.33 213.971C135.269 213.684 135.085 213.428 134.835 213.29C134.584 213.151 134.287 213.134 134.038 213.215C133.524 213.382 133.277 213.923 133.375 214.366C133.456 214.811 133.892 215.217 134.432 215.17C134.693 215.148 134.96 215.018 135.137 214.792C135.315 214.568 135.385 214.259 135.33 213.971Z" fill="black"/>
<path opacity="0.1" d="M135.784 221.875C135.91 222.442 135.574 223.119 134.933 223.308C134.623 223.401 134.259 223.37 133.956 223.197C133.654 223.025 133.43 222.712 133.359 222.364C133.29 222.015 133.373 221.638 133.586 221.363C133.797 221.085 134.122 220.916 134.444 220.882C135.108 220.808 135.681 221.303 135.784 221.875ZM135.784 221.875C135.723 221.588 135.538 221.331 135.288 221.193C135.037 221.055 134.741 221.037 134.491 221.119C133.978 221.286 133.731 221.827 133.828 222.269C133.91 222.714 134.346 223.121 134.886 223.074C135.147 223.052 135.414 222.92 135.592 222.696C135.769 222.471 135.839 222.163 135.784 221.875Z" fill="black"/>
<path opacity="0.1" d="M136.072 230.264C136.198 230.832 135.862 231.509 135.221 231.697C134.911 231.791 134.547 231.76 134.244 231.587C133.942 231.415 133.718 231.101 133.647 230.753C133.578 230.405 133.661 230.028 133.874 229.752C134.085 229.475 134.41 229.306 134.732 229.272C135.396 229.197 135.969 229.693 136.072 230.264ZM136.072 230.264C136.011 229.978 135.827 229.721 135.576 229.583C135.325 229.444 135.029 229.427 134.779 229.508C134.266 229.676 134.019 230.216 134.116 230.659C134.198 231.104 134.634 231.51 135.174 231.463C135.435 231.441 135.702 231.31 135.879 231.085C136.057 230.86 136.127 230.552 136.072 230.264Z" fill="black"/>
<path opacity="0.1" d="M136.36 238.653C136.486 239.221 136.15 239.898 135.509 240.086C135.199 240.18 134.835 240.149 134.532 239.976C134.23 239.804 134.006 239.49 133.935 239.142C133.866 238.794 133.949 238.417 134.162 238.141C134.373 237.864 134.698 237.695 135.02 237.661C135.684 237.586 136.257 238.082 136.36 238.653ZM136.36 238.653C136.299 238.367 136.115 238.11 135.864 237.972C135.613 237.834 135.317 237.816 135.068 237.898C134.554 238.065 134.307 238.605 134.404 239.048C134.486 239.493 134.922 239.899 135.462 239.853C135.723 239.83 135.99 239.7 136.167 239.474C136.345 239.25 136.415 238.941 136.36 238.653Z" fill="black"/>
<path opacity="0.1" d="M136.648 247.043C136.774 247.611 136.438 248.288 135.797 248.476C135.487 248.57 135.123 248.539 134.82 248.366C134.518 248.194 134.294 247.88 134.223 247.532C134.154 247.183 134.237 246.807 134.45 246.531C134.661 246.254 134.986 246.084 135.308 246.05C135.972 245.976 136.545 246.471 136.648 247.043ZM136.648 247.043C136.587 246.756 136.403 246.5 136.152 246.362C135.901 246.223 135.605 246.206 135.355 246.287C134.842 246.454 134.595 246.995 134.692 247.438C134.774 247.883 135.21 248.289 135.75 248.242C136.011 248.22 136.278 248.09 136.456 247.864C136.633 247.639 136.703 247.33 136.648 247.043Z" fill="black"/>
<path opacity="0.1" d="M136.936 255.432C137.062 256 136.726 256.677 136.085 256.865C135.775 256.959 135.411 256.928 135.108 256.755C134.806 256.583 134.582 256.269 134.511 255.921C134.442 255.573 134.525 255.196 134.738 254.92C134.949 254.643 135.274 254.474 135.596 254.44C136.26 254.365 136.832 254.861 136.936 255.432ZM136.936 255.432C136.875 255.146 136.691 254.889 136.44 254.751C136.189 254.612 135.893 254.595 135.643 254.676C135.13 254.843 134.883 255.384 134.98 255.827C135.062 256.273 135.498 256.678 136.038 256.632C136.299 256.609 136.566 256.478 136.743 256.253C136.921 256.028 136.991 255.72 136.936 255.432Z" fill="black"/>
<path d="M139.526 268.261L109.526 277.352L110.588 280.857L140.588 271.766L139.526 268.261Z" fill="#6D67E4"/>
<path opacity="0.4" d="M139.526 268.261L109.526 277.352L110.588 280.857L140.588 271.766L139.526 268.261Z" fill="white"/>
<path d="M125.172 271.42L121.681 272.531L123.331 277.716L126.821 276.605L125.172 271.42Z" fill="#6D67E4"/>
<path d="M110.353 285.992L102.612 252.47L79.2454 258.01L90.7513 290.68L110.353 285.992Z" fill="#6D67E4"/>
<path d="M115.538 284.288L110.353 285.992L102.612 252.47L110.069 254.245L115.538 284.288Z" fill="#6D67E4"/>
<path opacity="0.2" d="M115.538 284.288L110.353 285.992L102.612 252.47L110.069 254.245L115.538 284.288Z" fill="black"/>
<path d="M140.07 273.989C142.266 273.989 144.047 272.209 144.047 270.012C144.047 267.816 142.266 266.035 140.07 266.035C137.873 266.035 136.093 267.816 136.093 270.012C136.093 272.209 137.873 273.989 140.07 273.989Z" fill="#6D67E4"/>
<path d="M180.993 268.164L179.924 271.667L209.905 280.82L210.974 277.317L180.993 268.164Z" fill="#6D67E4"/>
<path opacity="0.4" d="M180.993 268.164L179.924 271.667L209.905 280.82L210.974 277.317L180.993 268.164Z" fill="white"/>
<path d="M195.368 271.339L193.707 276.52L197.195 277.638L198.856 272.457L195.368 271.339Z" fill="#6D67E4"/>
<path d="M210.148 285.963L217.962 252.457L241.316 258.047L229.741 290.692L210.148 285.963Z" fill="#6D67E4"/>
<path d="M204.968 284.248L210.148 285.963L217.962 252.457L210.5 254.217L204.968 284.248Z" fill="#6D67E4"/>
<path opacity="0.2" d="M204.968 284.248L210.148 285.963L217.962 252.457L210.5 254.217L204.968 284.248Z" fill="black"/>
<path d="M176.489 269.912C176.484 272.108 178.261 273.892 180.458 273.898C182.654 273.902 184.438 272.125 184.444 269.929C184.448 267.732 182.671 265.948 180.475 265.943C178.278 265.938 176.493 267.715 176.489 269.912Z" fill="#6D67E4"/>
<path d="M206.504 228.564C206.598 228.476 216.234 219.539 227.57 222.596C239.162 225.724 248.732 243.183 248.827 243.359L252.049 241.618C251.63 240.843 241.648 222.595 228.523 219.06C215.174 215.46 204.432 225.482 203.981 225.911L206.504 228.564Z" fill="#6D67E4"/>
<path opacity="0.4" d="M206.504 228.564C206.598 228.476 216.234 219.539 227.57 222.596C239.162 225.724 248.732 243.183 248.827 243.359L252.049 241.618C251.63 240.843 241.648 222.595 228.523 219.06C215.174 215.46 204.432 225.482 203.981 225.911L206.504 228.564Z" fill="white"/>
<path d="M244.555 260.936L251.497 257.271C250.831 256.01 250.01 253.841 249.891 251.883C249.737 249.346 250.744 248.454 251.854 247.867C254.286 246.583 255.738 247.092 256.729 247.676C258.12 248.497 259.534 250.177 260.711 252.407L267.652 248.742C265.753 245.144 263.42 242.511 260.719 240.916C258.024 239.328 253.663 238.037 248.189 240.926C243.923 243.178 241.745 247.239 242.057 252.36C242.301 256.389 244.031 259.942 244.555 260.936Z" fill="#6D67E4"/>
<path d="M207.967 216.334C209.472 215.295 211.012 214.315 212.557 213.345C214.099 212.369 215.667 211.436 217.234 210.503C218.809 209.583 220.385 208.665 221.986 207.789L224.388 206.477C225.201 206.059 226.003 205.624 226.826 205.223C226.077 205.748 225.307 206.238 224.548 206.747L222.236 208.212C220.694 209.188 219.127 210.122 217.559 211.053C215.983 211.972 214.408 212.891 212.806 213.766C211.209 214.65 209.606 215.522 207.967 216.334Z" fill="#263238"/>
<path d="M203.981 231.311C206.135 232.538 208.177 233.924 210.192 235.348C212.195 236.788 214.17 238.267 216.031 239.905C213.876 238.679 211.834 237.293 209.82 235.868C207.818 234.427 205.843 232.948 203.981 231.311Z" fill="#263238"/>
<path d="M207.519 229.469C209.182 229.974 210.819 230.545 212.452 231.125C214.088 231.698 215.706 232.319 217.323 232.94C218.935 233.575 220.547 234.211 222.14 234.893L224.53 235.919C225.318 236.282 226.114 236.625 226.895 237.007C226.061 236.761 225.242 236.475 224.416 236.211L221.962 235.352C220.326 234.778 218.708 234.158 217.091 233.537C215.48 232.901 213.867 232.265 212.275 231.582C210.678 230.906 209.087 230.22 207.519 229.469Z" fill="#263238"/>
<path d="M212.243 217.739C213.837 217.325 215.442 216.98 217.05 216.645C218.655 216.303 220.271 216.012 221.885 215.719C223.503 215.442 225.121 215.166 226.747 214.939L229.187 214.6C230.004 214.511 230.817 214.399 231.638 214.329C230.843 214.543 230.04 214.716 229.241 214.909L226.832 215.423C225.226 215.764 223.611 216.057 221.996 216.348C220.378 216.624 218.761 216.9 217.135 217.127C215.51 217.362 213.882 217.585 212.243 217.739Z" fill="#263238"/>
<path d="M173.838 227.704C174.108 226.409 174.543 225.147 175.105 223.944C175.667 222.742 176.356 221.589 177.22 220.564C178.086 219.551 179.153 218.657 180.436 218.162C181.719 217.684 183.188 217.688 184.475 218.202C185.777 218.709 186.804 219.804 187.358 221.062C187.645 221.69 187.825 222.364 187.9 223.053C187.964 223.741 187.937 224.457 187.663 225.144C187.523 225.482 187.305 225.823 186.956 226.051C186.787 226.168 186.58 226.236 186.377 226.267C186.177 226.296 185.972 226.287 185.74 226.206C185.311 226.024 185.097 225.679 184.913 225.369C184.748 225.046 184.621 224.716 184.535 224.383C184.175 223.047 184.139 221.688 184.202 220.345C184.393 217.669 185.096 214.993 186.538 212.69C187.265 211.552 188.178 210.504 189.313 209.739C190.433 208.968 191.744 208.438 193.083 208.284C193.741 208.125 194.422 208.14 195.094 208.107C195.432 208.071 195.766 208.153 196.102 208.17C196.436 208.214 196.778 208.209 197.102 208.305C198.432 208.544 199.682 209.078 200.849 209.724C202.01 210.392 203.043 211.251 203.987 212.183C204.922 213.124 205.772 214.154 206.456 215.288C204.942 213.128 202.993 211.253 200.696 209.997C199.539 209.396 198.317 208.903 197.03 208.703C196.716 208.616 196.387 208.631 196.065 208.595C195.742 208.586 195.42 208.512 195.096 208.556C194.451 208.603 193.8 208.6 193.17 208.769C191.88 208.951 190.683 209.47 189.629 210.193C188.571 210.918 187.717 211.912 187.031 213C185.672 215.201 185.007 217.8 184.841 220.383C184.769 221.674 184.801 222.994 185.124 224.22C185.278 224.806 185.555 225.467 185.959 225.652C186.011 225.657 186.045 225.684 186.108 225.686C186.171 225.681 186.238 225.695 186.298 225.68C186.419 225.66 186.538 225.628 186.639 225.555C186.849 225.423 187.016 225.188 187.128 224.92C187.352 224.376 187.393 223.731 187.337 223.109C187.274 222.484 187.114 221.863 186.856 221.287C186.349 220.136 185.452 219.141 184.288 218.653C183.131 218.162 181.776 218.122 180.575 218.54C179.368 218.973 178.325 219.805 177.456 220.77C175.712 222.722 174.536 225.164 173.838 227.704Z" fill="#263238"/>
<path d="M114.699 244.29C115.316 243.126 116.225 242.118 117.285 241.322C118.344 240.526 119.56 239.908 120.869 239.606C122.171 239.294 123.569 239.289 124.872 239.684C126.175 240.074 127.348 240.838 128.288 241.812C129.234 242.785 129.941 243.966 130.427 245.222C130.904 246.481 131.19 247.83 131.089 249.209C131.02 249.887 130.883 250.62 130.346 251.207C130.079 251.496 129.668 251.686 129.267 251.693C128.882 251.689 128.518 251.632 128.164 251.443C127.813 251.262 127.531 250.947 127.371 250.599C127.208 250.25 127.147 249.881 127.13 249.524C127.105 248.807 127.259 248.126 127.47 247.478C127.899 246.181 128.605 245.012 129.429 243.953C130.258 242.895 131.233 241.953 132.326 241.169C134.495 239.594 137.257 238.719 139.951 239.072C141.281 239.252 142.601 239.636 143.765 240.314C144.939 240.97 145.958 241.881 146.788 242.922C147.617 243.967 148.264 245.141 148.762 246.365C149.259 247.589 149.627 248.867 149.807 250.172C149.27 247.607 148.215 245.116 146.535 243.128C145.703 242.135 144.7 241.283 143.562 240.682C142.434 240.059 141.168 239.725 139.894 239.582C137.334 239.304 134.737 240.12 132.671 241.648C130.609 243.165 128.921 245.283 128.068 247.679C127.867 248.276 127.727 248.9 127.745 249.502C127.759 250.099 127.969 250.673 128.449 250.915C128.675 251.044 128.981 251.095 129.249 251.1C129.508 251.092 129.738 250.989 129.923 250.798C130.297 250.408 130.457 249.771 130.514 249.159C130.614 247.908 130.356 246.615 129.908 245.42C129.455 244.222 128.782 243.105 127.912 242.17C127.043 241.236 125.949 240.508 124.738 240.111C123.529 239.709 122.203 239.676 120.944 239.942C118.424 240.478 116.09 242.054 114.699 244.29Z" fill="#263238"/>
<path d="M85.0899 89.733C85.0176 87.0994 84.4589 84.4479 83.2333 82.1375C82.6195 80.9932 81.8054 79.9359 80.7366 79.2274C79.6698 78.535 78.345 78.2502 77.104 78.4511C75.8579 78.647 74.7488 79.399 73.9821 80.3954C73.5936 80.8934 73.2896 81.4572 73.0797 82.0499C72.8762 82.6399 72.7622 83.2761 72.8506 83.8578C72.8947 84.1452 73.0003 84.4121 73.1731 84.5907C73.255 84.686 73.3619 84.7455 73.4752 84.7942C73.5296 84.823 73.5981 84.8255 73.6576 84.8454C73.719 84.8582 73.7587 84.8396 73.8106 84.8473C74.2464 84.7641 74.6739 84.1887 74.9632 83.6562C75.5693 82.5426 75.9162 81.2684 76.1536 79.998C76.6086 77.4502 76.583 74.7666 75.7888 72.3052C75.383 71.0847 74.7904 69.9154 73.9354 68.9599C73.0848 68.0063 72.0467 67.2166 70.8371 66.7321C70.2656 66.4172 69.6333 66.2655 69.0176 66.0646C68.7136 65.9455 68.3834 65.9404 68.0672 65.8719C67.7466 65.8303 67.4304 65.7369 67.104 65.7465C65.8067 65.6332 64.5024 65.8207 63.2358 66.1286C60.7046 66.7999 58.3648 68.1554 56.3795 69.8918C57.3139 68.9542 58.3853 68.1567 59.5181 67.4655C60.6566 66.7858 61.865 66.199 63.1514 65.8258C64.4384 65.477 65.7805 65.2569 67.1283 65.3426C67.4669 65.326 67.7965 65.4137 68.1312 65.4502C68.4614 65.5129 68.8064 65.5135 69.1251 65.6287C69.7702 65.8214 70.4352 65.9692 71.0362 66.2809C72.2995 66.7494 73.4464 67.5775 74.3501 68.5932C75.2691 69.607 75.9053 70.8422 76.3405 72.1209C77.191 74.7007 77.2346 77.4681 76.7808 80.1119C76.5222 81.4316 76.1619 82.7423 75.4944 83.9538C75.3306 84.2572 75.1283 84.5478 74.8922 84.8217C74.6394 85.079 74.3488 85.3625 73.8899 85.4374C73.6442 85.4598 73.4438 85.4195 73.2563 85.3439C73.0669 85.2646 72.8819 85.1506 72.7462 84.9958C72.4614 84.6918 72.3302 84.3084 72.2758 83.9474C72.1734 83.2153 72.3174 82.5138 72.5446 81.8604C72.7808 81.2082 73.1168 80.597 73.5456 80.0556C74.3834 78.9663 75.6422 78.1484 77.0278 77.9666C78.4006 77.7746 79.8278 78.1215 80.96 78.8927C82.0877 79.6793 82.9101 80.8025 83.5098 81.9935C84.1043 83.1948 84.4973 84.4787 84.7571 85.7798C85.0157 87.0815 85.1366 88.4108 85.0899 89.733Z" fill="#263238"/>
<path d="M226.413 123.117C223.835 122.573 221.126 122.498 218.593 123.151C217.338 123.481 216.12 124.026 215.181 124.899C214.259 125.775 213.672 126.997 213.578 128.251C213.478 129.508 213.95 130.762 214.74 131.74C215.133 132.234 215.612 132.661 216.138 133.003C216.664 133.339 217.257 133.599 217.843 133.649C218.133 133.672 218.417 133.632 218.631 133.506C218.742 133.449 218.826 133.359 218.899 133.26C218.94 133.214 218.959 133.148 218.992 133.095C219.019 133.039 219.01 132.995 219.03 132.947C219.051 132.504 218.591 131.954 218.141 131.549C217.199 130.7 216.041 130.065 214.861 129.538C212.49 128.501 209.875 127.899 207.295 128.097C206.014 128.207 204.739 128.511 203.61 129.119C202.484 129.723 201.474 130.548 200.721 131.611C200.281 132.094 199.986 132.673 199.647 133.225C199.46 133.493 199.379 133.812 199.238 134.104C199.123 134.406 198.958 134.692 198.892 135.011C198.479 136.246 198.357 137.558 198.361 138.861C198.423 141.479 199.196 144.071 200.42 146.407C199.727 145.28 199.201 144.052 198.794 142.789C198.399 141.523 198.109 140.211 198.047 138.873C198.009 137.54 198.108 136.184 198.506 134.893C198.568 134.56 198.73 134.259 198.844 133.942C198.982 133.636 199.064 133.3 199.25 133.018C199.588 132.435 199.887 131.823 200.33 131.311C201.081 130.192 202.154 129.27 203.352 128.628C204.552 127.971 205.901 127.641 207.247 127.516C209.954 127.291 212.655 127.894 215.12 128.952C216.343 129.512 217.533 130.168 218.556 131.1C218.812 131.33 219.048 131.594 219.259 131.889C219.45 132.194 219.658 132.543 219.624 133.007C219.588 133.25 219.502 133.437 219.385 133.601C219.264 133.767 219.109 133.92 218.927 134.016C218.566 134.222 218.162 134.26 217.798 134.228C217.062 134.157 216.413 133.853 215.831 133.48C215.252 133.098 214.736 132.629 214.309 132.086C213.445 131.017 212.944 129.602 213.09 128.212C213.224 126.833 213.894 125.526 214.908 124.605C215.935 123.691 217.219 123.154 218.518 122.849C219.825 122.552 221.165 122.468 222.491 122.52C223.818 122.571 225.138 122.763 226.413 123.117Z" fill="#263238"/>
<path d="M186.79 81.7094C186.353 80.1932 186.294 78.5715 186.54 77.0054C186.785 75.4393 187.316 73.8988 188.182 72.5497C189.036 71.1993 190.227 70.0313 191.668 69.287C193.105 68.5369 194.742 68.2112 196.353 68.2604C197.969 68.304 199.558 68.7225 201.02 69.3894C202.476 70.0659 203.844 70.9798 204.904 72.2368C205.409 72.8697 205.896 73.6076 205.926 74.5344C205.939 74.992 205.753 75.4809 205.425 75.8124C205.099 76.1235 204.744 76.3763 204.297 76.5062C203.857 76.6412 203.367 76.608 202.948 76.448C202.526 76.2892 202.171 76.0288 201.863 75.7408C201.249 75.1558 200.815 74.448 200.456 73.7209C199.743 72.2585 199.368 70.6726 199.187 69.0809C199.011 67.4867 199.057 65.8681 199.334 64.2867C199.869 61.1328 201.494 58.087 204.083 56.1363C205.366 55.1782 206.811 54.4025 208.37 54.0076C209.919 53.5846 211.548 53.5097 213.128 53.7024C214.71 53.8982 216.246 54.3571 217.699 54.9836C219.151 55.6108 220.537 56.3929 221.788 57.3529C219.188 55.5942 216.2 54.3347 213.092 54.0275C211.545 53.87 209.967 53.9756 208.482 54.4128C206.987 54.8224 205.616 55.5961 204.399 56.542C203.195 57.5052 202.171 58.6899 201.423 60.0371C200.669 61.3811 200.176 62.8665 199.915 64.3884C199.417 67.4272 199.739 70.6636 201.022 73.4457C201.353 74.1299 201.758 74.7872 202.287 75.2947C202.805 75.8003 203.489 76.1318 204.13 75.9289C204.445 75.847 204.755 75.63 204.996 75.4009C205.223 75.1686 205.341 74.8678 205.337 74.5369C205.329 73.8649 204.923 73.1795 204.456 72.6028C203.487 71.438 202.177 70.5452 200.787 69.8937C199.389 69.2454 197.869 68.8492 196.334 68.7795C194.801 68.7091 193.245 69.0041 191.87 69.6857C190.491 70.3603 189.325 71.4489 188.47 72.7379C186.763 75.3196 186.093 78.6329 186.79 81.7094Z" fill="#263238"/>
<path d="M112.559 244.43C111.125 243.978 109.597 244.774 109.146 246.207C108.693 247.643 109.49 249.169 110.924 249.622C112.357 250.074 113.884 249.278 114.335 247.844C114.787 246.411 113.992 244.881 112.559 244.43ZM114.02 247.743C113.623 249.004 112.282 249.702 111.023 249.306C109.764 248.909 109.066 247.568 109.463 246.308C109.86 245.049 111.201 244.35 112.461 244.748C113.718 245.144 114.417 246.485 114.02 247.743ZM112.559 244.43C111.125 243.978 109.597 244.774 109.146 246.207C108.693 247.643 109.49 249.169 110.924 249.622C112.357 250.074 113.884 249.278 114.335 247.844C114.787 246.411 113.992 244.881 112.559 244.43ZM114.02 247.743C113.623 249.004 112.282 249.702 111.023 249.306C109.764 248.909 109.066 247.568 109.463 246.308C109.86 245.049 111.201 244.35 112.461 244.748C113.718 245.144 114.417 246.485 114.02 247.743ZM112.559 244.43C111.125 243.978 109.597 244.774 109.146 246.207C108.693 247.643 109.49 249.169 110.924 249.622C112.357 250.074 113.884 249.278 114.335 247.844C114.787 246.411 113.992 244.881 112.559 244.43ZM114.02 247.743C113.623 249.004 112.282 249.702 111.023 249.306C109.764 248.909 109.066 247.568 109.463 246.308C109.86 245.049 111.201 244.35 112.461 244.748C113.718 245.144 114.417 246.485 114.02 247.743ZM113.466 241.555C110.442 240.602 107.222 242.282 106.27 245.302C105.318 248.323 106.995 251.545 110.017 252.497C113.037 253.448 116.259 251.77 117.211 248.749C118.164 245.73 116.486 242.506 113.466 241.555ZM114.74 247.97C114.218 249.625 112.45 250.547 110.797 250.026C109.144 249.505 108.221 247.736 108.743 246.081C109.265 244.427 111.034 243.507 112.687 244.028C114.339 244.548 115.261 246.317 114.74 247.97ZM114.335 247.843C114.787 246.41 113.992 244.881 112.559 244.429C111.125 243.978 109.597 244.774 109.146 246.207C108.693 247.642 109.49 249.169 110.924 249.621C112.357 250.073 113.884 249.277 114.335 247.843ZM114.02 247.743C113.623 249.004 112.282 249.702 111.023 249.306C109.764 248.909 109.066 247.568 109.463 246.308C109.86 245.049 111.201 244.35 112.461 244.748C113.718 245.144 114.417 246.485 114.02 247.743ZM112.559 244.43C111.125 243.978 109.597 244.774 109.146 246.207C108.693 247.643 109.49 249.169 110.924 249.622C112.357 250.074 113.884 249.278 114.335 247.844C114.787 246.411 113.992 244.881 112.559 244.43ZM114.02 247.743C113.623 249.004 112.282 249.702 111.023 249.306C109.764 248.909 109.066 247.568 109.463 246.308C109.86 245.049 111.201 244.35 112.461 244.748C113.718 245.144 114.417 246.485 114.02 247.743ZM112.559 244.43C111.125 243.978 109.597 244.774 109.146 246.207C108.693 247.643 109.49 249.169 110.924 249.622C112.357 250.074 113.884 249.278 114.335 247.844C114.787 246.411 113.992 244.881 112.559 244.43ZM114.02 247.743C113.623 249.004 112.282 249.702 111.023 249.306C109.764 248.909 109.066 247.568 109.463 246.308C109.86 245.049 111.201 244.35 112.461 244.748C113.718 245.144 114.417 246.485 114.02 247.743Z" fill="#455A64"/>
<path d="M111.14 252.6L109.037 251.938L108.684 253.464L110.555 254.053L111.14 252.6Z" fill="#455A64"/>
<path d="M107.36 250.63L106.341 248.674L105.013 249.503L105.919 251.243L107.36 250.63Z" fill="#455A64"/>
<path d="M106.08 246.564L106.743 244.46L105.217 244.107L104.628 245.978L106.08 246.564Z" fill="#455A64"/>
<path d="M108.05 242.783L110.006 241.764L109.177 240.436L107.437 241.342L108.05 242.783Z" fill="#455A64"/>
<path d="M112.116 241.503L114.22 242.166L114.573 240.641L112.702 240.051L112.116 241.503Z" fill="#455A64"/>
<path d="M115.897 243.473L116.916 245.43L118.244 244.6L117.338 242.861L115.897 243.473Z" fill="#455A64"/>
<path d="M117.178 247.54L116.515 249.643L118.04 249.997L118.63 248.125L117.178 247.54Z" fill="#455A64"/>
<path d="M115.207 251.32L113.251 252.339L114.08 253.668L115.82 252.762L115.207 251.32Z" fill="#455A64"/>
<path d="M218.671 226.143C221.556 222.256 220.744 216.764 216.856 213.88C212.968 210.994 207.476 211.807 204.591 215.693C201.706 219.582 202.518 225.074 206.407 227.96C210.294 230.845 215.786 230.033 218.671 226.143ZM214.919 223.359C213.571 225.176 211.007 225.555 209.192 224.208C207.375 222.86 206.995 220.296 208.344 218.479C209.691 216.663 212.255 216.284 214.072 217.632C215.887 218.98 216.266 221.543 214.919 223.359Z" fill="#263238"/>
<path d="M207.976 228.671L205.269 226.662L203.997 228.69L206.404 230.477L207.976 228.671Z" fill="#263238"/>
<path d="M203.501 223.935L203.007 220.6L200.673 221.134L201.112 224.101L203.501 223.935Z" fill="#263238"/>
<path d="M203.684 217.421L205.694 214.714L203.667 213.442L201.88 215.85L203.684 217.421Z" fill="#263238"/>
<path d="M208.421 212.946L211.756 212.452L211.222 210.118L208.256 210.557L208.421 212.946Z" fill="#263238"/>
<path d="M214.935 213.13L217.642 215.139L218.915 213.112L216.507 211.325L214.935 213.13Z" fill="#263238"/>
<path d="M219.411 217.866L219.904 221.201L222.237 220.668L221.798 217.701L219.411 217.866Z" fill="#263238"/>
<path d="M219.227 224.38L217.217 227.087L219.245 228.36L221.032 225.952L219.227 224.38Z" fill="#263238"/>
<path d="M214.49 228.856L211.155 229.349L211.689 231.683L214.655 231.244L214.49 228.856Z" fill="#263238"/>
<path d="M208.491 221.339L210.353 223.688L213.319 223.248L214.42 220.462L212.559 218.115L209.594 218.552L208.491 221.339ZM212.021 220.138C212.444 220.451 212.531 221.044 212.218 221.467C211.905 221.887 211.311 221.977 210.888 221.663C210.468 221.351 210.38 220.755 210.692 220.334C211.005 219.912 211.601 219.826 212.021 220.138Z" fill="#263238"/>
<path d="M225.243 55.4247C223.988 55.0291 222.651 55.7261 222.256 56.9799C221.86 58.2362 222.557 59.5719 223.812 59.9674C225.066 60.3629 226.402 59.6666 226.797 58.4115C227.193 57.1578 226.497 55.8195 225.243 55.4247ZM226.522 58.3239C226.174 59.4266 225.001 60.0378 223.899 59.6909C222.797 59.344 222.186 58.1703 222.533 57.0675C222.88 55.9661 224.054 55.3549 225.156 55.7018C226.257 56.0487 226.869 57.2224 226.522 58.3239ZM225.243 55.4247C223.988 55.0291 222.651 55.7261 222.256 56.9799C221.86 58.2362 222.557 59.5719 223.812 59.9674C225.066 60.3629 226.402 59.6666 226.797 58.4115C227.193 57.1578 226.497 55.8195 225.243 55.4247ZM226.522 58.3239C226.174 59.4266 225.001 60.0378 223.899 59.6909C222.797 59.344 222.186 58.1703 222.533 57.0675C222.88 55.9661 224.054 55.3549 225.156 55.7018C226.257 56.0487 226.869 57.2224 226.522 58.3239ZM225.243 55.4247C223.988 55.0291 222.651 55.7261 222.256 56.9799C221.86 58.2362 222.557 59.5719 223.812 59.9674C225.066 60.3629 226.402 59.6666 226.797 58.4115C227.193 57.1578 226.497 55.8195 225.243 55.4247ZM226.522 58.3239C226.174 59.4266 225.001 60.0378 223.899 59.6909C222.797 59.344 222.186 58.1703 222.533 57.0675C222.88 55.9661 224.054 55.3549 225.156 55.7018C226.257 56.0487 226.869 57.2224 226.522 58.3239ZM226.038 52.9088C223.392 52.0755 220.574 53.5456 219.741 56.1875C218.908 58.8307 220.375 61.6506 223.02 62.4832C225.663 63.3159 228.482 61.8477 229.315 59.2039C230.148 56.5619 228.68 53.7408 226.038 52.9088ZM227.152 58.5223C226.696 59.9699 225.148 60.777 223.701 60.3207C222.254 59.8643 221.448 58.3168 221.904 56.8691C222.36 55.4215 223.909 54.6157 225.355 55.072C226.801 55.5277 227.608 57.0752 227.152 58.5223ZM226.798 58.4115C227.194 57.1578 226.498 55.8195 225.244 55.4247C223.989 55.0291 222.652 55.7261 222.257 56.9799C221.861 58.2362 222.558 59.5719 223.813 59.9674C225.067 60.3623 226.403 59.6666 226.798 58.4115ZM226.522 58.3239C226.174 59.4266 225.001 60.0378 223.899 59.6909C222.797 59.344 222.186 58.1703 222.533 57.0675C222.88 55.9661 224.054 55.3549 225.156 55.7018C226.257 56.0487 226.869 57.2224 226.522 58.3239ZM225.243 55.4247C223.988 55.0291 222.651 55.7261 222.256 56.9799C221.86 58.2362 222.557 59.5719 223.812 59.9674C225.066 60.3629 226.402 59.6666 226.797 58.4115C227.193 57.1578 226.497 55.8195 225.243 55.4247ZM226.522 58.3239C226.174 59.4266 225.001 60.0378 223.899 59.6909C222.797 59.344 222.186 58.1703 222.533 57.0675C222.88 55.9661 224.054 55.3549 225.156 55.7018C226.257 56.0487 226.869 57.2224 226.522 58.3239ZM225.243 55.4247C223.988 55.0291 222.651 55.7261 222.256 56.9799C221.86 58.2362 222.557 59.5719 223.812 59.9674C225.066 60.3629 226.402 59.6666 226.797 58.4115C227.193 57.1578 226.497 55.8195 225.243 55.4247ZM226.522 58.3239C226.174 59.4266 225.001 60.0378 223.899 59.6909C222.797 59.344 222.186 58.1703 222.533 57.0675C222.88 55.9661 224.054 55.3549 225.156 55.7018C226.257 56.0487 226.869 57.2224 226.522 58.3239Z" fill="#263238"/>
<path d="M224.002 62.5741L222.161 61.9943L221.853 63.3293L223.49 63.8451L224.002 62.5741Z" fill="#263238"/>
<path d="M220.694 60.8499L219.802 59.1385L218.64 59.8637L219.433 61.3862L220.694 60.8499Z" fill="#263238"/>
<path d="M219.574 57.2915L220.154 55.4508L218.819 55.1423L218.303 56.7795L219.574 57.2915Z" fill="#263238"/>
<path d="M221.298 53.9833L223.01 53.0918L222.284 51.9296L220.762 52.7225L221.298 53.9833Z" fill="#263238"/>
<path d="M224.856 52.8633L226.697 53.4432L227.006 52.1081L225.369 51.5923L224.856 52.8633Z" fill="#263238"/>
<path d="M228.164 54.5875L229.056 56.2995L230.218 55.5737L229.425 54.0511L228.164 54.5875Z" fill="#263238"/>
<path d="M229.284 58.1459L228.705 59.9865L230.04 60.2956L230.555 58.6585L229.284 58.1459Z" fill="#263238"/>
<path d="M227.56 61.4541L225.849 62.3456L226.574 63.5079L228.097 62.7149L227.56 61.4541Z" fill="#263238"/>
<path d="M200.786 146.858C199.531 146.463 198.194 147.16 197.798 148.413C197.403 149.67 198.1 151.005 199.355 151.401C200.609 151.796 201.944 151.1 202.34 149.845C202.735 148.591 202.04 147.253 200.786 146.858ZM202.063 149.757C201.716 150.86 200.543 151.471 199.441 151.124C198.34 150.777 197.729 149.604 198.075 148.501C198.422 147.4 199.596 146.788 200.699 147.135C201.799 147.482 202.411 148.656 202.063 149.757ZM200.786 146.858C199.531 146.463 198.194 147.16 197.798 148.413C197.403 149.67 198.1 151.005 199.355 151.401C200.609 151.796 201.944 151.1 202.34 149.845C202.735 148.591 202.04 147.253 200.786 146.858ZM202.063 149.757C201.716 150.86 200.543 151.471 199.441 151.124C198.34 150.777 197.729 149.604 198.075 148.501C198.422 147.4 199.596 146.788 200.699 147.135C201.799 147.482 202.411 148.656 202.063 149.757ZM200.786 146.858C199.531 146.463 198.194 147.16 197.798 148.413C197.403 149.67 198.1 151.005 199.355 151.401C200.609 151.796 201.944 151.1 202.34 149.845C202.735 148.591 202.04 147.253 200.786 146.858ZM202.063 149.757C201.716 150.86 200.543 151.471 199.441 151.124C198.34 150.777 197.729 149.604 198.075 148.501C198.422 147.4 199.596 146.788 200.699 147.135C201.799 147.482 202.411 148.656 202.063 149.757ZM201.579 144.342C198.934 143.509 196.116 144.979 195.283 147.621C194.45 150.265 195.917 153.084 198.562 153.917C201.204 154.749 204.024 153.281 204.856 150.637C205.69 147.995 204.221 145.174 201.579 144.342ZM202.694 149.956C202.237 151.403 200.69 152.21 199.243 151.754C197.796 151.298 196.989 149.75 197.446 148.303C197.902 146.855 199.451 146.049 200.897 146.505C202.343 146.961 203.149 148.509 202.694 149.956ZM202.34 149.845C202.735 148.591 202.04 147.253 200.786 146.858C199.531 146.463 198.194 147.16 197.798 148.413C197.403 149.67 198.1 151.005 199.355 151.401C200.609 151.796 201.944 151.1 202.34 149.845ZM202.063 149.757C201.716 150.86 200.543 151.471 199.441 151.124C198.34 150.777 197.729 149.604 198.075 148.501C198.422 147.4 199.596 146.788 200.699 147.135C201.799 147.482 202.411 148.656 202.063 149.757ZM200.786 146.858C199.531 146.463 198.194 147.16 197.798 148.413C197.403 149.67 198.1 151.005 199.355 151.401C200.609 151.796 201.944 151.1 202.34 149.845C202.735 148.591 202.04 147.253 200.786 146.858ZM202.063 149.757C201.716 150.86 200.543 151.471 199.441 151.124C198.34 150.777 197.729 149.604 198.075 148.501C198.422 147.4 199.596 146.788 200.699 147.135C201.799 147.482 202.411 148.656 202.063 149.757ZM200.786 146.858C199.531 146.463 198.194 147.16 197.798 148.413C197.403 149.67 198.1 151.005 199.355 151.401C200.609 151.796 201.944 151.1 202.34 149.845C202.735 148.591 202.04 147.253 200.786 146.858ZM202.063 149.757C201.716 150.86 200.543 151.471 199.441 151.124C198.34 150.777 197.729 149.604 198.075 148.501C198.422 147.4 199.596 146.788 200.699 147.135C201.799 147.482 202.411 148.656 202.063 149.757Z" fill="#263238"/>
<path d="M199.544 154.008L197.703 153.428L197.395 154.763L199.032 155.279L199.544 154.008Z" fill="#263238"/>
<path d="M196.236 152.284L195.345 150.572L194.182 151.297L194.975 152.82L196.236 152.284Z" fill="#263238"/>
<path d="M195.116 148.725L195.696 146.884L194.361 146.576L193.845 148.213L195.116 148.725Z" fill="#263238"/>
<path d="M196.84 145.417L198.552 144.526L197.826 143.363L196.303 144.156L196.84 145.417Z" fill="#263238"/>
<path d="M200.398 144.297L202.239 144.877L202.548 143.542L200.911 143.026L200.398 144.297Z" fill="#263238"/>
<path d="M203.706 146.021L204.598 147.733L205.76 147.007L204.967 145.485L203.706 146.021Z" fill="#263238"/>
<path d="M204.826 149.579L204.246 151.42L205.581 151.729L206.097 150.092L204.826 149.579Z" fill="#263238"/>
<path d="M203.102 152.888L201.391 153.779L202.116 154.941L203.638 154.148L203.102 152.888Z" fill="#263238"/>
<path d="M60.8134 74.8755C61.8003 70.8256 59.3164 66.7417 55.2665 65.7549C51.2153 64.768 47.1308 67.2518 46.144 71.3017C45.1571 75.3529 47.6409 79.4374 51.6921 80.4243C55.7427 81.4105 59.8265 78.9267 60.8134 74.8755ZM56.9043 73.9232C56.4428 75.8163 54.5369 76.976 52.6451 76.5145C50.752 76.0531 49.5923 74.1472 50.0537 72.2541C50.5145 70.3622 52.4211 69.2032 54.3142 69.6646C56.2054 70.1254 57.3651 72.0313 56.9043 73.9232Z" fill="#263238"/>
<path d="M53.1763 80.4627L50.3558 79.7754L50.0256 81.81L52.5337 82.4212L53.1763 80.4627Z" fill="#263238"/>
<path d="M48.0396 78.2048L46.5311 75.7241L44.8588 76.9292L46.2003 79.1353L48.0396 78.2048Z" fill="#263238"/>
<path d="M46.0038 72.9753L46.6912 70.1555L44.6566 69.8246L44.0454 72.3334L46.0038 72.9753Z" fill="#263238"/>
<path d="M48.2623 67.8386L50.7423 66.3302L49.5379 64.6578L47.3318 65.9999L48.2623 67.8386Z" fill="#263238"/>
<path d="M53.4911 65.8035L56.3116 66.4908L56.6425 64.4563L54.1337 63.8451L53.4911 65.8035Z" fill="#263238"/>
<path d="M58.6278 68.0614L60.1363 70.5421L61.8086 69.3369L60.4672 67.1309L58.6278 68.0614Z" fill="#263238"/>
<path d="M60.6637 73.2909L59.9763 76.1114L62.0109 76.4416L62.6221 73.9328L60.6637 73.2909Z" fill="#263238"/>
<path d="M58.4051 78.4275L55.9251 79.936L57.1302 81.6083L59.3363 80.2662L58.4051 78.4275Z" fill="#263238"/>
<path d="M51.1289 74.4742L53.3926 75.7139L55.5974 74.3712L55.5379 71.7926L53.2755 70.5536L51.0694 71.8937L51.1289 74.4742ZM53.527 72.3385C53.9673 72.4454 54.2355 72.887 54.128 73.3273C54.0211 73.7657 53.5795 74.0358 53.1392 73.9283C52.7008 73.8214 52.4313 73.3779 52.5382 72.9395C52.6457 72.4998 53.0886 72.2317 53.527 72.3385Z" fill="#263238"/>
<path d="M231.418 152.92C229.696 150.299 228.728 147.35 228.728 144.234C228.728 133.228 240.813 124.305 255.712 124.305C270.611 124.305 282.685 133.229 282.685 144.234C282.685 155.238 270.611 164.162 255.712 164.162C248.488 164.162 241.939 162.069 237.1 158.648L227.805 161.012L231.418 152.92Z" fill="white"/>
<path d="M231.418 152.92C229.793 150.501 228.775 147.643 228.668 144.707C228.588 141.778 229.309 138.814 230.814 136.279C232.285 133.725 234.381 131.573 236.749 129.841C239.119 128.099 241.789 126.784 244.575 125.859C247.361 124.928 250.265 124.37 253.194 124.136C256.127 123.921 259.08 124.103 261.978 124.582C262.698 124.73 263.429 124.829 264.14 125.018L266.271 125.591L268.353 126.326C269.046 126.576 269.704 126.913 270.381 127.203C273.038 128.467 275.53 130.123 277.625 132.214C279.715 134.296 281.401 136.841 282.29 139.688C283.177 142.525 283.242 145.64 282.378 148.493C281.539 151.356 279.892 153.926 277.83 156.037C275.763 158.155 273.292 159.841 270.648 161.133C268.004 162.442 265.156 163.293 262.268 163.818C259.375 164.315 256.422 164.527 253.492 164.321C250.563 164.136 247.653 163.601 244.865 162.68C242.081 161.763 239.401 160.483 237.016 158.768L237.137 158.79L227.823 161.08L227.683 161.115L227.742 160.984L231.418 152.92ZM231.418 152.92L227.869 161.039L227.788 160.943L237.064 158.506L237.128 158.49L237.185 158.529C241.971 161.832 247.743 163.552 253.52 163.861C256.415 164.04 259.327 163.803 262.172 163.289C265.013 162.761 267.812 161.917 270.401 160.625C272.99 159.35 275.402 157.692 277.406 155.625C279.406 153.565 280.987 151.074 281.786 148.321C282.61 145.577 282.531 142.597 281.681 139.876C280.835 137.141 279.219 134.677 277.192 132.645C275.161 130.607 272.732 128.979 270.13 127.732C269.467 127.446 268.823 127.113 268.144 126.867L266.102 126.138L264.008 125.569C263.31 125.381 262.591 125.283 261.883 125.135C259.032 124.651 256.123 124.476 253.231 124.661C250.342 124.867 247.474 125.391 244.718 126.285C241.962 127.173 239.319 128.447 236.968 130.142C234.618 131.827 232.547 133.933 231.053 136.418C229.532 138.89 228.774 141.798 228.807 144.703C228.865 147.613 229.831 150.476 231.418 152.92Z" fill="#263238"/>
<path d="M241.831 147.496V148.978H235.793V140.282H241.721V141.764H237.484V143.858H241.146V145.23H237.484V147.496L241.831 147.496Z" fill="#263238"/>
<path d="M243.155 148.979V140.282H247.001C247.401 140.282 247.77 140.366 248.109 140.534C248.447 140.701 248.739 140.922 248.984 141.195C249.229 141.469 249.421 141.779 249.56 142.126C249.699 142.473 249.768 142.822 249.768 143.173C249.768 143.736 249.627 144.249 249.345 144.71C249.064 145.172 248.682 145.505 248.2 145.708L250.185 148.979H248.286L246.511 146.063H244.845V148.979H243.155ZM244.845 144.581H246.964C247.119 144.581 247.264 144.545 247.398 144.471C247.533 144.397 247.649 144.298 247.748 144.171C247.846 144.045 247.923 143.896 247.98 143.724C248.038 143.553 248.067 143.369 248.067 143.173C248.067 142.969 248.033 142.781 247.969 142.61C247.903 142.438 247.816 142.29 247.705 142.163C247.595 142.036 247.468 141.939 247.325 141.869C247.182 141.8 247.037 141.764 246.89 141.764H244.845V144.581H244.845Z" fill="#263238"/>
<path d="M251.299 148.979V140.282H255.145C255.545 140.282 255.914 140.366 256.253 140.534C256.591 140.701 256.883 140.922 257.128 141.195C257.373 141.469 257.565 141.779 257.704 142.126C257.843 142.473 257.912 142.822 257.912 143.173C257.912 143.736 257.771 144.249 257.489 144.71C257.208 145.172 256.826 145.505 256.344 145.708L258.328 148.979H256.429L254.653 146.063H252.988V148.979H251.299ZM252.989 144.581H255.108C255.263 144.581 255.408 144.545 255.542 144.471C255.677 144.397 255.793 144.298 255.892 144.171C255.99 144.045 256.067 143.896 256.124 143.724C256.182 143.553 256.211 143.369 256.211 143.173C256.211 142.969 256.177 142.781 256.113 142.61C256.047 142.438 255.96 142.29 255.849 142.163C255.739 142.036 255.612 141.939 255.469 141.869C255.326 141.8 255.181 141.764 255.034 141.764H252.989V144.581Z" fill="#263238"/>
<path d="M263.155 149.039C262.518 149.039 261.941 148.915 261.422 148.666C260.903 148.417 260.458 148.086 260.087 147.674C259.715 147.262 259.428 146.79 259.223 146.26C259.02 145.729 258.918 145.186 258.918 144.631C258.918 144.051 259.026 143.496 259.242 142.965C259.459 142.435 259.757 141.965 260.136 141.556C260.516 141.148 260.967 140.824 261.489 140.583C262.012 140.342 262.579 140.221 263.192 140.221C263.82 140.221 264.394 140.35 264.913 140.607C265.432 140.865 265.875 141.201 266.241 141.618C266.609 142.034 266.895 142.508 267.099 143.039C267.303 143.57 267.405 144.108 267.405 144.655C267.405 145.235 267.299 145.788 267.087 146.315C266.874 146.842 266.58 147.307 266.205 147.711C265.829 148.116 265.38 148.438 264.858 148.679C264.335 148.919 263.768 149.039 263.155 149.039ZM260.632 144.63C260.632 145.006 260.689 145.37 260.803 145.72C260.918 146.072 261.084 146.382 261.299 146.652C261.516 146.921 261.781 147.137 262.095 147.3C262.41 147.464 262.767 147.546 263.167 147.546C263.576 147.546 263.937 147.462 264.251 147.295C264.565 147.128 264.83 146.905 265.047 146.627C265.263 146.349 265.427 146.037 265.537 145.69C265.647 145.343 265.702 144.99 265.702 144.631C265.702 144.256 265.643 143.892 265.525 143.541C265.407 143.19 265.24 142.879 265.023 142.61C264.806 142.34 264.541 142.126 264.227 141.967C263.913 141.808 263.56 141.728 263.168 141.728C262.759 141.728 262.396 141.812 262.078 141.98C261.759 142.147 261.494 142.367 261.282 142.641C261.069 142.915 260.908 143.225 260.798 143.572C260.687 143.918 260.632 144.271 260.632 144.63Z" fill="#263238"/>
<path d="M268.703 148.979V140.282H272.55C272.95 140.282 273.319 140.366 273.658 140.534C273.996 140.701 274.288 140.922 274.533 141.195C274.778 141.469 274.97 141.779 275.108 142.126C275.247 142.473 275.316 142.822 275.316 143.173C275.316 143.736 275.176 144.249 274.894 144.71C274.613 145.172 274.231 145.505 273.749 145.708L275.734 148.979H273.835L272.06 146.063H270.394V148.979H268.703ZM270.394 144.581H272.513C272.668 144.581 272.813 144.545 272.947 144.471C273.082 144.397 273.199 144.298 273.297 144.171C273.395 144.045 273.472 143.896 273.529 143.724C273.587 143.553 273.615 143.369 273.615 143.173C273.615 142.969 273.582 142.781 273.517 142.61C273.452 142.438 273.364 142.29 273.254 142.163C273.144 142.036 273.017 141.939 272.874 141.869C272.731 141.8 272.586 141.764 272.439 141.764H270.394V144.581H270.394Z" fill="#263238"/>
</svg>
