<?xml version="1.0" encoding="UTF-8" standalone="no" ?>
<svg width="311" height="283" viewBox="0 0 311 283" fill="none" xmlns="http://www.w3.org/2000/svg">
<path d="M156.344 255.893C226.761 255.893 283.845 199.162 283.845 129.182C283.845 59.2012 226.761 2.47083 156.344 2.47083C85.9279 2.47083 28.844 59.2012 28.844 129.182C28.844 199.162 85.9279 255.893 156.344 255.893Z" fill="#453C67"/>
<path d="M242.313 279.505C279.79 279.505 310.171 276.687 310.171 273.211C310.171 269.735 279.79 266.917 242.313 266.917C204.837 266.917 174.456 269.735 174.456 273.211C174.456 276.687 204.837 279.505 242.313 279.505Z" fill="#D1DBD9"/>
<path d="M1.87217 186.907C1.18354 186.907 0.658985 187.639 0.715187 188.278C0.779787 189.009 1.40382 189.428 2.0944 189.428C2.78303 189.428 3.30759 188.696 3.25138 188.057C3.18678 187.326 2.5621 186.907 1.87217 186.907Z" fill="#453C67"/>
<path d="M7.95237 179.769C7.26374 179.769 6.73919 180.501 6.79539 181.14C6.85999 181.871 7.48402 182.29 8.1746 182.29C8.86323 182.29 9.38779 181.558 9.33158 180.919C9.26698 180.188 8.6423 179.769 7.95237 179.769Z" fill="#453C67"/>
<path d="M73.4955 90.5307C72.8068 90.5307 72.2823 91.2626 72.3385 91.9014C72.4031 92.6326 73.0271 93.0512 73.7177 93.0512C74.4063 93.0512 74.9309 92.3193 74.8747 91.6805C74.8107 90.9493 74.186 90.5307 73.4955 90.5307Z" fill="#453C67"/>
<path d="M25.5035 180.245C24.8149 180.245 24.2903 180.977 24.3465 181.616C24.4111 182.347 25.0352 182.766 25.7257 182.766C26.4144 182.766 26.9389 182.034 26.8827 181.395C26.8181 180.664 26.1941 180.245 25.5035 180.245Z" fill="#453C67"/>
<path d="M50.076 107.557C49.3874 107.557 48.8628 108.289 48.919 108.928C48.9836 109.659 49.6077 110.078 50.2983 110.078C50.9869 110.078 51.5114 109.346 51.4552 108.707C51.3906 107.976 50.7666 107.557 50.076 107.557Z" fill="#453C67"/>
<path d="M50.235 97.2948C50.2331 97.2948 50.2311 97.2948 50.2292 97.2948C49.9863 97.2929 49.7583 97.176 49.6161 96.9802L46.1484 92.2115C45.9553 91.9463 45.9553 91.5881 46.1484 91.3229L49.6161 86.5497C49.7628 86.3474 49.9986 86.2158 50.2512 86.2351C50.5024 86.2402 50.7344 86.368 50.8726 86.576L54.2344 91.6401C54.4114 91.9072 54.4017 92.2558 54.2092 92.5119L50.8474 96.9905C50.7034 97.1812 50.4766 97.2948 50.235 97.2948ZM47.7098 91.7659L50.2453 95.2526L52.6646 92.0298L50.2072 88.328L47.7098 91.7659Z" fill="#453C67"/>
<path d="M65.1091 109.255C65.1072 109.255 65.1052 109.255 65.1033 109.255C64.8604 109.253 64.633 109.136 64.4903 108.94L61.0219 104.171C60.8287 103.906 60.8287 103.548 61.0219 103.283L64.4903 98.5095C64.6369 98.3073 64.8875 98.1833 65.1253 98.1949C65.3766 98.2 65.6085 98.3278 65.7467 98.5358L69.1079 103.6C69.2849 103.867 69.2752 104.216 69.0827 104.472L65.7215 108.95C65.5775 109.142 65.3507 109.255 65.1091 109.255ZM62.5833 103.726L65.1195 107.213L67.5381 103.99L65.0813 100.288L62.5833 103.726Z" fill="#453C67"/>
<path d="M6.09898 196.927C5.41034 196.927 4.88579 197.659 4.94199 198.298C5.00659 199.029 5.63063 199.448 6.3212 199.448C7.00984 199.448 7.53439 198.716 7.47819 198.077C7.41359 197.346 6.78955 196.927 6.09898 196.927Z" fill="#453C67"/>
<path d="M20.9053 204.709C20.9033 204.709 20.9014 204.709 20.8995 204.709C20.6566 204.707 20.4285 204.59 20.2864 204.394L16.8187 199.625C16.6255 199.36 16.6255 199.002 16.8187 198.737L20.2864 193.963C20.4331 193.761 20.6689 193.63 20.9214 193.649C21.1727 193.654 21.4046 193.782 21.5429 193.99L24.9047 199.054C25.0817 199.321 25.072 199.669 24.8795 199.926L21.5177 204.404C21.373 204.596 21.1462 204.709 20.9053 204.709ZM18.3794 199.18L20.915 202.667L23.3342 199.444L20.8769 195.742L18.3794 199.18Z" fill="#453C67"/>
<path d="M66.4941 83.2986C64.3901 83.2986 64.6879 86.5356 66.779 86.5356C68.883 86.5356 68.5852 83.2986 66.4941 83.2986Z" fill="#453C67"/>
<path d="M140.634 127.921C139.945 127.921 139.42 128.653 139.477 129.292C139.541 130.023 140.165 130.442 140.856 130.442C141.545 130.442 142.069 129.71 142.013 129.071C141.949 128.341 141.324 127.921 140.634 127.921Z" fill="#453C67"/>
<path d="M143.632 146.24C142.944 146.24 142.419 146.972 142.475 147.611C142.54 148.342 143.164 148.761 143.855 148.761C144.543 148.761 145.068 148.029 145.012 147.39C144.947 146.659 144.323 146.24 143.632 146.24Z" fill="#453C67"/>
<path d="M140.706 166.44C140.704 166.44 140.702 166.44 140.7 166.44C140.457 166.438 140.229 166.321 140.087 166.125L136.619 161.356C136.426 161.091 136.426 160.733 136.619 160.468L140.087 155.694C140.234 155.491 140.466 155.359 140.722 155.379C140.973 155.384 141.205 155.512 141.344 155.72L144.705 160.784C144.882 161.051 144.873 161.4 144.68 161.656L141.318 166.135C141.174 166.327 140.947 166.44 140.706 166.44ZM138.18 160.911L140.716 164.398L143.135 161.175L140.678 157.473L138.18 160.911Z" fill="#453C67"/>
<path d="M156.238 142.741C156.136 142.474 155.975 142.248 155.756 142.063C155.638 141.989 155.521 141.914 155.404 141.839C155.137 141.714 154.857 141.665 154.562 141.689H154.221C153.996 141.7 153.791 141.765 153.606 141.883C153.41 141.966 153.245 142.092 153.111 142.263C152.965 142.424 152.868 142.607 152.82 142.813C152.735 143.015 152.707 143.227 152.735 143.449C152.767 143.591 152.799 143.733 152.831 143.874C152.933 144.142 153.094 144.368 153.313 144.552C153.431 144.627 153.548 144.701 153.665 144.777C153.932 144.901 154.213 144.951 154.507 144.926H154.848C155.073 144.915 155.278 144.85 155.463 144.732C155.66 144.649 155.824 144.523 155.958 144.352C156.104 144.192 156.201 144.008 156.249 143.802C156.334 143.6 156.362 143.389 156.334 143.166C156.302 143.025 156.269 142.883 156.238 142.741Z" fill="#453C67"/>
<path d="M44.1852 218.38C47.5735 219.858 51.226 218.416 54.6982 219.328C57.7073 220.122 59.5154 222.788 60.2448 225.661C61.146 229.216 60.2952 232.888 60.3798 236.488C60.4612 239.788 61.4134 242.981 64.3139 244.87C65.7797 245.825 67.4425 246.418 69.022 247.159C70.4794 247.838 71.8618 248.672 73.0995 249.698C75.4632 251.664 77.3076 254.26 78.0744 257.249C78.8231 260.178 78.3799 263.424 76.8321 266.023C75.3425 268.521 72.8134 270.207 69.8928 270.512C67.8392 270.725 65.7397 270.278 64.0433 269.16C58.3882 266.847 57.7286 259.429 55.3326 254.469C54.6201 253.006 53.6969 251.602 52.4269 250.558C50.9656 249.362 49.1594 248.732 47.3248 248.361C44.1148 247.706 40.7795 247.685 37.7091 246.424C35.0372 245.318 32.8453 243.326 32.388 240.376C32.1238 238.687 32.3757 236.972 32.3072 235.267C32.2407 233.604 31.7568 232.044 30.9661 230.581C27.9635 225.027 20.7464 220.844 21.7858 213.702C22.2096 210.788 24.2174 208.398 27.24 208.007C30.4836 207.578 33.4532 209.238 35.7879 211.317C38.4972 213.734 40.764 216.884 44.1852 218.38Z" fill="#453C67"/>
<path d="M26.6999 211.04C26.5978 215.845 29.0048 220.573 33.0385 223.264C33.3731 223.487 33.718 223.685 34.0682 223.874C33.1844 223.945 32.3001 224.015 31.4163 224.087C31.0501 224.116 30.7923 224.511 30.8433 224.855C30.9002 225.237 31.249 225.454 31.6166 225.425L36.7265 225.014C37.8466 225.401 38.9965 225.718 40.1406 226.046C42.5999 226.752 45.2543 227.573 46.9035 229.65C47.9526 230.971 48.4249 232.578 48.7162 234.216C48.536 234.288 48.2614 234.228 48.087 234.204C47.7511 234.157 47.4165 234.101 47.0812 234.05L44.8389 233.705C43.4067 233.485 41.9739 233.265 40.5417 233.045C39.6755 232.912 39.5114 234.254 40.3764 234.387C41.9959 234.636 43.6148 234.884 45.2343 235.134C46.0437 235.258 46.8532 235.384 47.6632 235.507C48.0741 235.569 48.5134 235.625 48.9236 235.552C48.9552 235.789 48.9863 236.026 49.016 236.26C49.3131 238.622 49.5534 241.07 50.6323 243.233C51.4443 244.861 52.5845 246.189 53.9114 247.323C53.5341 247.319 53.1549 247.299 52.7847 247.294C52.0664 247.286 51.348 247.278 50.629 247.27L46.2201 247.219C45.8499 247.215 45.5146 247.418 45.4623 247.809C45.4177 248.141 45.6878 248.558 46.0554 248.562L50.954 248.618C51.8028 248.628 52.6523 248.637 53.5011 248.648C54.1497 248.655 54.8293 248.711 55.4553 248.508C57.8106 250.135 60.5367 251.337 63.0703 252.529C65.7551 253.792 68.531 255.212 70.5459 257.428C67.874 257.553 65.2015 257.679 62.5296 257.804C61.6569 257.845 61.8604 259.183 62.7293 259.142C65.6789 259.003 68.6285 258.865 71.5788 258.726C73.1176 261.001 73.8728 263.878 72.7513 266.488C72.407 267.289 73.666 267.803 74.0097 267.002C75.367 263.844 74.5013 260.621 72.6525 257.971C72.6525 257.959 72.657 257.946 72.657 257.934C72.5711 255.308 72.4851 252.683 72.3992 250.058C72.387 249.69 71.96 249.442 71.626 249.488C71.228 249.542 71.0407 249.893 71.053 250.257L71.2494 256.262C70.4005 255.367 69.4541 254.572 68.4703 253.92C64.7487 251.453 60.2273 250.139 56.5283 247.633C56.9572 246.88 56.9947 245.841 57.1078 245.014C57.33 243.388 57.5522 241.764 57.7744 240.138C57.8927 239.275 56.5419 239.111 56.4236 239.974C56.2318 241.376 56.0399 242.778 55.8487 244.18C55.755 244.866 55.673 245.555 55.5664 246.239C55.5315 246.462 55.4895 246.66 55.4152 246.824C54.8442 246.373 54.2977 245.885 53.786 245.347C51.9843 243.454 51.1109 241.204 50.7078 238.663C50.4901 237.292 50.3629 235.902 50.1452 234.529C50.2757 234.217 50.3467 233.874 50.4133 233.54C50.5761 232.726 50.7363 231.912 50.8978 231.097L51.8674 226.212C52.0367 225.359 50.6852 225.198 50.5166 226.048C50.2304 227.489 49.9449 228.929 49.6587 230.369C49.5825 230.755 49.5056 231.141 49.4294 231.526C48.6613 229.33 47.1684 227.598 45.1154 226.472C42.7801 225.192 40.1141 224.715 37.6031 223.897C37.5656 223.884 37.5301 223.87 37.4926 223.857C37.0701 222.017 36.6483 220.176 36.2258 218.336C36.1444 217.981 35.8363 217.71 35.4526 217.767C35.1102 217.817 34.7975 218.178 34.8795 218.535C35.2413 220.111 35.6031 221.688 35.9648 223.264C33.8841 222.346 32.0791 221.03 30.6715 219.154C28.9609 216.874 27.9913 214.054 28.052 211.202C28.0694 210.342 26.7186 210.169 26.6999 211.04Z" fill="#544FC9"/>
<path d="M40.0224 245.035C41.4694 245.908 43.0677 246.219 44.7414 246.225C47.7292 246.239 50.7996 245.402 53.7415 246.244C56.2163 246.957 57.7564 248.93 58.7002 251.213C59.6169 253.427 60.0665 255.853 61.2739 257.948C61.9657 259.143 62.925 260.084 64.1725 260.699C65.6712 261.428 67.3333 261.778 68.8049 262.564C71.3224 263.905 72.9064 266.576 72.8405 269.421C72.7856 271.751 71.5059 273.921 69.6202 275.251C68.1337 276.928 66.1764 278.18 63.9897 278.774C60.9974 279.586 57.6853 279.188 54.9896 277.658C52.1956 276.077 50.1904 273.065 46.9811 272.234C44.1025 271.487 41.089 272.543 38.2388 272.91C35.5321 273.259 32.866 272.931 30.8763 270.919C29.0314 269.058 28.1767 266.504 26.5604 264.474C25.687 263.375 24.5966 262.561 23.2316 262.154C21.6482 261.676 19.9266 261.747 18.291 261.759C15.2367 261.788 12.2082 261.574 9.92915 259.31C7.98145 257.369 6.99824 254.469 7.66233 251.771C8.3135 249.132 10.3658 246.851 12.9511 245.948C14.4789 245.417 16.0487 245.521 17.6437 245.458C19.1275 245.404 20.4208 245.045 21.6088 244.133C23.6431 242.571 25.0772 240.165 27.5372 239.189C30.7071 237.934 33.8363 239.896 36.1522 241.914C37.3971 243.003 38.598 244.176 40.0224 245.035Z" fill="#544FC9"/>
<path d="M22.7516 246.949L23.9344 252.494C23.4699 252.036 22.9906 251.603 22.479 251.222C20.7218 249.915 18.5965 249.243 16.4053 249.629C14.2431 250.009 12.267 251.28 11.1384 253.165C11.0984 253.232 11.0835 253.3 11.0667 253.366C11.0357 253.425 11.0015 253.48 10.986 253.553C10.8794 254.053 11.3012 254.306 11.7043 254.265C11.8904 254.279 12.0764 254.209 12.2101 253.996C12.2134 253.992 12.2172 253.99 12.2205 253.985L12.2218 253.984C13.2819 252.213 15.1223 251.071 17.1908 250.887C19.258 250.703 21.05 251.695 22.5416 253.027C23.0319 253.465 23.4983 253.933 23.9557 254.41C22.4919 254.774 21.0287 255.138 19.5649 255.503C18.7238 255.712 18.913 257.053 19.7645 256.841L25.0132 255.535C26.8259 257.476 28.6599 259.358 31.417 259.983C33.1703 260.38 34.9106 260.243 36.6483 259.969C36.2775 260.251 35.9061 260.533 35.5353 260.815C34.3227 261.735 33.1108 262.656 31.8983 263.577C31.2013 264.106 32.0398 265.171 32.7368 264.642C34.1128 263.597 35.4894 262.552 36.8654 261.507C37.5282 261.004 38.2472 260.532 38.8628 259.973C39.0146 259.835 39.1354 259.679 39.2259 259.512C40.9384 259.2 42.6542 258.941 44.3835 259.11C47.306 259.396 49.693 260.948 51.8649 262.819C49.0276 263.895 46.1897 264.97 43.3525 266.045C42.534 266.355 43.0734 267.598 43.8919 267.287C46.9275 266.136 49.963 264.986 52.9986 263.836C54.1885 264.942 55.3287 266.095 56.4741 267.13C57.4915 268.048 58.6343 268.934 59.8572 269.685C58.3197 270.086 56.7816 270.487 55.2441 270.888C54.4069 271.106 54.5955 272.447 55.4437 272.226C57.4941 271.691 59.5451 271.156 61.5955 270.621C64.1834 271.819 67.0278 272.246 69.8075 270.985C70.6027 270.624 70.0678 269.38 69.2681 269.743C66.9373 270.801 64.6014 270.492 62.4399 269.542C61.5988 267.049 60.7577 264.557 59.9166 262.065C59.6382 261.24 58.3894 261.779 58.6672 262.601C59.3442 264.608 60.0219 266.615 60.6989 268.621C59.248 267.735 57.9082 266.629 56.7486 265.549C55.7531 264.623 54.7531 263.639 53.7163 262.692C52.1769 259.429 50.6375 256.166 49.098 252.903C48.7272 252.116 47.4753 252.647 47.8487 253.439C48.9759 255.828 50.1039 258.219 51.2311 260.608C49.2983 259.166 47.1742 258.058 44.6787 257.783C42.8596 257.583 41.0424 257.875 39.2291 258.21C38.9416 257.631 38.3886 257.154 37.9616 256.687C37.3757 256.046 36.7898 255.405 36.2039 254.764C35.0043 253.452 33.804 252.139 32.6044 250.827C32.0184 250.185 30.9422 251.014 31.5326 251.66C33.5417 253.857 35.5559 256.051 37.5598 258.253C37.6012 258.299 37.6942 258.383 37.7866 258.477C35.7123 258.852 33.6438 259.132 31.583 258.642C29.1076 258.055 27.4034 256.247 25.7309 254.406C25.187 251.854 24.6431 249.303 24.0985 246.752C23.9176 245.904 22.5694 246.094 22.7516 246.949Z" fill="#7979E2"/>
<path d="M146.078 260.019L70.2914 282.201C64.9225 283.773 59.2888 280.721 57.7074 275.386L17.1063 138.377C15.5248 133.041 18.5953 127.443 23.9642 125.871L99.751 103.689C105.12 102.118 110.754 105.169 112.335 110.505L152.937 247.513C154.518 252.849 151.447 258.448 146.078 260.019Z" fill="#ABA9C4"/>
<path d="M150.906 258.606L75.1197 280.788C69.7508 282.36 64.117 279.308 62.5356 273.973L21.9345 136.964C20.3531 131.628 23.4235 126.03 28.7924 124.458L104.579 102.276C109.948 100.705 115.582 103.756 117.163 109.092L157.765 246.1C159.346 251.436 156.275 257.035 150.906 258.606Z" fill="#E9EFF4"/>
<path d="M112.255 112.06L29.0077 136.424L67.1526 265.152L150.4 240.789L112.255 112.06Z" fill="#C5EFEE"/>
<path d="M118.065 131.671L133.984 185.391C133.264 186.274 132.512 187.141 131.741 187.988C122.775 197.791 111.321 204.623 100.051 211.46C87.9951 218.766 75.6649 226.527 67.4109 238.205C65.3017 241.19 63.4852 244.373 61.9826 247.691L40.8584 176.407C47.748 173.104 55.5523 171.57 63.0059 170.236C69.0796 169.144 75.1972 168.11 81.0557 166.137C86.1327 164.424 90.9705 162.038 95.4299 159.077C104.242 153.212 111.489 145.141 116.228 135.701C116.89 134.382 117.5 133.039 118.065 131.671Z" fill="#D9FFFD"/>
<path d="M123.209 262.128L98.9848 269.218C96.4441 269.961 93.7528 268.504 93.0041 265.979C92.2561 263.454 93.7225 260.78 96.2632 260.035L120.487 252.946C123.028 252.202 125.719 253.66 126.468 256.185C127.216 258.71 125.749 261.384 123.209 262.128Z" fill="#ABA9C4"/>
<path d="M86.0183 115.415L47.2273 126.769C46.2661 127.05 45.2473 126.499 44.9644 125.544C44.6814 124.588 45.2364 123.576 46.1976 123.295L84.9886 111.941C85.9499 111.66 86.9686 112.211 87.2516 113.166C87.5345 114.122 86.9796 115.134 86.0183 115.415Z" fill="#ABA9C4"/>
<mask id="mask0_32_383" style="mask-type:luminance" maskUnits="userSpaceOnUse" x="90" y="163" width="101" height="93">
<path d="M99.1838 255.767L189.515 228.372C189.515 228.372 194.196 199.4 178.263 191.533C162.33 183.665 150.398 191.533 150.398 191.533C150.398 191.533 154.053 162.249 142.298 163.587C130.543 164.926 114.254 180.958 114.785 192.946C114.785 192.946 90.5719 183.337 90.9602 205.788C91.3491 228.238 99.1838 255.767 99.1838 255.767Z" fill="white"/>
</mask>
<g mask="url(#mask0_32_383)">
<path d="M126.727 191.462C124.738 194.563 120.896 195.383 118.52 198.061C116.464 200.383 116.453 203.599 117.455 206.389C118.696 209.842 121.459 212.423 123.402 215.462C125.181 218.25 126.178 221.43 124.824 224.602C124.139 226.206 123.09 227.618 122.192 229.107C121.362 230.477 120.679 231.935 120.225 233.471C119.361 236.411 119.281 239.588 120.316 242.496C121.333 245.343 123.518 247.796 126.26 249.102C128.896 250.354 131.94 250.357 134.538 248.996C136.364 248.038 137.859 246.506 138.643 244.639C142.048 239.591 138.446 233.062 137.66 227.615C137.433 226.005 137.415 224.328 137.887 222.759C138.432 220.956 139.581 219.436 140.898 218.113C143.199 215.794 145.959 213.933 147.804 211.188C149.406 208.792 150.112 205.925 148.842 203.22C148.116 201.671 146.947 200.385 146.05 198.93C145.174 197.511 144.704 195.947 144.541 194.293C143.928 188.018 147.585 180.553 142.724 175.192C140.741 173.005 137.735 172.129 135.004 173.473C132.068 174.91 130.53 177.931 129.753 180.949C128.853 184.456 128.732 188.327 126.727 191.462Z" fill="#453C67"/>
<path d="M137.15 175.697C139.924 179.634 140.569 184.893 138.723 189.358C138.57 189.729 138.394 190.084 138.209 190.434C138.983 190.005 139.757 189.575 140.532 189.146C140.853 188.968 141.288 189.154 141.438 189.468C141.605 189.816 141.436 190.19 141.114 190.368L136.638 192.851C135.924 193.793 135.146 194.691 134.379 195.597C132.73 197.542 130.984 199.692 130.776 202.33C130.643 204.008 131.15 205.605 131.825 207.126C132.015 207.087 132.21 206.886 132.342 206.769C132.594 206.544 132.842 206.313 133.091 206.085L134.762 204.56C135.829 203.585 136.896 202.61 137.963 201.635C138.608 201.046 139.496 202.071 138.851 202.66C137.645 203.762 136.439 204.864 135.232 205.966C134.628 206.516 134.026 207.069 133.422 207.619C133.116 207.897 132.782 208.188 132.4 208.353C132.506 208.568 132.614 208.781 132.72 208.993C133.795 211.12 134.965 213.286 135.279 215.681C135.515 217.483 135.311 219.217 134.843 220.893C135.154 220.681 135.458 220.454 135.763 220.246C136.355 219.842 136.948 219.438 137.541 219.034L141.176 216.555C141.482 216.347 141.874 216.33 142.136 216.626C142.358 216.877 142.368 217.373 142.065 217.579L138.025 220.334C137.325 220.811 136.625 221.288 135.924 221.766C135.389 222.131 134.856 222.552 134.223 222.73C133.176 225.384 131.583 227.89 130.145 230.281C128.62 232.815 127.108 235.529 126.673 238.484C128.964 237.112 131.255 235.739 133.546 234.366C134.294 233.917 134.874 235.142 134.128 235.588C131.599 237.103 129.071 238.619 126.542 240.134C126.536 242.875 127.519 245.684 129.911 247.232C130.646 247.708 129.887 248.831 129.153 248.356C126.258 246.481 125.173 243.324 125.227 240.1C125.219 240.09 125.209 240.082 125.202 240.072C123.804 237.842 122.406 235.613 121.008 233.384C120.812 233.072 121.028 232.63 121.331 232.483C121.692 232.308 122.044 232.496 122.238 232.804L125.435 237.904C125.639 236.691 125.982 235.507 126.435 234.422C128.147 230.315 131.169 226.723 132.841 222.597C132.063 222.208 131.45 221.365 130.894 220.74C129.8 219.512 128.705 218.284 127.611 217.056C127.03 216.405 128.061 215.521 128.642 216.173C129.586 217.233 130.53 218.292 131.474 219.351C131.936 219.869 132.389 220.397 132.861 220.906C133.015 221.073 133.16 221.214 133.315 221.309C133.537 220.618 133.717 219.911 133.842 219.181C134.28 216.611 133.747 214.259 132.659 211.924C132.072 210.664 131.4 209.438 130.813 208.177C130.53 207.99 130.279 207.744 130.037 207.503C129.446 206.916 128.857 206.328 128.267 205.741L124.727 202.217C124.108 201.601 125.142 200.72 125.758 201.334C126.802 202.374 127.845 203.412 128.889 204.452C129.169 204.73 129.448 205.008 129.728 205.286C129.137 203.037 129.408 200.772 130.485 198.702C131.709 196.347 133.658 194.478 135.287 192.409C135.311 192.378 135.332 192.346 135.357 192.315C134.678 190.552 133.999 188.79 133.32 187.027C133.189 186.686 133.293 186.292 133.643 186.127C133.956 185.979 134.418 186.105 134.55 186.448C135.131 187.958 135.713 189.468 136.295 190.978C137.51 189.065 138.273 186.974 138.393 184.636C138.539 181.796 137.766 178.916 136.12 176.58C135.621 175.873 136.647 174.983 137.15 175.697Z" fill="#544FC9"/>
<path d="M145.103 211.312C144.39 212.838 143.235 213.979 141.848 214.909C139.373 216.573 136.353 217.575 134.38 219.9C132.722 221.86 132.546 224.352 133.039 226.77C133.517 229.116 134.501 231.382 134.67 233.79C134.764 235.166 134.494 236.478 133.8 237.678C132.963 239.112 131.777 240.322 130.995 241.788C129.654 244.295 129.832 247.389 131.479 249.717C132.828 251.623 135.107 252.72 137.417 252.782C139.591 253.354 141.919 253.313 144.069 252.598C147.01 251.618 149.539 249.457 150.924 246.696C152.361 243.838 152.342 240.226 154.543 237.761C156.518 235.55 159.613 234.762 162.187 233.491C164.632 232.286 166.664 230.538 167.191 227.767C167.682 225.201 166.964 222.606 167.171 220.025C167.282 218.629 167.732 217.35 168.639 216.258C169.687 214.986 171.158 214.093 172.524 213.199C175.078 211.534 177.476 209.683 178.103 206.542C178.635 203.852 177.83 200.898 175.768 199.023C173.75 197.19 170.767 196.428 168.113 197.107C166.546 197.511 165.299 198.464 163.939 199.294C162.676 200.069 161.401 200.486 159.902 200.384C157.337 200.211 154.799 199.003 152.208 199.552C148.871 200.261 147.368 203.621 146.573 206.579C146.149 208.172 145.807 209.811 145.103 211.312Z" fill="#544FC9"/>
<path d="M160.528 203.357L162.648 208.618C162.778 207.981 162.934 207.356 163.146 206.757C163.875 204.7 165.265 202.966 167.302 202.076C169.312 201.197 171.666 201.161 173.658 202.104C173.728 202.137 173.779 202.185 173.83 202.232C173.889 202.263 173.948 202.29 174.002 202.342C174.37 202.698 174.161 203.142 173.803 203.331C173.656 203.446 173.463 203.491 173.232 203.387C173.228 203.385 173.223 203.385 173.218 203.384L173.217 203.384C171.345 202.498 169.177 202.566 167.354 203.556C165.533 204.546 164.598 206.36 164.104 208.292C163.942 208.927 163.816 209.574 163.703 210.224C165.123 209.717 166.544 209.212 167.963 208.705C168.779 208.414 169.372 209.633 168.546 209.927L163.454 211.744C163.034 214.359 162.563 216.937 160.621 218.98C159.386 220.279 157.863 221.127 156.266 221.86C156.732 221.889 157.198 221.918 157.664 221.947C159.186 222.042 160.709 222.137 162.231 222.232C163.107 222.287 163.006 223.635 162.131 223.581C160.402 223.473 158.674 223.365 156.945 223.257C156.113 223.205 155.251 223.21 154.427 223.086C154.223 223.056 154.036 222.993 153.866 222.904C152.269 223.592 150.698 224.324 149.355 225.421C147.087 227.274 145.971 229.883 145.213 232.638C148.173 231.963 151.133 231.289 154.093 230.614C154.947 230.419 155.194 231.75 154.34 231.944C151.173 232.666 148.007 233.388 144.841 234.11C144.47 235.686 144.169 237.275 143.795 238.767C143.464 240.093 143.01 241.461 142.414 242.761C143.917 242.244 145.419 241.728 146.921 241.211C147.739 240.93 148.333 242.148 147.504 242.433C145.501 243.122 143.497 243.811 141.494 244.5C140.013 246.926 137.889 248.853 134.873 249.342C134.01 249.482 133.758 248.152 134.626 248.011C137.154 247.602 138.924 246.055 140.187 244.07C139.492 241.534 138.796 238.997 138.099 236.461C137.869 235.622 139.209 235.38 139.438 236.216C139.998 238.258 140.559 240.3 141.119 242.342C141.829 240.804 142.323 239.144 142.683 237.605C142.992 236.285 143.273 234.915 143.604 233.555C143.058 229.992 142.51 226.429 141.964 222.867C141.832 222.009 143.17 221.758 143.302 222.622C143.703 225.231 144.103 227.84 144.504 230.45C145.303 228.183 146.448 226.088 148.368 224.48C149.768 223.309 151.441 222.547 153.136 221.823C153.051 221.183 153.244 220.481 153.337 219.857C153.465 219 153.593 218.143 153.721 217.287C153.983 215.533 154.246 213.779 154.509 212.025C154.637 211.168 155.995 211.262 155.866 212.125C155.426 215.062 154.979 217.998 154.547 220.936C154.538 220.996 154.508 221.117 154.483 221.247C156.417 220.413 158.293 219.501 159.731 217.956C161.46 216.1 161.865 213.655 162.224 211.2C161.248 208.779 160.273 206.358 159.297 203.937C158.974 203.132 160.201 202.546 160.528 203.357Z" fill="#7979E2"/>
<path d="M99.158 227.031C100.08 228.441 100.442 230.019 100.5 231.682C100.606 234.65 99.8576 237.725 100.794 240.621C101.587 243.058 103.619 244.527 105.942 245.395C108.197 246.238 110.651 246.611 112.795 247.746C114.018 248.397 114.994 249.321 115.65 250.542C116.429 252.008 116.833 253.649 117.668 255.086C119.094 257.545 121.829 259.037 124.688 258.885C127.03 258.759 129.174 257.422 130.453 255.508C132.094 253.98 133.294 251.998 133.824 249.807C134.549 246.81 134.048 243.532 132.428 240.901C130.752 238.173 127.661 236.274 126.727 233.111C125.889 230.274 126.858 227.249 127.14 224.406C127.409 221.707 126.997 219.069 124.913 217.154C122.984 215.378 120.391 214.607 118.299 213.064C117.167 212.23 116.315 211.171 115.865 209.828C115.335 208.27 115.355 206.558 115.317 204.932C115.252 201.897 114.945 198.895 112.599 196.7C110.588 194.825 107.641 193.936 104.947 194.679C102.312 195.406 100.08 197.514 99.2516 200.11C98.7639 201.644 98.9157 203.2 98.9021 204.786C98.8924 206.262 98.572 207.558 97.6902 208.766C96.1818 210.835 93.8052 212.332 92.8989 214.806C91.7335 217.993 93.802 221.042 95.9028 223.281C97.0345 224.485 98.251 225.642 99.158 227.031Z" fill="#7979E2"/>
<path d="M100.557 209.817L106.17 210.822C105.695 210.375 105.245 209.912 104.846 209.416C103.478 207.711 102.736 205.62 103.058 203.431C103.375 201.271 104.593 199.27 106.454 198.091C106.52 198.05 106.587 198.033 106.654 198.014C106.712 197.982 106.767 197.946 106.84 197.928C107.339 197.807 107.606 198.219 107.577 198.62C107.598 198.805 107.533 198.992 107.323 199.132C107.319 199.135 107.316 199.139 107.312 199.142L107.31 199.143C105.562 200.25 104.47 202.113 104.347 204.174C104.225 206.233 105.277 207.982 106.663 209.423C107.118 209.897 107.603 210.346 108.097 210.786C108.419 209.321 108.74 207.856 109.062 206.391C109.247 205.549 110.601 205.696 110.414 206.549L109.261 211.802C111.269 213.543 113.218 215.307 113.929 218.028C114.382 219.757 114.298 221.49 114.075 223.224C114.347 222.847 114.619 222.47 114.891 222.093C115.78 220.86 116.669 219.628 117.558 218.395C118.069 217.687 119.166 218.487 118.655 219.196C117.646 220.595 116.637 221.994 115.628 223.393C115.142 224.066 114.689 224.795 114.146 225.424C114.012 225.579 113.858 225.703 113.693 225.799C113.432 227.51 113.224 229.221 113.447 230.934C113.823 233.829 115.457 236.152 117.406 238.252C118.4 235.401 119.395 232.55 120.39 229.698C120.677 228.876 121.942 229.374 121.656 230.196C120.592 233.246 119.527 236.297 118.463 239.348C119.611 240.496 120.807 241.593 121.882 242.699C122.836 243.681 123.763 244.79 124.555 245.981C124.911 244.442 125.267 242.902 125.624 241.362C125.818 240.524 127.172 240.67 126.976 241.52C126.501 243.573 126.026 245.627 125.55 247.68C126.833 250.214 127.351 253.026 126.167 255.827C125.828 256.628 124.561 256.134 124.901 255.329C125.893 252.982 125.512 250.67 124.49 248.553C121.957 247.793 119.425 247.034 116.893 246.275C116.055 246.024 116.559 244.767 117.393 245.017C119.432 245.628 121.471 246.24 123.51 246.851C122.575 245.437 121.421 244.14 120.3 243.021C119.338 242.061 118.318 241.097 117.334 240.096C114.005 238.667 110.676 237.237 107.347 235.808C106.545 235.463 107.041 234.203 107.848 234.55C110.286 235.597 112.724 236.644 115.162 237.691C113.653 235.815 112.473 233.739 112.121 231.268C111.863 229.467 112.102 227.654 112.384 225.841C111.792 225.574 111.295 225.039 110.812 224.629C110.15 224.067 109.487 223.504 108.825 222.941C107.468 221.79 106.111 220.638 104.754 219.486C104.091 218.923 104.893 217.83 105.56 218.396C107.832 220.325 110.099 222.258 112.375 224.182C112.422 224.222 112.509 224.311 112.607 224.4C112.921 222.328 113.139 220.265 112.584 218.233C111.918 215.792 110.048 214.154 108.144 212.549C105.562 212.086 102.98 211.624 100.397 211.161C99.541 211.007 99.6909 209.662 100.557 209.817Z" fill="#453C67"/>
</g>
<path d="M166.318 80.6414C162.431 80.3795 158.724 78.5819 156.076 75.7474C153.262 72.7358 151.888 68.6238 152.186 64.5362C152.357 62.1974 153.052 59.9228 154.25 57.9011C154.377 57.6873 154.158 57.4479 153.941 57.4594C149.971 57.6655 145.982 56.3109 142.922 53.7975C139.8 51.2327 137.851 47.5001 137.4 43.5094C137.144 41.2374 137.367 38.9153 138.102 36.7459C138.17 36.5431 138.051 36.2644 137.793 36.3042C134.065 36.8808 130.198 36.1585 126.918 34.3083C123.66 32.4696 121.151 29.4965 119.79 26.0361C119.034 24.1127 118.644 22.0685 118.644 20.0032C118.644 19.7644 118.332 19.6463 118.152 19.7772C114.516 22.4287 109.781 23.4373 105.359 22.5886C101.124 21.7751 97.4324 19.1815 95.0752 15.6132C94.2709 14.3954 93.6327 13.0735 93.1837 11.6906C93.3859 11.0743 93.6068 10.4637 93.8458 9.85962C93.9925 9.48919 93.4285 9.22211 93.2812 9.59447C93.1404 9.95078 93.0183 10.3109 92.891 10.6705C92.7554 10.1299 92.6462 9.58292 92.5693 9.02952C92.5151 8.63533 91.8923 8.68733 91.9472 9.08344C92.07 9.9739 92.2728 10.8496 92.5403 11.7041C89.8329 20.2664 90.8355 29.5889 93.7774 37.9959C97.1172 47.5392 102.978 55.9514 108.913 64.0579C114.871 72.1953 121.092 80.2562 125.45 89.3932C127.605 93.9096 129.293 98.6733 130.143 103.61C130.896 107.988 130.966 112.475 130.397 116.88C129.249 125.761 125.537 134.325 119.682 141.146C118.952 141.997 118.188 142.817 117.396 143.611C117.113 143.895 117.593 144.292 117.874 144.01C124.133 137.733 128.422 129.64 130.31 121.017C132.287 111.983 131.416 102.735 128.148 94.1054C124.608 84.7579 118.812 76.4838 112.929 68.4684C106.858 60.1963 100.52 51.9543 96.2767 42.5612C92.2211 33.5847 90.121 23.2029 92.6449 13.5126C92.7166 13.2372 92.8064 12.9675 92.8859 12.6947C93.9989 15.592 95.9137 18.1806 98.384 20.0931C102.03 22.9147 106.755 24.0183 111.302 23.2691C113.713 22.8717 116.024 21.9677 118.044 20.6022C118.166 24.2391 119.479 27.8183 121.743 30.6784C124.13 33.6919 127.524 35.7849 131.274 36.6631C133.269 37.1305 135.346 37.2384 137.378 36.9822C136.208 40.8522 136.518 45.1138 138.245 48.7789C140.023 52.5545 143.277 55.4846 147.183 56.9818C149.174 57.7458 151.297 58.1265 153.429 58.0905C151.446 61.7178 151.004 66.1008 152.144 70.0664C153.282 74.0237 156.078 77.337 159.685 79.3221C161.684 80.4225 163.92 81.0966 166.202 81.2507C166.602 81.2789 166.718 80.6684 166.318 80.6414Z" fill="#222133"/>
<path d="M185.094 73.1884C185.094 73.1884 186.942 74.1065 186.898 76.2097C184.357 74.7896 185.094 73.1884 185.094 73.1884Z" fill="#141423"/>
<path d="M186.898 76.2103L181.885 78.7231C181.018 77.5502 180.168 76.663 179.425 76.012L185.094 73.1891C185.094 73.1891 184.357 74.7896 186.898 76.2103Z" fill="#38354C"/>
<path d="M174.406 76.1358L174.456 76.1981C173.994 76.5891 173.575 76.9801 173.319 77.3024C172.926 77.7986 173.556 78.562 174.362 79.2508L174.355 79.2572C174.355 79.2572 173.756 79.7599 173.219 80.4302L172.657 78.8168L170.747 79.4498C168.711 77.3839 169.686 75.603 169.686 75.603L171.465 74.8897C171.739 74.778 172.027 74.7286 172.308 74.7286C173.201 74.7273 174.05 75.255 174.406 76.1358Z" fill="#38354C"/>
<path d="M166.146 73.8279L168.056 72.8353C166.596 73.6789 166.264 76.2726 167.339 78.8162C168.456 81.4657 170.691 83.0727 172.346 82.4274C172.352 82.5019 172.365 82.5764 172.39 82.6509C172.49 82.9365 172.689 83.1908 172.945 83.4078V83.4142L170.41 84.6058C170.41 84.6058 170.179 84.5621 169.799 84.3945C168.881 83.9971 167.095 82.8871 165.547 79.9647C163.362 75.82 164.423 74.7222 164.423 74.7222L166.146 73.8279Z" fill="#E5A21A"/>
<path d="M172.658 78.8162L173.22 80.4295C172.714 81.0375 172.264 81.788 172.346 82.4274C170.691 83.0726 168.456 81.4657 167.339 78.8162C166.265 76.2726 166.596 73.6789 168.056 72.8353L168.293 72.7114C168.518 72.6183 168.75 72.5689 168.987 72.556C170.092 72.4937 171.334 73.2449 172.314 74.5167L172.308 74.7279C172.027 74.7279 171.74 74.7773 171.465 74.8891L169.686 75.6023C169.686 75.6023 168.711 77.3832 170.747 79.4492L172.658 78.8162Z" fill="#FFC545"/>
<path d="M95.6243 7.99845C95.6243 9.38196 94.4944 10.499 93.1081 10.499C91.716 10.499 90.5919 9.38196 90.5919 7.99845C90.5919 6.61494 91.716 5.49786 93.1081 5.49786C94.4944 5.49786 95.6243 6.61494 95.6243 7.99845Z" fill="#F75CA7"/>
<path d="M119.279 17.8448C119.629 18.273 119.841 18.8187 119.841 19.4145C119.841 20.798 118.712 21.9151 117.32 21.9151C115.934 21.9151 114.803 20.798 114.803 19.4145C114.803 18.0374 115.933 16.9139 117.32 16.9139C117.557 16.9139 117.781 16.9447 117.994 17.007C118.424 17.2805 118.849 17.5597 119.279 17.8448Z" fill="#F75CA7"/>
<path d="M138.908 34.2062C139.076 34.5349 139.163 34.9008 139.163 35.2918C139.163 36.6753 138.033 37.7924 136.647 37.7924C135.255 37.7924 134.125 36.6753 134.125 35.2918C134.125 33.9141 135.255 32.7912 136.647 32.7912C137.053 32.7912 137.44 32.8907 137.783 33.0641C138.158 33.4428 138.533 33.8216 138.908 34.2062Z" fill="#F75CA7"/>
<path d="M155.545 55.1148C155.639 55.3691 155.689 55.6483 155.689 55.9398C155.689 57.3169 154.565 58.4404 153.173 58.4404C151.78 58.4404 150.656 57.3175 150.656 55.9398C150.656 54.5563 151.78 53.4392 153.173 53.4392C153.828 53.4392 154.434 53.6877 154.877 54.103C155.102 54.4388 155.327 54.7739 155.545 55.1148Z" fill="#F75CA7"/>
<path d="M189.515 110.881L182.347 114.442L180.749 110.614L180.405 109.795L169.798 84.3939C170.179 84.5614 170.41 84.6051 170.41 84.6051L172.945 83.4135C173.001 83.4572 173.45 83.2768 173.943 83.0662C174.199 82.5757 174.605 82.3279 175.261 82.5635C175.273 82.5635 175.279 82.5635 175.286 82.57L182.447 96.536L185.069 101.859L185.962 103.665V103.671L186.979 105.737L189.515 110.881Z" fill="#F75CA7"/>
<path d="M168.974 72.2954L168.987 72.556C168.75 72.5682 168.518 72.6183 168.293 72.7114L168.056 72.8353L166.146 73.8279C162.793 66.9597 159.235 60.7426 155.545 55.1155C155.414 54.7245 155.183 54.3772 154.877 54.1043C149.745 46.4048 144.364 39.8282 138.908 34.2068C138.67 33.717 138.277 33.3132 137.784 33.0653C131.603 26.8611 125.353 21.8663 119.279 17.8461C118.954 17.4429 118.505 17.145 117.993 17.0083C93.0952 1.00707 71.6124 1.26773 71.6124 1.26773V0.318209C136.529 -3.30588 168.974 72.2954 168.974 72.2954Z" fill="#D5DFE2"/>
<path d="M187.903 98.9994L185.962 103.665L185.069 101.854C185.325 101.115 184.919 100.21 184.251 99.7505C184.151 99.6825 184.045 99.6202 183.939 99.5643L182.447 96.5367C181.916 94.1292 183.651 94.1606 184.332 94.2409C184.339 94.2409 184.339 94.2409 184.345 94.2473C184.476 94.3282 184.613 94.4149 184.763 94.5015C185.868 95.4876 187.903 98.9994 187.903 98.9994Z" fill="#F2AD61"/>
<path d="M116.014 140.37C118.43 140.37 120.384 142.313 120.384 144.714C120.384 146.954 118.674 148.796 116.476 149.026C116.319 149.045 116.17 149.051 116.014 149.051C114.821 149.051 113.741 148.58 112.961 147.804C112.15 147.022 111.65 145.924 111.65 144.714C111.65 142.313 113.604 140.37 116.014 140.37ZM118.355 144.714C118.355 143.429 117.306 142.387 116.014 142.387C114.722 142.387 113.673 143.43 113.673 144.714C113.673 145.998 114.722 147.04 116.014 147.04C117.306 147.04 118.355 145.998 118.355 144.714Z" fill="#38354C"/>
<path d="M116.476 159.548C117.057 164.636 114.309 167.564 114.309 167.564L113.672 163.482C110.863 167.105 103.084 166.212 103.664 158.884C104.239 151.557 111.65 152.103 111.65 152.103L112.955 147.809L112.961 147.803C113.741 148.578 114.821 149.05 116.014 149.05C116.17 149.05 116.32 149.044 116.476 149.025L112.748 153.908C112.748 153.908 107.511 152.376 105.456 156.93C103.402 161.485 107.092 166.721 112.805 162.335L107.367 161.069C110.633 158.196 116.476 159.548 116.476 159.548Z" fill="#38354C"/>
<path d="M80.0996 148.892C78.4587 146.568 76.8172 144.246 75.1757 141.922C74.7145 141.269 73.6938 141.984 74.1564 142.639C75.7978 144.963 77.4387 147.285 79.0802 149.609C79.5414 150.262 80.5621 149.547 80.0996 148.892Z" fill="#FFC545"/>
<path d="M75.1925 155.293C72.9897 154.383 70.7875 153.473 68.5846 152.563C67.8437 152.257 67.3075 153.379 68.051 153.686C70.2539 154.595 72.4561 155.505 74.659 156.415C75.3999 156.72 75.9354 155.599 75.1925 155.293Z" fill="#FFC545"/>
<path d="M73.0381 166.551C70.6479 166.684 68.2577 166.815 65.8675 166.947C65.0645 166.992 65.1744 168.228 65.9761 168.183C68.3663 168.051 70.7564 167.919 73.1466 167.787C73.9503 167.743 73.8405 166.507 73.0381 166.551Z" fill="#FFC545"/>
<path d="M86.8134 138.856V146.79C86.8134 147.588 88.057 147.475 88.057 146.682V138.748C88.057 137.949 86.8134 138.062 86.8134 138.856Z" fill="#FFC545"/>
<path d="M99.8788 140.436C99.5932 140.302 99.1662 140.417 99.0474 140.732C98.2179 142.924 97.3884 145.116 96.559 147.307C96.4401 147.621 96.5344 147.982 96.8568 148.134C97.1423 148.268 97.5693 148.153 97.6882 147.838C98.5176 145.646 99.3471 143.454 100.177 141.262C100.295 140.949 100.201 140.588 99.8788 140.436Z" fill="#FFC545"/>
<path d="M85.8238 150.503L59.1676 199.967L103.942 223.798L130.598 174.334L85.8238 150.503Z" fill="#453C67"/>
<path d="M100.852 209.581L95.5848 219.355L67.5394 204.427L72.8069 194.653C75.6305 189.414 81.1713 186.19 87.1481 186.309C87.849 186.324 88.5395 186.381 89.2237 186.492C86.1668 182.571 85.5234 177.076 88.035 172.417C91.4368 166.105 99.3471 163.728 105.698 167.108C112.055 170.491 114.441 178.35 111.04 184.661C108.528 189.321 103.575 191.836 98.5907 191.478C99.0571 191.98 99.4938 192.522 99.8943 193.094C101.605 195.532 102.547 198.342 102.712 201.203C102.88 204.059 102.264 206.962 100.852 209.581Z" fill="white"/>
<path d="M98.7227 183.499C99.4429 182.162 99.2048 180.641 98.1908 180.102C97.1769 179.562 95.7711 180.208 95.0508 181.545C94.3306 182.881 94.5687 184.402 95.5827 184.942C96.5966 185.481 98.0024 184.835 98.7227 183.499Z" fill="#F75CA7"/>
<path d="M97.075 174.959C97.7952 173.622 97.5571 172.101 96.5432 171.562C95.5292 171.022 94.1234 171.668 93.4032 173.004C92.683 174.341 92.9211 175.862 93.935 176.401C94.949 176.941 96.3548 176.295 97.075 174.959Z" fill="#F75CA7"/>
<path d="M106.605 180.227C107.326 178.891 107.088 177.37 106.074 176.83C105.06 176.291 103.654 176.937 102.934 178.273C102.213 179.61 102.451 181.13 103.465 181.67C104.479 182.21 105.885 181.564 106.605 180.227Z" fill="#F75CA7"/>
<path d="M218.133 95.7855C218.133 95.7855 213.844 100.538 210.51 103.237C207.176 105.936 200.097 106.947 195.808 106.947C191.931 106.947 188.778 106.253 186.98 105.737L185.963 103.665L187.905 98.9994L188.192 98.3169C188.48 98.435 191.002 99.6015 194.929 99.5765C203.269 99.1855 208.782 95.5191 208.782 95.5191C211.723 93.5212 214.676 90.6052 217.404 86.4296C217.316 87.044 217.266 87.652 217.26 88.2478C217.242 90.1648 217.417 92.076 217.778 93.9558L218.133 95.7855Z" fill="#5A3ACE"/>
<path d="M254.742 132.286C254.655 132.85 254.455 133.322 254.193 133.713C253.731 134.402 253.082 134.849 252.527 135.127C252.452 135.165 252.383 135.202 252.314 135.233H217.428C217.428 135.233 217.421 135.233 217.409 135.233C217.284 135.233 216.572 135.214 215.923 134.86C215.318 134.537 214.756 133.911 214.756 132.738C214.756 130.17 216.86 129.245 216.86 129.245L219.831 116.396C218.315 114.584 219.744 113.2 219.744 113.2C218.658 111.177 220.999 110.613 220.999 110.613L220.5 108.019L219.551 103.118C217.866 103.323 216.192 103.416 214.544 103.416C213.177 103.416 211.835 103.353 210.511 103.23C204.736 102.727 199.392 101.194 194.966 99.4757C190.458 97.7263 186.893 95.7778 184.765 94.4996C184.602 94.3507 184.458 94.2576 184.346 94.2454C184.339 94.2389 184.339 94.2389 184.334 94.2389C183.322 93.6188 182.71 93.2027 182.579 93.1097L183.609 91.6517L186.887 87.0107C187.018 87.1037 196.701 93.7241 208.782 95.5172C211.785 95.964 214.938 96.1129 218.134 95.7842L217.778 93.9539C217.416 92.0741 217.242 90.1629 217.26 88.2459C217.267 87.6501 217.316 87.0421 217.404 86.4277C217.678 84.5415 218.327 82.6117 219.276 80.8192C220.525 78.4432 222.292 76.3085 224.364 74.8011C225.288 71.1841 227.348 73.1878 227.348 73.1878C227.348 73.1878 225.369 78.0766 229.296 78.6229C233.198 79.1629 236.37 74.7574 236.944 71.6181C236.95 71.5994 236.95 71.5808 236.956 71.5622C236.956 71.5622 238.224 69.8622 239.616 72.0707C243.362 73.051 246.652 75.4027 248.706 78.759C249.598 80.2106 250.466 81.9235 251.24 83.94C252.926 88.3203 254.169 94.115 254.193 101.709V101.963C254.193 115.334 253.425 124.045 252.733 129.182C253.195 129.381 253.769 129.704 254.193 130.212C254.611 130.716 254.886 131.386 254.742 132.286Z" fill="#7161E5"/>
<path d="M179.275 90.0961C176.716 89.1344 173.881 87.9807 173.376 87.4222C172.539 86.4913 173.169 84.2391 173.338 83.6934C173.2 83.6068 173.069 83.5137 172.945 83.4142V83.4077C172.689 83.1907 172.489 82.9365 172.389 82.6508C172.364 82.5763 172.352 82.5019 172.345 82.4274C172.264 81.7886 172.713 81.0375 173.219 80.4295C173.756 79.7593 174.356 79.2566 174.356 79.2566L174.362 79.2501C173.556 78.5613 172.926 77.7986 173.319 77.3017C173.575 76.9788 173.994 76.5884 174.456 76.1974C174.899 75.8315 175.379 75.4591 175.804 75.1426C176.553 74.5841 177.577 74.5905 178.332 75.1304C178.657 75.3661 179.025 75.6517 179.425 76.0113C180.168 76.6629 181.016 77.5501 181.885 78.7224C181.96 78.8219 182.035 78.9208 182.109 79.0267C184.744 82.706 186.885 87.0119 186.885 87.0119L183.608 91.6529C183.608 91.6529 181.548 90.9461 179.275 90.0961Z" fill="#FFCB8D"/>
<path d="M183.802 102.933C183.409 103.045 182.996 103.082 182.591 103.094C182.759 103.119 182.928 103.156 183.097 103.199C183.795 103.379 184.576 103.764 184.688 104.471C184.763 104.961 184.47 105.445 184.07 105.743C183.82 105.929 183.539 106.053 183.24 106.158C183.19 106.177 183.14 106.189 183.09 106.208C183.502 106.307 183.896 106.481 184.239 106.723C184.62 106.995 184.951 107.356 185.1 107.796C185.25 108.236 185.194 108.764 184.888 109.112C184.501 109.564 183.839 109.639 183.246 109.651C182.453 109.67 181.66 109.633 180.867 109.726C180.711 109.745 180.561 109.763 180.405 109.794C179.837 109.881 179.269 110.017 178.701 110.073C177.971 110.148 177.197 110.085 176.566 109.713C175.936 109.334 175.498 108.577 175.673 107.871C175.779 107.442 176.085 107.095 176.454 106.853C176.129 106.753 175.892 106.438 175.786 106.115C175.592 105.532 175.704 104.861 176.029 104.34C176.235 104.017 176.522 103.751 176.847 103.54C176.647 103.626 176.46 103.732 176.285 103.85C176.191 103.583 176.21 103.291 176.254 103.018C176.454 101.84 177.215 100.778 178.246 100.17L178.22 100.121C179.257 99.5316 180.456 99.2587 181.648 99.1965C182.429 99.1528 183.253 99.2151 183.94 99.5624L182.447 96.5347C181.917 94.1272 183.652 94.1587 184.333 94.2389C184.339 94.2389 184.339 94.2389 184.345 94.2454C184.476 94.3262 184.614 94.4129 184.764 94.4996C185.869 95.4863 187.904 98.9981 187.904 98.9981L185.962 103.663L185.069 101.852C185.044 101.938 185.007 102.013 184.963 102.094C184.72 102.517 184.27 102.796 183.802 102.933Z" fill="#FFCB8D"/>
<path d="M252.526 135.128C252.451 135.165 252.383 135.202 252.313 135.233H247.625H238.666V135.152C239.484 134.78 240.295 134.277 240.739 133.496C241.176 132.714 241.114 131.598 240.395 131.058C241.282 130.66 242.206 130.238 242.774 129.457C243.342 128.676 243.373 127.422 242.587 126.863C242.156 126.559 241.538 126.479 241.294 126.013C240.932 125.331 241.713 124.63 242.362 124.202C247.3 120.913 249.903 115.18 252.063 109.677C253.069 107.115 254.036 104.447 254.036 101.711H254.193C254.193 101.791 254.193 101.878 254.193 101.965C254.193 115.335 253.425 124.046 252.732 129.184C253.194 129.382 253.768 129.705 254.193 130.213C254.611 130.716 254.886 131.386 254.742 132.286C254.655 132.85 254.454 133.322 254.193 133.713C253.731 134.402 253.082 134.849 252.526 135.128Z" fill="#5A3ACE"/>
<path d="M249.773 84.7971C248.655 89.8849 245.109 94.178 241.12 97.5844C235.226 102.629 228.103 106.233 220.536 108.014L220.499 108.021L219.55 103.119C220.923 102.958 222.309 102.722 223.702 102.399C242.45 98.0807 248.531 87.4216 249.773 84.7971Z" fill="#5A3ACE"/>
<path d="M243.174 113.294C243.174 113.294 239.615 119.114 230.588 118.295C221.566 117.475 223.389 113.294 223.389 113.294C223.389 113.294 229.202 117.085 243.174 113.294Z" fill="#5A3ACE"/>
<path d="M229.295 81.2981C232.829 81.5588 234.233 79.1083 234.434 78.7231C234.234 79.2688 232.367 84.0029 228.64 83.0662C224.689 82.0737 225.294 78.4066 225.294 78.4066C225.294 78.4066 225.462 81.0189 229.295 81.2981Z" fill="#5A3ACE"/>
<path d="M242.983 83.7191C235.972 90.9936 225.909 95.0318 215.789 94.7243C214.987 94.6999 215.103 95.9364 215.897 95.9602C226.349 96.2779 236.713 92.0144 243.939 84.5165C244.496 83.9387 243.537 83.1439 242.983 83.7191Z" fill="#5A3ACE"/>
<path d="M303.944 261.655L288.093 279.505C287.581 278.835 287.163 278.166 286.819 277.507L302.627 260.47L303.944 261.655Z" fill="white"/>
<path d="M218.951 275.658L218.932 277.427L194.977 277.457C195.146 276.632 195.371 275.881 195.633 275.193H195.639L218.951 275.658Z" fill="white"/>
<path d="M297.408 255.767L302.627 260.471L286.819 277.508C282.842 269.87 289.366 263.294 289.366 263.294V263.287L297.401 255.767H297.408Z" fill="#F75CA7"/>
<path d="M219.05 266.916L218.95 275.658L195.639 275.193V275.187C198.411 268.064 206.04 267.655 207.713 267.655L207.719 267.68L208.007 267.661C208.026 267.661 208.038 267.661 208.038 267.661L219.05 266.916Z" fill="#F75CA7"/>
<path d="M290.428 253.732L292.9 250.357L295.385 246.963L299.318 253.974L297.408 255.767H297.402L289.367 263.287L285.783 260.067L286.863 258.59L290.428 253.732Z" fill="#141423"/>
<path d="M292.9 250.357L290.428 253.732C286.445 250.183 283.08 245.963 279.927 241.639C259.138 213.179 246.227 179.104 242.918 144.092C244.641 142.907 245.777 140.959 246.658 139.036C247.207 137.838 247.7 136.523 247.626 135.233H252.314C252.383 135.202 252.452 135.164 252.527 135.127C252.489 138.49 251.528 141.629 249.892 144.316C250.261 150.8 251.741 157.445 253.126 163.265C257.846 183.013 262.996 198.76 269.346 212.82C275.931 227.401 283.835 240.002 292.9 250.357Z" fill="#222133"/>
<path d="M225.625 150.949C221.454 148.747 218.245 144.987 216.778 140.445C216.772 140.439 216.772 140.439 216.778 140.439C216.216 138.689 215.911 136.827 215.911 134.892L215.923 134.861C216.572 135.215 217.284 135.233 217.409 135.233C217.421 135.233 217.428 135.233 217.428 135.233H238.667H247.625C247.7 136.524 247.208 137.839 246.658 139.036C245.777 140.96 244.641 142.908 242.918 144.093C246.227 179.104 259.138 213.18 279.927 241.64C283.08 245.964 286.446 250.183 290.428 253.732L286.864 258.59C273.378 246.442 262.622 231.371 254.43 215.178C248.768 203.997 244.298 192.271 240.664 180.271C239.54 176.158 238.454 171.883 237.386 167.422C236.337 163.016 235.239 158.171 234.49 153.077C234.403 153.083 234.309 153.083 234.221 153.083C232.873 153.083 231.555 152.941 230.294 152.655C228.646 152.296 227.079 151.718 225.625 150.949Z" fill="#38354C"/>
<path d="M225.625 150.949C227.079 151.718 228.646 152.296 230.295 152.656C221.13 187.24 217.384 223.945 219.369 259.739L215.93 260.626C212.646 239.271 215.074 217.462 217.509 195.975C219.232 180.793 220.986 165.48 225.625 150.949Z" fill="#222133"/>
<path d="M215.929 260.625L219.369 259.738L222.796 258.857L221.355 266.762L219.051 266.917L208.038 267.662C208.038 267.662 208.026 267.662 208.007 267.662C207.957 267.655 207.857 267.655 207.714 267.655L207.008 262.928L207.882 262.704L215.929 260.625Z" fill="#141423"/>
<path d="M216.778 140.445C218.245 144.986 221.454 148.747 225.624 150.949C220.985 165.48 219.231 180.793 217.508 195.975C215.073 217.461 212.645 239.27 215.928 260.626L207.881 262.705C206.726 253.683 205.715 244.65 205.153 235.579C204.26 221.228 204.504 206.803 205.865 192.483C208.225 174.818 211.877 157.358 216.778 140.445Z" fill="#38354C"/>
<path d="M246.457 46.1994C246.314 51.3739 240.733 53.1548 240.733 53.1548C240.733 53.1548 238.348 57.6841 234.221 62.1081C234.221 62.1081 234.708 63.2496 235.158 64.9747C235.614 66.7614 236.032 69.1624 235.813 71.5635C236.195 71.5699 236.569 71.5886 236.943 71.6194C236.369 74.7588 233.197 79.1642 229.295 78.6242C225.368 78.0785 227.348 73.1891 227.348 73.1891L229.058 72.8539C229.158 72.4752 229.252 72.0348 229.302 71.5635C229.433 70.2237 229.22 68.6289 227.947 67.413C220.53 72.0848 204.685 72.3705 200.683 66.7864C200.427 66.4269 200.221 66.0417 200.065 65.6321C197.518 58.8757 197.287 36.769 197.287 36.769V36.7132H235.22L239.634 43.3829C240.246 42.5143 241.07 41.9436 241.931 41.7015C244.123 41.0685 246.558 42.4893 246.457 46.1994Z" fill="#FFCB8D"/>
<path d="M243.043 36.7125V36.9732L241.932 41.7009C241.07 41.9429 240.246 42.5136 239.634 43.3823L235.22 36.7125H243.043Z" fill="#D8358A"/>
<path d="M243.23 43.6243C242.818 43.7668 242.462 44.0525 242.175 44.3748C241.426 45.2126 241.089 46.3477 241.008 47.4583C240.964 48.0541 240.996 48.6807 241.27 49.2078C241.539 49.7413 242.1 50.1631 242.7 50.1258C243.149 50.095 243.549 49.8157 243.824 49.462C244.092 49.1018 244.248 48.6743 244.373 48.2396C244.467 47.9295 244.516 47.5264 244.254 47.3273C243.773 46.9486 242.949 47.7742 242.518 47.3395C242.418 47.2465 242.381 47.1039 242.35 46.9672C242.087 45.802 242.437 44.5244 243.23 43.6243ZM241.932 41.7009C244.123 41.0678 246.558 42.4886 246.458 46.1994C246.315 51.3739 240.733 53.1548 240.733 53.1548C240.733 53.1548 238.348 57.6841 234.222 62.1081C232.436 64.0193 230.326 65.9113 227.947 67.413C220.53 72.0848 204.685 72.3705 200.683 66.7864L200.702 66.7742C201.438 67.6306 202.569 68.0402 203.668 68.3374C209.699 69.9938 216.31 69.4975 222.029 66.9604C227.748 64.4232 232.53 59.8624 235.315 54.2911C236.744 51.4182 237.668 48.2416 237.55 45.0341C237.444 41.9692 236.313 38.8857 234.154 36.7138H235.222L239.636 43.3835C240.246 42.5136 241.07 41.9429 241.932 41.7009Z" fill="#F2AD61"/>
<path d="M244.254 47.3287C244.516 47.527 244.467 47.9302 244.373 48.2409C244.248 48.6749 244.092 49.1032 243.824 49.4633C243.549 49.8171 243.149 50.0963 242.7 50.1271C242.1 50.1644 241.538 49.7426 241.27 49.2091C240.996 48.682 240.964 48.0548 241.008 47.4596C241.089 46.349 241.426 45.2139 242.175 44.3761C242.463 44.0532 242.818 43.7681 243.23 43.6256C242.437 44.5251 242.087 45.8033 242.35 46.9698C242.381 47.1065 242.418 47.2491 242.518 47.3421C242.949 47.7755 243.773 46.9499 244.254 47.3287Z" fill="#E5913E"/>
<path d="M243.299 25.5013C243.299 25.5013 245.671 26.1343 243.592 28.2625H228.49V28.2253C229.277 27.9524 229.838 27.1891 230.013 26.3763C230.194 25.5636 230.038 24.7071 229.725 23.938C229.027 22.1943 227.547 20.7864 225.767 20.1656C227.166 19.1917 228.508 18.031 229.195 16.4741C229.826 15.0412 229.813 13.3469 229.17 11.9198C228.546 10.5299 227.322 9.41919 225.88 8.9165C248.462 10.5485 243.299 25.5013 243.299 25.5013Z" fill="#141423"/>
<path d="M235.158 64.974H235.151C234.109 70.0676 229.445 71.5198 229.302 71.5629C229.433 70.223 229.22 68.6283 227.947 67.4123C230.326 65.9107 232.436 64.0187 234.222 62.1075C234.222 62.1075 234.708 63.249 235.158 64.974Z" fill="#E5913E"/>
<path d="M230.014 26.3763C229.839 27.1891 229.277 27.9524 228.49 28.2253V28.2625H196.039C196.039 28.2625 200.203 7.73843 224.444 8.83047C224.937 8.85551 225.412 8.87991 225.88 8.91714C227.322 9.41983 228.547 10.5305 229.171 11.9198C229.813 13.3469 229.826 15.0405 229.196 16.4741C228.509 18.0316 227.167 19.1917 225.768 20.1656C227.547 20.7858 229.027 22.1943 229.726 23.938C230.038 24.7071 230.194 25.5636 230.014 26.3763Z" fill="#222133"/>
<path d="M220.268 56.0457C220.268 56.0457 222.565 59.9298 219.007 62.2128C215.448 64.4957 212.72 61.0463 212.72 61.0463L220.268 56.0457Z" fill="white"/>
<path d="M243.511 36.7125H196.013C193.441 32.146 194.684 28.2619 194.684 28.2619H244.841C245.965 31.4514 243.511 36.7125 243.511 36.7125Z" fill="#38354C"/>
<path d="M215.86 36.7125H215.629C214.006 38.27 211.827 39.7774 209.579 39.9514C207.5 40.1126 205.334 39.5726 203.717 38.2764C203.155 37.8296 202.681 37.3025 202.281 36.7132C201.07 34.9136 200.626 32.587 201.02 30.4344C201.157 29.6839 201.382 28.9578 201.694 28.2632C202.543 26.3147 203.998 24.6147 205.734 23.3557L205.79 23.3743C205.703 24.9068 206.489 26.4643 207.775 27.3079C208.044 27.4818 208.324 27.6244 208.605 27.7733L208.799 27.86C209.661 25.9802 211.296 24.4478 213.256 23.7403L213.275 23.7589C212.557 25.1488 212.164 26.6999 212.114 28.2632C212.083 29.0759 212.145 29.9009 212.307 30.7015C212.782 33.021 214.05 35.1801 215.86 36.7125Z" fill="#D8358A"/>
<path d="M228.024 54.2321C225.82 55.4423 223.211 55.8082 220.701 55.5662C218.191 55.3241 215.769 54.5049 213.477 53.463C211.929 52.7619 210.393 51.9427 208.701 51.7257C208.389 51.6885 208.071 51.6699 207.746 51.6885C207.74 51.6885 207.74 51.6885 207.74 51.6885C207.271 51.7816 206.809 51.9369 206.378 52.1353C205.685 52.4576 205.036 52.8736 204.38 53.271C204.374 53.2774 204.374 53.2774 204.374 53.2774C203.949 53.5317 203.519 53.7801 203.069 53.9907C199.741 55.5418 195.44 54.6731 192.999 51.9434C192.194 51.0439 191.582 49.9705 191.257 48.8098C190.727 46.9358 190.97 44.907 191.626 43.0709C192.25 41.3337 193.261 39.7017 194.703 38.5352C196.145 37.3687 198.037 36.6984 199.885 36.9218C201.989 37.1703 203.78 38.4915 205.597 39.5836C207.408 40.6756 209.581 41.5937 211.603 40.9613C213.164 40.4708 214.294 39.156 215.468 38.0203C217.166 36.3697 219.189 34.9612 221.499 34.4463C224.245 33.8319 227.242 34.5766 229.452 36.3074C231.669 38.0325 233.092 40.6942 233.423 43.4734C233.93 47.6927 231.77 52.1719 228.024 54.2321Z" fill="#141423"/>
<path d="M222.693 43.7033C222.693 43.7033 224.59 46.5448 220.913 47.8975C217.242 49.2502 216.231 46.0607 216.231 46.0607L222.693 43.7033Z" fill="#FFC545"/>
<path d="M195.935 44.5655L202.402 46.9171C202.402 46.9171 201.391 50.1124 197.714 48.7597C194.043 47.407 195.935 44.5655 195.935 44.5655Z" fill="#FFC545"/>
<path d="M209.482 49.4068L209.457 52.2733H209.407C208.907 53.6633 207.59 54.5935 206.26 55.2516C204.987 55.8846 203.632 56.3558 202.234 56.6473C200.76 56.9516 199.068 57.001 197.938 56.0207C200.23 54.3951 207.909 52.5898 209.482 49.4068Z" fill="#E5913E"/>
<path d="M209.457 52.2733L209.407 57.6526C209.407 57.6526 208.352 58.242 207.359 56.5298C207.359 56.5298 200.348 59.6383 197.663 57.5037C197.039 57.0074 197.232 56.5234 197.938 56.0207C199.068 57.001 200.759 56.9516 202.233 56.6473C203.632 56.3558 204.986 55.8839 206.26 55.2516C207.59 54.5941 208.907 53.6632 209.406 52.2733H209.457Z" fill="#C97223"/>
</svg>
