<svg width="300" height="296" viewBox="0 0 300 296" fill="none" xmlns="http://www.w3.org/2000/svg">
<g clip-path="url(#clip0_32_1545)">
<path d="M145.075 264.103C210.44 264.103 263.429 207.581 263.429 137.859C263.429 68.1357 210.44 11.6141 145.075 11.6141C79.71 11.6141 26.721 68.1357 26.721 137.859C26.721 207.581 79.71 264.103 145.075 264.103Z" fill="#453C67"/>
<path d="M300 202.929H0V296H300V202.929Z" fill="#E7EBFF"/>
<path d="M261.788 102.467H249.342C242.372 102.467 236.722 96.4403 236.722 89.0055V62.2682H274.408V89.0055C274.408 96.4397 268.757 102.467 261.788 102.467Z" fill="#CC943A"/>
<path d="M259.591 98.0999H251.539C245.617 98.0999 240.815 92.9786 240.815 86.6618V66.6356H270.313V86.6618C270.314 92.9786 265.513 98.0999 259.591 98.0999Z" fill="#EFB348"/>
<path d="M260.193 78.1741C260.193 75.4477 258.121 73.2372 255.565 73.2372C253.009 73.2372 250.936 75.4477 250.936 78.1741C250.936 80.2759 252.17 82.0666 253.905 82.7789L251.294 90.025H259.835L257.224 82.7789C258.959 82.0666 260.193 80.2765 260.193 78.1741Z" fill="#051934"/>
<path d="M246.143 62.2682H241.44V49.0855C241.44 41.1316 236.255 34.6605 229.883 34.6605C223.51 34.6605 218.325 41.1316 218.325 49.0855V62.2682H213.622V49.0855C213.622 38.3648 220.916 29.6436 229.883 29.6436C238.849 29.6436 246.143 38.3648 246.143 49.0855V62.2682Z" fill="#A34D2F"/>
<path d="M192.848 20.3258H119.737C114.659 20.3258 110.543 15.9354 110.543 10.5191C110.543 5.10274 114.659 0.712341 119.737 0.712341H192.848C197.926 0.712341 202.042 5.10274 202.042 10.5191C202.042 15.9354 197.926 20.3258 192.848 20.3258Z" fill="white"/>
<path d="M124.289 14.329L122.746 13.0535C123.236 12.4647 123.747 11.9015 124.279 11.3639C124.49 11.1456 124.622 11.008 124.677 10.9498C124.507 10.921 124.019 10.8007 123.216 10.5901C122.637 10.4378 122.255 10.3252 122.072 10.2522L122.675 8.33413C123.567 8.71941 124.364 9.14437 125.066 9.60965C124.902 8.42501 124.82 7.45861 124.82 6.71045H126.639C126.639 7.24101 126.547 8.21445 126.363 9.63141C126.499 9.57317 126.792 9.43173 127.242 9.20645C127.855 8.90885 128.42 8.65413 128.938 8.44357L129.48 10.4167C128.724 10.5984 127.849 10.7764 126.854 10.9504L128.08 12.4218C128.326 12.7194 128.519 12.9632 128.663 13.152L127.099 14.2528L125.72 11.8221C125.304 12.6068 124.827 13.4426 124.289 14.329Z" fill="#7DA5AF"/>
<path d="M139.967 14.329L138.424 13.0535C138.914 12.4647 139.426 11.9015 139.957 11.3639C140.168 11.1456 140.301 11.008 140.356 10.9498C140.185 10.921 139.698 10.8007 138.895 10.5901C138.316 10.4378 137.934 10.3252 137.75 10.2522L138.353 8.33413C139.246 8.71941 140.043 9.14437 140.744 9.60965C140.581 8.42501 140.499 7.45861 140.499 6.71045H142.318C142.318 7.24101 142.226 8.21445 142.042 9.63141C142.178 9.57317 142.471 9.43173 142.921 9.20645C143.534 8.90885 144.099 8.65413 144.617 8.44357L145.159 10.4167C144.403 10.5984 143.527 10.7764 142.532 10.9504L143.759 12.4218C144.004 12.7194 144.198 12.9632 144.341 13.152L142.778 14.2528L141.398 11.8221C140.983 12.6068 140.506 13.4426 139.967 14.329Z" fill="#7DA5AF"/>
<path d="M155.644 14.329L154.101 13.0535C154.592 12.4647 155.102 11.9015 155.634 11.3639C155.845 11.1456 155.978 11.008 156.032 10.9498C155.862 10.921 155.375 10.8007 154.571 10.5901C153.992 10.4378 153.611 10.3252 153.427 10.2522L154.03 8.33413C154.922 8.71941 155.72 9.14437 156.421 9.60965C156.258 8.42501 156.176 7.45861 156.176 6.71045H157.994C157.994 7.24101 157.903 8.21445 157.718 9.63141C157.855 9.57317 158.147 9.43173 158.597 9.20645C159.211 8.90885 159.776 8.65413 160.294 8.44357L160.835 10.4167C160.079 10.5984 159.204 10.7764 158.209 10.9504L159.436 12.4218C159.681 12.7194 159.875 12.9632 160.018 13.152L158.455 14.2528L157.075 11.8221C156.659 12.6068 156.182 13.4426 155.644 14.329Z" fill="#7DA5AF"/>
<path d="M171.322 14.329L169.779 13.0535C170.269 12.4647 170.78 11.9015 171.312 11.3639C171.523 11.1456 171.656 11.008 171.71 10.9498C171.54 10.921 171.053 10.8007 170.249 10.5901C169.67 10.4378 169.289 10.3252 169.105 10.2522L169.708 8.33413C170.6 8.71941 171.398 9.14437 172.099 9.60965C171.936 8.42501 171.854 7.45861 171.854 6.71045H173.672C173.672 7.24101 173.581 8.21445 173.396 9.63141C173.533 9.57317 173.825 9.43173 174.275 9.20645C174.889 8.90885 175.454 8.65413 175.972 8.44357L176.513 10.4167C175.757 10.5984 174.882 10.7764 173.887 10.9504L175.114 12.4218C175.359 12.7194 175.553 12.9632 175.696 13.152L174.133 14.2528L172.753 11.8221C172.337 12.6068 171.86 13.4426 171.322 14.329Z" fill="#7DA5AF"/>
<path d="M187.001 14.329L185.458 13.0535C185.948 12.4647 186.459 11.9015 186.991 11.3639C187.202 11.1456 187.334 11.008 187.389 10.9498C187.219 10.921 186.731 10.8007 185.928 10.5901C185.349 10.4378 184.967 10.3252 184.783 10.2522L185.386 8.33413C186.278 8.71941 187.076 9.14437 187.777 9.60965C187.613 8.42501 187.532 7.45861 187.532 6.71045H189.35C189.35 7.24101 189.259 8.21445 189.074 9.63141C189.211 9.57317 189.503 9.43173 189.953 9.20645C190.567 8.90885 191.132 8.65413 191.65 8.44357L192.191 10.4167C191.435 10.5984 190.56 10.7764 189.565 10.9504L190.792 12.4218C191.037 12.7194 191.231 12.9632 191.374 13.152L189.811 14.2528L188.431 11.8221C188.016 12.6068 187.539 13.4426 187.001 14.329Z" fill="#7DA5AF"/>
<path d="M54.9468 20.745L35.0856 57.4387C34.2594 58.9651 35.292 60.8723 36.9444 60.8723H76.6668C78.3192 60.8723 79.3512 58.9645 78.5256 57.4387L58.6638 20.745C57.8376 19.2192 55.7724 19.2192 54.9468 20.745Z" fill="#FFCC00"/>
<path d="M60.6918 34.9734C60.6918 32.6835 58.9518 30.8275 56.805 30.8275C54.6582 30.8275 52.9182 32.6835 52.9182 34.9734C52.9182 36.3667 54.357 42.5894 55.4838 47.2493C55.836 48.7059 57.774 48.7059 58.1262 47.2493C59.253 42.5901 60.6918 36.3667 60.6918 34.9734Z" fill="white"/>
<path d="M56.805 56.6298C58.4221 56.6298 59.733 55.2315 59.733 53.5066C59.733 51.7817 58.4221 50.3834 56.805 50.3834C55.1879 50.3834 53.877 51.7817 53.877 53.5066C53.877 55.2315 55.1879 56.6298 56.805 56.6298Z" fill="white"/>
<path d="M24.2202 114.745C26.3778 115.48 29.4414 117.352 31.6176 116.237C32.1414 115.969 32.2926 115.153 32.0076 114.652C30.9492 112.787 28.1106 112.371 25.98 111.894C25.689 109.222 25.389 106.573 24.8388 103.937C24.5724 102.66 22.7892 102.993 22.7562 104.237C22.6764 107.246 22.908 110.2 23.1168 113.199C23.1678 113.935 23.5518 114.517 24.2202 114.745Z" fill="#051934"/>
<path d="M33.2688 121.503C34.8474 120.87 34.53 118.642 32.8812 118.448C30.3798 118.154 27.837 118.743 25.353 119.06C23.0724 119.351 20.7504 119.466 18.5658 120.267C17.5506 120.639 17.3178 122.477 18.5658 122.721C21.009 123.199 23.4294 122.911 25.8912 122.707C28.3602 122.502 30.9312 122.438 33.2688 121.503Z" fill="#051934"/>
<path d="M32.754 125.389C31.293 126.152 29.793 126.654 28.224 127.092C27.279 127.357 26.1516 127.489 25.5306 128.395C24.879 129.346 25.0974 130.641 25.2324 131.727C25.4106 133.159 25.5564 134.871 26.6604 135.827C27.2136 136.305 28.1538 136.207 28.344 135.352C28.5942 134.226 28.2198 133.33 28.0656 132.21C28.002 131.748 28.1472 130.752 27.9534 130.381C28.026 130.365 28.098 130.347 28.1706 130.332C30.1572 130.186 32.3484 128.708 33.9588 127.586C35.2512 126.684 34.1304 124.669 32.754 125.389Z" fill="#051934"/>
<path d="M53.2404 116.237C55.4244 117.356 58.476 115.482 60.6378 114.745C61.3116 114.515 61.6902 113.932 61.7412 113.199C61.95 110.2 62.1816 107.246 62.1018 104.237C62.0688 103.005 60.2874 102.649 60.0192 103.937C59.4696 106.573 59.169 109.221 58.878 111.894C56.7486 112.372 53.9046 112.793 52.8504 114.652C52.5648 115.155 52.716 115.969 53.2404 116.237Z" fill="#051934"/>
<path d="M66.2927 120.267C64.1099 119.467 61.7849 119.352 59.5055 119.06C57.0143 118.741 54.4859 118.153 51.9773 118.448C50.3399 118.641 50.0003 120.867 51.5897 121.503C53.9267 122.438 56.4983 122.502 58.9667 122.707C61.4285 122.911 63.8489 123.199 66.2921 122.721C67.5383 122.477 67.3079 120.639 66.2927 120.267Z" fill="#051934"/>
<path d="M56.6345 127.092C55.0655 126.654 53.565 126.152 52.1046 125.389C50.73 124.67 49.6061 126.684 50.9003 127.586C52.5527 128.739 54.6732 130.111 56.6885 130.332C56.7677 130.34 56.8313 130.348 56.8884 130.356C56.8481 130.972 56.8775 131.587 56.7935 132.21C56.6387 133.354 56.2607 134.207 56.5151 135.352C56.7053 136.207 57.6455 136.305 58.1987 135.827C59.3027 134.872 59.4485 133.16 59.6267 131.727C59.7617 130.641 59.9801 129.346 59.3285 128.395C58.7069 127.489 57.5795 127.357 56.6345 127.092ZM57.1337 130.399C57.1847 130.419 57.2057 130.416 57.1337 130.399V130.399Z" fill="#051934"/>
<path d="M42.6804 133.181C50.9246 133.181 57.6078 126.053 57.6078 117.259C57.6078 108.465 50.9246 101.336 42.6804 101.336C34.4362 101.336 27.753 108.465 27.753 117.259C27.753 126.053 34.4362 133.181 42.6804 133.181Z" fill="#E26944"/>
<path d="M42.8681 108.911H55.3913C53.3321 105.351 49.9938 102.728 46.0626 101.756C47.0358 100.527 47.8704 99.2198 48.7224 97.8912C49.6056 96.5126 47.6129 94.8864 46.5576 96.1094C45.5118 97.321 44.4942 98.5101 43.5743 99.8342C43.2893 100.244 42.9354 100.678 42.606 101.135C42.2892 100.494 41.7287 99.9238 41.2415 99.376C40.3703 98.3974 39.4025 97.5373 38.3801 96.7449C37.2227 95.847 35.7119 97.9091 36.8381 98.8768C37.6979 99.6153 38.5001 100.42 39.2261 101.309C39.3239 101.428 39.4199 101.562 39.5159 101.702C35.4893 102.63 32.0664 105.286 29.9688 108.911H40.9421C40.5995 112.832 40.7388 116.787 40.7388 120.726C40.7388 124.507 40.2246 128.788 41.1126 132.461C41.3142 133.296 42.4956 133.297 42.6972 132.461C43.5876 128.779 43.071 124.516 43.071 120.726C43.0716 116.787 43.2113 112.831 42.8681 108.911Z" fill="#051934"/>
<path opacity="0.36" d="M256.591 203.052H72.9155C68.5577 206.805 66.1631 210.89 66.1631 215.163C66.1631 233.519 110.303 248.401 164.753 248.401C219.202 248.401 263.342 233.52 263.342 215.163C263.343 210.89 260.948 206.805 256.591 203.052Z" fill="#78B4EA"/>
<path opacity="0.36" d="M81.8574 269.649C90.4564 269.649 97.4274 266.724 97.4274 263.114C97.4274 259.505 90.4564 256.579 81.8574 256.579C73.2583 256.579 66.2874 259.505 66.2874 263.114C66.2874 266.724 73.2583 269.649 81.8574 269.649Z" fill="#78B4EA"/>
<path opacity="0.36" d="M230.152 275.28C238.751 275.28 245.722 272.354 245.722 268.745C245.722 265.136 238.751 262.21 230.152 262.21C221.552 262.21 214.582 265.136 214.582 268.745C214.582 272.354 221.552 275.28 230.152 275.28Z" fill="#78B4EA"/>
<path opacity="0.36" d="M263.343 261.633C271.942 261.633 278.913 258.707 278.913 255.098C278.913 251.488 271.942 248.563 263.343 248.563C254.744 248.563 247.773 251.488 247.773 255.098C247.773 258.707 254.744 261.633 263.343 261.633Z" fill="#78B4EA"/>
<path opacity="0.36" d="M259.828 283.679C268.427 283.679 275.398 280.754 275.398 277.144C275.398 273.535 268.427 270.609 259.828 270.609C251.228 270.609 244.258 273.535 244.258 277.144C244.258 280.754 251.228 283.679 259.828 283.679Z" fill="#78B4EA"/>
<path opacity="0.36" d="M59.0747 238.574C68.2683 238.574 75.7211 235.446 75.7211 231.588C75.7211 227.73 68.2683 224.602 59.0747 224.602C49.8812 224.602 42.4283 227.73 42.4283 231.588C42.4283 235.446 49.8812 238.574 59.0747 238.574Z" fill="#78B4EA"/>
<path opacity="0.36" d="M230.069 258.599C238.847 258.599 245.964 255.289 245.964 251.206C245.964 247.124 238.847 243.814 230.069 243.814C221.29 243.814 214.174 247.124 214.174 251.206C214.174 255.289 221.29 258.599 230.069 258.599Z" fill="#78B4EA"/>
<path opacity="0.36" d="M255.264 240.202C264.783 240.202 272.5 236.613 272.5 232.186C272.5 227.758 264.783 224.169 255.264 224.169C245.745 224.169 238.028 227.758 238.028 232.186C238.028 236.613 245.745 240.202 255.264 240.202Z" fill="#78B4EA"/>
<path d="M121.334 232.369L83.4221 204.511L185.369 202.332L223.956 231.498L121.334 232.369Z" fill="#C9C9C9"/>
<path d="M207.914 107.677C207.769 107.359 207.504 107.192 207.203 107.153C206.955 106.783 206.511 106.629 206.104 106.698C206.045 106.662 205.984 106.632 205.921 106.608C205.734 105.815 204.64 105.419 204.081 106.301C203.507 107.205 202.934 108.109 202.361 109.013C202.18 109.298 202.151 109.581 202.218 109.833C202.094 110.044 201.982 110.261 201.854 110.469C201.172 111.543 202.79 112.528 203.476 111.48C203.784 111.008 204.07 110.522 204.359 110.038C204.732 110.209 205.191 110.172 205.529 109.848C205.856 110.239 206.406 110.394 206.888 110.097C207.038 110.005 207.169 109.907 207.287 109.8C207.321 109.801 207.354 109.805 207.389 109.804C208.56 109.741 208.735 108.188 207.914 107.677Z" fill="#A34D2F"/>
<path d="M216.635 93.6301C215.909 93.0733 215.053 92.7271 214.126 92.5715V84.0237V81.2339V77.0093V75.5373V74.2195L204.589 76.5645V79.3543L209.523 78.1408V82.3655L204.589 83.5789V86.3687L209.523 85.1552V93.2851C205.716 95.0234 202.835 99.1571 202.835 103.047C202.835 105.112 203.631 106.86 205.076 107.967C206.08 108.737 207.323 109.128 208.675 109.128C209.555 109.128 210.481 108.963 211.415 108.627C215.599 107.126 218.876 102.7 218.876 98.5504C218.876 96.4858 218.08 94.7379 216.635 93.6301ZM210.296 105.075C209.028 105.531 207.843 105.474 207.127 104.924C206.611 104.529 206.349 103.897 206.349 103.046C206.349 100.495 208.669 97.5072 211.416 96.5216C211.984 96.3175 212.536 96.2163 213.036 96.2163C213.652 96.2163 214.19 96.3693 214.585 96.6727C215.101 97.0682 215.363 97.6999 215.363 98.5504C215.363 101.101 213.043 104.09 210.296 105.075Z" fill="#CEAF17"/>
<path d="M214.076 98.1011C212.002 95.831 209.743 98.0845 208.846 100.351C207.711 103.217 207.732 106.65 207.859 109.88C206.971 109.578 205.987 109.466 204.898 109.627C204.275 109.718 203.78 110.086 203.424 110.589C201.251 109.387 198.706 109.233 196.979 111.23C195.762 110.959 194.474 111.039 193.225 111.562C189.848 112.977 188.581 116.511 188.232 120.073C187.842 124.045 193.127 124.255 194.289 120.934C194.318 120.943 194.347 120.951 194.375 120.96C194.57 120.04 194.959 118.932 195.414 118.455C195.502 118.753 195.521 119.064 195.467 119.39C195.573 119.843 195.576 120.375 195.541 120.924C195.503 121.075 195.466 121.226 195.428 121.378C193.504 123.796 192.604 126.918 193.309 129.935C193.196 130.818 193.264 131.712 193.382 132.634C193.295 134.264 193.47 135.923 193.937 137.617C194.315 138.991 195.173 139.705 196.124 139.891C197.377 140.583 199.2 140.278 200.177 138.988C200.667 139.3 201.202 139.511 201.733 139.579C203.668 139.825 205.117 138.789 205.958 137.079C206.996 137.113 208.009 136.63 208.568 135.436C209.184 134.124 209.27 132.925 209.658 131.552C210.061 130.129 210.903 128.876 211.525 127.559C212.656 125.164 213.426 122.644 213.423 119.965C214.576 116.752 214.68 113.239 214.904 109.802C215.108 106.657 216.369 100.612 214.076 98.1011Z" fill="#D5754B"/>
<path d="M194.187 111.8C194.45 111.8 194.451 111.364 194.187 111.364C193.925 111.364 193.924 111.8 194.187 111.8Z" fill="#A34D2F"/>
<path d="M208.312 109.697C206.825 108.897 204.197 108.506 202.916 109.992C201.155 109.091 198.788 109.26 197.455 110.868L197.454 110.871C194.913 109.956 191.973 110.901 190.566 113.425C190.418 113.689 190.763 113.978 190.967 113.755C192.996 111.535 196.088 110.807 198.454 112.925C200.828 115.05 200.243 117.88 200.255 120.771C200.258 121.519 201.294 121.679 201.481 120.948C202.393 117.384 201.621 113.119 198.338 111.272C200.034 110.581 201.943 110.436 203.338 111.974C204.783 113.568 205.124 115.89 205.619 117.951C205.787 118.646 206.885 118.526 206.823 117.777C206.626 115.395 205.77 112.365 203.958 110.721C204.085 110.644 204.212 110.571 204.343 110.513C205.538 109.986 206.749 110.355 207.85 111.02C210.743 112.767 210.155 115.949 210.778 118.921C210.886 119.434 211.663 119.447 211.763 118.921C212.419 115.463 211.409 111.364 208.312 109.697Z" fill="#A34D2F"/>
<path d="M196.256 120.577C196.282 120.189 195.718 120.023 195.558 120.376C194.216 123.338 192.272 125.596 191.879 128.992C191.544 131.89 191.974 135.512 193.938 137.686C194.324 138.114 195.039 137.676 194.877 137.103C193.91 133.679 192.775 131 193.73 127.328C194.348 124.957 196.089 123.061 196.256 120.577Z" fill="#A34D2F"/>
<path d="M156.293 120.589C156.293 120.589 168.651 119.242 174.562 139.526C180.472 159.809 186.688 165.61 186.688 165.61L192.263 137.394L210.679 135.824C210.679 135.824 213.343 185.822 197.893 200.717C182.442 215.613 158.564 158.408 158.564 158.408L156.293 120.589Z" fill="#514E4E"/>
<path d="M102.59 115.32C102.59 115.32 86.9111 113.707 82.5329 135.824C78.1547 157.941 78.8849 201.741 79.7609 201.43C80.6363 201.119 158.564 218.026 158.564 218.026C158.564 218.026 166.439 164.06 162.723 141.441C159.007 118.823 153.767 118.403 153.767 118.403L102.59 115.32Z" fill="#191717"/>
<path d="M161.3 47.7338C158.408 41.6839 153.332 38.5159 149.012 36.8596C148.806 36.7661 148.574 36.6752 148.308 36.5876C148.127 36.5274 147.933 36.4666 147.735 36.4052C144.094 35.2039 141.267 35.0657 141.263 35.065C130.172 33.7549 111.931 36.3681 99.8987 61.1207C88.5887 84.386 99.3521 104.826 100.628 112.022C101.65 117.781 136.324 149.224 136.324 149.224C136.324 149.224 158.747 123.562 164.4 108.442C170.054 93.321 167.027 59.7197 161.3 47.7338ZM133.785 137.953L132.951 134.251C132.951 134.251 116.097 86.8717 117.222 72.9729C118.347 59.074 125.523 50.8397 131.916 47.2045C133.494 46.3073 137.283 44.9773 141.005 43.5239C140.409 63.0138 138.978 109.473 138.863 109.842C138.752 110.197 135.387 128.986 133.785 137.953Z" fill="#514E4E"/>
<path d="M117.52 168.3C117.916 169.808 118.048 171.34 118.211 172.89C118.309 173.832 119.641 173.887 119.629 172.89C119.608 171.133 119.056 169.489 118.295 167.951C118.07 167.494 117.392 167.809 117.52 168.3Z" fill="white"/>
<path d="M148.316 176.276C147.604 176.776 147.007 177.364 146.507 178.104C146.141 178.644 145.407 179.757 146 180.365C146.686 181.069 147.149 179.912 147.37 179.393C147.742 178.518 148.223 177.697 148.83 176.986C149.14 176.623 148.737 175.981 148.316 176.276Z" fill="white"/>
<path d="M127.903 134.799C121.342 131.669 123.7 146.658 123.709 149.224C123.719 151.989 123.105 154.12 121.193 156.023C120.069 157.142 118.769 157.985 117.887 159.366C116.132 162.115 116.128 165.728 116.7 168.871C116.983 170.428 119.168 169.995 119.212 168.508C119.313 165.153 118.953 162.049 121.57 159.598C123.223 158.049 124.838 156.785 125.698 154.537C126.585 152.22 126.635 149.657 126.424 147.197C126.241 145.077 124.341 136.897 127.705 136.414C128.393 136.315 128.524 135.095 127.903 134.799Z" fill="#ED6D4A"/>
<path d="M139.853 138.375C141.48 138.637 143.053 138.892 144.265 140.231C145.975 142.122 145.518 144.261 145.015 146.568C144.36 149.575 144.045 152.415 144.911 155.432C145.331 156.893 146.011 158.203 146.773 159.488C147.911 161.407 148.466 163.1 148.618 165.405C148.889 169.532 148.586 173.043 146.703 176.714C146.057 177.974 147.63 179.372 148.607 178.281C151.287 175.29 151.507 170.849 151.381 166.925C151.316 164.887 151.292 162.69 150.577 160.773C149.521 157.944 147.566 156.001 147.145 152.836C146.581 148.608 149.399 144.342 147.443 140.277C146.092 137.47 142.796 135.317 139.853 136.467C139.095 136.763 138.856 138.215 139.853 138.375Z" fill="#ED6D4A"/>
<path d="M133.504 139.526C133.849 139.516 133.737 137.549 134.18 135.742C135.881 126.227 138.76 110.17 138.862 109.842C138.875 109.798 138.907 109.121 138.953 107.934C135.142 104.478 126.248 102.81 122.755 102.271C127.295 118.351 132.95 134.251 132.95 134.251L133.504 139.526Z" fill="#BA5F3F"/>
<path d="M137.33 51.7805C130.063 51.7805 123.65 55.6775 119.822 61.6173C118.508 64.8762 117.572 68.6503 117.222 72.9728C116.683 79.6352 120.275 93.9892 124.161 107.132C127.781 110.19 132.353 112.021 137.33 112.021C149.057 112.021 158.563 101.881 158.563 89.3728V74.4295C158.563 61.9207 149.057 51.7805 137.33 51.7805Z" fill="#D5754B"/>
<path d="M151.249 75.7952C142.99 73.4976 134.66 71.4727 126.238 69.9796C123.432 69.4817 120.614 69.0573 117.79 68.6893V68.69C117.667 69.3562 117.559 70.0385 117.465 70.7348C117.459 70.7802 117.454 70.8269 117.448 70.8724C117.358 71.5585 117.28 72.2567 117.223 72.9735C117.198 73.2877 117.184 73.625 117.177 73.9725C117.175 74.0436 117.173 74.114 117.172 74.1863C117.169 74.5313 117.172 74.889 117.184 75.2634C117.186 75.3255 117.19 75.3908 117.193 75.4541C117.207 75.8125 117.228 76.1825 117.255 76.5652C117.259 76.6151 117.261 76.6637 117.265 76.7143C117.297 77.1309 117.338 77.5636 117.385 78.0071C117.394 78.0897 117.403 78.1729 117.412 78.2567C117.463 78.7124 117.519 79.1783 117.584 79.6596C117.586 79.6711 117.588 79.6833 117.589 79.6954C117.654 80.1773 117.729 80.674 117.808 81.1796C117.819 81.2493 117.829 81.3185 117.84 81.3889C117.922 81.8989 118.009 82.4199 118.104 82.9511C118.116 83.0164 118.128 83.0823 118.14 83.1482C118.237 83.6935 118.341 84.2465 118.45 84.8109L118.451 84.8122C124.334 86.0359 130.246 87.0925 136.178 88.0077C143.601 89.1527 151.049 90.0929 158.506 90.9466C158.54 90.4263 158.563 89.9034 158.563 89.3741V77.9066C156.13 77.1841 153.693 76.4749 151.249 75.7952Z" fill="#051934"/>
<path d="M132.734 83.3696C131.847 83.3696 131.129 82.6029 131.129 81.657V77.8432C131.129 76.8973 131.848 76.1312 132.734 76.1312C133.621 76.1312 134.339 76.8979 134.339 77.8432V81.657C134.339 82.6029 133.62 83.3696 132.734 83.3696Z" fill="white"/>
<path d="M148.932 85.5201C148.045 85.5201 147.327 84.7533 147.327 83.808V79.9943C147.327 79.0484 148.046 78.2823 148.932 78.2823C149.819 78.2823 150.537 79.049 150.537 79.9943V83.808C150.537 84.7533 149.819 85.5201 148.932 85.5201Z" fill="white"/>
<path d="M141.687 94.4468C143.083 93.7985 144.23 92.6529 144.964 91.2333C145.486 90.2202 144.033 89.3133 143.51 90.3271C142.902 91.5066 141.993 92.3604 140.838 92.8967C140.418 93.0919 140.33 93.7396 140.536 94.1249C140.782 94.5863 141.273 94.6394 141.687 94.4468Z" fill="#A34D2F"/>
<path d="M134.935 68.5165C134.889 68.4717 134.843 68.4263 134.797 68.3821C134.792 68.3777 134.789 68.3732 134.784 68.3693C134.625 68.1953 134.466 68.0212 134.307 67.8471C134.198 67.7274 134.079 67.6557 133.958 67.6161C133.842 67.5156 133.721 67.4209 133.602 67.3223C133.276 66.9697 132.943 66.6234 132.602 66.2842C132.048 65.7319 131.085 66.2669 131.131 66.9569C131.037 67.2493 131.072 67.5866 131.321 67.8509C131.756 68.3137 132.19 68.7764 132.625 69.2391C133.525 70.4237 134.498 71.529 135.676 72.4429C136.187 72.8397 136.683 72.4756 136.838 71.97C137.164 71.6493 137.247 71.0145 136.92 70.6164C136.302 69.865 135.636 69.1687 134.935 68.5165Z" fill="#843723"/>
<path d="M153.543 69.4496C152.548 69.7831 151.58 70.1799 150.627 70.6132C150.542 70.6151 150.452 70.6279 150.356 70.6644C149.429 71.0176 148.549 71.4381 147.689 71.9533C147.54 72.0429 147.437 72.1677 147.373 72.3079C147.006 72.4845 146.638 72.6605 146.274 72.8468C145.497 73.2442 145.881 74.3047 146.565 74.4781C146.778 74.5856 147.039 74.6016 147.314 74.4532C147.365 74.425 147.417 74.3988 147.469 74.3706C147.484 74.3674 147.499 74.3642 147.514 74.361C147.643 74.3335 147.75 74.2829 147.836 74.2164C147.845 74.2132 147.854 74.2132 147.864 74.21C149.658 73.5719 151.391 72.7917 153.072 71.8676C153.155 71.8215 153.221 71.7639 153.278 71.7005C153.386 71.6231 153.469 71.5264 153.528 71.4176C153.749 71.3082 153.97 71.1994 154.19 71.09C155.058 70.6618 154.445 69.1476 153.543 69.4496Z" fill="#843723"/>
<path d="M143.12 98.24C140.479 99.1072 138.061 99.4554 135.714 97.5687C133.985 96.178 132.864 94.1965 131.765 92.2432C132.194 92.0045 132.663 91.8311 133.174 91.744C134.241 91.5616 133.788 89.8317 132.727 90.0128C130.809 90.3405 129.125 91.7197 128.334 93.6116C127.896 94.6573 129.346 95.5719 129.787 94.5178C129.964 94.096 130.187 93.7204 130.446 93.385C131.828 95.8279 133.34 98.3092 135.724 99.7485C138.288 101.296 140.866 100.858 143.567 99.9712C144.599 99.6327 144.159 97.8989 143.12 98.24Z" fill="#843723"/>
<path d="M157.586 60.1876C156.56 59.7108 155.499 59.385 154.418 59.17C155.65 58.2861 156.687 57.1693 157.419 55.7812C160.096 50.7073 156.487 45.7549 151.647 42.8065C150.145 41.8919 148.618 41.2653 147.072 40.8749C142.547 43.2513 134.429 45.7767 131.917 47.2052C127.01 49.9956 121.645 55.4989 118.906 64.1895C119.665 64.9991 120.629 65.6666 121.713 66.1044C124.136 67.0823 127.002 66.9665 129.447 66.1133C130.456 65.7613 131.722 65.2775 132.32 64.4385C132.701 63.9047 132.719 63.3607 132.729 62.7988C136.641 65.2301 140.781 67.5841 145.592 68.3591C149.798 69.0369 156.339 69.0221 159.829 66.4788C162.979 64.1837 160.521 61.5527 157.586 60.1876Z" fill="#541A0F"/>
<path d="M114.346 200.903C102.405 204.623 105.61 215.132 105.61 215.132C105.61 215.132 109.719 218.527 114.14 221.695C118.561 224.863 124.536 226.664 124.536 226.664C124.536 226.664 132.669 226.641 142.65 224.057C151.872 221.67 118.962 203.884 114.346 200.903Z" fill="#D5754B"/>
<path d="M117.334 218.118C118.881 219.272 120.42 220.419 122.01 221.509C122.783 222.039 123.565 222.566 124.304 223.147C124.694 223.453 125.061 223.739 125.351 224.157C125.424 224.262 126.135 225.842 125.871 225.878C124.858 226.018 124.559 227.418 125.622 227.793C126.551 228.12 127.274 227.471 127.63 226.6C128.15 225.329 127.766 223.901 126.969 222.858C125.958 221.533 124.328 220.673 122.971 219.801C121.299 218.726 119.561 217.88 117.75 217.094C117.147 216.833 116.877 217.778 117.334 218.118Z" fill="#A34D2F"/>
<path d="M122.814 214.164C125.119 216.143 135.362 221.617 130.202 225.577C129.503 226.113 129.689 227.343 130.665 227.356C134.615 227.405 133.974 222.073 132.493 219.777C130.587 216.822 126.838 213.178 123.186 213.229C122.765 213.236 122.447 213.848 122.814 214.164Z" fill="#A34D2F"/>
<path d="M129.654 214.091C131.54 215.668 133.575 217.018 135.51 218.524C137.605 220.153 140.558 224.159 136.427 225.321C135.522 225.576 135.588 226.876 136.427 227.162C139.697 228.276 141.429 223.763 140.514 221.116C139.126 217.096 133.821 214.301 130.197 213.121C129.69 212.956 129.211 213.721 129.654 214.091Z" fill="#A34D2F"/>
<path d="M99.4613 143.387C99.4613 143.387 107.633 113.422 91.8731 114.045C76.1123 114.668 61.8113 175.375 59.7683 186.582C57.7253 197.79 106.347 217.048 106.347 217.048L117.169 200.591L83.6387 180.325L99.4613 143.387Z" fill="#514E4E"/>
<path d="M87.3389 180.074C86.6549 178.746 85.6361 177.669 84.4397 176.837C83.4857 174.269 80.5409 171.987 78.5207 170.81C75.2351 168.895 71.7473 168.725 68.3309 170.3C67.3115 170.769 68.0375 172.574 69.0869 172.212C72.2957 171.105 75.6401 171.829 78.3719 173.914C78.7355 174.191 79.0703 174.515 79.3883 174.864C78.8633 174.783 78.3401 174.732 77.8283 174.719C73.3175 174.608 70.1015 177.038 67.2065 180.485C66.2519 181.622 67.7231 183.207 68.7809 182.165C71.3015 179.68 73.8467 177.61 77.4395 177.745C80.7011 177.867 82.9403 179.578 85.2989 181.753C86.3921 182.762 88.0751 181.505 87.3389 180.074Z" fill="#191717"/>
<path d="M123.598 231.781L223.956 231.498L244.015 159.882L143.657 160.165L123.598 231.781Z" fill="#DDDDDD"/>
<path d="M197.538 189.35C198.414 184.275 195.064 180.161 190.054 180.161C185.045 180.161 180.274 184.275 179.398 189.35C178.783 192.918 180.26 196.003 182.929 197.526L182.303 201.153H183.319L183.924 197.649C183.946 197.523 184.064 197.421 184.188 197.421C184.312 197.421 184.395 197.523 184.373 197.649L183.769 201.153H185.204L185.809 197.649C185.83 197.523 185.948 197.421 186.073 197.421C186.197 197.421 186.28 197.523 186.258 197.649L185.653 201.153H187.088L187.693 197.649C187.715 197.523 187.833 197.421 187.957 197.421C188.081 197.421 188.164 197.523 188.143 197.649L187.538 201.153H188.973L189.578 197.649C189.599 197.523 189.718 197.421 189.842 197.421C189.966 197.421 190.049 197.523 190.027 197.649L189.422 201.153H190.559L191.185 197.526C194.38 196.003 196.922 192.918 197.538 189.35ZM184.006 194.038C182.532 194.038 181.546 192.828 181.804 191.334C182.062 189.841 183.465 188.631 184.939 188.631C186.412 188.631 187.398 189.841 187.14 191.334C186.883 192.828 185.479 194.038 184.006 194.038ZM186.204 195.324L187.811 193.16L188.671 195.324H186.204ZM191.314 194.038C189.84 194.038 188.855 192.828 189.112 191.334C189.37 189.841 190.773 188.631 192.247 188.631C193.72 188.631 194.706 189.841 194.448 191.334C194.191 192.828 192.787 194.038 191.314 194.038Z" fill="#442A21"/>
<path d="M196.519 195.085C196.1 195.372 195.694 195.708 195.316 195.975C194.486 196.56 193.773 197.172 193.023 197.862C192.443 198.396 192.925 199.128 193.595 198.835C194.516 198.431 195.343 198.033 196.215 197.502C196.414 197.38 196.625 197.263 196.839 197.143C196.961 197.269 197.115 197.363 197.306 197.393C198.137 197.524 198.861 197.941 199.695 198.023C200.851 198.136 201.881 196.364 201.105 195.598C200.663 195.162 200.052 194.933 199.404 194.799C199.675 193.988 199.916 193.172 199.847 192.374C199.79 191.723 198.896 191.38 198.335 191.95C197.689 192.607 197.307 193.349 196.947 194.129C196.836 194.332 196.732 194.54 196.635 194.757C196.607 194.82 196.588 194.884 196.571 194.948C196.563 194.964 196.556 194.98 196.549 194.997C196.537 195.027 196.531 195.056 196.519 195.085Z" fill="#442A21"/>
<path d="M199.207 200.855C198.345 200.936 197.477 201.353 196.601 201.485C196.4 201.516 196.214 201.61 196.048 201.736C195.875 201.615 195.704 201.498 195.547 201.376C194.861 200.847 194.166 200.446 193.387 200.044C192.823 199.752 192.08 200.477 192.479 201.016C192.992 201.709 193.49 202.317 194.12 202.903C194.41 203.173 194.696 203.509 195.016 203.796C195.017 203.824 195.013 203.853 195.016 203.882C195.018 203.898 195.02 203.913 195.022 203.929C195.017 203.993 195.013 204.058 195.02 204.122C195.041 204.34 195.074 204.548 195.115 204.751C195.206 205.53 195.332 206.273 195.751 206.929C196.115 207.498 197.128 207.156 197.409 206.505C197.755 205.704 197.795 204.891 197.803 204.08C198.497 203.945 199.187 203.717 199.78 203.281C200.814 202.518 200.409 200.741 199.207 200.855Z" fill="#442A21"/>
<path d="M178.484 195.976C178.195 195.706 177.907 195.37 177.589 195.083C177.587 195.055 177.592 195.026 177.588 194.997C177.586 194.981 177.584 194.966 177.583 194.95C177.587 194.886 177.591 194.821 177.584 194.757C177.563 194.539 177.53 194.331 177.489 194.127C177.398 193.348 177.272 192.605 176.853 191.95C176.489 191.38 175.477 191.723 175.195 192.374C174.849 193.175 174.809 193.988 174.801 194.799C174.107 194.934 173.417 195.162 172.825 195.598C171.79 196.36 172.196 198.137 173.398 198.023C174.26 197.942 175.127 197.525 176.004 197.393C176.205 197.363 176.39 197.268 176.557 197.142C176.729 197.263 176.9 197.38 177.058 197.501C177.744 198.031 178.439 198.431 179.218 198.834C179.782 199.126 180.524 198.4 180.126 197.862C179.612 197.17 179.114 196.562 178.484 195.976Z" fill="#442A21"/>
<path d="M179.009 200.044C178.088 200.447 177.261 200.845 176.389 201.376C176.189 201.498 175.978 201.615 175.765 201.735C175.642 201.609 175.489 201.516 175.297 201.485C174.466 201.354 173.743 200.937 172.909 200.855C171.753 200.742 170.723 202.514 171.499 203.28C171.941 203.716 172.552 203.945 173.2 204.079C172.928 204.891 172.687 205.706 172.757 206.504C172.813 207.155 173.708 207.498 174.268 206.928C174.914 206.271 175.297 205.529 175.657 204.749C175.768 204.546 175.872 204.339 175.969 204.121C175.997 204.058 176.015 203.994 176.033 203.93C176.041 203.914 176.047 203.898 176.055 203.881C176.069 203.852 176.074 203.823 176.086 203.793C176.505 203.506 176.911 203.17 177.289 202.903C178.119 202.319 178.832 201.706 179.582 201.016C180.161 200.482 179.679 199.749 179.009 200.044Z" fill="#442A21"/>
<path d="M69.8933 225.269C67.3523 223.846 63.4517 222.934 59.0747 222.934C54.6977 222.934 50.7971 223.846 48.2561 225.269H45.2111V229.16C45.2111 232.599 51.4181 235.387 59.0747 235.387C66.7313 235.387 72.9383 232.599 72.9383 229.16V225.269H69.8933Z" fill="#CC943A"/>
<path d="M59.0751 231.496C66.7317 231.496 72.9387 228.708 72.9387 225.269C72.9387 221.83 66.7317 219.043 59.0751 219.043C51.4184 219.043 45.2115 221.83 45.2115 225.269C45.2115 228.708 51.4184 231.496 59.0751 231.496Z" fill="#EFB348"/>
<path d="M69.1415 225.269C69.1415 227.418 64.6343 229.16 59.0747 229.16C53.5151 229.16 49.0079 227.418 49.0079 225.269C49.0079 223.12 53.5151 221.378 59.0747 221.378C64.6349 221.378 69.1415 223.12 69.1415 225.269Z" fill="#CC943A"/>
<path d="M69.8933 219.5C67.3523 218.077 63.4517 217.165 59.0747 217.165C54.6977 217.165 50.7971 218.077 48.2561 219.5H45.2111V223.391C45.2111 226.83 51.4181 229.618 59.0747 229.618C66.7313 229.618 72.9383 226.83 72.9383 223.391V219.5H69.8933Z" fill="#CC943A"/>
<path d="M59.0751 225.727C66.7317 225.727 72.9387 222.939 72.9387 219.5C72.9387 216.061 66.7317 213.274 59.0751 213.274C51.4184 213.274 45.2115 216.061 45.2115 219.5C45.2115 222.939 51.4184 225.727 59.0751 225.727Z" fill="#EFB348"/>
<path d="M69.1415 219.5C69.1415 221.649 64.6343 223.391 59.0747 223.391C53.5151 223.391 49.0079 221.649 49.0079 219.5C49.0079 217.351 53.5151 215.608 59.0747 215.608C64.6349 215.608 69.1415 217.351 69.1415 219.5Z" fill="#CC943A"/>
<path d="M69.8933 213.731C67.3523 212.309 63.4517 211.397 59.0747 211.397C54.6977 211.397 50.7971 212.309 48.2561 213.731H45.2111V217.622C45.2111 221.061 51.4181 223.849 59.0747 223.849C66.7313 223.849 72.9383 221.061 72.9383 217.622V213.731H69.8933Z" fill="#CC943A"/>
<path d="M59.0751 219.958C66.7317 219.958 72.9387 217.17 72.9387 213.731C72.9387 210.292 66.7317 207.505 59.0751 207.505C51.4184 207.505 45.2115 210.292 45.2115 213.731C45.2115 217.17 51.4184 219.958 59.0751 219.958Z" fill="#EFB348"/>
<path d="M69.1415 213.731C69.1415 215.88 64.6343 217.622 59.0747 217.622C53.5151 217.622 49.0079 215.88 49.0079 213.731C49.0079 211.582 53.5151 209.84 59.0747 209.84C64.6349 209.839 69.1415 211.581 69.1415 213.731Z" fill="#CC943A"/>
<path d="M69.8933 207.962C67.3523 206.539 63.4517 205.627 59.0747 205.627C54.6977 205.627 50.7971 206.539 48.2561 207.962H45.2111V211.853C45.2111 215.292 51.4181 218.079 59.0747 218.079C66.7313 218.079 72.9383 215.292 72.9383 211.853V207.962H69.8933Z" fill="#CC943A"/>
<path d="M59.0751 214.188C66.7317 214.188 72.9387 211.4 72.9387 207.962C72.9387 204.523 66.7317 201.735 59.0751 201.735C51.4184 201.735 45.2115 204.523 45.2115 207.962C45.2115 211.4 51.4184 214.188 59.0751 214.188Z" fill="#EFB348"/>
<path d="M69.1415 207.962C69.1415 210.111 64.6343 211.853 59.0747 211.853C53.5151 211.853 49.0079 210.111 49.0079 207.962C49.0079 205.812 53.5151 204.07 59.0747 204.07C64.6349 204.07 69.1415 205.812 69.1415 207.962Z" fill="#CC943A"/>
<path d="M69.8933 202.193C67.3523 200.77 63.4517 199.858 59.0747 199.858C54.6977 199.858 50.7971 200.77 48.2561 202.193H45.2111V206.084C45.2111 209.523 51.4181 212.31 59.0747 212.31C66.7313 212.31 72.9383 209.523 72.9383 206.084V202.193H69.8933Z" fill="#CC943A"/>
<path d="M59.0751 208.419C66.7317 208.419 72.9387 205.632 72.9387 202.193C72.9387 198.754 66.7317 195.966 59.0751 195.966C51.4184 195.966 45.2115 198.754 45.2115 202.193C45.2115 205.632 51.4184 208.419 59.0751 208.419Z" fill="#EFB348"/>
<path d="M69.1415 202.193C69.1415 204.342 64.6343 206.084 59.0747 206.084C53.5151 206.084 49.0079 204.342 49.0079 202.193C49.0079 200.044 53.5151 198.301 59.0747 198.301C64.6349 198.301 69.1415 200.044 69.1415 202.193Z" fill="#CC943A"/>
<path d="M69.8933 196.424C67.3523 195.001 63.4517 194.089 59.0747 194.089C54.6977 194.089 50.7971 195.001 48.2561 196.424H45.2111V200.315C45.2111 203.754 51.4181 206.541 59.0747 206.541C66.7313 206.541 72.9383 203.754 72.9383 200.315V196.424H69.8933Z" fill="#CC943A"/>
<path d="M59.0751 202.65C66.7317 202.65 72.9387 199.863 72.9387 196.424C72.9387 192.985 66.7317 190.197 59.0751 190.197C51.4184 190.197 45.2115 192.985 45.2115 196.424C45.2115 199.863 51.4184 202.65 59.0751 202.65Z" fill="#EFB348"/>
<path d="M69.1415 196.424C69.1415 198.573 64.6343 200.315 59.0747 200.315C53.5151 200.315 49.0079 198.573 49.0079 196.424C49.0079 194.275 53.5151 192.532 59.0747 192.532C64.6349 192.532 69.1415 194.274 69.1415 196.424Z" fill="#CC943A"/>
<path d="M69.8933 190.654C67.3523 189.231 63.4517 188.319 59.0747 188.319C54.6977 188.319 50.7971 189.231 48.2561 190.654H45.2111V194.545C45.2111 197.984 51.4181 200.772 59.0747 200.772C66.7313 200.772 72.9383 197.984 72.9383 194.545V190.654H69.8933Z" fill="#CC943A"/>
<path d="M59.0751 196.881C66.7317 196.881 72.9387 194.093 72.9387 190.654C72.9387 187.215 66.7317 184.428 59.0751 184.428C51.4184 184.428 45.2115 187.215 45.2115 190.654C45.2115 194.093 51.4184 196.881 59.0751 196.881Z" fill="#EFB348"/>
<path d="M69.1415 190.654C69.1415 192.803 64.6343 194.545 59.0747 194.545C53.5151 194.545 49.0079 192.803 49.0079 190.654C49.0079 188.505 53.5151 186.762 59.0747 186.762C64.6349 186.763 69.1415 188.505 69.1415 190.654Z" fill="#CC943A"/>
<path d="M69.8933 184.885C67.3523 183.462 63.4517 182.55 59.0747 182.55C54.6977 182.55 50.7971 183.462 48.2561 184.885H45.2111V188.776C45.2111 192.215 51.4181 195.003 59.0747 195.003C66.7313 195.003 72.9383 192.215 72.9383 188.776V184.885H69.8933Z" fill="#CC943A"/>
<path d="M59.0751 191.112C66.7317 191.112 72.9387 188.324 72.9387 184.885C72.9387 181.446 66.7317 178.659 59.0751 178.659C51.4184 178.659 45.2115 181.446 45.2115 184.885C45.2115 188.324 51.4184 191.112 59.0751 191.112Z" fill="#EFB348"/>
<path d="M69.1415 184.885C69.1415 187.034 64.6343 188.776 59.0747 188.776C53.5151 188.776 49.0079 187.034 49.0079 184.885C49.0079 182.736 53.5151 180.994 59.0747 180.994C64.6349 180.994 69.1415 182.736 69.1415 184.885Z" fill="#CC943A"/>
<path d="M69.8933 179.116C67.3523 177.693 63.4517 176.781 59.0747 176.781C54.6977 176.781 50.7971 177.693 48.2561 179.116H45.2111V183.007C45.2111 186.446 51.4181 189.234 59.0747 189.234C66.7313 189.234 72.9383 186.446 72.9383 183.007V179.116H69.8933Z" fill="#CC943A"/>
<path d="M59.0751 185.343C66.7317 185.343 72.9387 182.555 72.9387 179.116C72.9387 175.677 66.7317 172.89 59.0751 172.89C51.4184 172.89 45.2115 175.677 45.2115 179.116C45.2115 182.555 51.4184 185.343 59.0751 185.343Z" fill="#EFB348"/>
<path d="M69.1415 179.116C69.1415 181.265 64.6343 183.007 59.0747 183.007C53.5151 183.007 49.0079 181.265 49.0079 179.116C49.0079 176.967 53.5151 175.224 59.0747 175.224C64.6349 175.224 69.1415 176.967 69.1415 179.116Z" fill="#CC943A"/>
<path d="M92.6759 256.518C90.1355 255.095 86.2343 254.183 81.8573 254.183C77.4803 254.183 73.5797 255.095 71.0387 256.518H67.9937V260.409C67.9937 263.848 74.2007 266.636 81.8573 266.636C89.5139 266.636 95.7209 263.848 95.7209 260.409V256.518H92.6759Z" fill="#C18733"/>
<path d="M81.8573 262.744C89.514 262.744 95.7209 259.957 95.7209 256.518C95.7209 253.079 89.514 250.291 81.8573 250.291C74.2007 250.291 67.9937 253.079 67.9937 256.518C67.9937 259.957 74.2007 262.744 81.8573 262.744Z" fill="#FCC670"/>
<path d="M91.9241 256.518C91.9241 258.667 87.4169 260.409 81.8573 260.409C76.2977 260.409 71.7905 258.667 71.7905 256.518C71.7905 254.369 76.2977 252.627 81.8573 252.627C87.4169 252.627 91.9241 254.369 91.9241 256.518Z" fill="#CC943A"/>
<path d="M92.6759 250.749C90.1355 249.326 86.2343 248.414 81.8573 248.414C77.4803 248.414 73.5797 249.326 71.0387 250.749H67.9937V254.64C67.9937 258.079 74.2007 260.867 81.8573 260.867C89.5139 260.867 95.7209 258.079 95.7209 254.64V250.749H92.6759Z" fill="#C18733"/>
<path d="M81.8573 256.975C89.514 256.975 95.7209 254.188 95.7209 250.749C95.7209 247.31 89.514 244.522 81.8573 244.522C74.2007 244.522 67.9937 247.31 67.9937 250.749C67.9937 254.188 74.2007 256.975 81.8573 256.975Z" fill="#FCC670"/>
<path d="M91.9241 250.749C91.9241 252.898 87.4169 254.64 81.8573 254.64C76.2977 254.64 71.7905 252.898 71.7905 250.749C71.7905 248.6 76.2977 246.857 81.8573 246.857C87.4169 246.858 91.9241 248.6 91.9241 250.749Z" fill="#CC943A"/>
<path d="M92.6759 244.98C90.1355 243.557 86.2343 242.645 81.8573 242.645C77.4803 242.645 73.5797 243.557 71.0387 244.98H67.9937V248.871C67.9937 252.31 74.2007 255.098 81.8573 255.098C89.5139 255.098 95.7209 252.31 95.7209 248.871V244.98H92.6759Z" fill="#C18733"/>
<path d="M81.8573 251.206C89.514 251.206 95.7209 248.419 95.7209 244.98C95.7209 241.541 89.514 238.753 81.8573 238.753C74.2007 238.753 67.9937 241.541 67.9937 244.98C67.9937 248.419 74.2007 251.206 81.8573 251.206Z" fill="#FCC670"/>
<path d="M91.9241 244.98C91.9241 247.129 87.4169 248.871 81.8573 248.871C76.2977 248.871 71.7905 247.129 71.7905 244.98C71.7905 242.831 76.2977 241.088 81.8573 241.088C87.4169 241.088 91.9241 242.831 91.9241 244.98Z" fill="#CC943A"/>
<path d="M92.6759 239.211C90.1355 237.788 86.2343 236.876 81.8573 236.876C77.4803 236.876 73.5797 237.788 71.0387 239.211H67.9937V243.102C67.9937 246.541 74.2007 249.329 81.8573 249.329C89.5139 249.329 95.7209 246.541 95.7209 243.102V239.211H92.6759Z" fill="#C18733"/>
<path d="M81.8573 245.437C89.514 245.437 95.7209 242.649 95.7209 239.21C95.7209 235.771 89.514 232.984 81.8573 232.984C74.2007 232.984 67.9937 235.771 67.9937 239.21C67.9937 242.649 74.2007 245.437 81.8573 245.437Z" fill="#FCC670"/>
<path d="M91.9241 239.211C91.9241 241.36 87.4169 243.102 81.8573 243.102C76.2977 243.102 71.7905 241.36 71.7905 239.211C71.7905 237.062 76.2977 235.319 81.8573 235.319C87.4169 235.319 91.9241 237.061 91.9241 239.211Z" fill="#CC943A"/>
<path d="M92.6759 233.441C90.1355 232.019 86.2343 231.107 81.8573 231.107C77.4803 231.107 73.5797 232.019 71.0387 233.441H67.9937V237.333C67.9937 240.771 74.2007 243.559 81.8573 243.559C89.5139 243.559 95.7209 240.771 95.7209 237.333V233.441H92.6759Z" fill="#C18733"/>
<path d="M81.8573 239.668C89.514 239.668 95.7209 236.88 95.7209 233.441C95.7209 230.003 89.514 227.215 81.8573 227.215C74.2007 227.215 67.9937 230.003 67.9937 233.441C67.9937 236.88 74.2007 239.668 81.8573 239.668Z" fill="#FCC670"/>
<path d="M91.9241 233.441C91.9241 235.59 87.4169 237.333 81.8573 237.333C76.2977 237.333 71.7905 235.59 71.7905 233.441C71.7905 231.292 76.2977 229.549 81.8573 229.549C87.4169 229.55 91.9241 231.292 91.9241 233.441Z" fill="#CC943A"/>
<path d="M92.6759 227.672C90.1355 226.25 86.2343 225.338 81.8573 225.338C77.4803 225.338 73.5797 226.25 71.0387 227.672H67.9937V231.564C67.9937 235.002 74.2007 237.79 81.8573 237.79C89.5139 237.79 95.7209 235.002 95.7209 231.564V227.672H92.6759Z" fill="#C18733"/>
<path d="M81.8573 233.899C89.514 233.899 95.7209 231.111 95.7209 227.672C95.7209 224.234 89.514 221.446 81.8573 221.446C74.2007 221.446 67.9937 224.234 67.9937 227.672C67.9937 231.111 74.2007 233.899 81.8573 233.899Z" fill="#FCC670"/>
<path d="M91.9241 227.672C91.9241 229.821 87.4169 231.564 81.8573 231.564C76.2977 231.564 71.7905 229.821 71.7905 227.672C71.7905 225.523 76.2977 223.781 81.8573 223.781C87.4169 223.781 91.9241 225.523 91.9241 227.672Z" fill="#CC943A"/>
<path d="M266.687 227.672C264.146 226.25 260.246 225.338 255.869 225.338C251.492 225.338 247.591 226.25 245.05 227.672H242.005V231.564C242.005 235.002 248.212 237.79 255.869 237.79C263.525 237.79 269.732 235.002 269.732 231.564V227.672H266.687Z" fill="#CC943A"/>
<path d="M255.869 233.899C263.525 233.899 269.732 231.111 269.732 227.672C269.732 224.234 263.525 221.446 255.869 221.446C248.212 221.446 242.005 224.234 242.005 227.672C242.005 231.111 248.212 233.899 255.869 233.899Z" fill="#EFB348"/>
<path d="M265.936 227.672C265.936 229.821 261.428 231.564 255.869 231.564C250.309 231.564 245.802 229.821 245.802 227.672C245.802 225.523 250.309 223.781 255.869 223.781C261.428 223.781 265.936 225.523 265.936 227.672Z" fill="#CC943A"/>
<path d="M266.687 221.903C264.146 220.481 260.246 219.569 255.869 219.569C251.492 219.569 247.591 220.481 245.05 221.903H242.005V225.795C242.005 229.233 248.212 232.021 255.869 232.021C263.525 232.021 269.732 229.233 269.732 225.795V221.903H266.687Z" fill="#CC943A"/>
<path d="M255.869 228.13C263.525 228.13 269.732 225.342 269.732 221.903C269.732 218.465 263.525 215.677 255.869 215.677C248.212 215.677 242.005 218.465 242.005 221.903C242.005 225.342 248.212 228.13 255.869 228.13Z" fill="#EFB348"/>
<path d="M265.936 221.903C265.936 224.052 261.428 225.795 255.869 225.795C250.309 225.795 245.802 224.052 245.802 221.903C245.802 219.754 250.309 218.012 255.869 218.012C261.428 218.012 265.936 219.754 265.936 221.903Z" fill="#CC943A"/>
<path d="M266.687 216.134C264.146 214.711 260.246 213.799 255.869 213.799C251.492 213.799 247.591 214.711 245.05 216.134H242.005V220.025C242.005 223.464 248.212 226.252 255.869 226.252C263.525 226.252 269.732 223.464 269.732 220.025V216.134H266.687Z" fill="#CC943A"/>
<path d="M255.869 222.36C263.525 222.36 269.732 219.573 269.732 216.134C269.732 212.695 263.525 209.907 255.869 209.907C248.212 209.907 242.005 212.695 242.005 216.134C242.005 219.573 248.212 222.36 255.869 222.36Z" fill="#EFB348"/>
<path d="M265.936 216.134C265.936 218.283 261.428 220.025 255.869 220.025C250.309 220.025 245.802 218.283 245.802 216.134C245.802 213.985 250.309 212.243 255.869 212.243C261.428 212.243 265.936 213.985 265.936 216.134Z" fill="#CC943A"/>
<path d="M266.687 210.365C264.146 208.942 260.246 208.03 255.869 208.03C251.492 208.03 247.591 208.942 245.05 210.365H242.005V214.256C242.005 217.695 248.212 220.483 255.869 220.483C263.525 220.483 269.732 217.695 269.732 214.256V210.365H266.687Z" fill="#CC943A"/>
<path d="M255.869 216.591C263.525 216.591 269.732 213.804 269.732 210.365C269.732 206.926 263.525 204.138 255.869 204.138C248.212 204.138 242.005 206.926 242.005 210.365C242.005 213.804 248.212 216.591 255.869 216.591Z" fill="#EFB348"/>
<path d="M265.936 210.365C265.936 212.514 261.428 214.256 255.869 214.256C250.309 214.256 245.802 212.514 245.802 210.365C245.802 208.216 250.309 206.473 255.869 206.473C261.428 206.474 265.936 208.216 265.936 210.365Z" fill="#CC943A"/>
<path d="M266.687 204.596C264.146 203.173 260.246 202.261 255.869 202.261C251.492 202.261 247.591 203.173 245.05 204.596H242.005V208.487C242.005 211.926 248.212 214.714 255.869 214.714C263.525 214.714 269.732 211.926 269.732 208.487V204.596H266.687Z" fill="#CC943A"/>
<path d="M255.869 210.822C263.525 210.822 269.732 208.035 269.732 204.596C269.732 201.157 263.525 198.369 255.869 198.369C248.212 198.369 242.005 201.157 242.005 204.596C242.005 208.035 248.212 210.822 255.869 210.822Z" fill="#EFB348"/>
<path d="M265.936 204.596C265.936 206.745 261.428 208.487 255.869 208.487C250.309 208.487 245.802 206.745 245.802 204.596C245.802 202.447 250.309 200.704 255.869 200.704C261.428 200.704 265.936 202.447 265.936 204.596Z" fill="#CC943A"/>
<path d="M266.687 198.826C264.146 197.404 260.246 196.492 255.869 196.492C251.492 196.492 247.591 197.404 245.05 198.826H242.005V202.717C242.005 206.156 248.212 208.944 255.869 208.944C263.525 208.944 269.732 206.156 269.732 202.717V198.826H266.687Z" fill="#CC943A"/>
<path d="M255.869 205.053C263.525 205.053 269.732 202.265 269.732 198.826C269.732 195.387 263.525 192.6 255.869 192.6C248.212 192.6 242.005 195.387 242.005 198.826C242.005 202.265 248.212 205.053 255.869 205.053Z" fill="#EFB348"/>
<path d="M265.936 198.826C265.936 200.975 261.428 202.717 255.869 202.717C250.309 202.717 245.802 200.975 245.802 198.826C245.802 196.677 250.309 194.934 255.869 194.934C261.428 194.935 265.936 196.677 265.936 198.826Z" fill="#CC943A"/>
<path d="M266.687 193.057C264.146 191.635 260.246 190.723 255.869 190.723C251.492 190.723 247.591 191.635 245.05 193.057H242.005V196.949C242.005 200.387 248.212 203.175 255.869 203.175C263.525 203.175 269.732 200.387 269.732 196.949V193.057H266.687Z" fill="#CC943A"/>
<path d="M255.869 199.284C263.525 199.284 269.732 196.496 269.732 193.057C269.732 189.618 263.525 186.831 255.869 186.831C248.212 186.831 242.005 189.618 242.005 193.057C242.005 196.496 248.212 199.284 255.869 199.284Z" fill="#EFB348"/>
<path d="M265.936 193.057C265.936 195.206 261.428 196.948 255.869 196.948C250.309 196.948 245.802 195.206 245.802 193.057C245.802 190.908 250.309 189.165 255.869 189.165C261.428 189.166 265.936 190.908 265.936 193.057Z" fill="#CC943A"/>
<path d="M266.687 187.288C264.146 185.866 260.246 184.954 255.869 184.954C251.492 184.954 247.591 185.866 245.05 187.288H242.005V191.18C242.005 194.618 248.212 197.406 255.869 197.406C263.525 197.406 269.732 194.618 269.732 191.18V187.288H266.687Z" fill="#CC943A"/>
<path d="M255.869 193.515C263.525 193.515 269.732 190.727 269.732 187.288C269.732 183.849 263.525 181.062 255.869 181.062C248.212 181.062 242.005 183.849 242.005 187.288C242.005 190.727 248.212 193.515 255.869 193.515Z" fill="#EFB348"/>
<path d="M265.936 187.288C265.936 189.437 261.428 191.18 255.869 191.18C250.309 191.18 245.802 189.437 245.802 187.288C245.802 185.139 250.309 183.397 255.869 183.397C261.428 183.397 265.936 185.139 265.936 187.288Z" fill="#CC943A"/>
<path d="M266.687 181.519C264.146 180.097 260.246 179.185 255.869 179.185C251.492 179.185 247.591 180.097 245.05 181.519H242.005V185.411C242.005 188.849 248.212 191.637 255.869 191.637C263.525 191.637 269.732 188.849 269.732 185.411V181.519H266.687Z" fill="#CC943A"/>
<path d="M255.869 187.745C263.525 187.745 269.732 184.958 269.732 181.519C269.732 178.08 263.525 175.292 255.869 175.292C248.212 175.292 242.005 178.08 242.005 181.519C242.005 184.958 248.212 187.745 255.869 187.745Z" fill="#EFB348"/>
<path d="M255.869 185.411C261.428 185.411 265.936 183.669 265.936 181.519C265.936 179.37 261.428 177.628 255.869 177.628C250.309 177.628 245.802 179.37 245.802 181.519C245.802 183.669 250.309 185.411 255.869 185.411Z" fill="#CC943A"/>
<path d="M240.97 263.423C238.429 262 234.529 261.088 230.152 261.088C225.775 261.088 221.874 262 219.333 263.423H216.288V267.315C216.288 270.753 222.495 273.541 230.152 273.541C237.808 273.541 244.015 270.753 244.015 267.315V263.423H240.97Z" fill="#CC943A"/>
<path d="M230.152 269.649C237.808 269.649 244.015 266.862 244.015 263.423C244.015 259.984 237.808 257.196 230.152 257.196C222.495 257.196 216.288 259.984 216.288 263.423C216.288 266.862 222.495 269.649 230.152 269.649Z" fill="#EFB348"/>
<path d="M240.218 263.423C240.218 265.572 235.711 267.315 230.152 267.315C224.592 267.315 220.085 265.573 220.085 263.423C220.085 261.274 224.592 259.532 230.152 259.532C235.711 259.531 240.218 261.274 240.218 263.423Z" fill="#CC943A"/>
<path d="M240.97 245.461C238.429 244.038 234.529 243.126 230.152 243.126C225.775 243.126 221.874 244.038 219.333 245.461H216.288V249.353C216.288 252.792 222.495 255.58 230.152 255.58C237.808 255.58 244.015 252.792 244.015 249.353V245.461H240.97Z" fill="#C18733"/>
<path d="M230.152 251.688C237.808 251.688 244.015 248.9 244.015 245.461C244.015 242.022 237.808 239.235 230.152 239.235C222.495 239.235 216.288 242.022 216.288 245.461C216.288 248.9 222.495 251.688 230.152 251.688Z" fill="#FCC670"/>
<path d="M230.152 249.353C235.711 249.353 240.218 247.611 240.218 245.461C240.218 243.312 235.711 241.569 230.152 241.569C224.592 241.569 220.085 243.312 220.085 245.461C220.085 247.611 224.592 249.353 230.152 249.353Z" fill="#CC943A"/>
<path d="M240.97 239.692C238.429 238.269 234.529 237.357 230.152 237.357C225.775 237.357 221.874 238.269 219.333 239.692H216.288V243.584C216.288 247.023 222.495 249.811 230.152 249.811C237.808 249.811 244.015 247.023 244.015 243.584V239.692H240.97Z" fill="#C18733"/>
<path d="M230.152 245.919C237.808 245.919 244.015 243.131 244.015 239.692C244.015 236.253 237.808 233.466 230.152 233.466C222.495 233.466 216.288 236.253 216.288 239.692C216.288 243.131 222.495 245.919 230.152 245.919Z" fill="#FCC670"/>
<path d="M230.152 243.584C235.711 243.584 240.218 241.842 240.218 239.692C240.218 237.543 235.711 235.8 230.152 235.8C224.592 235.8 220.085 237.543 220.085 239.692C220.085 241.842 224.592 243.584 230.152 243.584Z" fill="#CC943A"/>
<path d="M240.97 233.923C238.429 232.501 234.529 231.589 230.152 231.589C225.775 231.589 221.874 232.501 219.333 233.923H216.288V237.815C216.288 241.254 222.495 244.042 230.152 244.042C237.808 244.042 244.015 241.254 244.015 237.815V233.923H240.97Z" fill="#C18733"/>
<path d="M230.152 240.15C237.808 240.15 244.015 237.362 244.015 233.923C244.015 230.484 237.808 227.697 230.152 227.697C222.495 227.697 216.288 230.484 216.288 233.923C216.288 237.362 222.495 240.15 230.152 240.15Z" fill="#FCC670"/>
<path d="M230.152 237.815C235.711 237.815 240.218 236.073 240.218 233.923C240.218 231.774 235.711 230.031 230.152 230.031C224.592 230.031 220.085 231.774 220.085 233.923C220.085 236.073 224.592 237.815 230.152 237.815Z" fill="#CC943A"/>
<path d="M240.97 228.154C238.429 226.731 234.529 225.819 230.152 225.819C225.775 225.819 221.874 226.731 219.333 228.154H216.288V232.045C216.288 235.484 222.495 238.272 230.152 238.272C237.808 238.272 244.015 235.484 244.015 232.045V228.154H240.97Z" fill="#C18733"/>
<path d="M230.152 234.38C237.808 234.38 244.015 231.592 244.015 228.154C244.015 224.715 237.808 221.927 230.152 221.927C222.495 221.927 216.288 224.715 216.288 228.154C216.288 231.592 222.495 234.38 230.152 234.38Z" fill="#FCC670"/>
<path d="M230.152 232.045C235.711 232.045 240.218 230.303 240.218 228.154C240.218 226.004 235.711 224.262 230.152 224.262C224.592 224.262 220.085 226.004 220.085 228.154C220.085 230.303 224.592 232.045 230.152 232.045Z" fill="#CC943A"/>
<path d="M240.97 222.385C238.429 220.962 234.529 220.05 230.152 220.05C225.775 220.05 221.874 220.962 219.333 222.385H216.288V226.276C216.288 229.715 222.495 232.502 230.152 232.502C237.808 232.502 244.015 229.715 244.015 226.276V222.385H240.97Z" fill="#C18733"/>
<path d="M230.152 228.611C237.808 228.611 244.015 225.824 244.015 222.385C244.015 218.946 237.808 216.158 230.152 216.158C222.495 216.158 216.288 218.946 216.288 222.385C216.288 225.824 222.495 228.611 230.152 228.611Z" fill="#FCC670"/>
<path d="M230.152 226.277C235.711 226.277 240.218 224.534 240.218 222.385C240.218 220.235 235.711 218.493 230.152 218.493C224.592 218.493 220.085 220.235 220.085 222.385C220.085 224.534 224.592 226.277 230.152 226.277Z" fill="#CC943A"/>
<path d="M240.97 216.616C238.429 215.193 234.529 214.281 230.152 214.281C225.775 214.281 221.874 215.193 219.333 216.616H216.288V220.508C216.288 223.946 222.495 226.734 230.152 226.734C237.808 226.734 244.015 223.946 244.015 220.508V216.616H240.97Z" fill="#C18733"/>
<path d="M230.152 222.842C237.808 222.842 244.015 220.055 244.015 216.616C244.015 213.177 237.808 210.389 230.152 210.389C222.495 210.389 216.288 213.177 216.288 216.616C216.288 220.055 222.495 222.842 230.152 222.842Z" fill="#FCC670"/>
<path d="M230.152 220.508C235.711 220.508 240.218 218.765 240.218 216.616C240.218 214.466 235.711 212.724 230.152 212.724C224.592 212.724 220.085 214.466 220.085 216.616C220.085 218.765 224.592 220.508 230.152 220.508Z" fill="#CC943A"/>
<path d="M274.162 249.742C271.621 248.319 267.72 247.407 263.343 247.407C258.966 247.407 255.065 248.319 252.524 249.742H249.479V253.633C249.479 257.072 255.686 259.86 263.343 259.86C271 259.86 277.207 257.072 277.207 253.633V249.742H274.162Z" fill="#C18733"/>
<path d="M263.343 255.969C271 255.969 277.207 253.181 277.207 249.742C277.207 246.303 271 243.516 263.343 243.516C255.686 243.516 249.479 246.303 249.479 249.742C249.479 253.181 255.686 255.969 263.343 255.969Z" fill="#FCC670"/>
<path d="M273.409 249.742C273.409 251.891 268.902 253.633 263.342 253.633C257.783 253.633 253.276 251.891 253.276 249.742C253.276 247.593 257.783 245.851 263.342 245.851C268.903 245.85 273.409 247.593 273.409 249.742Z" fill="#CC943A"/>
<path d="M270.646 272.198C268.105 270.775 264.204 269.863 259.827 269.863C255.45 269.863 251.549 270.775 249.008 272.198H245.963V276.09C245.963 279.528 252.17 282.316 259.827 282.316C267.484 282.316 273.691 279.528 273.691 276.09V272.198H270.646Z" fill="#C18733"/>
<path d="M259.827 278.424C267.484 278.424 273.691 275.637 273.691 272.198C273.691 268.759 267.484 265.971 259.827 265.971C252.171 265.971 245.964 268.759 245.964 272.198C245.964 275.637 252.171 278.424 259.827 278.424Z" fill="#FCC670"/>
<path d="M259.828 276.09C265.387 276.09 269.894 274.347 269.894 272.198C269.894 270.048 265.387 268.306 259.828 268.306C254.268 268.306 249.761 270.048 249.761 272.198C249.761 274.347 254.268 276.09 259.828 276.09Z" fill="#CC943A"/>
<path d="M199.735 263.333L163.414 264.681L148.769 248.277L185.09 246.928L199.735 263.333Z" fill="#C64720"/>
<path d="M182.946 251.235C184.113 252.543 183.569 253.658 181.73 253.726C179.891 253.795 177.455 252.79 176.287 251.482C175.12 250.175 175.664 249.06 177.503 248.991C179.342 248.924 181.778 249.928 182.946 251.235Z" fill="#F24C3B"/>
<path d="M187.293 251.074C188.46 252.381 187.916 253.496 186.077 253.565C184.239 253.633 181.802 252.628 180.635 251.321C179.468 250.013 180.012 248.899 181.85 248.83C183.689 248.762 186.125 249.766 187.293 251.074Z" fill="#EFA63C"/>
<path d="M196.803 260.049L160.483 261.397L157.783 258.374L194.104 257.025L196.803 260.049Z" fill="#EFBB75"/>
<path d="M166.16 255.327L129.839 256.675L115.195 240.271L151.516 238.922L166.16 255.327Z" fill="#09385B"/>
<path d="M149.371 243.23C150.538 244.538 149.994 245.653 148.156 245.721C146.317 245.789 143.881 244.785 142.713 243.477C141.546 242.17 142.09 241.055 143.929 240.986C145.768 240.918 148.204 241.923 149.371 243.23Z" fill="#F24C3B"/>
<path d="M153.718 243.069C154.885 244.376 154.341 245.491 152.503 245.56C150.664 245.628 148.228 244.623 147.06 243.316C145.893 242.008 146.437 240.893 148.276 240.825C150.115 240.757 152.551 241.761 153.718 243.069Z" fill="#EFA63C"/>
<path d="M163.229 252.044L126.908 253.392L124.208 250.368L160.529 249.02L163.229 252.044Z" fill="#EFBB75"/>
</g>
<defs>
<clipPath id="clip0_32_1545">
<rect width="300" height="296" fill="white"/>
</clipPath>
</defs>
</svg>
