<?xml version="1.0" encoding="UTF-8" standalone="no" ?>
<svg width="295" height="288" viewBox="0 0 295 288" fill="none" xmlns="http://www.w3.org/2000/svg">
<path d="M137.587 237.002C136.564 226.456 135.658 215.363 134.899 205.166C134.733 205.085 134.577 204.999 134.431 204.908L137.441 237.032L137.587 237.002Z" fill="#940035"/>
<path fill-rule="evenodd" clip-rule="evenodd" d="M111.539 191.525H13.9811L14.8431 168.687H21.0372V165.667H14.9453L20.4821 18.4305L267.766 0.29718L268.57 21.0709H268.234V24.0906H268.687L277.598 252.677L266.408 252.753C267.328 239.809 265.516 223.011 262.96 207.291C265.122 206.062 266.408 205.257 266.408 205.257L257.569 164.332C248.833 134.545 237.394 130.964 230.864 131.798C228.775 131.297 226.891 131.358 225.342 131.631C225.035 131.601 224.86 131.601 224.86 131.601H197.381V109.78C197.488 109.922 197.59 110.058 197.688 110.19C199.397 106.063 198.418 105.486 200.069 102.906C202.45 99.143 206.029 96.3509 206.803 91.6924C207.636 86.6393 207.636 82.6788 206.862 77.7623C206.015 72.3602 207.563 68.248 207.227 62.77C206.877 57.1252 203.765 52.9219 198.579 51.3134C195.701 50.4181 193.232 50.9947 190.412 51.5562C187.096 52.239 185.796 50.4485 183.21 48.6427C181.457 47.4136 179.529 46.3514 177.44 46.3514C175.38 46.3514 173.685 47.884 171.684 47.8536C169.741 47.8385 167.725 46.5031 165.665 46.3514C162.699 46.1541 160.508 47.0797 157.937 48.4454C157.63 48.6124 157.294 48.8096 156.958 48.9917C156.155 49.1586 155.366 49.4166 154.591 49.7353L148.865 48.7641C147.638 49.2345 146.732 50.2664 146.133 51.6169L143.094 51.1161C137.996 52.9522 138.273 64.1509 144.058 66.6395C146.483 67.6865 148.777 66.3967 151.056 66.8216C149.391 69.6592 148.894 72.5879 148.938 75.5772C148.952 75.9869 148.967 76.4118 148.996 76.8215C149.045 77.651 149.123 78.4856 149.23 79.3253C149.24 79.3759 149.249 79.4264 149.259 79.477C149.259 79.4972 149.259 79.5124 149.259 79.5225L149.288 79.7198C149.668 82.6181 150.311 85.5619 150.632 88.5209C150.866 90.7516 151.275 92.967 151.845 95.1521C153.7 102.405 156.286 119.553 164.642 120.266C165.986 120.372 167.345 120.22 168.704 119.841C168.85 119.886 168.996 119.932 169.142 119.962V131.601H151.582C147.287 130.691 141.926 133.771 135.205 143.376L116.433 193.755H115.644C114.738 192.405 113.234 191.525 111.539 191.525ZM233.552 109.097H226.613V112.117H233.552V109.097ZM261.864 130.205H258.022V126.214H255.334V130.205H251.477V132.997H255.334V137.003H258.022V132.997H261.864V130.205ZM256.678 24.1058H263.603V21.0709H256.678V24.1058ZM256.678 109.113H249.739V112.147H256.678V109.113ZM245.108 24.1058H252.033V21.0709H245.108V24.1058ZM245.108 109.113H238.183V112.147H245.108V109.113ZM233.552 24.1058H240.477V21.0709H233.552V24.1058ZM216.723 55.8202H222.961V62.2996H227.314V55.8202H233.552V51.2982H227.314V44.8188H222.961V51.2982H216.723V55.8202ZM215.057 112.132H221.982V109.113H215.057V112.132ZM202.348 38.9463H206.19V42.9371H208.878V38.9463H212.735V36.1542H208.878V32.1482H206.19V36.1542H202.348V38.9463ZM137.674 38.2027H144.614V35.183H137.674V38.2027ZM36.4934 131.92L137.192 117.383C137.528 117.337 137.85 117.261 138.171 117.2L138.361 117.155C138.663 117.074 138.95 116.983 139.223 116.882L139.354 116.836C139.598 116.745 139.832 116.644 140.056 116.533L140.172 116.472C140.406 116.351 140.63 116.219 140.844 116.078L140.991 115.987C141.195 115.835 141.385 115.683 141.56 115.516L141.604 115.486C141.76 115.324 141.911 115.157 142.057 114.985L142.145 114.864C142.281 114.692 142.403 114.51 142.51 114.317L142.583 114.181C142.68 114.009 142.763 113.827 142.831 113.635L142.875 113.528C142.943 113.326 142.997 113.114 143.036 112.891L143.065 112.709C143.094 112.496 143.123 112.284 143.123 112.056C143.167 110.402 142.466 108.521 140.947 106.624L80.3492 30.6307C78.9906 28.9464 77.4859 27.9145 75.9958 27.52V27.5048C75.8643 27.4745 75.7328 27.4441 75.6013 27.4138L75.4114 27.3834C75.1971 27.343 74.978 27.3227 74.754 27.3227C74.6761 27.3126 74.5982 27.3075 74.5203 27.3075C74.3157 27.3177 74.1161 27.3328 73.9213 27.3531L73.7898 27.3682C73.5658 27.3986 73.3467 27.4492 73.1324 27.52C73.0545 27.5402 72.9815 27.5605 72.9133 27.5807C72.7088 27.6515 72.5091 27.7324 72.3143 27.8235L72.2267 27.8538C72.0368 27.96 71.8322 28.0814 71.6423 28.2028L69.787 25.8963C68.443 24.212 66.9383 23.1801 65.4482 22.7856V22.7704C65.3167 22.7401 65.1852 22.7097 65.0537 22.6794C64.9855 22.6693 64.9222 22.6591 64.8638 22.649C64.6398 22.6086 64.4207 22.5883 64.2064 22.5883C64.1285 22.5782 64.0506 22.5731 63.9727 22.5731C63.7681 22.5833 63.5685 22.5984 63.3737 22.6187C63.325 22.6187 63.2812 22.6237 63.2422 22.6338C63.0085 22.6642 62.7893 22.7249 62.5702 22.7856C62.502 22.8058 62.4339 22.8261 62.3657 22.8463C62.1612 22.9171 61.9566 22.998 61.7521 23.0891C61.7326 23.0992 61.7083 23.1093 61.6791 23.1194C61.4599 23.2256 61.2408 23.3622 61.0363 23.4988C60.9778 23.5393 60.9194 23.5797 60.861 23.6202C60.6564 23.7618 60.4568 23.9186 60.262 24.0906C60.2523 24.1007 60.2425 24.1108 60.2328 24.1209C60.0283 24.303 59.8237 24.5155 59.6338 24.7279C59.5851 24.7886 59.5364 24.8442 59.4877 24.8948C59.2978 25.1224 59.1225 25.3501 58.9472 25.608C58.9472 25.6181 58.9423 25.6232 58.9326 25.6232C58.7573 25.8812 58.5966 26.1695 58.4359 26.4578C58.3969 26.5286 58.358 26.5994 58.319 26.6702C58.1583 26.9737 57.9976 27.2924 57.8662 27.6262L19.5033 117.899C16.9613 123.877 19.8539 128.065 25.9458 127.185L29.1305 126.73C29.1597 130.387 31.9208 132.572 36.4934 131.92ZM114.549 38.2027H121.488V35.1679H114.549V38.2027ZM102.993 38.2027H109.918V35.183H102.993V38.2027ZM32.5928 165.652H25.6682V168.687H32.5928V165.652ZM126.119 38.1876H133.043V35.1679H126.119V38.1876ZM44.163 165.637H37.2384V168.672H44.163V165.637ZM55.9524 147.959H52.0957V143.968H49.4076V147.959H45.5655V150.751H49.4076V154.757H52.0957V150.751H55.9524V147.959ZM86.9086 157.837H76.697V147.231H69.5532V157.837H59.3417V165.258H69.5532V175.865H76.697V165.258H86.9086V157.837Z" fill="#453C67"/>
<path d="M122.51 198.004C122.588 198.368 122.627 198.748 122.627 199.142L129.303 238.55L136.71 237.169L133.657 204.468C129.362 202.056 125.505 199.795 122.51 198.004Z" fill="#F8AF98"/>
<path d="M135.089 262.692L134.869 261.281C135.123 261.281 135.376 261.286 135.629 261.296L134.3 256.972C133.91 256.972 133.521 256.966 133.131 256.956L133.613 260.234C133.233 263.208 131.1 262.328 131.1 262.328L129.8 256.926C129.518 256.926 129.23 256.926 128.938 256.926L129.157 258.292C129.157 260.052 128.588 260.887 127.959 261.281L128.456 264.043H134.957C135.03 263.663 135.089 263.223 135.089 262.692Z" fill="#453C67"/>
<path d="M290.322 282.313H198.403H9.91988V287.502H203.546H294.413V276.486H290.322V282.313Z" fill="#530329"/>
<path d="M140.172 261.327L140.406 262.146C140.187 260.492 139.968 258.777 139.734 256.987C139.179 256.987 138.619 256.987 138.054 256.987L138.478 258.595C138.507 262.207 136.213 262.252 135.951 262.252L136.36 264.043H139.398L139.004 261.327C139.393 261.327 139.783 261.327 140.172 261.327Z" fill="#453C67"/>
<path d="M152.269 50.8126C153.072 50.4029 153.832 50.0387 154.591 49.7353L148.865 48.7641C147.638 49.2345 146.732 50.2664 146.133 51.6169L148.923 52.0569C150.033 52.1632 151.275 51.3134 152.269 50.8126Z" fill="#E7EBFF"/>
<path d="M160.099 48.7793C162.173 48.9158 164.219 50.2208 166.176 50.236C168.207 50.2664 169.916 48.7793 172.005 48.7793C174.109 48.7793 176.066 49.7959 177.834 50.9947C180.449 52.7549 181.764 54.4697 185.124 53.8172C187.973 53.2709 190.471 52.7094 193.378 53.5744C198.637 55.1373 201.778 59.2192 202.129 64.682C202.479 69.9778 200.916 73.9687 201.763 79.1887C202.552 83.9686 202.552 87.7926 201.705 92.6939C200.916 97.2007 197.308 99.9017 194.883 103.544C193.232 106.047 194.211 106.594 192.487 110.615C192.389 110.483 192.287 110.347 192.18 110.205V131.601H193.904H197.381V109.78C197.488 109.922 197.59 110.058 197.688 110.19C199.397 106.062 198.418 105.486 200.069 102.906C202.45 99.143 206.029 96.3509 206.803 91.6924C207.636 86.6393 207.636 82.6788 206.862 77.7623C206.015 72.3602 207.563 68.248 207.227 62.77C206.877 57.1252 203.765 52.9219 198.579 51.3134C195.701 50.4181 193.232 50.9947 190.412 51.5562C187.096 52.239 185.796 50.4484 183.21 48.6427C181.457 47.4136 179.529 46.3514 177.44 46.3514C175.38 46.3514 173.685 47.884 171.684 47.8536C169.741 47.8385 167.725 46.5031 165.665 46.3514C162.699 46.1541 160.508 47.0797 157.937 48.4454C157.63 48.6123 157.294 48.8096 156.958 48.9917C157.937 48.7944 158.959 48.7034 160.099 48.7793Z" fill="#E7EBFF"/>
<path d="M168.704 119.841C168.85 119.886 168.996 119.932 169.142 119.962V119.704C168.996 119.75 168.85 119.795 168.704 119.841Z" fill="#530329"/>
<path d="M235.744 239.916L234.896 236.319L234.838 240.022L235.744 239.916Z" fill="#530329"/>
<path d="M262.96 207.291C265.122 206.062 266.408 205.257 266.408 205.257L257.569 164.332C248.833 134.545 237.394 130.964 230.864 131.798C237.453 133.346 246.101 140.341 253.055 163.042L261.996 202.663C261.996 202.663 260.696 203.436 258.504 204.635C262.434 227.731 264.611 253.223 258.051 264.452C258.051 264.452 258.046 264.458 258.037 264.468C258.037 264.468 257.993 264.953 257.292 265.621C257.131 265.849 256.956 266.091 256.78 266.304C256.78 266.304 256.634 266.319 256.357 266.334C254.18 267.7 249.155 269.339 237.614 269.339C237.614 269.339 236.459 269.217 234.37 268.99L234.341 271.645H259.629C260.106 271.423 260.506 271.205 260.827 270.993C261.105 270.993 261.251 270.977 261.251 270.977C261.426 270.75 261.587 270.507 261.762 270.264C262.449 269.581 262.492 269.081 262.492 269.081L262.507 269.05C264.713 265.105 265.926 259.445 266.408 252.753C267.328 239.809 265.516 223.011 262.96 207.291Z" fill="#E7EBFF"/>
<path d="M122.627 199.142C122.627 198.747 122.588 198.368 122.51 198.004C118.668 195.713 116.258 194.195 116.258 194.195L116.433 193.755H115.644C116.214 194.605 116.55 195.637 116.55 196.744L124.117 239.506L129.303 238.55L122.627 199.142Z" fill="#453C67"/>
<path d="M222.961 62.2845H227.314V55.805H233.552V51.283H227.314V44.8036H222.961V51.283H216.723V55.805H222.961V62.2845Z" fill="white"/>
<path d="M206.19 42.9372H208.878V38.9463H212.735V36.1542H208.878V32.1482H206.19V36.1542H202.348V38.9463H206.19V42.9372Z" fill="white"/>
<path d="M258.022 126.199H255.334V130.205H251.477V132.997H255.334V136.988H258.022V132.997H261.864V130.205H258.022V126.199Z" fill="white"/>
<path d="M52.0957 143.998H49.4076V147.989H45.5655V150.781H49.4076V154.787H52.0957V150.781H55.9524V147.989H52.0957V143.998Z" fill="white"/>
<path d="M76.697 147.261H69.5533V157.868H59.3417V165.288H69.5533V175.895H76.697V165.288H86.9086V157.868H76.697V147.261Z" fill="white"/>
<path d="M138.171 117.2L138.361 117.155C138.663 117.074 138.95 116.988 139.223 116.897L139.354 116.836C139.598 116.745 139.832 116.644 140.056 116.533L140.172 116.487C140.406 116.366 140.63 116.234 140.844 116.093L140.991 115.987C141.195 115.835 141.385 115.683 141.56 115.531L141.604 115.486C141.76 115.334 141.911 115.172 142.057 115L142.145 114.879C142.281 114.697 142.403 114.51 142.51 114.317L142.583 114.181C142.68 114.009 142.763 113.832 142.831 113.65L142.875 113.543C142.943 113.331 142.997 113.119 143.036 112.906L143.065 112.724C143.094 112.496 143.123 112.284 143.123 112.056C143.167 110.418 142.466 108.536 140.947 106.624L80.3492 30.6459C78.9906 28.9463 77.4859 27.9297 75.9958 27.52V27.5048C75.8643 27.4744 75.7328 27.4441 75.6013 27.4289L75.4114 27.3834C75.1971 27.353 74.978 27.3328 74.754 27.3227C74.6761 27.3227 74.5982 27.3227 74.5203 27.3227C74.3157 27.3227 74.1161 27.3328 73.9213 27.353L73.7898 27.3682C73.5658 27.4087 73.3467 27.4593 73.1324 27.52C73.0545 27.5402 72.9815 27.5655 72.9133 27.5958C72.7088 27.6565 72.5091 27.7375 72.3143 27.8386L72.2267 27.869C72.0368 27.96 71.8322 28.0814 71.6423 28.218L126.703 97.2462L130.399 101.89C131.918 103.801 132.62 105.683 132.576 107.322C132.576 107.55 132.547 107.762 132.517 107.99C132.508 108.05 132.498 108.111 132.488 108.172C132.44 108.384 132.381 108.597 132.313 108.809C132.303 108.839 132.289 108.875 132.269 108.915C132.201 109.097 132.123 109.274 132.035 109.446C132.016 109.497 131.992 109.542 131.962 109.583C131.855 109.775 131.733 109.962 131.597 110.144C131.568 110.185 131.534 110.225 131.495 110.266C131.358 110.438 131.212 110.6 131.057 110.751C131.037 110.761 131.022 110.777 131.013 110.797C130.837 110.949 130.633 111.1 130.428 111.252C130.389 111.282 130.346 111.318 130.297 111.358C130.083 111.5 129.859 111.631 129.625 111.753C129.586 111.773 129.547 111.788 129.508 111.798C129.284 111.91 129.05 112.011 128.807 112.102C128.758 112.122 128.709 112.142 128.661 112.163C128.398 112.254 128.115 112.34 127.813 112.421C127.745 112.441 127.677 112.456 127.609 112.466C127.302 112.542 126.981 112.603 126.645 112.648L29.1305 126.73C29.1598 130.402 31.9208 132.587 36.4934 131.92L137.192 117.383C137.528 117.337 137.85 117.276 138.171 117.2Z" fill="#E7EBFF"/>
<path d="M221.982 109.097H215.057V112.117H221.982V109.097Z" fill="white"/>
<path d="M226.613 112.117H233.552V109.097H226.613V112.117Z" fill="white"/>
<path d="M238.183 112.117H245.108V109.097H238.183V112.117Z" fill="white"/>
<path d="M249.739 112.117H256.678V109.097H249.739V112.117Z" fill="white"/>
<path d="M109.918 35.183H102.993V38.2027H109.918V35.183Z" fill="white"/>
<path d="M121.488 35.183H114.549V38.2027H121.488V35.183Z" fill="white"/>
<path d="M133.043 35.183H126.119V38.2027H133.043V35.183Z" fill="white"/>
<path d="M144.614 35.183H137.674V38.2027H144.614V35.183Z" fill="white"/>
<path d="M9.46701 165.667H2.5424V168.687H9.46701V165.667Z" fill="white"/>
<path d="M21.0372 165.667H14.9453H14.1126V168.687H14.8431H21.0372V165.667Z" fill="white"/>
<path d="M25.6682 168.687H32.5928V165.667H25.6682V168.687Z" fill="white"/>
<path d="M37.2384 168.687H44.163V165.667H37.2384V168.687Z" fill="white"/>
<path d="M240.477 21.0709H233.552V24.0906H240.477V21.0709Z" fill="white"/>
<path d="M252.033 21.0709H245.108V24.0906H252.033V21.0709Z" fill="white"/>
<path d="M263.603 21.0709H256.678V24.0906H263.603V21.0709Z" fill="white"/>
<path d="M268.234 24.0906H268.687H275.158V21.0709H268.57H268.234V24.0906Z" fill="white"/>
<path fill-rule="evenodd" clip-rule="evenodd" d="M69.787 25.9115L71.6423 28.218L126.703 97.2462L52.8991 107.914C46.8072 108.794 43.9147 104.606 46.4566 98.627L62.95 59.811L66.7483 88.2174L70.0499 87.7319L70.4152 90.5239L80.8313 89.0217L76.361 55.6684C76.4925 56.4878 76.8139 57.2921 77.369 57.9749L103.475 90.4177C105.082 92.4056 107.945 92.6787 109.859 91.0095C111.787 89.3403 112.05 86.3662 110.429 84.3631L84.3374 51.9204C82.7158 49.9325 79.8671 49.6594 77.9387 51.3286C76.7116 52.3908 76.1565 53.9841 76.3464 55.5319L75.7766 51.3134L72.475 51.799L72.1098 49.0069L67.2304 49.7049L74.7248 32.0875L69.787 25.9115ZM82.6282 102.603L81.3426 92.9518L78.041 93.4222L77.6758 90.6302L67.2597 92.1324L68.5598 101.798L71.8468 101.313L72.2267 104.105L82.6282 102.603ZM76.3464 55.6836L76.3318 55.5319C76.3318 55.5824 76.3366 55.633 76.3464 55.6836Z" fill="#F0CB45"/>
<path d="M33.8638 121.571L132.576 107.322C132.62 105.683 131.918 103.802 130.399 101.89L126.703 97.2462L52.8991 107.914C46.8073 108.794 43.9147 104.606 46.4566 98.6271L62.95 59.811L61.7083 50.5091L67.2304 49.7049L74.7248 32.0875L69.787 25.9115C68.443 24.212 66.9383 23.1953 65.4482 22.7856L27.4213 112.284C24.8794 118.278 27.7719 122.451 33.8638 121.571Z" fill="#EEB844"/>
<path d="M127.609 112.466C127.677 112.456 127.745 112.441 127.813 112.421C128.115 112.34 128.398 112.254 128.661 112.163C128.709 112.142 128.758 112.122 128.807 112.102C129.05 112.011 129.284 111.91 129.508 111.798C129.547 111.788 129.586 111.773 129.625 111.753C129.859 111.631 130.083 111.5 130.297 111.358C130.346 111.318 130.389 111.282 130.428 111.252C130.633 111.1 130.837 110.949 131.013 110.797C131.022 110.777 131.037 110.761 131.057 110.751C131.212 110.6 131.358 110.438 131.495 110.266C131.534 110.225 131.568 110.185 131.597 110.144C131.733 109.962 131.855 109.775 131.962 109.583C131.992 109.542 132.016 109.497 132.035 109.446C132.123 109.274 132.201 109.097 132.269 108.915C132.289 108.875 132.303 108.839 132.313 108.809C132.381 108.597 132.44 108.384 132.488 108.172C132.498 108.111 132.508 108.05 132.517 107.99C132.547 107.762 132.576 107.55 132.576 107.322L33.8638 121.571C27.7719 122.451 24.8794 118.278 27.4213 112.284L65.4482 22.7856V22.7704C65.3167 22.7401 65.1852 22.7097 65.0537 22.6945C64.9855 22.6743 64.9222 22.6591 64.8638 22.649C64.6398 22.6187 64.4207 22.5984 64.2064 22.5883C64.1285 22.5883 64.0506 22.5883 63.9727 22.5883C63.7681 22.5883 63.5685 22.5984 63.3737 22.6187C63.325 22.6288 63.2812 22.6338 63.2422 22.6338C63.0085 22.6794 62.7893 22.7249 62.5702 22.7856C62.502 22.8058 62.4339 22.8311 62.3657 22.8615C62.1612 22.9222 61.9566 23.0031 61.7521 23.1042C61.7326 23.1144 61.7083 23.1245 61.6791 23.1346C61.4599 23.2408 61.2408 23.3622 61.0363 23.514C60.9778 23.5443 60.9194 23.5848 60.861 23.6353C60.6564 23.777 60.4568 23.9338 60.262 24.1058C60.2523 24.1159 60.2425 24.126 60.2328 24.1361C60.0283 24.3182 59.8237 24.5155 59.6338 24.7431C59.5851 24.7937 59.5364 24.8493 59.4877 24.91C59.2978 25.1224 59.1225 25.3652 58.9472 25.6232C58.9472 25.6232 58.9423 25.6232 58.9326 25.6232C58.7573 25.8812 58.5966 26.1695 58.4359 26.4578C58.3969 26.5286 58.358 26.6045 58.319 26.6854C58.1583 26.9889 57.9976 27.2924 57.8662 27.6262L19.5033 117.898C16.9614 123.892 19.8539 128.065 25.9458 127.185L29.1305 126.73L126.645 112.648C126.981 112.603 127.302 112.542 127.609 112.466Z" fill="#EA9842"/>
<path d="M103.475 90.4177C105.082 92.4056 107.945 92.6787 109.859 91.0095C111.787 89.3403 112.05 86.3662 110.429 84.3631L84.3374 51.9204C82.7158 49.9325 79.8671 49.6594 77.9387 51.3286C76.0104 52.9977 75.762 55.9719 77.369 57.9749L103.475 90.4177Z" fill="white"/>
<path d="M70.0499 87.7319L70.4152 90.524L80.8313 89.0217L75.7766 51.3134L72.475 51.799L77.1499 86.7152L70.0499 87.7319Z" fill="#EA9942"/>
<path d="M78.0556 93.4222L78.976 100.281L71.8615 101.313L72.2413 104.105L82.6428 102.603L81.3572 92.9518L78.0556 93.4222Z" fill="#EA9942"/>
<path d="M70.05 87.7319L77.1499 86.7152L72.475 51.799L72.1098 49.0069L67.2304 49.7049L61.7083 50.5092L62.9501 59.811L66.7484 88.2175L70.05 87.7319Z" fill="#473450"/>
<path d="M78.0556 93.4222L77.6758 90.6301L67.2743 92.1324L68.5598 101.783L71.8614 101.313L78.976 100.281L78.0556 93.4222Z" fill="#473450"/>
<path d="M137.441 237.032L137.85 241.433L138.025 241.554C137.879 240.057 137.733 238.54 137.587 237.002L137.441 237.032Z" fill="#F6A094"/>
<path d="M134.124 238.747L137.061 240.872L136.71 237.169L129.303 238.55L124.117 239.506L124.672 242.692C127.36 240.826 130.574 239.248 134.124 238.747Z" fill="#F6A094"/>
<path d="M134.533 251.949L132.737 254.422L133.131 256.956C133.521 256.967 133.91 256.972 134.3 256.972L133.672 254.923L134.533 251.949Z" fill="#F6A094"/>
<path d="M139.442 254.528C138.054 254.073 137.207 253.709 137.207 253.709L138.054 256.987C138.619 256.987 139.179 256.987 139.734 256.987C139.637 256.177 139.539 255.358 139.442 254.528Z" fill="#F6A094"/>
<path d="M131.436 249.096L128.529 254.498L128.938 256.926C129.23 256.926 129.518 256.926 129.8 256.926L129.143 254.149L131.436 249.096Z" fill="#F6A094"/>
<path d="M125.432 246.956L126.031 250.325L128.485 245.469C127.653 246 126.455 246.532 125.432 246.956Z" fill="#F6A094"/>
<path d="M189.974 107.11C189.214 105.911 188.586 104.666 188.338 103.483C183.269 109.401 176.256 117.489 169.142 119.704V119.962V130.22C179.982 123.968 186.205 115.941 189.974 107.11Z" fill="#D67378"/>
<path fill-rule="evenodd" clip-rule="evenodd" d="M169.142 119.704C168.996 119.75 168.85 119.795 168.704 119.841C167.345 120.22 165.986 120.372 164.642 120.266C156.286 119.553 153.7 102.405 151.845 95.1521C151.275 92.967 150.866 90.7516 150.632 88.5209C150.311 85.5619 149.668 82.6181 149.288 79.7198L149.259 79.5225C149.259 79.5124 149.259 79.4972 149.259 79.477C149.771 79.3556 150.311 79.2342 150.895 79.0976C152.707 78.6728 155.819 78.0051 155.556 76.9732C154.197 75.1827 151.407 75.4255 149.055 76.2145C149.055 76.5484 149.055 76.8974 149.069 77.2312C149.089 77.9292 149.142 78.6272 149.23 79.3253C149.123 78.4856 149.045 77.651 148.996 76.8215C148.967 76.4118 148.952 75.9869 148.938 75.5772C148.894 72.5879 149.391 69.6592 151.056 66.8216C151.241 66.8519 151.426 66.8975 151.611 66.9582C153.379 67.5044 154.591 69.3709 156.461 69.7351C158.872 70.2055 161.399 68.1873 163.503 67.4589C165.796 66.6699 168.747 66.9126 171.026 67.7017C173.525 68.5666 175.205 70.9642 175.409 73.5135C175.541 75.3192 174.766 78.3845 176.855 79.0673C178.272 79.5225 178.053 79.6136 179.412 80.8731C180.493 81.8594 179.733 83.0278 179.733 84.4087C179.719 86.2751 180.084 87.4739 180.654 89.1583C181.136 90.524 181.705 90.9944 182.757 91.4648C182.334 90.6302 182.027 89.7197 181.852 88.7334C181.063 84.2266 183.459 79.9929 187.213 79.2949C190.953 78.5817 194.62 81.6773 195.409 86.1993C196.197 90.706 193.802 94.9397 190.062 95.6377C189.828 95.6782 189.599 95.7085 189.375 95.7288C188.981 97.6862 188.689 99.6741 188.294 101.783C188.192 102.33 188.221 102.891 188.338 103.483C183.269 109.401 176.256 117.489 169.142 119.704ZM188.82 82.3753C190.369 82.8305 191.581 84.1811 192.165 85.8502C191.566 85.9261 190.88 86.1234 190.252 86.3813C189.886 86.5331 189.536 86.7152 189.244 86.8973C188.951 87.0794 188.703 87.2766 188.542 87.5194C188.426 87.6863 188.469 87.9291 188.63 88.0505C188.791 88.1719 189.025 88.1264 189.141 87.9595C189.2 87.8533 189.375 87.7015 189.623 87.5346C190.339 87.0794 191.581 86.6545 192.385 86.5938C192.501 87.0945 192.574 87.6256 192.56 88.1567C192.56 89.052 192.385 89.9777 192.005 90.8426C191.917 91.0399 192.005 91.2523 192.18 91.3434C192.37 91.4344 192.589 91.3434 192.662 91.1613C193.1 90.1901 193.29 89.1583 193.29 88.1567C193.29 85.2129 191.61 82.4208 189.025 81.6469C188.82 81.6014 188.63 81.7076 188.572 81.9201C188.513 82.1174 188.63 82.3298 188.82 82.3753ZM162.553 76.6849C163.517 76.4877 164.759 76.3966 166.059 76.2752C168.338 76.0628 172.195 75.7441 172.049 74.6971C170.15 72.0871 164.233 72.9976 161.136 74.0598C158.287 75.0461 158.214 77.5954 162.553 76.6849ZM166.045 81.4649C165.811 80.1295 164.935 79.1887 164.058 79.3404C163.196 79.5074 162.685 80.7213 162.918 82.0567C163.152 83.392 164.043 84.348 164.905 84.1811C165.767 84.0141 166.279 82.8002 166.045 81.4649ZM153.437 86.3358C154.314 86.1689 154.825 84.955 154.591 83.6196C154.358 82.2843 153.467 81.3283 152.605 81.4952C151.743 81.6621 151.217 82.8761 151.451 84.2114C151.684 85.5468 152.575 86.4876 153.437 86.3358ZM152.722 95.0763C153.992 96.2599 155.687 97.8076 157.367 98.4146C157.557 98.4753 157.776 98.3691 157.835 98.1718C157.893 97.9746 157.791 97.7621 157.601 97.7014C156.228 97.2158 154.635 95.8502 153.408 94.6969C154.124 93.0732 154.957 91.6468 155.658 90.1294C156.388 88.5209 156.943 86.7911 156.943 84.6363V84.6211C156.943 84.4087 156.783 84.2418 156.578 84.2418C156.374 84.2418 156.213 84.4087 156.213 84.6059V84.6211C156.213 86.6545 155.702 88.2478 155 89.7956C154.299 91.3434 153.394 92.8456 152.634 94.6362C152.561 94.7879 152.605 94.9549 152.722 95.0763ZM164.423 101.252L156.374 102.603C161.414 112.314 164.423 101.252 164.423 101.252Z" fill="#F6A094"/>
<path fill-rule="evenodd" clip-rule="evenodd" d="M116.258 194.195L116.433 193.755L135.205 143.376C141.926 133.771 147.287 130.69 151.582 131.601H169.142C169.142 131.601 168.937 132.602 169.04 133.983C168.879 134.014 168.733 134.135 168.718 134.317C168.679 134.57 168.66 134.823 168.66 135.076C168.66 136.32 169.04 137.398 169.668 138.308C170.603 139.674 172.078 140.645 173.7 141.282C175.321 141.92 177.104 142.223 178.681 142.223C178.954 142.223 179.217 142.213 179.47 142.193C181.881 142.026 183.765 141.798 185.518 141.191C187.257 140.584 188.849 139.583 190.617 137.929C190.763 137.807 190.778 137.58 190.661 137.428C191.99 136.001 193.144 134.12 193.904 131.601H224.86C224.86 131.601 225.035 131.601 225.342 131.631C226.891 131.358 228.775 131.297 230.864 131.798C237.453 133.346 246.101 140.341 253.055 163.042L261.996 202.662C261.996 202.662 260.696 203.436 258.504 204.635C252.734 207.791 240.784 213.861 230.207 216.335L234.896 236.319L234.838 240.022L229.71 240.583C229.613 240.593 229.511 240.598 229.403 240.598C225.707 240.841 222.289 241.266 218.695 241.721C215.335 242.161 211.259 242.237 195.511 244.271C195.438 244.271 195.365 244.316 195.321 244.377L149.055 249.475L138.025 241.554C137.879 240.057 137.733 238.54 137.587 237.002C136.564 226.456 135.658 215.363 134.899 205.166C134.733 205.085 134.577 204.999 134.431 204.908L132.634 185.834C132.62 185.622 132.444 185.47 132.24 185.5C132.035 185.515 131.889 185.698 131.904 185.91L133.657 204.468C129.362 202.056 125.505 199.795 122.51 198.004C118.668 195.713 116.258 194.195 116.258 194.195ZM225.693 217.093C223.91 211.494 214.488 181.494 212.676 175.773C212.618 175.576 212.413 175.47 212.223 175.531C212.019 175.591 211.917 175.804 211.99 176.001C213.801 181.737 223.224 211.737 224.992 217.336C225.065 217.533 225.269 217.64 225.459 217.579C225.649 217.518 225.751 217.291 225.693 217.093Z" fill="#F2F7A1"/>
<path d="M169.04 133.983C169.069 133.983 169.083 133.983 169.113 133.983C169.317 134.014 169.463 134.196 169.434 134.408C169.405 134.631 169.39 134.853 169.39 135.076C169.39 135.683 169.507 136.244 169.697 136.76C169.931 137.322 170.252 137.868 170.676 138.399C171.172 138.961 171.786 139.461 172.502 139.871C174.328 140.948 176.695 141.464 178.681 141.464C178.935 141.464 179.183 141.454 179.426 141.434C181.808 141.267 183.634 141.039 185.285 140.463C186.921 139.901 188.411 138.976 190.135 137.367C190.281 137.231 190.515 137.246 190.646 137.398C190.661 137.413 190.661 137.413 190.661 137.428C191.99 136.002 193.144 134.12 193.904 131.601H192.18V110.205C191.479 109.264 190.675 108.217 189.974 107.11C186.205 115.941 179.982 123.968 169.142 130.22V131.601C169.142 131.601 168.937 132.602 169.04 133.983Z" fill="#F6A094"/>
<path d="M166.045 81.4649C165.811 80.1295 164.935 79.1887 164.058 79.3405C163.196 79.5074 162.685 80.7213 162.918 82.0567C163.152 83.392 164.043 84.348 164.905 84.1811C165.767 84.0141 166.279 82.8002 166.045 81.4649Z" fill="#161E3F"/>
<path d="M153.437 86.3358C154.314 86.1689 154.825 84.9549 154.591 83.6196C154.358 82.2843 153.467 81.3283 152.605 81.4952C151.743 81.6621 151.217 82.876 151.451 84.2114C151.684 85.5467 152.575 86.4875 153.437 86.3358Z" fill="#161E3F"/>
<path d="M162.553 76.6849C163.517 76.4876 164.759 76.3966 166.059 76.2752C168.338 76.0628 172.195 75.7441 172.049 74.6971C170.15 72.0871 164.233 72.9975 161.136 74.0598C158.287 75.0461 158.214 77.5954 162.553 76.6849Z" fill="#743C21"/>
<path d="M155.556 76.9732C154.197 75.1827 151.407 75.4254 149.055 76.2145C149.055 76.5483 149.055 76.8974 149.069 77.2312C149.089 77.9292 149.142 78.6272 149.23 79.3253C149.24 79.3758 149.249 79.4264 149.259 79.477C149.77 79.3556 150.311 79.2342 150.895 79.0976C152.707 78.6728 155.819 78.0051 155.556 76.9732Z" fill="#743C21"/>
<path d="M170.676 138.399C170.252 137.868 169.931 137.322 169.697 136.76C169.843 137.155 170.018 137.534 170.267 137.868C170.384 138.05 170.53 138.232 170.676 138.399Z" fill="#FCC786"/>
<path d="M150.589 255.879C146.323 256.41 141.984 255.348 139.442 254.528C139.539 255.358 139.637 256.177 139.734 256.987C139.968 258.777 140.187 260.492 140.406 262.146C140.494 262.783 140.582 263.416 140.669 264.043H192.721C192.721 264.043 197.6 264.043 199.499 266.061L204.32 271.645H234.341L234.37 268.99C222.873 267.73 182.86 263.056 150.589 255.879Z" fill="#FCC786"/>
<path d="M190.135 137.367C188.411 138.976 186.921 139.901 185.285 140.463C183.634 141.039 181.808 141.267 179.426 141.434C179.183 141.454 178.935 141.464 178.681 141.464C176.695 141.464 174.328 140.948 172.502 139.871C171.786 139.461 171.172 138.961 170.676 138.399C170.53 138.232 170.384 138.05 170.267 137.868C170.018 137.534 169.843 137.155 169.697 136.76C169.507 136.244 169.39 135.683 169.39 135.076C169.39 134.853 169.405 134.631 169.434 134.408C169.463 134.196 169.317 134.014 169.113 133.983C169.083 133.983 169.069 133.983 169.04 133.983C168.879 134.014 168.733 134.135 168.718 134.317C168.679 134.57 168.66 134.823 168.66 135.076C168.66 136.32 169.04 137.398 169.668 138.308C170.603 139.674 172.078 140.645 173.7 141.282C175.321 141.92 177.104 142.223 178.681 142.223C178.954 142.223 179.217 142.213 179.47 142.193C181.881 142.026 183.765 141.798 185.518 141.191C187.257 140.584 188.849 139.583 190.617 137.929C190.763 137.807 190.778 137.58 190.661 137.428C190.661 137.413 190.661 137.413 190.646 137.398C190.515 137.246 190.281 137.231 190.135 137.367Z" fill="#161E3F"/>
<path d="M134.431 204.908L132.634 185.834C132.62 185.622 132.444 185.47 132.24 185.5C132.035 185.516 131.889 185.698 131.904 185.91L133.657 204.468L136.71 237.169L137.061 240.872L137.85 241.433L137.441 237.032L134.431 204.908Z" fill="#161E3F"/>
<path d="M129.157 258.292L128.938 256.926L128.529 254.498L131.436 249.096L129.143 254.149L129.8 256.926L131.1 262.328C131.1 262.328 133.233 263.208 133.613 260.234L133.131 256.956L132.737 254.422L134.533 251.949L133.672 254.923L134.3 256.972L135.629 261.296L135.921 262.252C135.921 262.252 135.931 262.252 135.951 262.252C136.213 262.252 138.507 262.207 138.478 258.595L138.054 256.987L137.207 253.709C137.207 253.709 138.054 254.073 139.442 254.528C141.984 255.348 146.323 256.41 150.589 255.879C182.86 263.056 222.873 267.73 234.37 268.99C236.459 269.217 237.614 269.339 237.614 269.339C249.155 269.339 254.18 267.7 256.357 266.334C256.634 266.319 256.78 266.304 256.78 266.304C256.956 266.091 257.131 265.849 257.292 265.621C257.993 264.953 258.037 264.468 258.037 264.468C258.046 264.458 258.051 264.452 258.051 264.452C264.611 253.223 262.434 227.731 258.504 204.635C252.734 207.791 240.784 213.861 230.207 216.335L234.896 236.319L235.744 239.916L234.838 240.022L229.71 240.583C232.69 240.386 235.744 240.204 238.782 240.204C242.917 240.204 247.036 240.553 250.908 241.736C251.098 241.797 251.214 242.01 251.156 242.207C251.098 242.404 250.893 242.526 250.703 242.465C246.934 241.296 242.887 240.947 238.782 240.947C235.671 240.947 232.515 241.16 229.447 241.357C225.78 241.6 222.377 242.025 218.783 242.48C215.364 242.905 211.347 242.981 195.598 245.014H195.613C195.409 245.044 195.219 244.893 195.204 244.695C195.189 244.559 195.233 244.453 195.321 244.377L149.055 249.475L138.025 241.554L137.85 241.433L137.061 240.872L134.124 238.747C130.574 239.248 127.36 240.826 124.672 242.692L125.432 246.956C126.455 246.532 127.653 246 128.485 245.469L126.031 250.325L127.959 261.281C128.588 260.886 129.157 260.052 129.157 258.292Z" fill="#F8AF98"/>
<path d="M164.423 101.252L156.374 102.603C161.414 112.314 164.423 101.252 164.423 101.252Z" fill="white"/>
<path d="M212.676 175.773C212.618 175.576 212.413 175.47 212.223 175.531C212.019 175.591 211.917 175.804 211.99 176.001C213.801 181.737 223.224 211.737 224.992 217.336C225.065 217.533 225.269 217.64 225.459 217.579C225.649 217.518 225.751 217.291 225.693 217.093C223.91 211.494 214.488 181.494 212.676 175.773Z" fill="#161E3F"/>
<path d="M198.403 271.645H141.882H123.854H64.8346H18.1447H2.5424V282.313H9.91988H198.403V271.645Z" fill="#E3A38C"/>
<path d="M204.32 271.645H198.403V282.313H290.322V276.486V271.645H259.629H234.341H204.32Z" fill="#BB7A65"/>
<path d="M199.499 266.061C197.6 264.043 192.721 264.043 192.721 264.043H140.669H139.398H136.36H134.957H128.456L128.88 266.44C128.88 269.324 126.63 271.645 123.854 271.645H141.882H198.403H204.32L199.499 266.061Z" fill="#6D67E4"/>
<path fill-rule="evenodd" clip-rule="evenodd" d="M18.1447 271.645C15.369 271.645 13.1192 269.324 13.1192 266.44L0.803955 196.745C0.803955 193.861 3.05372 191.525 5.8294 191.525H111.539C113.234 191.525 114.738 192.405 115.644 193.755C116.214 194.605 116.55 195.637 116.55 196.745L124.117 239.506L124.672 242.692L125.432 246.956L126.031 250.325L127.959 261.281L128.456 264.043L128.88 266.44C128.88 269.324 126.63 271.645 123.854 271.645H18.1447ZM64.8346 239.051C68.7936 239.051 72.0075 235.712 72.0075 231.585C72.0075 227.473 68.7936 224.134 64.8346 224.134C60.8756 224.134 57.6616 227.473 57.6616 231.585C57.6616 235.712 60.8756 239.051 64.8346 239.051Z" fill="#6D67E4"/>
<path d="M72.0221 231.585C72.0221 227.473 68.8082 224.134 64.8346 224.134C60.8756 224.134 57.6616 227.473 57.6616 231.585C57.6616 235.712 60.8756 239.051 64.8346 239.051C68.8082 239.051 72.0221 235.712 72.0221 231.585Z" fill="#453C67"/>
<path d="M156.461 69.7351C158.872 70.2055 161.399 68.1873 163.503 67.4589C165.796 66.6698 168.747 66.9126 171.026 67.7017C173.525 68.5666 175.205 70.9642 175.409 73.5135C175.541 75.3192 174.766 78.3844 176.855 79.0673C178.272 79.5225 178.053 79.6136 179.412 80.873C180.493 81.8594 179.733 83.0278 179.733 84.4087C179.719 86.2751 180.084 87.4739 180.654 89.1582C181.136 90.5239 181.705 90.9943 182.757 91.4647C182.334 90.6301 182.027 89.7197 181.852 88.7333C181.063 84.2266 183.459 79.9929 187.213 79.2949C190.953 78.5817 194.62 81.6773 195.409 86.1992C196.197 90.706 193.802 94.9397 190.062 95.6377C189.828 95.6782 189.599 95.7085 189.375 95.7287C188.981 97.6862 188.689 99.6741 188.294 101.783C188.192 102.33 188.221 102.891 188.338 103.483C188.586 104.666 189.214 105.911 189.974 107.11C190.675 108.217 191.479 109.264 192.18 110.205C192.287 110.347 192.389 110.483 192.487 110.615C194.211 106.594 193.232 106.047 194.883 103.544C197.308 99.9017 200.916 97.2006 201.705 92.6939C202.552 87.7925 202.552 83.9686 201.763 79.1887C200.916 73.9687 202.479 69.9778 202.129 64.682C201.778 59.2192 198.637 55.1373 193.378 53.5744C190.471 52.7094 187.973 53.2709 185.124 53.8171C181.764 54.4696 180.449 52.7549 177.834 50.9947C176.066 49.7959 174.109 48.7793 172.005 48.7793C169.916 48.7793 168.207 50.2663 166.176 50.236C164.219 50.2208 162.173 48.9158 160.099 48.7793C158.959 48.7034 157.937 48.7944 156.958 48.9917C156.155 49.1586 155.366 49.4166 154.591 49.7352C153.832 50.0387 153.072 50.4029 152.269 50.8126C151.275 51.3134 150.033 52.1631 148.923 52.0569L146.133 51.6169L143.094 51.1161C137.996 52.9522 138.273 64.1509 144.058 66.6395C146.484 67.6865 148.777 66.3967 151.056 66.8216C151.241 66.8519 151.426 66.8974 151.611 66.9581C153.379 67.5044 154.591 69.3709 156.461 69.7351Z" fill="#743C21"/>
<path d="M188.82 82.3753C190.369 82.8305 191.581 84.181 192.165 85.8502C191.566 85.9261 190.88 86.1234 190.252 86.3813C189.886 86.5331 189.536 86.7152 189.244 86.8973C188.951 87.0794 188.703 87.2766 188.542 87.5194C188.426 87.6863 188.469 87.9291 188.63 88.0505C188.791 88.1719 189.024 88.1264 189.141 87.9595C189.2 87.8532 189.375 87.7015 189.623 87.5346C190.339 87.0794 191.581 86.6545 192.385 86.5938C192.501 87.0945 192.574 87.6256 192.56 88.1567C192.56 89.052 192.385 89.9777 192.005 90.8426C191.917 91.0399 192.005 91.2523 192.18 91.3434C192.37 91.4344 192.589 91.3433 192.662 91.1613C193.1 90.1901 193.29 89.1582 193.29 88.1567C193.29 85.2129 191.61 82.4208 189.024 81.6469C188.82 81.6014 188.63 81.7076 188.572 81.9201C188.513 82.1173 188.63 82.3298 188.82 82.3753Z" fill="#161E3F"/>
<path d="M157.835 98.1718C157.893 97.9746 157.791 97.7621 157.601 97.7014C156.228 97.2158 154.635 95.8502 153.408 94.6969C154.124 93.0732 154.957 91.6468 155.658 90.1294C156.388 88.5209 156.943 86.791 156.943 84.6363V84.6211C156.943 84.4087 156.783 84.2418 156.578 84.2418C156.374 84.2418 156.213 84.4087 156.213 84.6059V84.6211C156.213 86.6545 155.702 88.2478 155 89.7956C154.299 91.3434 153.393 92.8456 152.634 94.6362C152.561 94.7879 152.605 94.9549 152.721 95.0763C153.992 96.2599 155.687 97.8076 157.367 98.4146C157.557 98.4753 157.776 98.3691 157.835 98.1718Z" fill="#161E3F"/>
<path d="M218.695 241.721C215.335 242.161 211.259 242.237 195.511 244.271C195.438 244.271 195.365 244.316 195.321 244.377C195.233 244.453 195.189 244.559 195.204 244.695C195.219 244.893 195.409 245.044 195.613 245.014H195.598C211.347 242.981 215.364 242.905 218.783 242.48C222.377 242.025 225.78 241.6 229.447 241.357C232.515 241.16 235.671 240.947 238.782 240.947C242.887 240.947 246.934 241.296 250.703 242.465C250.893 242.526 251.098 242.404 251.156 242.207C251.214 242.01 251.098 241.797 250.908 241.736C247.036 240.553 242.917 240.204 238.782 240.204C235.744 240.204 232.69 240.386 229.71 240.583C229.613 240.593 229.511 240.598 229.403 240.598C225.707 240.841 222.289 241.266 218.695 241.721Z" fill="#161E3F"/>
</svg>
