<?xml version="1.0" encoding="UTF-8" standalone="no" ?>
<svg width="295" height="250" viewBox="0 0 295 250" fill="none" xmlns="http://www.w3.org/2000/svg">
<path d="M146.135 249.274C220.441 249.274 280.679 246.023 280.679 242.014C280.679 238.004 220.441 234.754 146.135 234.754C71.8281 234.754 11.5907 238.004 11.5907 242.014C11.5907 246.023 71.8281 249.274 146.135 249.274Z" fill="#909090"/>
<path d="M138.082 184.462H4.09279C1.90695 184.459 0.137451 182.82 0.137451 180.8V6.72297C0.156187 4.71559 1.92083 3.09622 4.09279 3.09302H138.082C140.27 3.09302 142.044 4.73227 142.044 6.75504V180.8C142.044 182.823 140.27 184.462 138.082 184.462ZM4.09279 3.22128C2.00271 3.22513 0.310931 4.79127 0.310931 6.72297V180.8C0.310931 182.732 2.00271 184.298 4.09279 184.302H138.082C140.173 184.299 141.866 182.733 141.871 180.8V6.72297C141.866 4.79063 140.173 3.22449 138.082 3.22128H4.09279Z" fill="#E6E6E6"/>
<path d="M288.183 184.462H154.188C152.001 184.459 150.229 182.821 150.225 180.8V6.72297C150.248 4.71431 152.014 3.09622 154.188 3.09302H288.183C290.353 3.10007 292.113 4.71816 292.132 6.72297V180.8C292.132 182.818 290.367 184.455 288.183 184.462ZM154.188 3.22128C152.097 3.22513 150.402 4.79063 150.399 6.72297V180.8C150.402 182.733 152.097 184.298 154.188 184.302H288.183C290.274 184.299 291.968 182.733 291.972 180.8V6.72297C291.968 4.79063 290.274 3.22449 288.183 3.22128H154.188Z" fill="#E6E6E6"/>
<path d="M116.816 92.0646L115.867 167.469C112.51 192.551 64.3972 212.465 64.3972 212.465C64.3972 212.465 16.285 192.551 12.9285 167.469L11.9216 92.0646L63.3438 76.4212L116.816 92.0646Z" fill="#AEAEAE"/>
<path d="M110.11 96.8374L109.282 164.524C106.354 186.4 64.3937 203.768 64.3937 203.768C64.3937 203.768 22.4331 186.4 19.5055 164.524L18.627 96.8374L63.4743 83.1943L110.11 96.8374Z" fill="#E0E0E0"/>
<path d="M107.162 101.11L106.386 163.245C103.641 183.752 64.3036 200.034 64.3036 200.034C64.3036 200.034 24.966 183.752 22.2215 163.245L21.3978 101.11L63.4417 88.3198L107.162 101.11Z" stroke="white" stroke-width="3" stroke-miterlimit="10" stroke-linecap="round" stroke-linejoin="round"/>
<path d="M278.207 66.6223H185.649V216.72H278.207V66.6223Z" fill="#AAAAAA"/>
<path d="M271.485 72.5212H192.486V216.72H271.485V72.5212Z" fill="#E0E0E0"/>
<path d="M194.694 217.363C194.556 217.363 194.418 217.337 194.292 217.286C194.167 217.241 194.056 217.17 193.959 217.081C193.855 216.991 193.778 216.882 193.73 216.766C193.681 216.651 193.654 216.53 193.654 216.401C193.654 216.151 193.765 215.901 193.959 215.721C194.195 215.496 194.556 215.4 194.896 215.458C194.958 215.471 195.028 215.491 195.09 215.509C195.152 215.535 195.215 215.568 195.27 215.6C195.326 215.638 195.381 215.677 195.43 215.721C195.478 215.766 195.52 215.811 195.555 215.868C195.597 215.92 195.624 215.971 195.652 216.035C195.68 216.093 195.701 216.151 195.715 216.215C195.729 216.272 195.735 216.336 195.735 216.401C195.735 216.529 195.708 216.651 195.652 216.766C195.604 216.882 195.527 216.991 195.431 217.08C195.229 217.26 194.973 217.363 194.694 217.363Z" fill="white"/>
<path d="M193.654 192.774C193.654 192.242 194.118 191.812 194.694 191.812C195.27 191.812 195.735 192.242 195.735 192.774C195.735 193.306 195.27 193.736 194.694 193.736C194.118 193.736 193.654 193.306 193.654 192.774ZM193.654 169.154C193.654 168.621 194.118 168.192 194.694 168.192C195.27 168.192 195.735 168.621 195.735 169.154C195.735 169.679 195.27 170.116 194.694 170.116C194.118 170.116 193.654 169.679 193.654 169.154ZM193.654 145.526C193.654 144.995 194.118 144.564 194.694 144.564C195.27 144.564 195.735 144.995 195.735 145.526C195.735 146.059 195.27 146.488 194.694 146.488C194.118 146.488 193.654 146.059 193.654 145.526ZM193.654 121.9C193.654 121.374 194.118 120.938 194.694 120.938C195.27 120.938 195.735 121.374 195.735 121.9C195.735 122.432 195.27 122.862 194.694 122.862C194.118 122.862 193.654 122.432 193.654 121.9ZM193.654 98.2798C193.654 97.7475 194.118 97.3178 194.694 97.3178C195.27 97.3178 195.735 97.7475 195.735 98.2798C195.735 98.8121 195.27 99.2418 194.694 99.2418C194.118 99.2418 193.654 98.8121 193.654 98.2798Z" fill="white"/>
<path d="M194.694 75.615C194.418 75.615 194.146 75.5124 193.959 75.3322C193.91 75.2873 193.862 75.2424 193.827 75.1847C193.792 75.134 193.758 75.0821 193.73 75.0244C193.702 74.9602 193.681 74.9025 193.674 74.8384C193.661 74.7807 193.654 74.7165 193.654 74.653C193.654 74.4029 193.765 74.1528 193.959 73.9732C194.001 73.9283 194.056 73.8899 194.112 73.8514C194.167 73.8193 194.23 73.7872 194.292 73.768C194.355 73.7423 194.424 73.7231 194.486 73.7103C194.625 73.6846 194.757 73.6846 194.896 73.7103C194.958 73.7231 195.028 73.7423 195.09 73.768C195.152 73.7872 195.215 73.8193 195.27 73.8514C195.326 73.8892 195.381 73.9283 195.43 73.9732C195.624 74.1528 195.735 74.4029 195.735 74.653C195.735 74.7172 195.728 74.7813 195.715 74.8384C195.701 74.9025 195.679 74.9602 195.651 75.0244C195.624 75.0821 195.597 75.134 195.554 75.1847C195.52 75.2424 195.478 75.2873 195.429 75.3322C195.236 75.5124 194.966 75.615 194.694 75.615Z" fill="white"/>
<path d="M243.2 74.653C243.2 74.1207 243.665 73.691 244.241 73.691C244.817 73.691 245.282 74.1207 245.282 74.653C245.282 75.1847 244.817 75.615 244.241 75.615C243.665 75.615 243.2 75.1853 243.2 74.653ZM218.427 74.653C218.427 74.1207 218.892 73.691 219.468 73.691C220.044 73.691 220.509 74.1207 220.509 74.653C220.509 75.1847 220.044 75.615 219.468 75.615C218.892 75.615 218.427 75.1853 218.427 74.653Z" fill="white"/>
<path d="M269.014 75.615C268.944 75.615 268.881 75.6086 268.813 75.5958C268.743 75.583 268.681 75.5637 268.618 75.5445C268.556 75.5188 268.494 75.4868 268.438 75.4547C268.382 75.4162 268.327 75.3778 268.278 75.3322C268.085 75.1526 267.974 74.9089 267.974 74.653C267.974 74.4029 268.085 74.1528 268.278 73.9732C268.327 73.9283 268.382 73.8899 268.438 73.8578C268.494 73.8193 268.556 73.7872 268.618 73.768C268.681 73.7423 268.743 73.7231 268.813 73.7103C268.944 73.6846 269.083 73.6846 269.222 73.7103C269.285 73.7231 269.347 73.7423 269.416 73.768C269.479 73.7872 269.534 73.8193 269.59 73.8578C269.652 73.8899 269.7 73.9283 269.749 73.9732C269.943 74.1528 270.055 74.4029 270.055 74.653C270.055 74.9096 269.944 75.1533 269.749 75.3322C269.7 75.3771 269.652 75.4156 269.59 75.4547C269.534 75.4868 269.479 75.5188 269.416 75.5445C269.346 75.5637 269.285 75.583 269.222 75.5958C269.153 75.6086 269.083 75.615 269.014 75.615Z" fill="white"/>
<path d="M267.973 192.774C267.973 192.242 268.438 191.812 269.014 191.812C269.59 191.812 270.055 192.242 270.055 192.774C270.055 193.306 269.59 193.736 269.014 193.736C268.438 193.736 267.973 193.306 267.973 192.774ZM267.973 169.154C267.973 168.621 268.438 168.192 269.014 168.192C269.59 168.192 270.055 168.621 270.055 169.154C270.055 169.679 269.59 170.116 269.014 170.116C268.438 170.116 267.973 169.679 267.973 169.154ZM267.973 145.526C267.973 144.995 268.438 144.564 269.014 144.564C269.59 144.564 270.055 144.995 270.055 145.526C270.055 146.059 269.59 146.488 269.014 146.488C268.438 146.488 267.973 146.059 267.973 145.526ZM267.973 121.9C267.973 121.368 268.438 120.938 269.014 120.938C269.59 120.938 270.055 121.368 270.055 121.9C270.055 122.432 269.59 122.862 269.014 122.862C268.438 122.862 267.973 122.432 267.973 121.9ZM267.973 98.2798C267.973 97.7475 268.438 97.3178 269.014 97.3178C269.59 97.3178 270.055 97.7475 270.055 98.2798C270.055 98.8121 269.59 99.2418 269.014 99.2418C268.438 99.2418 267.973 98.8121 267.973 98.2798Z" fill="white"/>
<path d="M269.014 217.363C268.736 217.363 268.473 217.26 268.278 217.08C268.084 216.9 267.973 216.657 267.973 216.401C267.973 216.144 268.084 215.9 268.278 215.72C268.326 215.676 268.382 215.637 268.437 215.599C268.493 215.567 268.555 215.534 268.618 215.509C268.68 215.49 268.743 215.47 268.812 215.457C268.943 215.432 269.083 215.432 269.221 215.457C269.284 215.471 269.353 215.49 269.416 215.509C269.478 215.534 269.534 215.567 269.589 215.599C269.652 215.637 269.7 215.676 269.748 215.72C269.942 215.9 270.054 216.144 270.054 216.401C270.054 216.657 269.95 216.9 269.748 217.08C269.554 217.26 269.291 217.363 269.014 217.363Z" fill="white"/>
<path d="M38.5771 216.965H9.98071V217.125H38.5771V216.965Z" fill="#E0E0E0"/>
<path d="M96.8665 215.682H68.1868V215.843H96.8665V215.682Z" fill="#E0E0E0"/>
<path d="M134.185 215.682H127.246V215.843H134.185V215.682Z" fill="#E0E0E0"/>
<path d="M64.8282 221.159H32.7344V221.32H64.8282V221.159Z" fill="#E0E0E0"/>
<path d="M175.834 216.882H160.846V217.042H175.834V216.882Z" fill="#E0E0E0"/>
<path d="M201.392 216.882H182.01V217.042H201.392V216.882Z" fill="#E0E0E0"/>
<path d="M294.862 219.595H251.534V219.755H294.862V219.595Z" fill="#E0E0E0"/>
<path d="M134.623 21.6417H102.657L104.4 3.22772H136.366L134.623 21.6417Z" fill="#FFDC27"/>
<path d="M135.271 0.726501L134.396 10.3427L133.522 21.8963H102.776L104.524 0.726501H135.271Z" fill="#FAFAFA"/>
<path d="M132.33 3.23028L134.073 21.643H102.109L100.366 3.23028H103.084L104.03 1.84564H112.642L113.875 3.23028H132.33Z" fill="#F4F75B"/>
<path d="M184.166 25.7533H150.153V57.1889H184.166V25.7533Z" fill="#EBEBEB"/>
<path d="M185.033 25.7533H184.166V57.1889H185.033V25.7533Z" fill="#E0E0E0"/>
<path d="M181.022 28.6605H153.292V54.2882H181.022V28.6605Z" fill="#F5F5F5"/>
<path d="M153.553 28.6605H153.299V54.2882H153.553V28.6605Z" fill="#E0E0E0"/>
<path d="M167.418 45.1793C170.404 45.1793 172.824 42.3295 172.824 38.814C172.824 35.2986 170.404 32.4488 167.418 32.4488C164.432 32.4488 162.012 35.2986 162.012 38.814C162.012 42.3295 164.432 45.1793 167.418 45.1793Z" fill="#E0E0E0"/>
<path d="M164.592 48.3942H170.29V43.1282H164.592V48.3942Z" fill="#E0E0E0"/>
<path d="M156.818 54.2881H177.692V52.495C177.692 49.0805 174.697 46.3125 171.003 46.3125H163.506C159.812 46.3125 156.817 49.0805 156.817 52.495L156.818 54.2881Z" fill="#E0E0E0"/>
<path d="M156.294 43.592C156.294 44.6412 158.349 45.4916 158.349 45.4916C158.349 45.4916 160.404 44.6412 160.404 43.592C160.404 43.0943 159.649 42.8134 159.162 42.941C158.623 43.0828 158.349 43.6651 158.349 43.6651C158.349 43.6651 157.841 43.043 157.33 42.8929C156.813 42.7409 156.294 43.0642 156.294 43.592Z" fill="#E0E0E0"/>
<path d="M174.763 38.9186C174.763 40.2962 177.462 41.4134 177.462 41.4134C177.462 41.4134 180.162 40.2962 180.162 38.9186C180.162 38.2657 179.169 37.8963 178.531 38.0643C177.823 38.2503 177.462 39.0148 177.462 39.0148C177.462 39.0148 176.796 38.1984 176.125 38.0009C175.446 37.8014 174.763 38.226 174.763 38.9186Z" fill="#E0E0E0"/>
<path d="M115.402 195.873C115.719 197.726 117.17 199.324 117.284 201.197C117.372 202.661 116.627 204.044 116.263 205.471C115.899 206.899 116.071 208.678 117.431 209.434C118.372 209.958 119.625 209.797 120.561 209.264C121.497 208.731 122.172 207.885 122.751 207.021C124.872 203.864 126.047 200.172 126.115 196.457C126.144 194.881 125.943 193.215 124.94 191.94C121.82 187.974 114.611 191.255 115.402 195.873Z" fill="#C5C5C5"/>
<path d="M112.856 190.969C113.143 191.274 113.549 191.471 113.973 191.573C114.501 191.698 115.126 191.66 115.505 191.298C115.865 190.953 115.905 190.422 115.853 189.945C115.789 189.361 115.611 188.771 115.223 188.306C114.836 187.84 114.214 187.516 113.58 187.564C112.947 187.612 112.35 188.093 112.318 188.679C112.283 189.309 112.398 190.481 112.856 190.969Z" fill="#C5C5C5"/>
<path d="M118.594 187.112C118.247 186.676 117.744 186.471 117.245 186.565C116.754 186.657 116.302 187.079 116.245 187.555C116.227 187.696 116.219 187.857 116.222 188.022C116.226 188.264 116.248 188.526 116.31 188.771C116.379 189.04 116.5 189.282 116.666 189.434C116.901 189.649 117.208 189.785 117.531 189.841C117.932 189.911 118.397 189.855 118.687 189.577C118.99 189.285 119.068 188.855 119.052 188.456C119.034 187.981 118.901 187.496 118.594 187.112Z" fill="#C5C5C5"/>
<path d="M121.809 186.949C121.464 186.497 121.021 186.379 120.594 186.525C120.184 186.665 119.817 187.074 119.734 187.496C119.707 187.633 119.689 187.779 119.682 187.918C119.673 188.14 119.677 188.378 119.734 188.601C119.795 188.841 119.92 189.056 120.09 189.185C120.297 189.342 120.548 189.433 120.81 189.454C121.137 189.479 121.502 189.401 121.738 189.173C122.018 188.9 122.138 188.522 122.155 188.152C122.175 187.734 122.073 187.297 121.809 186.949Z" fill="#C5C5C5"/>
<path d="M124.672 187.567C124.333 187.097 123.947 187.065 123.592 187.265C123.264 187.451 122.978 187.851 122.873 188.219C122.835 188.353 122.807 188.484 122.794 188.597C122.77 188.799 122.758 189.013 122.809 189.215C122.861 189.426 122.988 189.616 123.165 189.719C123.341 189.821 123.539 189.864 123.741 189.849C123.992 189.83 124.257 189.731 124.441 189.552C124.699 189.299 124.858 188.972 124.909 188.632C124.964 188.267 124.896 187.876 124.672 187.567Z" fill="#C5C5C5"/>
<path d="M125.236 190.162C125.2 190.315 125.18 190.475 125.217 190.629C125.255 190.782 125.361 190.928 125.518 190.987C125.788 191.088 126.083 190.912 126.281 190.715C126.48 190.518 126.645 190.285 126.719 190.024C126.794 189.763 126.769 189.471 126.613 189.243C125.982 188.312 125.343 189.704 125.236 190.162Z" fill="#C5C5C5"/>
<path d="M125.797 238.706C126.263 237.189 126.531 235.532 125.917 234.062C124.004 229.488 116.124 230.949 115.606 235.6L125.797 238.706Z" fill="#BDBDBD"/>
<path d="M114.507 230.255C114.7 230.619 115.037 230.906 115.419 231.104C115.894 231.351 116.509 231.462 116.976 231.202C117.42 230.955 117.606 230.45 117.688 229.977C117.789 229.397 117.78 228.785 117.535 228.244C117.29 227.702 116.778 227.241 116.153 227.137C115.527 227.033 114.817 227.356 114.622 227.915C114.415 228.515 114.2 229.676 114.507 230.255Z" fill="#BDBDBD"/>
<path d="M121.125 227.89C120.91 227.386 120.482 227.069 119.973 227.041C119.473 227.014 118.919 227.314 118.731 227.76C118.676 227.892 118.622 228.047 118.579 228.206C118.516 228.441 118.464 228.7 118.456 228.95C118.449 229.227 118.499 229.49 118.616 229.676C118.784 229.94 119.042 230.143 119.339 230.274C119.708 230.437 120.173 230.493 120.53 230.293C120.904 230.082 121.099 229.686 121.195 229.295C121.308 228.834 121.315 228.335 121.125 227.89Z" fill="#BDBDBD"/>
<path d="M124.276 228.496C124.069 227.977 123.674 227.757 123.22 227.797C122.786 227.836 122.317 228.144 122.119 228.532C122.055 228.658 121.997 228.796 121.953 228.928C121.882 229.141 121.82 229.372 121.813 229.601C121.805 229.847 121.867 230.085 121.995 230.25C122.151 230.451 122.369 230.598 122.616 230.68C122.925 230.783 123.299 230.793 123.591 230.629C123.938 230.432 124.158 230.094 124.277 229.741C124.412 229.341 124.436 228.894 124.276 228.496Z" fill="#BDBDBD"/>
<path d="M126.873 229.771C126.675 229.236 126.312 229.114 125.913 229.224C125.544 229.325 125.156 229.644 124.953 229.975C124.879 230.094 124.816 230.214 124.771 230.321C124.691 230.511 124.62 230.714 124.614 230.922C124.607 231.138 124.676 231.352 124.818 231.493C124.96 231.634 125.14 231.722 125.339 231.756C125.587 231.797 125.872 231.764 126.098 231.635C126.418 231.452 126.662 231.173 126.806 230.857C126.96 230.518 127.003 230.123 126.873 229.771Z" fill="#BDBDBD"/>
<path d="M126.697 232.413C126.62 232.553 126.556 232.703 126.55 232.86C126.544 233.017 126.605 233.182 126.741 233.277C126.973 233.439 127.308 233.339 127.554 233.196C127.801 233.052 128.026 232.866 128.17 232.632C128.314 232.397 128.371 232.109 128.284 231.851C127.931 230.802 126.927 231.995 126.697 232.413Z" fill="#BDBDBD"/>
<path d="M98.445 211.484C98.6955 213.346 97.7796 215.253 98.232 217.081C98.5859 218.511 99.7156 219.648 100.493 220.927C101.271 222.205 101.638 223.959 100.559 225.034C99.8107 225.778 98.5588 225.944 97.4999 225.671C96.4403 225.399 95.5396 224.759 94.7235 224.077C91.7404 221.587 89.5039 218.339 88.3263 214.787C87.8267 213.28 87.52 211.628 88.1022 210.146C89.9105 205.536 97.8205 206.844 98.445 211.484Z" fill="#C9C5C5"/>
<path d="M99.4221 206.119C99.2375 206.487 98.9065 206.78 98.5297 206.986C98.06 207.242 97.4479 207.365 96.9754 207.114C96.5264 206.876 96.3286 206.374 96.2357 205.903C96.1218 205.325 96.117 204.714 96.3495 204.167C96.5826 203.621 97.0829 203.151 97.7061 203.035C98.3292 202.919 99.0467 203.228 99.2535 203.783C99.4749 204.378 99.7157 205.534 99.4221 206.119Z" fill="#C9C5C5"/>
<path d="M92.7515 203.883C92.9548 203.375 93.376 203.049 93.8846 203.012C94.3836 202.975 94.9436 203.264 95.142 203.706C95.201 203.838 95.2572 203.99 95.3044 204.149C95.3724 204.383 95.4307 204.641 95.4439 204.891C95.4578 205.167 95.414 205.431 95.3002 205.619C95.1385 205.886 94.8846 206.094 94.591 206.231C94.226 206.401 93.7625 206.466 93.401 206.273C93.0221 206.07 92.8188 205.677 92.714 205.289C92.5898 204.83 92.5724 204.331 92.7515 203.883Z" fill="#C9C5C5"/>
<path d="M89.615 204.549C89.8107 204.026 90.2007 203.799 90.6552 203.83C91.0903 203.859 91.5656 204.16 91.7724 204.543C91.8397 204.668 91.9008 204.804 91.948 204.936C92.0236 205.147 92.0909 205.377 92.1034 205.606C92.1166 205.852 92.0604 206.091 91.9362 206.257C91.7835 206.462 91.5705 206.613 91.3241 206.7C91.0181 206.808 90.6441 206.826 90.3485 206.668C89.9974 206.478 89.7691 206.145 89.6421 205.794C89.4977 205.397 89.4651 204.95 89.615 204.549Z" fill="#C9C5C5"/>
<path d="M87.0481 205.875C87.2334 205.336 87.5949 205.207 87.996 205.309C88.3665 205.403 88.7614 205.714 88.9723 206.041C89.0487 206.16 89.1146 206.278 89.1618 206.384C89.2457 206.572 89.3214 206.774 89.3332 206.981C89.345 207.198 89.2804 207.412 89.1416 207.557C89.0036 207.7 88.8252 207.791 88.6268 207.829C88.3797 207.876 88.0952 207.848 87.8655 207.723C87.5415 207.546 87.291 207.273 87.1397 206.96C86.978 206.623 86.9253 206.23 87.0481 205.875Z" fill="#C9C5C5"/>
<path d="M87.2834 208.512C87.3639 208.651 87.4319 208.8 87.4409 208.956C87.4506 209.113 87.3923 209.28 87.2591 209.377C87.0308 209.543 86.6935 209.449 86.4451 209.311C86.1946 209.172 85.9656 208.991 85.8164 208.759C85.6672 208.527 85.6034 208.241 85.6846 207.981C86.0128 206.926 87.044 208.1 87.2834 208.512Z" fill="#C9C5C5"/>
<path d="M81.4143 57.5147C76.9614 58.0894 72.8326 55.2078 72.2108 51.0924C71.5891 46.9763 74.7068 43.1604 79.1597 42.5857C83.6133 42.0111 87.7421 44.8926 88.3639 49.0087C88.9856 53.1248 85.8678 56.9407 81.4143 57.5147ZM79.7593 46.553C77.6727 46.8224 76.212 48.6104 76.5034 50.5389C76.7948 52.4674 78.7288 53.8174 80.8161 53.5481C82.9027 53.2787 84.3641 51.4907 84.0727 49.5622C83.7812 47.6337 81.8459 46.2837 79.7593 46.553Z" fill="#E0E0E0"/>
<path d="M78.3492 27.589L75.2833 27.9844L78.0347 46.2076L81.1006 45.8122L78.3492 27.589Z" fill="#E0E0E0"/>
<path d="M80.8777 25.2417L75.1226 25.9839L75.5504 28.8175L81.3055 28.0753L80.8777 25.2417Z" fill="#E0E0E0"/>
<path d="M81.4328 28.8812L76.0214 29.5791L76.4492 32.4126L81.8606 31.7147L81.4328 28.8812Z" fill="#E0E0E0"/>
<path d="M82.2175 34.0153L77.494 34.6245L77.9218 37.458L82.6454 36.8488L82.2175 34.0153Z" fill="#E0E0E0"/>
<path d="M74.9888 121.445C81.3848 115.27 80.6581 105.034 73.3655 98.5818C66.0729 92.1302 54.976 91.9063 48.58 98.0818C42.1839 104.257 42.9107 114.494 50.2033 120.945C57.4959 127.397 68.5928 127.621 74.9888 121.445Z" fill="#6D67E4"/>
<g opacity="0.8">
<path d="M74.9888 121.445C81.3848 115.27 80.6581 105.034 73.3655 98.5818C66.0729 92.1302 54.976 91.9063 48.58 98.0818C42.1839 104.257 42.9107 114.494 50.2033 120.945C57.4959 127.397 68.5928 127.621 74.9888 121.445Z" fill="white"/>
</g>
<path d="M53.629 99.6202C53.4166 99.6202 53.2078 99.5304 53.0711 99.3611C52.8428 99.0763 52.9073 98.6748 53.2147 98.4638C55.4172 96.9528 58.1915 96.1537 61.2378 96.1537C61.2413 96.1537 61.2447 96.1537 61.2482 96.1537C61.6312 96.1544 61.9414 96.4411 61.9414 96.7957C61.9414 97.1497 61.6306 97.4364 61.2475 97.4364C61.2475 97.4364 61.2413 97.4364 61.2378 97.4364C58.4913 97.4364 56.0036 98.1477 54.0419 99.4932C53.9183 99.5791 53.7733 99.6202 53.629 99.6202Z" fill="#6D67E4"/>
<path d="M56.9112 121.684C56.8008 121.684 56.6891 121.66 56.5843 121.608C52.2827 119.479 49.2725 115.696 48.3267 111.229C47.4745 107.208 48.4898 103.227 51.1114 100.306C51.3556 100.035 51.7935 99.9966 52.0884 100.222C52.3833 100.448 52.4236 100.853 52.1793 101.125C49.8248 103.748 48.9172 107.34 49.6888 110.982C50.5542 115.07 53.3069 118.53 57.2394 120.476C57.5773 120.643 57.705 121.032 57.5239 121.345C57.3983 121.561 57.1589 121.684 56.9112 121.684Z" fill="#6D67E4"/>
<path d="M63.8566 123.357C62.3598 123.357 60.8228 123.131 59.285 122.674C58.9207 122.565 58.7202 122.204 58.8368 121.867C58.9547 121.53 59.3468 121.343 59.7104 121.453C63.978 122.723 68.2414 122.017 71.4009 119.512C74.622 116.959 76.1195 112.979 75.4069 108.867C75.3458 108.517 75.6039 108.188 75.9821 108.132C76.3582 108.074 76.7163 108.313 76.7774 108.664C77.567 113.22 75.8947 117.638 72.3043 120.485C69.9166 122.379 66.975 123.357 63.8566 123.357Z" fill="#6D67E4"/>
<path d="M75.5283 107.238C75.2348 107.238 74.9628 107.065 74.8677 106.793C73.5888 103.12 70.5855 100.028 66.8349 98.5222C66.4831 98.3811 66.3221 98.0034 66.4748 97.6782C66.6267 97.3537 67.0341 97.2036 67.3873 97.346C71.4987 98.9968 74.7893 102.382 76.1889 106.4C76.3062 106.737 76.1057 107.099 75.7407 107.207C75.6699 107.228 75.5991 107.238 75.5283 107.238Z" fill="#6D67E4"/>
<path d="M64.5907 97.7994C64.538 97.7994 64.4838 97.7936 64.4304 97.7821C63.3867 97.5538 62.3153 97.4377 61.2467 97.4364C60.8637 97.4364 60.5528 97.1485 60.5535 96.7944C60.5542 96.4404 60.8643 96.1537 61.2474 96.1537C62.4229 96.1544 63.6026 96.2827 64.7503 96.5334C65.1229 96.6155 65.354 96.9605 65.2652 97.3056C65.1902 97.6006 64.905 97.7994 64.5907 97.7994Z" fill="#6D67E4"/>
<path d="M52.3521 113.123C52.0697 113.123 51.8039 112.962 51.7012 112.703C50.398 109.428 50.8414 105.973 52.9177 103.224C54.9064 100.59 58.0742 99.0789 61.6069 99.0789H61.609C61.9927 99.0789 62.3029 99.3662 62.3029 99.7202C62.3029 100.074 61.992 100.362 61.609 100.362H61.6069C58.5335 100.362 55.7815 101.672 54.055 103.958C52.2425 106.359 51.8594 109.384 53.003 112.26C53.1349 112.593 52.951 112.961 52.5908 113.084C52.5124 113.11 52.4312 113.123 52.3521 113.123Z" fill="#6D67E4"/>
<path d="M63.3591 120.444C63.357 120.444 63.3542 120.444 63.3521 120.444C59.3232 120.406 55.2416 118.274 52.9524 115.012C52.7435 114.715 52.8351 114.317 53.1571 114.125C53.4784 113.932 53.9079 114.017 54.1168 114.314C56.1597 117.225 59.7903 119.128 63.366 119.162C63.7498 119.165 64.0572 119.455 64.053 119.809C64.0488 120.162 63.7393 120.444 63.3591 120.444Z" fill="#6D67E4"/>
<path d="M65.9495 120.167C65.6386 120.167 65.3555 119.972 65.2764 119.68C65.1841 119.337 65.4103 118.988 65.7822 118.903C71.4106 117.608 72.8678 113.061 72.4057 109.561C71.8027 104.994 67.8994 100.368 61.6069 100.362C61.2232 100.362 60.913 100.074 60.9137 99.7196C60.9144 99.3655 61.2246 99.0789 61.6076 99.0789H61.6083C68.7071 99.0859 73.1059 104.279 73.7831 109.406C74.4826 114.699 71.4731 118.916 66.1167 120.149C66.0619 120.161 66.005 120.167 65.9495 120.167Z" fill="#6D67E4"/>
<path d="M58.7737 103.904C58.5114 103.904 58.2609 103.766 58.1436 103.532C57.9826 103.21 58.1339 102.829 58.4816 102.68C59.5169 102.237 60.6847 102.003 61.8575 102.003C62.2412 102.003 62.5514 102.29 62.5514 102.644C62.5514 102.998 62.2412 103.285 61.8575 103.285C60.8846 103.285 59.9187 103.478 59.0644 103.844C58.9701 103.884 58.8708 103.904 58.7737 103.904Z" fill="#6D67E4"/>
<path d="M63.2293 117.457C59.7361 117.457 56.5143 115.489 54.9682 112.387C53.5297 109.5 53.9509 106.476 56.0951 104.299C56.3533 104.037 56.7925 104.018 57.0749 104.256C57.3581 104.494 57.3789 104.9 57.1207 105.162C55.3644 106.947 55.0307 109.447 56.2291 111.85C57.5801 114.562 60.4349 116.259 63.4507 116.172C65.9023 116.102 67.941 114.863 68.9035 112.859C69.995 110.587 69.5037 107.902 67.6211 105.855C67.3727 105.585 67.4081 105.18 67.7002 104.95C67.9931 104.722 68.4309 104.753 68.678 105.024C70.9096 107.451 71.4814 110.653 70.1713 113.38C68.9868 115.845 66.4894 117.368 63.493 117.454C63.4056 117.456 63.3174 117.457 63.2293 117.457Z" fill="#6D67E4"/>
<path d="M66.1562 104.467C66.0278 104.467 65.8995 104.435 65.7836 104.367C64.5852 103.66 63.2272 103.286 61.8574 103.285C61.4736 103.285 61.1635 102.998 61.1635 102.644C61.1635 102.29 61.4743 102.003 61.8574 102.003C63.4922 102.003 65.1084 102.447 66.5302 103.285C66.8536 103.476 66.948 103.872 66.7419 104.171C66.61 104.363 66.3852 104.467 66.1562 104.467Z" fill="#6D67E4"/>
<path d="M62.8837 114.563C61.2821 114.563 59.734 113.901 58.6417 112.701C57.2692 111.192 56.9514 109.19 57.8153 107.476C58.6182 105.882 60.2433 104.929 62.1627 104.928C62.5457 104.928 62.8566 105.215 62.8566 105.569C62.8566 105.923 62.5464 106.211 62.1627 106.211C60.7978 106.211 59.6431 106.886 59.0741 108.017C58.4412 109.274 58.6834 110.752 59.7048 111.875C60.7492 113.023 62.3369 113.52 63.8524 113.171C65.1396 112.875 66.0708 112.004 66.3422 110.84C66.4227 110.494 66.7877 110.275 67.1672 110.348C67.542 110.423 67.78 110.764 67.6995 111.11C67.3137 112.764 66.0015 113.999 64.1876 114.416C63.7532 114.515 63.3167 114.563 62.8837 114.563Z" fill="#6D67E4"/>
<path d="M66.9008 109.486C66.6052 109.486 66.3318 109.309 66.2388 109.036C65.6851 107.401 63.9711 106.212 62.1614 106.211C61.7776 106.211 61.4674 105.923 61.4681 105.569C61.4688 105.215 61.779 104.928 62.1621 104.928C64.5616 104.93 66.8335 106.497 67.5628 108.653C67.6773 108.991 67.4733 109.35 67.1083 109.457C67.0396 109.476 66.9695 109.486 66.9008 109.486Z" fill="#6D67E4"/>
<path d="M63.0496 111.896C62.6756 111.896 62.3668 111.62 62.3564 111.272C62.346 110.918 62.6485 110.623 63.0316 110.614C63.663 110.599 63.7574 110.181 63.7574 109.933C63.7574 109.554 63.4902 108.984 62.7554 108.966C62.5548 108.972 62.355 109.05 62.2148 109.192C62.0732 109.335 62.0052 109.529 62.0205 109.752C62.0434 110.105 61.7527 110.409 61.3696 110.431C60.988 110.455 60.659 110.184 60.6348 109.83C60.5973 109.259 60.7944 108.726 61.1913 108.326C61.5854 107.928 62.1413 107.7 62.7547 107.685C64.3209 107.723 65.1452 108.872 65.1452 109.933C65.1452 111.059 64.2917 111.866 63.0697 111.897C63.0621 111.896 63.0558 111.896 63.0496 111.896Z" fill="#6D67E4"/>
<path d="M80.9326 109.762C81.7785 118.695 74.629 125.936 64.9627 125.936C64.7129 125.936 64.4624 125.93 64.2119 125.917C73.4133 125.481 80.093 118.413 79.2741 109.762C78.456 101.116 70.4378 94.0489 61.1538 93.6128C61.4022 93.6 61.6513 93.5936 61.9012 93.5936C71.5682 93.5936 80.0874 100.834 80.9326 109.762Z" fill="#6D67E4"/>
<g opacity="0.4">
<path d="M80.9326 109.762C81.7785 118.695 74.629 125.936 64.9627 125.936C64.7129 125.936 64.4624 125.93 64.2119 125.917C73.4133 125.481 80.093 118.413 79.2741 109.762C78.456 101.116 70.4378 94.0489 61.1538 93.6128C61.4022 93.6 61.6513 93.5936 61.9012 93.5936C71.5682 93.5936 80.0874 100.834 80.9326 109.762Z" fill="white"/>
</g>
<path d="M95.0726 30.9346C95.0906 31.127 95.1225 31.3194 95.1614 31.5054C95.4174 32.7432 96.1336 33.8591 97.1148 34.6929C98.2466 35.6549 99.7399 36.2513 101.329 36.2513H159.958C162.928 36.2513 165.174 34.1734 165.226 31.5054C165.23 31.3194 165.226 31.127 165.207 30.9346C165.068 29.4724 164.297 28.1384 163.166 27.1828C162.034 26.2208 160.54 25.6244 158.951 25.6244H100.322C97.1446 25.6244 94.795 28.0037 95.0726 30.9346Z" fill="#453C67"/>
<path opacity="0.8" d="M95.0726 30.9346C95.0906 31.127 95.1225 31.3194 95.1614 31.5054C95.4174 32.7432 96.1336 33.8591 97.1148 34.6929C98.2466 35.6549 99.7399 36.2513 101.329 36.2513H159.958C162.928 36.2513 165.174 34.1734 165.226 31.5054C165.23 31.3194 165.226 31.127 165.207 30.9346C165.068 29.4724 164.297 28.1384 163.166 27.1828C162.034 26.2208 160.54 25.6244 158.951 25.6244H100.322C97.1446 25.6244 94.795 28.0037 95.0726 30.9346Z" fill="white"/>
<path d="M165.224 31.5041C165.224 31.6773 165.21 31.8505 165.183 32.0172C165.002 30.6319 164.246 29.3749 163.163 28.4642C162.032 27.5022 160.54 26.9058 158.951 26.9058L96.6027 26.9956C97.5395 26.1426 98.844 25.6231 100.322 25.6231H158.951C160.54 25.6231 162.032 26.2195 163.163 27.1815C164.295 28.1371 165.072 29.4711 165.21 30.9334C165.224 31.1258 165.231 31.3182 165.224 31.5041Z" fill="#453C67"/>
<path opacity="0.5" d="M165.224 31.5041C165.224 31.6773 165.21 31.8505 165.183 32.0172C165.002 30.6319 164.246 29.3749 163.163 28.4642C162.032 27.5022 160.54 26.9058 158.951 26.9058L96.6027 26.9956C97.5395 26.1426 98.844 25.6231 100.322 25.6231H158.951C160.54 25.6231 162.032 26.2195 163.163 27.1815C164.295 28.1371 165.072 29.4711 165.21 30.9334C165.224 31.1258 165.231 31.3182 165.224 31.5041Z" fill="white"/>
<path d="M155.129 28.1865L155.374 30.7788L157.985 29.879L158.606 31.1585L155.937 31.9768L157.853 34.1516L156.657 34.9706L154.789 32.7105L153.374 34.9706L152.061 34.1516L153.54 31.9768L150.742 31.1585L151.118 29.8867L153.924 30.7538L153.681 28.1865H155.129Z" fill="#453C67"/>
<path d="M139.094 28.1865L139.34 30.7788L141.951 29.879L142.571 31.1585L139.903 31.9768L141.818 34.1516L140.623 34.9706L138.755 32.7105L137.34 34.9706L136.026 34.1516L137.506 31.9768L134.707 31.1585L135.084 29.8867L137.889 30.7538L137.647 28.1865H139.094Z" fill="#453C67"/>
<path d="M123.06 28.1865L123.305 30.7788L125.917 29.879L126.537 31.1585L123.868 31.9768L125.784 34.1516L124.588 34.9706L122.72 32.7105L121.305 34.9706L119.992 34.1516L121.471 31.9768L118.673 31.1585L119.05 29.8867L121.855 30.7538L121.612 28.1865H123.06Z" fill="#453C67"/>
<path d="M107.025 28.1865L107.271 30.7788L109.882 29.879L110.503 31.1585L107.834 31.9768L109.75 34.1516L108.554 34.9706L106.686 32.7105L105.271 34.9706L103.957 34.1516L105.437 31.9768L102.638 31.1585L103.015 29.8867L105.821 30.7538L105.578 28.1865H107.025Z" fill="#453C67"/>
<path d="M145.888 23.1104H143.156V23.7517H145.888V23.1104Z" fill="#453C67"/>
<path d="M157.642 23.1104H148.722V23.7517H157.642V23.1104Z" fill="#453C67"/>
<path opacity="0.8" d="M248.69 47.0334L245.85 77.0286C245.765 77.9329 245.326 78.7538 244.664 79.3694C243.9 80.107 242.83 80.5687 241.685 80.5687H219.153C218.32 80.5687 217.573 80.325 216.989 79.9017C216.078 79.2668 215.545 78.215 215.658 77.0286L218.497 47.0334C218.683 45.0773 220.546 43.4932 222.663 43.4932H245.194C247.311 43.4932 248.875 45.0773 248.69 47.0334Z" fill="#453C67"/>
<path opacity="0.8" d="M248.69 47.0334L245.85 77.0286C245.765 77.9329 245.326 78.7538 244.664 79.3694C243.9 80.107 242.83 80.5687 241.685 80.5687H219.153C218.32 80.5687 217.573 80.325 216.989 79.9017C216.078 79.2668 215.545 78.215 215.658 77.0286L218.497 47.0334C218.683 45.0773 220.546 43.4932 222.663 43.4932H245.194C247.311 43.4932 248.875 45.0773 248.69 47.0334Z" fill="white"/>
<path d="M220.578 51.8639C220.557 51.8639 220.537 51.8633 220.517 51.8614C220.134 51.8306 219.852 51.5195 219.886 51.1668L220.145 48.4238C220.176 48.0922 220.476 47.8383 220.836 47.8383H223.969C224.353 47.8383 224.663 48.1256 224.663 48.4796C224.663 48.8336 224.353 49.1209 223.969 49.1209H221.472L221.268 51.2784C221.236 51.6125 220.934 51.8639 220.578 51.8639Z" fill="#453C67"/>
<path d="M245.809 51.8639C245.788 51.8639 245.768 51.8633 245.748 51.8614C245.365 51.8306 245.083 51.5195 245.117 51.1668L245.31 49.1209H242.934C242.551 49.1209 242.24 48.8336 242.24 48.4796C242.24 48.1256 242.551 47.8383 242.934 47.8383H246.067C246.262 47.8383 246.448 47.9139 246.579 48.0461C246.711 48.1788 246.775 48.3558 246.759 48.5354L246.499 51.2784C246.467 51.6125 246.164 51.8639 245.809 51.8639Z" fill="#453C67"/>
<path d="M221.751 72.5642H218.617C218.423 72.5642 218.237 72.4886 218.106 72.3558C217.975 72.2237 217.909 72.046 217.926 71.8665L218.186 69.1235C218.22 68.7708 218.562 68.5059 218.938 68.5405C219.32 68.5713 219.602 68.8823 219.569 69.2351L219.375 71.2809H221.751C222.135 71.2809 222.445 71.5683 222.445 71.9223C222.445 72.2769 222.134 72.5642 221.751 72.5642Z" fill="#453C67"/>
<path d="M243.848 72.5642H240.715C240.331 72.5642 240.021 72.2769 240.021 71.9229C240.021 71.5689 240.331 71.2815 240.715 71.2815H243.213L243.417 69.1241C243.451 68.7714 243.8 68.5065 244.168 68.5411C244.55 68.5719 244.832 68.883 244.799 69.2357L244.539 71.9787C244.508 72.3096 244.208 72.5642 243.848 72.5642Z" fill="#453C67"/>
<path d="M241.452 62.2254C243.019 56.611 240.33 51.1161 235.448 49.9524C230.565 48.7887 225.336 52.3967 223.77 58.0111C222.203 63.6255 224.892 69.1203 229.775 70.2841C234.657 71.4478 239.886 67.8398 241.452 62.2254Z" fill="white"/>
<path d="M235.337 76.0756H226.351L227.137 67.7697H236.123L235.337 76.0756Z" fill="white"/>
<path d="M245.85 77.0286C245.765 77.9328 245.326 78.7537 244.664 79.3694C243.9 80.107 242.83 80.5687 241.685 80.5687H219.153C218.32 80.5687 217.573 80.325 216.989 79.9017C216.078 79.2668 215.545 78.215 215.658 77.0286C215.658 77.0286 226.013 74.0015 227.29 74.0015C228.56 74.0015 235.291 74.0015 235.291 74.0015L245.85 77.0286Z" fill="white"/>
<path d="M249.96 55.7883L248.911 67.5705L249.602 67.623L250.651 55.8409L249.96 55.7883Z" fill="#453C67"/>
<path d="M250.693 50.4024L250.487 52.7168L251.178 52.7693L251.384 50.455L250.693 50.4024Z" fill="#453C67"/>
<path d="M226.545 121.958H223.812V122.599H226.545V121.958Z" fill="#453C67"/>
<path d="M238.299 121.958H229.379V122.599H238.299V121.958Z" fill="#453C67"/>
<path d="M254.616 111.008L252.885 129.29C252.729 130.937 251.157 132.273 249.375 132.273C247.592 132.273 246.273 130.937 246.429 129.29L248.16 111.008C248.718 105.105 243.977 100.298 237.588 100.298H230.512C224.124 100.298 218.472 105.105 217.913 111.008L217.207 118.474H210.75L211.457 111.008C212.327 101.813 221.131 94.3318 231.076 94.3318H238.153C248.1 94.3318 255.487 101.813 254.616 111.008Z" fill="#453C67"/>
<g opacity="0.5">
<path d="M254.616 111.008L252.885 129.29C252.729 130.937 251.157 132.273 249.375 132.273C247.592 132.273 246.273 130.937 246.429 129.29L248.16 111.008C248.718 105.105 243.977 100.298 237.588 100.298H230.512C224.124 100.298 218.472 105.105 217.913 111.008L217.207 118.474H210.75L211.457 111.008C212.327 101.813 221.131 94.3318 231.076 94.3318H238.153C248.1 94.3318 255.487 101.813 254.616 111.008Z" fill="white"/>
</g>
<path d="M255.083 128.62L251.711 164.238C251.498 166.492 249.352 168.315 246.913 168.315H208.375C205.94 168.315 204.136 166.492 204.35 164.238L207.721 128.62C207.859 127.165 208.809 125.885 210.117 125.166C210.833 124.771 211.658 124.542 212.518 124.542H251.057C251.892 124.542 252.65 124.758 253.279 125.126C254.492 125.842 255.223 127.139 255.083 128.62Z" fill="#453C67"/>
<path d="M215.005 144.178L225.017 158.425L258.042 127.902C258.332 127.634 257.932 127.217 257.609 127.451L226.136 150.25L220.193 141.394L215.005 144.178Z" fill="white"/>
<path d="M57.2831 75.2912H32.2035C29.849 75.2912 27.7728 73.5269 27.5667 71.3502L25.3725 48.1711C25.1664 45.9951 26.9082 44.2308 29.2633 44.2308H54.343C56.6981 44.2308 58.7736 45.9951 58.9797 48.1711L61.1739 71.3502C61.38 73.5269 59.6383 75.2912 57.2831 75.2912Z" fill="#6D67E4"/>
<path opacity="0.8" d="M57.2831 75.2912H32.2035C29.849 75.2912 27.7728 73.5269 27.5667 71.3502L25.3725 48.1711C25.1664 45.9951 26.9082 44.2308 29.2633 44.2308H54.343C56.6981 44.2308 58.7736 45.9951 58.9797 48.1711L61.1739 71.3502C61.38 73.5269 59.6383 75.2912 57.2831 75.2912Z" fill="white"/>
<path d="M27.5791 62.0958C27.5791 62.0958 36.4883 50.6229 43.0611 50.9173C49.6339 51.211 60.532 61.8251 60.532 61.8251C60.532 61.8251 44.4518 69.6276 27.5791 62.0958Z" fill="white"/>
<path d="M27.8615 62.2824L27.2974 61.9085C27.6603 61.4403 36.1636 50.5902 42.8106 50.5902C42.9001 50.5902 42.989 50.5921 43.0778 50.596C49.713 50.8929 60.3342 61.1664 60.7831 61.6038L60.2801 62.0451C60.1718 61.9399 49.4022 51.5208 43.0438 51.236C42.9661 51.2328 42.8863 51.2309 42.8072 51.2309C36.5161 51.2322 27.9483 62.1708 27.8615 62.2824Z" fill="#263238"/>
<path d="M26.6528 62.4992C25.3087 62.4992 23.5635 62.0374 22.9452 60.2795C22.8862 60.1108 22.9861 59.93 23.1679 59.8755C23.3497 59.8222 23.5461 59.9133 23.6051 60.0813C24.4017 62.3504 27.3821 61.8059 27.5084 61.7815C27.6923 61.7475 27.8796 61.8566 27.9185 62.0304C27.958 62.2035 27.8373 62.3735 27.6493 62.4094C27.371 62.4632 27.0275 62.4992 26.6528 62.4992Z" fill="#263238"/>
<path d="M31.9467 57.5737C31.8732 57.5737 31.7982 57.5519 31.7351 57.5077C31.631 57.4333 29.169 55.6734 28.5403 53.8867C28.4813 53.7187 28.5812 53.5378 28.763 53.4826C28.9448 53.4281 29.1412 53.5211 29.2002 53.6885C29.7616 55.2842 32.1334 56.9811 32.1577 56.9984C32.3096 57.1062 32.3381 57.3076 32.2215 57.448C32.1535 57.5307 32.0508 57.5737 31.9467 57.5737Z" fill="#263238"/>
<path d="M37.0469 53.2062C37.0449 53.2062 37.0421 53.2062 37.0393 53.2062C36.8478 53.2024 36.6958 53.0562 36.7 52.8785C36.7097 52.4674 35.6064 49.7828 35.1907 48.7721C35.0165 48.3488 34.8923 48.0454 34.8659 47.964C34.8104 47.7947 34.9138 47.6157 35.097 47.5638C35.2844 47.5125 35.4745 47.6087 35.53 47.778C35.555 47.855 35.6744 48.1429 35.8388 48.5444C36.8061 50.8974 37.4036 52.4463 37.3932 52.8926C37.3897 53.0671 37.235 53.2062 37.0469 53.2062Z" fill="#263238"/>
<path d="M43.0606 51.238C42.8829 51.238 42.7309 51.1123 42.7157 50.9455L42.2272 45.7802C42.2105 45.6039 42.3521 45.448 42.5422 45.4326C42.7379 45.4102 42.9016 45.5474 42.9183 45.7245L43.4068 50.8898C43.4235 51.0661 43.2819 51.222 43.0918 51.2374C43.0807 51.2374 43.071 51.238 43.0606 51.238Z" fill="#263238"/>
<path d="M61.5722 62.1496C61.0102 62.1496 60.5959 62.0759 60.5591 62.0688C60.3711 62.0342 60.2503 61.8655 60.2871 61.6917C60.3253 61.5179 60.5043 61.4031 60.6951 61.4397C60.7118 61.4422 62.389 61.7398 63.4306 61.0626C63.8726 60.7746 64.1328 60.3584 64.2251 59.7908C64.2536 59.6151 64.4326 59.4971 64.6193 59.5214C64.808 59.5477 64.9391 59.7106 64.9107 59.8864C64.7906 60.6277 64.4263 61.2004 63.8275 61.5891C63.1273 62.0438 62.244 62.1496 61.5722 62.1496Z" fill="#263238"/>
<path d="M55.3422 57.2325C55.2464 57.2325 55.1514 57.196 55.0827 57.1242C54.955 56.992 54.9689 56.7894 55.1118 56.6714C55.1326 56.6547 57.1637 54.9744 57.4198 53.3987C57.4482 53.2229 57.6266 53.1049 57.8139 53.1293C58.0034 53.1556 58.1338 53.3191 58.1054 53.4942C57.8125 55.3008 55.6628 57.0767 55.5719 57.1517C55.506 57.2056 55.4241 57.2325 55.3422 57.2325Z" fill="#263238"/>
<path d="M49.4772 53.5064C49.4578 53.5064 49.4383 53.5051 49.4189 53.5019C49.2302 53.4724 49.1025 53.3069 49.1344 53.1319C49.142 53.0908 49.8963 48.967 50.033 48.123C50.0615 47.9473 50.2405 47.8287 50.4272 47.8537C50.6166 47.88 50.7471 48.0435 50.7186 48.2186C50.5812 49.0677 49.8262 53.1973 49.8186 53.2389C49.7902 53.3954 49.6431 53.5064 49.4772 53.5064Z" fill="#263238"/>
<path d="M49.6838 63.4327C52.5576 60.658 52.231 56.0588 48.9545 53.1601C45.6779 50.2614 40.6921 50.1608 37.8183 52.9355C34.9445 55.7102 35.271 60.3094 38.5476 63.2081C41.8242 66.1069 46.81 66.2074 49.6838 63.4327Z" fill="#6D67E4"/>
<path opacity="0.3" d="M46.9985 58.1823C47.011 58.022 47.0096 57.8617 46.9936 57.6949C46.8319 55.989 45.2026 54.6101 43.3568 54.6101C41.5179 54.6101 40.1495 55.989 40.3112 57.6949C40.3271 57.8617 40.3563 58.022 40.4055 58.1823H35.8881C35.5079 54.1676 38.7186 50.916 43.0626 50.916C47.3995 50.916 51.2328 54.1676 51.6123 58.1823H46.9985Z" fill="black"/>
<path opacity="0.7" d="M46.9937 57.6949C47.0096 57.8617 47.011 58.022 46.9985 58.1823C46.8813 59.6574 45.6065 60.7797 43.9411 60.7797C42.2827 60.7797 40.7956 59.6574 40.4063 58.1823C40.3563 58.022 40.3272 57.8617 40.3119 57.6949C40.1502 55.989 41.5187 54.6101 43.3575 54.6101C45.2027 54.6101 46.832 55.989 46.9937 57.6949Z" fill="black"/>
<path opacity="0.7" d="M48.8076 54.6678C48.9387 56.0569 47.827 57.1825 46.3247 57.1825C44.8217 57.1825 43.497 56.0563 43.3658 54.6678C43.234 53.2787 44.3457 52.1531 45.8487 52.1531C47.351 52.1525 48.6757 53.2787 48.8076 54.6678Z" fill="white"/>
<path d="M38.0615 41.3512H35.3289V41.9925H38.0615V41.3512Z" fill="#6D67E4"/>
<path d="M49.8151 41.3512H40.8961V41.9925H49.8151V41.3512Z" fill="#6D67E4"/>
<path d="M164.16 88.3391L164.4 88.6027L164.719 88.9413C164.948 89.1658 165.17 89.4031 165.419 89.6224C165.897 90.0855 166.418 90.5312 166.945 90.991C168 91.8889 169.106 92.7342 170.258 93.5237C171.43 94.3266 172.662 95.0686 173.9 95.7985C174.574 96.1435 175.162 96.5097 175.815 96.8413L177.323 97.6115C177.541 97.7013 177.787 97.7148 178.015 97.6494C178.499 97.516 181.291 94.9628 182.179 94.0175C184.147 91.9306 187.134 89.1895 188.74 86.8531L190.572 89.1434C189.437 92.0037 187.929 94.7255 186.083 97.2498C185.088 98.612 183.898 99.8434 182.547 100.911C181.732 101.545 180.812 102.055 179.822 102.42C178.571 102.883 177.196 102.978 175.884 102.692C175.544 102.616 175.211 102.515 174.889 102.387L174.266 102.134L173.143 101.662C172.384 101.35 171.657 100.983 170.921 100.641C169.45 99.9158 168.022 99.1174 166.646 98.2477C165.258 97.3665 163.927 96.4122 162.659 95.3887C161.998 94.8576 161.407 94.3176 160.805 93.7321C160.504 93.4461 160.203 93.1401 159.91 92.8285L159.476 92.3423C159.321 92.1602 159.204 92.0255 158.985 91.7504L164.16 88.3391Z" fill="#FFB573"/>
<path d="M188.489 87.2053L191.711 80.8433L194.785 85.9329C194.785 85.9329 192.767 89.1466 190.573 89.1421L188.489 87.2053Z" fill="#FFB573"/>
<path d="M195.335 78.2022L198.585 82.0611L194.785 85.9264L191.711 80.8432L195.335 78.2022Z" fill="#FFB573"/>
<path d="M194.205 87.685H199.316C199.616 87.685 199.866 87.4733 199.892 87.1976L200.965 75.8658C200.995 75.5535 200.728 75.2848 200.389 75.2848H195.277C194.978 75.2848 194.728 75.4964 194.701 75.7722L193.629 87.1039C193.6 87.4163 193.865 87.685 194.205 87.685Z" fill="#407BFF"/>
<path opacity="0.3" d="M194.256 86.5485H199.378L200.337 76.4206H195.215L194.256 86.5485Z" fill="white"/>
<path d="M193.926 85.1152L194.837 84.6829C195.297 84.4642 195.724 84.1884 196.102 83.8626L196.27 83.3015C196.071 82.9949 195.676 82.8474 195.302 82.9417L194.547 83.1315L190.797 83.3951L190.703 84.8548L191.798 86.4241L192.178 86.4376C193.039 86.469 193.79 85.9008 193.926 85.1152Z" fill="#FFB573"/>
<path d="M157.629 82.1214C160.23 81.6853 178.584 96.3949 178.584 96.3949L173.143 103.77C173.143 103.77 153.072 90.8538 153.689 87.7331C154.328 84.4853 153.834 82.7621 157.629 82.1214Z" fill="#263238"/>
<path opacity="0.2" d="M159.942 86.8519L159.742 94.5729C161.829 96.0685 169.349 101.398 169.349 101.398L159.942 86.8519Z" fill="black"/>
<path d="M145.392 234.984L151.55 235.546L153.501 222.354L147.343 221.792L145.392 234.984Z" fill="#FFB573"/>
<path d="M84.7935 157.575L83.2148 163.116L96.5346 168.422L99.293 162.8L84.7935 157.575Z" fill="#FFB573"/>
<path d="M155.953 236.689C156.482 236.748 157.018 236.638 157.471 236.379C157.675 236.217 157.781 235.973 157.753 235.726C157.75 235.573 157.661 235.434 157.518 235.357C156.771 234.947 154.257 236.049 153.976 236.173C153.921 236.2 153.888 236.254 153.891 236.312C153.9 236.368 153.947 236.413 154.007 236.424C154.646 236.566 155.297 236.655 155.953 236.689ZM157.073 235.538C157.168 235.534 157.262 235.553 157.346 235.595C157.405 235.625 157.442 235.682 157.443 235.744C157.459 235.907 157.391 236.067 157.259 236.176C156.875 236.476 155.852 236.5 154.484 236.254C155.303 235.878 156.185 235.635 157.093 235.534L157.073 235.538Z" fill="#407BFF"/>
<path d="M154.04 236.435L154.094 236.423C154.846 236.138 156.347 234.939 156.25 234.287C156.21 234.138 156.121 233.941 155.714 233.889C155.421 233.841 155.12 233.91 154.885 234.08C154.088 234.653 153.897 236.197 153.885 236.26C153.873 236.306 153.886 236.354 153.92 236.39C153.95 236.421 153.995 236.438 154.04 236.435ZM155.57 234.153L155.657 234.132C155.925 234.17 155.936 234.266 155.938 234.299C156.002 234.694 154.976 235.637 154.207 236.02C154.281 235.369 154.576 234.757 155.052 234.272C155.206 234.171 155.396 234.128 155.584 234.15L155.57 234.153Z" fill="#407BFF"/>
<path d="M151.245 233.251L145.668 233.465C145.418 233.467 145.211 233.644 145.189 233.874L143.858 241.031C143.827 241.544 144.251 241.983 144.806 242.012C144.844 242.014 144.883 242.014 144.921 242.012C147.341 241.896 148.507 241.73 151.575 241.633C153.455 241.575 159.238 242.204 161.775 241.664C164.312 241.124 163.864 238.773 162.755 238.788C159.187 238.851 155.073 236.704 153.009 234.191C152.703 233.976 151.629 233.229 151.245 233.251Z" fill="#263238"/>
<path d="M86.0454 163.846L88.8759 159.4C89.0091 159.205 88.9606 158.948 88.7635 158.806L82.979 153.89C82.53 153.588 81.9006 153.679 81.5731 154.094C81.5502 154.123 81.5294 154.153 81.5106 154.184C80.3032 156.126 79.8216 157.122 78.245 159.555C77.2791 161.047 73.5694 165.195 72.684 167.459C71.7985 169.722 74.1787 170.649 74.7671 169.78C76.6449 166.975 80.8285 164.945 84.2322 164.705C84.5951 164.584 85.8567 164.156 86.0454 163.846Z" fill="#263238"/>
<path opacity="0.2" d="M153.501 222.354L152.494 229.154L146.337 228.598L147.335 221.798L153.501 222.354Z" fill="black"/>
<path opacity="0.2" d="M103.386 164.169L100.541 170.103L91.9694 166.604L94.1559 160.948L103.386 164.169Z" fill="black"/>
<path d="M161.558 88.9183C165.077 94.4434 160.776 99.1103 157.185 115.63L133.99 115.688C134.366 106.785 134.327 99.5869 130.215 82.0733C129.834 80.479 130.923 78.9006 132.648 78.5485C132.872 78.503 133.101 78.4793 133.33 78.4786C135.248 78.4806 137.656 78.5421 140.102 78.7724C143.966 79.0623 147.804 79.5984 151.587 80.3776C154.809 81.0934 155.591 81.4891 157.629 82.1214C158.818 82.4972 160.256 85.4968 161.558 88.9183Z" fill="#263238"/>
<path d="M158.043 116.746C158.043 116.746 171.066 151.551 170.751 168.287C170.573 177.874 169.792 195.74 166.661 208.306C164.107 218.56 153.701 225.109 153.701 225.109L145.354 224.652C145.354 224.652 140.85 209.004 141.633 202.777C143.192 190.382 147.819 181.068 147.262 169.686C146.371 151.046 140.406 116.447 140.406 116.447L158.043 116.746Z" fill="#453C67"/>
<path d="M143.698 226.661L155.457 227.304L156.532 224.037L143.389 222.914L143.698 226.661Z" fill="#263238"/>
<path opacity="0.2" d="M145.186 187.06C145.201 187.044 145.212 186.996 145.251 186.999C152.642 187.668 157.757 177.811 156.532 164.349L152.608 130.041L145.186 187.06Z" fill="black"/>
<path d="M152.202 116.453C152.202 116.453 162.552 177.656 141.025 184.546C129.669 188.523 120.111 184.211 108.795 179.582C102.253 176.906 94.0782 169.667 94.0782 169.667L97.2203 161.759C97.2203 161.759 104.649 159.53 114.545 160.949C125.581 162.531 126.044 165.416 129.966 163.244C138.208 144.409 124.025 129.524 133.665 116.424L152.202 116.453Z" fill="#453C67"/>
<path d="M97.8344 160.26L93.6348 170.513L96.7303 172.699L101.72 160.498L97.8344 160.26Z" fill="#263238"/>
<path d="M96.1023 104.954C95.0524 106.387 89.7391 105.418 89.7391 105.418L88.6115 99.3315L95.1357 101.749L96.1023 104.954Z" fill="#FFB573"/>
<path d="M89.9167 99.014L90.9361 105.338L87.0113 105.881C86.5762 105.915 86.1814 105.647 86.0863 105.253L84.5874 100.723C84.5347 100.505 84.6783 100.288 84.9122 100.231L89.9167 99.014Z" fill="#FFB573"/>
<path d="M88.1688 101.885L90.408 102.252L92.5189 100.78L91.7022 100.241C91.1484 99.876 90.7598 99.336 90.61 98.7229C90.449 98.063 90.3414 97.3511 90.3241 96.7669L90.3171 96.5475C90.2616 96.1505 89.9271 95.8363 89.499 95.7773L88.9446 96.1576C88.5934 96.8579 88.8439 97.6679 88.8002 98.2137L88.7121 99.2751L87.8156 99.6343L88.1688 101.885Z" fill="#FFB573"/>
<path d="M131.335 80.8683L118.207 97.5616L94.0782 101.941V105.598C94.0782 105.598 116.742 107.151 121.827 104.408C126.911 101.665 135.465 85.0633 135.465 85.0633L131.335 80.8683Z" fill="#FFB573"/>
<path d="M131.181 48.7945C125.674 47.0853 119.281 50.2477 116.759 55.084C114.237 59.9203 115.123 65.8527 117.959 70.5383C118.815 71.9511 119.838 73.2838 120.534 74.7698C121.23 76.2558 121.578 77.9636 121.013 79.4964C120.447 81.0292 119.863 82.0117 117.808 81.7635C117.808 81.7635 117.783 80.7124 118.592 80.84C118.592 80.84 116.93 81.6943 116.277 81.135C117.029 82.2157 119.047 81.82 119.694 80.6835C120.664 78.9814 118.882 76.6803 116.801 76.7015C114.72 76.7227 113.028 78.6646 113.095 80.5873C113.162 82.5101 114.692 84.2198 116.591 85.0068C115.466 85.212 114.23 84.6014 113.79 83.6228C114.733 85.9072 117.816 86.9167 120.417 86.469C123.018 86.0214 125.221 84.4764 127.259 82.9173C130.006 80.815 132.873 78.1573 132.787 74.8621C132.723 72.4078 131.016 70.2965 129.581 68.2295C128.147 66.1625 126.888 63.6311 127.799 61.3249C128.572 59.3688 130.664 58.1887 132.514 57.0004C133.846 56.1448 136.551 54.2388 136.232 52.4398C135.933 50.7538 132.74 49.2787 131.181 48.7945Z" fill="#263238"/>
<path d="M118.766 105.885L115.132 96.9908L115.965 97.0542C117.341 97.1594 118.655 96.5162 119.329 95.4022C122.092 90.8359 129.273 79.2438 131.293 78.6678C134.173 77.879 137.136 80.0082 138.253 83.1508C139.075 85.4679 130.635 95.3919 126.717 101.038C123.249 106.037 118.766 105.885 118.766 105.885Z" fill="#263238"/>
<path d="M83.2975 166.768C83.2975 166.768 83.2947 166.813 83.2926 166.838C83.3939 167.09 83.6292 167.276 83.9144 167.328C84.0865 167.38 84.2752 167.341 84.4077 167.227C84.9948 166.739 84.6201 164.669 84.5847 164.462C84.577 164.407 84.532 164.364 84.4737 164.353C84.4182 164.342 84.3605 164.362 84.3245 164.402C83.8616 165.019 83.1101 166.115 83.2975 166.768ZM84.3668 164.834C84.4952 165.657 84.5486 166.772 84.2259 167.03C84.1635 167.078 84.0774 167.091 84.0011 167.063C83.8124 167.03 83.6548 166.91 83.5834 166.745C83.4598 166.398 83.7201 165.692 84.3647 164.854L84.3668 164.834Z" fill="#407BFF"/>
<path d="M84.3529 164.731C84.5382 165.422 85.2411 166.604 85.8643 166.741C86.1002 166.784 86.3368 166.672 86.4375 166.47C86.5471 166.285 86.561 166.064 86.4763 165.869C86.1932 165.076 84.5535 164.42 84.4855 164.391C84.4424 164.363 84.3862 164.36 84.3397 164.383C84.3009 164.415 84.2801 164.461 84.2828 164.508C84.3016 164.584 84.3252 164.658 84.3529 164.731ZM86.2397 165.984C86.273 166.099 86.2522 166.221 86.1835 166.321C86.0905 166.471 86.0003 166.472 85.9309 166.462C85.5048 166.381 84.8581 165.414 84.6506 164.74C85.1842 164.988 86.0503 165.459 86.221 165.944C86.2237 165.959 86.23 165.972 86.2397 165.984Z" fill="#407BFF"/>
<path d="M133.904 114.6L133.263 116.685C133.176 116.847 133.381 117.013 133.673 117.009L157.611 116.98C157.839 116.993 158.028 116.874 158.043 116.746L158.267 114.658C158.276 114.516 158.083 114.391 157.832 114.396L134.312 114.423C134.152 114.411 133.997 114.478 133.904 114.6Z" fill="#407BFF"/>
<path opacity="0.5" d="M133.904 114.6L133.263 116.685C133.176 116.847 133.381 117.013 133.673 117.009L157.611 116.98C157.839 116.993 158.028 116.874 158.043 116.746L158.267 114.658C158.276 114.516 158.083 114.391 157.832 114.396L134.312 114.423C134.152 114.411 133.997 114.478 133.904 114.6Z" fill="white"/>
<path d="M138.474 117.202L137.779 117.203C137.647 117.196 137.54 117.138 137.552 117.062L137.865 114.348C137.869 114.271 137.991 114.207 138.131 114.209L138.826 114.201C138.958 114.209 139.066 114.266 139.053 114.349L138.741 117.056C138.729 117.132 138.606 117.203 138.474 117.202Z" fill="#407BFF"/>
<path d="M155.757 117.199L155.062 117.2C154.93 117.193 154.822 117.136 154.834 117.059L155.147 114.352C155.152 114.268 155.274 114.204 155.406 114.205L156.101 114.205C156.233 114.212 156.341 114.269 156.329 114.346L156.017 117.053C156.011 117.136 155.896 117.2 155.757 117.199Z" fill="#407BFF"/>
<path d="M147.842 117.185L147.147 117.186C147.015 117.179 146.908 117.121 146.919 117.045L147.232 114.338C147.237 114.254 147.359 114.191 147.491 114.191L148.187 114.191C148.318 114.198 148.426 114.255 148.414 114.332L148.102 117.039C148.096 117.122 147.981 117.186 147.842 117.185Z" fill="#407BFF"/>
<path d="M141.184 67.1007C141.92 70.5908 142.641 76.9009 140.079 78.8038C140.079 78.8038 141.101 82.3869 147.964 83.3406C155.543 84.3981 151.565 80.409 151.565 80.409C147.442 78.8987 147.542 76.1416 148.254 73.6038L141.184 67.1007Z" fill="#FFB573"/>
<path d="M140.103 78.773C143.966 79.0546 147.197 79.3881 150.978 80.1711L156.169 81.5962C157.095 83.3175 155.582 86.8519 151.235 87.5221C151.235 87.5221 140.291 88.9183 137.063 78.5037L140.103 78.773Z" fill="#FFB573"/>
<path opacity="0.2" d="M144.066 69.7578L148.248 73.6038C148.071 74.199 147.955 74.8076 147.902 75.422C146.323 74.9949 143.785 73.3851 143.613 71.8466C143.607 71.1289 143.761 70.4177 144.066 69.7578Z" fill="black"/>
<path d="M136.553 62.6845C138.409 68.1121 139.066 70.4479 142.87 72.5835C148.552 75.7921 155.387 72.504 155.295 66.6781C155.242 61.4326 152.222 53.4423 145.771 52.588C141.185 51.955 136.911 54.8776 136.226 59.1161C136.033 60.3129 136.144 61.5346 136.553 62.6845Z" fill="#FFB573"/>
<path d="M150.558 61.838C151.216 62.7948 152.014 63.6625 152.93 64.4168C152.493 64.8426 151.878 65.0709 151.244 65.0414L150.558 61.838Z" fill="#ED893E"/>
<path d="M149.899 67.9415C150.136 67.9191 150.372 67.878 150.602 67.8196C150.676 67.803 150.723 67.7343 150.705 67.6651C150.704 67.6625 150.703 67.6606 150.703 67.658C150.681 67.5881 150.606 67.5452 150.529 67.5586C149.311 67.8709 148.005 67.6228 147.019 66.891C146.96 66.8397 146.866 66.8435 146.811 66.8987C146.755 66.9545 146.759 67.0404 146.819 67.0917C147.681 67.7446 148.791 68.0512 149.899 67.9415Z" fill="#263238"/>
<path d="M134.534 51.8504C133 52.7515 131.995 54.3779 131.934 56.0569C131.923 56.3763 131.945 56.7066 132.095 56.9946C132.244 57.2832 132.542 57.5224 132.888 57.5397C133.417 57.5666 133.807 57.1068 134.097 56.697C134.544 56.0646 134.991 55.4323 135.439 54.7993C135.877 54.1791 136.606 53.4589 136.844 52.7509C137.278 51.4618 135.355 51.3688 134.534 51.8504Z" fill="#407BFF"/>
<path d="M135.193 53.1299C131.504 57.0657 129.858 67.9633 140.651 71.0013C142.455 69.6827 139.541 67.2796 138.304 64.2378C137.495 62.2477 141.607 58.5331 143.213 57.0119C144.82 55.4906 146.291 53.2864 148.559 53.6391C149.152 53.7315 149.785 53.9136 150.333 53.684C152.129 52.9317 151.257 51.9383 150.354 51.2431C149.025 50.2208 147.157 49.7578 145.463 49.5878C141.706 49.2113 137.695 50.4606 135.193 53.1299Z" fill="#263238"/>
<path d="M147.178 51.8107C151.511 55.1508 145.77 55.2348 142.757 57.3505C139.846 59.3823 141.887 62.7127 136.969 64.2552C132.95 65.3422 132.022 64.6893 130.909 63.9704C130.909 63.9704 135.464 63.4407 136.133 58.7127C136.477 56.2821 142.22 47.9351 147.178 51.8107Z" fill="#263238"/>
<path d="M135.899 67.2437C136.577 68.1493 137.613 68.7714 138.784 68.9759C140.339 69.228 140.938 67.912 140.401 66.6293C139.898 65.4775 138.487 63.9549 136.985 64.2839C135.905 64.5398 135.254 65.557 135.532 66.5556C135.6 66.8057 135.726 67.0398 135.899 67.2437Z" fill="#FFB573"/>
<path d="M146.432 52.1493C147.271 54.1227 149.693 53.8636 151.487 55.9274C152.587 57.189 154.752 53.2537 151.807 51.6921C148.862 50.1298 145.114 49.0575 146.432 52.1493Z" fill="#263238"/>
<path d="M143.882 60.4853C144.007 60.4988 144.127 60.4347 144.177 60.3282C144.747 59.1565 146.455 58.8634 146.471 58.8621C146.63 58.8346 146.735 58.6928 146.705 58.546C146.675 58.3991 146.522 58.3022 146.363 58.3298C146.277 58.3407 144.33 58.7076 143.64 60.1191C143.572 60.2538 143.635 60.4142 143.781 60.477L143.782 60.4777L143.882 60.4853Z" fill="#263238"/>
<path d="M152.901 58.1272C153.004 58.1336 153.103 58.0868 153.159 58.0066C153.25 57.8841 153.216 57.7161 153.084 57.6321C153.082 57.6315 153.081 57.6302 153.079 57.6295C152.299 57.1331 151.306 57.0164 150.416 57.3166C150.266 57.3756 150.197 57.5359 150.261 57.6744C150.325 57.813 150.499 57.8771 150.649 57.8175C151.355 57.5859 152.14 57.686 152.751 58.0868C152.798 58.1093 152.849 58.1227 152.901 58.1272Z" fill="#263238"/>
<path d="M181.428 93.2344L177.369 95.3701L173.143 103.77C173.143 103.77 177.224 106.17 180.439 104.227C183.654 102.284 181.428 93.2344 181.428 93.2344Z" fill="#407BFF"/>
<path opacity="0.5" d="M181.428 93.2344L177.369 95.3701L173.143 103.77C173.143 103.77 177.224 106.17 180.439 104.227C183.654 102.284 181.428 93.2344 181.428 93.2344Z" fill="white"/>
<path d="M110.321 95.8306L115.131 97.0876L119.69 105.806C119.69 105.806 116.023 108.937 112.06 105.944C109.086 103.697 110.321 95.8306 110.321 95.8306Z" fill="#407BFF"/>
<g opacity="0.5">
<path d="M110.321 95.8306L115.131 97.0876L119.69 105.806C119.69 105.806 116.023 108.937 112.06 105.944C109.086 103.697 110.321 95.8306 110.321 95.8306Z" fill="white"/>
</g>
<path d="M152.621 60.3007C152.954 60.2429 153.301 60.5893 153.392 61.0639C153.482 61.5384 153.281 61.9745 152.948 62.0259C152.614 62.0772 152.267 61.7372 152.177 61.2627C152.08 60.8009 152.288 60.3584 152.621 60.3007Z" fill="#263238"/>
<path d="M153.648 59.8325L152.476 60.3648C153.184 60.8265 153.648 59.8325 153.648 59.8325Z" fill="#263238"/>
<path d="M146.812 61.3999C147.145 61.3422 147.492 61.6885 147.582 62.1631C147.672 62.6377 147.471 63.0738 147.138 63.1251C146.805 63.1764 146.458 62.8365 146.368 62.3619C146.271 61.9001 146.479 61.4576 146.812 61.3999Z" fill="#263238"/>
<path d="M147.839 60.9317L146.666 61.464C147.374 61.9258 147.839 60.9317 147.839 60.9317Z" fill="#263238"/>
<path d="M117.449 85.9406C116.788 85.9406 116.138 85.8335 115.539 85.6071C113.389 84.7952 112.388 82.7256 112.793 79.9287C112.818 79.753 112.995 79.6292 113.183 79.6536C113.372 79.6773 113.506 79.8383 113.48 80.014C113.121 82.4985 113.967 84.3206 115.803 85.0132C117.787 85.7629 120.425 85.0132 121.807 83.3079C123.545 81.1633 122.982 78.124 120.263 74.9699C113.158 66.7288 113.633 62.3459 114.636 58.8853C116.095 53.8572 120.365 48.0948 132.437 49.203C132.627 49.2204 132.766 49.3775 132.747 49.5539C132.728 49.7302 132.566 49.8559 132.367 49.8412C120.788 48.7753 116.694 54.2632 115.307 59.0514C114.303 62.5127 113.901 66.562 120.805 74.5704C124.969 79.4003 123.28 82.5588 122.362 83.6927C121.213 85.11 119.287 85.9399 117.449 85.9406Z" fill="#263238"/>
</svg>
