<?xml version="1.0" encoding="UTF-8" standalone="no" ?>
<svg width="300" height="320" viewBox="0 0 300 320" fill="none" xmlns="http://www.w3.org/2000/svg">
<g clip-path="url(#clip0_32_1545)">
<path d="M145.075 288.103C210.44 288.103 263.429 231.581 263.429 161.859C263.429 92.1357 210.44 35.6141 145.075 35.6141C79.71 35.6141 26.721 92.1357 26.721 161.859C26.721 231.581 79.71 288.103 145.075 288.103Z" fill="#453C67"/>
<path d="M300 226.929H0V320H300V226.929Z" fill="#E7EBFF"/>
<path d="M261.788 126.467H249.342C242.372 126.467 236.722 120.44 236.722 113.005V86.2682H274.408V113.005C274.408 120.44 268.757 126.467 261.788 126.467Z" fill="#CC943A"/>
<path d="M259.591 122.1H251.539C245.617 122.1 240.815 116.979 240.815 110.662V90.6356H270.313V110.662C270.314 116.979 265.513 122.1 259.591 122.1Z" fill="#EFB348"/>
<path d="M260.193 102.174C260.193 99.4477 258.121 97.2372 255.565 97.2372C253.009 97.2372 250.936 99.4477 250.936 102.174C250.936 104.276 252.17 106.067 253.905 106.779L251.294 114.025H259.835L257.224 106.779C258.959 106.067 260.193 104.277 260.193 102.174Z" fill="#051934"/>
<path d="M246.143 86.2682H241.44V73.0855C241.44 65.1316 236.255 58.6605 229.883 58.6605C223.51 58.6605 218.325 65.1316 218.325 73.0855V86.2682H213.622V73.0855C213.622 62.3648 220.916 53.6436 229.883 53.6436C238.849 53.6436 246.143 62.3648 246.143 73.0855V86.2682Z" fill="#A34D2F"/>
<path d="M192.848 44.3258H119.737C114.659 44.3258 110.543 39.9354 110.543 34.5191C110.543 29.1027 114.659 24.7123 119.737 24.7123H192.848C197.926 24.7123 202.042 29.1027 202.042 34.5191C202.042 39.9354 197.926 44.3258 192.848 44.3258Z" fill="white"/>
<path d="M124.289 38.329L122.746 37.0535C123.236 36.4647 123.747 35.9015 124.279 35.3639C124.49 35.1456 124.622 35.008 124.677 34.9498C124.507 34.921 124.019 34.8007 123.216 34.5901C122.637 34.4378 122.255 34.3252 122.072 34.2522L122.675 32.3341C123.567 32.7194 124.364 33.1444 125.066 33.6096C124.902 32.425 124.82 31.4586 124.82 30.7104H126.639C126.639 31.241 126.547 32.2144 126.363 33.6314C126.499 33.5732 126.792 33.4317 127.242 33.2064C127.855 32.9088 128.42 32.6541 128.938 32.4436L129.48 34.4167C128.724 34.5984 127.849 34.7764 126.854 34.9504L128.08 36.4218C128.326 36.7194 128.519 36.9632 128.663 37.152L127.099 38.2528L125.72 35.8221C125.304 36.6068 124.827 37.4426 124.289 38.329Z" fill="#7DA5AF"/>
<path d="M139.967 38.329L138.424 37.0535C138.914 36.4647 139.426 35.9015 139.957 35.3639C140.168 35.1456 140.301 35.008 140.356 34.9498C140.185 34.921 139.698 34.8007 138.895 34.5901C138.316 34.4378 137.934 34.3252 137.75 34.2522L138.353 32.3341C139.246 32.7194 140.043 33.1444 140.744 33.6096C140.581 32.425 140.499 31.4586 140.499 30.7104H142.318C142.318 31.241 142.226 32.2144 142.042 33.6314C142.178 33.5732 142.471 33.4317 142.921 33.2064C143.534 32.9088 144.099 32.6541 144.617 32.4436L145.159 34.4167C144.403 34.5984 143.527 34.7764 142.532 34.9504L143.759 36.4218C144.004 36.7194 144.198 36.9632 144.341 37.152L142.778 38.2528L141.398 35.8221C140.983 36.6068 140.506 37.4426 139.967 38.329Z" fill="#7DA5AF"/>
<path d="M155.644 38.329L154.101 37.0535C154.592 36.4647 155.102 35.9015 155.634 35.3639C155.845 35.1456 155.978 35.008 156.032 34.9498C155.862 34.921 155.375 34.8007 154.571 34.5901C153.992 34.4378 153.611 34.3252 153.427 34.2522L154.03 32.3341C154.922 32.7194 155.72 33.1444 156.421 33.6096C156.258 32.425 156.176 31.4586 156.176 30.7104H157.994C157.994 31.241 157.903 32.2144 157.718 33.6314C157.855 33.5732 158.147 33.4317 158.597 33.2064C159.211 32.9088 159.776 32.6541 160.294 32.4436L160.835 34.4167C160.079 34.5984 159.204 34.7764 158.209 34.9504L159.436 36.4218C159.681 36.7194 159.875 36.9632 160.018 37.152L158.455 38.2528L157.075 35.8221C156.659 36.6068 156.182 37.4426 155.644 38.329Z" fill="#7DA5AF"/>
<path d="M171.322 38.329L169.779 37.0535C170.269 36.4647 170.78 35.9015 171.312 35.3639C171.523 35.1456 171.656 35.008 171.71 34.9498C171.54 34.921 171.053 34.8007 170.249 34.5901C169.67 34.4378 169.289 34.3252 169.105 34.2522L169.708 32.3341C170.6 32.7194 171.398 33.1444 172.099 33.6096C171.936 32.425 171.854 31.4586 171.854 30.7104H173.672C173.672 31.241 173.581 32.2144 173.396 33.6314C173.533 33.5732 173.825 33.4317 174.275 33.2064C174.889 32.9088 175.454 32.6541 175.972 32.4436L176.513 34.4167C175.757 34.5984 174.882 34.7764 173.887 34.9504L175.114 36.4218C175.359 36.7194 175.553 36.9632 175.696 37.152L174.133 38.2528L172.753 35.8221C172.337 36.6068 171.86 37.4426 171.322 38.329Z" fill="#7DA5AF"/>
<path d="M187.001 38.329L185.458 37.0535C185.948 36.4647 186.459 35.9015 186.991 35.3639C187.202 35.1456 187.334 35.008 187.389 34.9498C187.219 34.921 186.731 34.8007 185.928 34.5901C185.349 34.4378 184.967 34.3252 184.783 34.2522L185.386 32.3341C186.278 32.7194 187.076 33.1444 187.777 33.6096C187.613 32.425 187.532 31.4586 187.532 30.7104H189.35C189.35 31.241 189.259 32.2144 189.074 33.6314C189.211 33.5732 189.503 33.4317 189.953 33.2064C190.567 32.9088 191.132 32.6541 191.65 32.4436L192.191 34.4167C191.435 34.5984 190.56 34.7764 189.565 34.9504L190.792 36.4218C191.037 36.7194 191.231 36.9632 191.374 37.152L189.811 38.2528L188.431 35.8221C188.016 36.6068 187.539 37.4426 187.001 38.329Z" fill="#7DA5AF"/>
<path d="M54.9468 44.745L35.0856 81.4387C34.2594 82.9651 35.292 84.8723 36.9444 84.8723H76.6668C78.3192 84.8723 79.3512 82.9645 78.5256 81.4387L58.6638 44.745C57.8376 43.2192 55.7724 43.2192 54.9468 44.745Z" fill="#FFCC00"/>
<path d="M60.6918 58.9734C60.6918 56.6835 58.9518 54.8275 56.805 54.8275C54.6582 54.8275 52.9182 56.6835 52.9182 58.9734C52.9182 60.3667 54.357 66.5894 55.4838 71.2493C55.836 72.7059 57.774 72.7059 58.1262 71.2493C59.253 66.5901 60.6918 60.3667 60.6918 58.9734Z" fill="white"/>
<path d="M56.805 80.6298C58.4221 80.6298 59.733 79.2315 59.733 77.5066C59.733 75.7817 58.4221 74.3834 56.805 74.3834C55.1879 74.3834 53.877 75.7817 53.877 77.5066C53.877 79.2315 55.1879 80.6298 56.805 80.6298Z" fill="white"/>
<path d="M24.2202 138.745C26.3778 139.48 29.4414 141.352 31.6176 140.237C32.1414 139.969 32.2926 139.153 32.0076 138.652C30.9492 136.787 28.1106 136.371 25.98 135.894C25.689 133.222 25.389 130.573 24.8388 127.937C24.5724 126.66 22.7892 126.993 22.7562 128.237C22.6764 131.246 22.908 134.2 23.1168 137.199C23.1678 137.935 23.5518 138.517 24.2202 138.745Z" fill="#051934"/>
<path d="M33.2688 145.503C34.8474 144.87 34.53 142.642 32.8812 142.448C30.3798 142.154 27.837 142.743 25.353 143.06C23.0724 143.351 20.7504 143.466 18.5658 144.267C17.5506 144.639 17.3178 146.477 18.5658 146.721C21.009 147.199 23.4294 146.911 25.8912 146.707C28.3602 146.502 30.9312 146.438 33.2688 145.503Z" fill="#051934"/>
<path d="M32.754 149.389C31.293 150.152 29.793 150.654 28.224 151.092C27.279 151.357 26.1516 151.489 25.5306 152.395C24.879 153.346 25.0974 154.641 25.2324 155.727C25.4106 157.159 25.5564 158.871 26.6604 159.827C27.2136 160.305 28.1538 160.207 28.344 159.352C28.5942 158.226 28.2198 157.33 28.0656 156.21C28.002 155.748 28.1472 154.752 27.9534 154.381C28.026 154.365 28.098 154.347 28.1706 154.332C30.1572 154.186 32.3484 152.708 33.9588 151.586C35.2512 150.684 34.1304 148.669 32.754 149.389Z" fill="#051934"/>
<path d="M53.2404 140.237C55.4244 141.356 58.476 139.482 60.6378 138.745C61.3116 138.515 61.6902 137.932 61.7412 137.199C61.95 134.2 62.1816 131.246 62.1018 128.237C62.0688 127.005 60.2874 126.649 60.0192 127.937C59.4696 130.573 59.169 133.221 58.878 135.894C56.7486 136.372 53.9046 136.793 52.8504 138.652C52.5648 139.155 52.716 139.969 53.2404 140.237Z" fill="#051934"/>
<path d="M66.2927 144.267C64.1099 143.467 61.7849 143.352 59.5055 143.06C57.0143 142.741 54.4859 142.153 51.9773 142.448C50.3399 142.641 50.0003 144.867 51.5897 145.503C53.9267 146.438 56.4983 146.502 58.9667 146.707C61.4285 146.911 63.8489 147.199 66.2921 146.721C67.5383 146.477 67.3079 144.639 66.2927 144.267Z" fill="#051934"/>
<path d="M56.6345 151.092C55.0655 150.654 53.565 150.152 52.1046 149.389C50.73 148.67 49.6061 150.684 50.9003 151.586C52.5527 152.739 54.6732 154.111 56.6885 154.332C56.7677 154.34 56.8313 154.348 56.8884 154.356C56.8481 154.972 56.8775 155.587 56.7935 156.21C56.6387 157.354 56.2607 158.207 56.5151 159.352C56.7053 160.207 57.6455 160.305 58.1987 159.827C59.3027 158.872 59.4485 157.16 59.6267 155.727C59.7617 154.641 59.9801 153.346 59.3285 152.395C58.7069 151.489 57.5795 151.357 56.6345 151.092ZM57.1337 154.399C57.1847 154.419 57.2057 154.416 57.1337 154.399V154.399Z" fill="#051934"/>
<path d="M42.6804 157.181C50.9246 157.181 57.6078 150.053 57.6078 141.259C57.6078 132.465 50.9246 125.336 42.6804 125.336C34.4362 125.336 27.753 132.465 27.753 141.259C27.753 150.053 34.4362 157.181 42.6804 157.181Z" fill="#E26944"/>
<path d="M42.8681 132.911H55.3913C53.3321 129.351 49.9938 126.728 46.0626 125.756C47.0358 124.527 47.8704 123.22 48.7224 121.891C49.6056 120.513 47.6129 118.886 46.5576 120.109C45.5118 121.321 44.4942 122.51 43.5743 123.834C43.2893 124.244 42.9354 124.678 42.606 125.135C42.2892 124.494 41.7287 123.924 41.2415 123.376C40.3703 122.397 39.4025 121.537 38.3801 120.745C37.2227 119.847 35.7119 121.909 36.8381 122.877C37.6979 123.615 38.5001 124.42 39.2261 125.309C39.3239 125.428 39.4199 125.562 39.5159 125.702C35.4893 126.63 32.0664 129.286 29.9688 132.911H40.9421C40.5995 136.832 40.7388 140.787 40.7388 144.726C40.7388 148.507 40.2246 152.788 41.1126 156.461C41.3142 157.296 42.4956 157.297 42.6972 156.461C43.5876 152.779 43.071 148.516 43.071 144.726C43.0716 140.787 43.2113 136.831 42.8681 132.911Z" fill="#051934"/>
<path opacity="0.36" d="M256.591 227.052H72.9155C68.5577 230.805 66.1631 234.89 66.1631 239.163C66.1631 257.519 110.303 272.401 164.753 272.401C219.202 272.401 263.342 257.52 263.342 239.163C263.343 234.89 260.948 230.805 256.591 227.052Z" fill="#78B4EA"/>
<path opacity="0.36" d="M81.8574 293.649C90.4564 293.649 97.4274 290.724 97.4274 287.114C97.4274 283.505 90.4564 280.579 81.8574 280.579C73.2583 280.579 66.2874 283.505 66.2874 287.114C66.2874 290.724 73.2583 293.649 81.8574 293.649Z" fill="#78B4EA"/>
<path opacity="0.36" d="M230.152 299.28C238.751 299.28 245.722 296.354 245.722 292.745C245.722 289.136 238.751 286.21 230.152 286.21C221.552 286.21 214.582 289.136 214.582 292.745C214.582 296.354 221.552 299.28 230.152 299.28Z" fill="#78B4EA"/>
<path opacity="0.36" d="M263.343 285.633C271.942 285.633 278.913 282.707 278.913 279.098C278.913 275.488 271.942 272.563 263.343 272.563C254.744 272.563 247.773 275.488 247.773 279.098C247.773 282.707 254.744 285.633 263.343 285.633Z" fill="#78B4EA"/>
<path opacity="0.36" d="M259.828 307.679C268.427 307.679 275.398 304.754 275.398 301.144C275.398 297.535 268.427 294.609 259.828 294.609C251.228 294.609 244.258 297.535 244.258 301.144C244.258 304.754 251.228 307.679 259.828 307.679Z" fill="#78B4EA"/>
<path opacity="0.36" d="M59.0747 262.574C68.2683 262.574 75.7211 259.446 75.7211 255.588C75.7211 251.73 68.2683 248.602 59.0747 248.602C49.8812 248.602 42.4283 251.73 42.4283 255.588C42.4283 259.446 49.8812 262.574 59.0747 262.574Z" fill="#78B4EA"/>
<path opacity="0.36" d="M230.069 282.599C238.847 282.599 245.964 279.289 245.964 275.206C245.964 271.124 238.847 267.814 230.069 267.814C221.29 267.814 214.174 271.124 214.174 275.206C214.174 279.289 221.29 282.599 230.069 282.599Z" fill="#78B4EA"/>
<path opacity="0.36" d="M255.264 264.202C264.783 264.202 272.5 260.613 272.5 256.186C272.5 251.758 264.783 248.169 255.264 248.169C245.745 248.169 238.028 251.758 238.028 256.186C238.028 260.613 245.745 264.202 255.264 264.202Z" fill="#78B4EA"/>
<path d="M121.334 256.369L83.4221 228.511L185.369 226.332L223.956 255.498L121.334 256.369Z" fill="#C9C9C9"/>
<path d="M207.914 131.677C207.769 131.359 207.504 131.192 207.203 131.153C206.955 130.783 206.511 130.629 206.104 130.698C206.045 130.662 205.984 130.632 205.921 130.608C205.734 129.815 204.64 129.419 204.081 130.301C203.507 131.205 202.934 132.109 202.361 133.013C202.18 133.298 202.151 133.581 202.218 133.833C202.094 134.044 201.982 134.261 201.854 134.469C201.172 135.543 202.79 136.528 203.476 135.48C203.784 135.008 204.07 134.522 204.359 134.038C204.732 134.209 205.191 134.172 205.529 133.848C205.856 134.239 206.406 134.394 206.888 134.097C207.038 134.005 207.169 133.907 207.287 133.8C207.321 133.801 207.354 133.805 207.389 133.804C208.56 133.741 208.735 132.188 207.914 131.677Z" fill="#A34D2F"/>
<path d="M216.635 117.63C215.909 117.073 215.053 116.727 214.126 116.572V108.024V105.234V101.009V99.5373V98.2195L204.589 100.565V103.354L209.523 102.141V106.365L204.589 107.579V110.369L209.523 109.155V117.285C205.716 119.023 202.835 123.157 202.835 127.047C202.835 129.112 203.631 130.86 205.076 131.967C206.08 132.737 207.323 133.128 208.675 133.128C209.555 133.128 210.481 132.963 211.415 132.627C215.599 131.126 218.876 126.7 218.876 122.55C218.876 120.486 218.08 118.738 216.635 117.63ZM210.296 129.075C209.028 129.531 207.843 129.474 207.127 128.924C206.611 128.529 206.349 127.897 206.349 127.046C206.349 124.495 208.669 121.507 211.416 120.522C211.984 120.317 212.536 120.216 213.036 120.216C213.652 120.216 214.19 120.369 214.585 120.673C215.101 121.068 215.363 121.7 215.363 122.55C215.363 125.101 213.043 128.09 210.296 129.075Z" fill="#CEAF17"/>
<path d="M214.076 122.101C212.002 119.831 209.743 122.084 208.846 124.351C207.711 127.217 207.732 130.65 207.859 133.88C206.971 133.578 205.987 133.466 204.898 133.627C204.275 133.718 203.78 134.086 203.424 134.589C201.251 133.387 198.706 133.233 196.979 135.23C195.762 134.959 194.474 135.039 193.225 135.562C189.848 136.977 188.581 140.511 188.232 144.073C187.842 148.045 193.127 148.255 194.289 144.934C194.318 144.943 194.347 144.951 194.375 144.96C194.57 144.04 194.959 142.932 195.414 142.455C195.502 142.753 195.521 143.064 195.467 143.39C195.573 143.843 195.576 144.375 195.541 144.924C195.503 145.075 195.466 145.226 195.428 145.378C193.504 147.796 192.604 150.918 193.309 153.935C193.196 154.818 193.264 155.712 193.382 156.634C193.295 158.264 193.47 159.923 193.937 161.617C194.315 162.991 195.173 163.705 196.124 163.891C197.377 164.583 199.2 164.278 200.177 162.988C200.667 163.3 201.202 163.511 201.733 163.579C203.668 163.825 205.117 162.789 205.958 161.079C206.996 161.113 208.009 160.63 208.568 159.436C209.184 158.124 209.27 156.925 209.658 155.552C210.061 154.129 210.903 152.876 211.525 151.559C212.656 149.164 213.426 146.644 213.423 143.965C214.576 140.752 214.68 137.239 214.904 133.802C215.108 130.657 216.369 124.612 214.076 122.101Z" fill="#D5754B"/>
<path d="M194.187 135.8C194.45 135.8 194.451 135.364 194.187 135.364C193.925 135.364 193.924 135.8 194.187 135.8Z" fill="#A34D2F"/>
<path d="M208.312 133.697C206.825 132.897 204.197 132.506 202.916 133.992C201.155 133.091 198.788 133.26 197.455 134.868L197.454 134.871C194.913 133.956 191.973 134.901 190.566 137.425C190.418 137.689 190.763 137.978 190.967 137.755C192.996 135.535 196.088 134.807 198.454 136.925C200.828 139.05 200.243 141.88 200.255 144.771C200.258 145.519 201.294 145.679 201.481 144.948C202.393 141.384 201.621 137.119 198.338 135.272C200.034 134.581 201.943 134.436 203.338 135.974C204.783 137.568 205.124 139.89 205.619 141.951C205.787 142.646 206.885 142.526 206.823 141.777C206.626 139.395 205.77 136.365 203.958 134.721C204.085 134.644 204.212 134.571 204.343 134.513C205.538 133.986 206.749 134.355 207.85 135.02C210.743 136.767 210.155 139.949 210.778 142.921C210.886 143.434 211.663 143.447 211.763 142.921C212.419 139.463 211.409 135.364 208.312 133.697Z" fill="#A34D2F"/>
<path d="M196.256 144.577C196.282 144.189 195.718 144.023 195.558 144.376C194.216 147.338 192.272 149.596 191.879 152.992C191.544 155.89 191.974 159.512 193.938 161.686C194.324 162.114 195.039 161.676 194.877 161.103C193.91 157.679 192.775 155 193.73 151.328C194.348 148.957 196.089 147.061 196.256 144.577Z" fill="#A34D2F"/>
<path d="M156.293 144.589C156.293 144.589 168.651 143.242 174.562 163.526C180.472 183.809 186.688 189.61 186.688 189.61L192.263 161.394L210.679 159.824C210.679 159.824 213.343 209.822 197.893 224.717C182.442 239.613 158.564 182.408 158.564 182.408L156.293 144.589Z" fill="#514E4E"/>
<path d="M102.59 139.32C102.59 139.32 86.9111 137.707 82.5329 159.824C78.1547 181.941 78.8849 225.741 79.7609 225.43C80.6363 225.119 158.564 242.026 158.564 242.026C158.564 242.026 166.439 188.06 162.723 165.441C159.007 142.823 153.767 142.403 153.767 142.403L102.59 139.32Z" fill="#191717"/>
<path d="M161.3 71.7338C158.408 65.6839 153.332 62.5159 149.012 60.8596C148.806 60.7661 148.574 60.6752 148.308 60.5876C148.127 60.5274 147.933 60.4666 147.735 60.4052C144.094 59.2039 141.267 59.0657 141.263 59.065C130.172 57.7549 111.931 60.3681 99.8987 85.1207C88.5887 108.386 99.3521 128.826 100.628 136.022C101.65 141.781 136.324 173.224 136.324 173.224C136.324 173.224 158.747 147.562 164.4 132.442C170.054 117.321 167.027 83.7197 161.3 71.7338ZM133.785 161.953L132.951 158.251C132.951 158.251 116.097 110.872 117.222 96.9729C118.347 83.074 125.523 74.8397 131.916 71.2045C133.494 70.3073 137.283 68.9773 141.005 67.5239C140.409 87.0138 138.978 133.473 138.863 133.842C138.752 134.197 135.387 152.986 133.785 161.953Z" fill="#514E4E"/>
<path d="M117.52 192.3C117.916 193.808 118.048 195.34 118.211 196.89C118.309 197.832 119.641 197.887 119.629 196.89C119.608 195.133 119.056 193.489 118.295 191.951C118.07 191.494 117.392 191.809 117.52 192.3Z" fill="white"/>
<path d="M148.316 200.276C147.604 200.776 147.007 201.364 146.507 202.104C146.141 202.644 145.407 203.757 146 204.365C146.686 205.069 147.149 203.912 147.37 203.393C147.742 202.518 148.223 201.697 148.83 200.986C149.14 200.623 148.737 199.981 148.316 200.276Z" fill="white"/>
<path d="M127.903 158.799C121.342 155.669 123.7 170.658 123.709 173.224C123.719 175.989 123.105 178.12 121.193 180.023C120.069 181.142 118.769 181.985 117.887 183.366C116.132 186.115 116.128 189.728 116.7 192.871C116.983 194.428 119.168 193.995 119.212 192.508C119.313 189.153 118.953 186.049 121.57 183.598C123.223 182.049 124.838 180.785 125.698 178.537C126.585 176.22 126.635 173.657 126.424 171.197C126.241 169.077 124.341 160.897 127.705 160.414C128.393 160.315 128.524 159.095 127.903 158.799Z" fill="#ED6D4A"/>
<path d="M139.853 162.375C141.48 162.637 143.053 162.892 144.265 164.231C145.975 166.122 145.518 168.261 145.015 170.568C144.36 173.575 144.045 176.415 144.911 179.432C145.331 180.893 146.011 182.203 146.773 183.488C147.911 185.407 148.466 187.1 148.618 189.405C148.889 193.532 148.586 197.043 146.703 200.714C146.057 201.974 147.63 203.372 148.607 202.281C151.287 199.29 151.507 194.849 151.381 190.925C151.316 188.887 151.292 186.69 150.577 184.773C149.521 181.944 147.566 180.001 147.145 176.836C146.581 172.608 149.399 168.342 147.443 164.277C146.092 161.47 142.796 159.317 139.853 160.467C139.095 160.763 138.856 162.215 139.853 162.375Z" fill="#ED6D4A"/>
<path d="M133.504 163.526C133.849 163.516 133.737 161.549 134.18 159.742C135.881 150.227 138.76 134.17 138.862 133.842C138.875 133.798 138.907 133.121 138.953 131.934C135.142 128.478 126.248 126.81 122.755 126.271C127.295 142.351 132.95 158.251 132.95 158.251L133.504 163.526Z" fill="#BA5F3F"/>
<path d="M137.33 75.7805C130.063 75.7805 123.65 79.6775 119.822 85.6173C118.508 88.8762 117.572 92.6503 117.222 96.9728C116.683 103.635 120.275 117.989 124.161 131.132C127.781 134.19 132.353 136.021 137.33 136.021C149.057 136.021 158.563 125.881 158.563 113.373V98.4295C158.563 85.9207 149.057 75.7805 137.33 75.7805Z" fill="#D5754B"/>
<path d="M151.249 99.7952C142.99 97.4976 134.66 95.4727 126.238 93.9796C123.432 93.4817 120.614 93.0573 117.79 92.6893V92.69C117.667 93.3562 117.559 94.0385 117.465 94.7348C117.459 94.7802 117.454 94.8269 117.448 94.8724C117.358 95.5585 117.28 96.2567 117.223 96.9735C117.198 97.2877 117.184 97.625 117.177 97.9725C117.175 98.0436 117.173 98.114 117.172 98.1863C117.169 98.5313 117.172 98.889 117.184 99.2634C117.186 99.3255 117.19 99.3908 117.193 99.4541C117.207 99.8125 117.228 100.182 117.255 100.565C117.259 100.615 117.261 100.664 117.265 100.714C117.297 101.131 117.338 101.564 117.385 102.007C117.394 102.09 117.403 102.173 117.412 102.257C117.463 102.712 117.519 103.178 117.584 103.66C117.586 103.671 117.588 103.683 117.589 103.695C117.654 104.177 117.729 104.674 117.808 105.18C117.819 105.249 117.829 105.318 117.84 105.389C117.922 105.899 118.009 106.42 118.104 106.951C118.116 107.016 118.128 107.082 118.14 107.148C118.237 107.693 118.341 108.246 118.45 108.811L118.451 108.812C124.334 110.036 130.246 111.093 136.178 112.008C143.601 113.153 151.049 114.093 158.506 114.947C158.54 114.426 158.563 113.903 158.563 113.374V101.907C156.13 101.184 153.693 100.475 151.249 99.7952Z" fill="#051934"/>
<path d="M132.734 107.37C131.847 107.37 131.129 106.603 131.129 105.657V101.843C131.129 100.897 131.848 100.131 132.734 100.131C133.621 100.131 134.339 100.898 134.339 101.843V105.657C134.339 106.603 133.62 107.37 132.734 107.37Z" fill="white"/>
<path d="M148.932 109.52C148.045 109.52 147.327 108.753 147.327 107.808V103.994C147.327 103.048 148.046 102.282 148.932 102.282C149.819 102.282 150.537 103.049 150.537 103.994V107.808C150.537 108.753 149.819 109.52 148.932 109.52Z" fill="white"/>
<path d="M141.687 118.447C143.083 117.798 144.23 116.653 144.964 115.233C145.486 114.22 144.033 113.313 143.51 114.327C142.902 115.507 141.993 116.36 140.838 116.897C140.418 117.092 140.33 117.74 140.536 118.125C140.782 118.586 141.273 118.639 141.687 118.447Z" fill="#A34D2F"/>
<path d="M134.935 92.5165C134.889 92.4717 134.843 92.4263 134.797 92.3821C134.792 92.3777 134.789 92.3732 134.784 92.3693C134.625 92.1953 134.466 92.0212 134.307 91.8471C134.198 91.7274 134.079 91.6557 133.958 91.6161C133.842 91.5156 133.721 91.4209 133.602 91.3223C133.276 90.9697 132.943 90.6234 132.602 90.2842C132.048 89.7319 131.085 90.2669 131.131 90.9569C131.037 91.2493 131.072 91.5866 131.321 91.8509C131.756 92.3137 132.19 92.7764 132.625 93.2391C133.525 94.4237 134.498 95.529 135.676 96.4429C136.187 96.8397 136.683 96.4756 136.838 95.97C137.164 95.6493 137.247 95.0145 136.92 94.6164C136.302 93.865 135.636 93.1687 134.935 92.5165Z" fill="#843723"/>
<path d="M153.543 93.4496C152.548 93.7831 151.58 94.1799 150.627 94.6132C150.542 94.6151 150.452 94.6279 150.356 94.6644C149.429 95.0176 148.549 95.4381 147.689 95.9533C147.54 96.0429 147.437 96.1677 147.373 96.3079C147.006 96.4845 146.638 96.6605 146.274 96.8468C145.497 97.2442 145.881 98.3047 146.565 98.4781C146.778 98.5856 147.039 98.6016 147.314 98.4532C147.365 98.425 147.417 98.3988 147.469 98.3706C147.484 98.3674 147.499 98.3642 147.514 98.361C147.643 98.3335 147.75 98.2829 147.836 98.2164C147.845 98.2132 147.854 98.2132 147.864 98.21C149.658 97.5719 151.391 96.7917 153.072 95.8676C153.155 95.8215 153.221 95.7639 153.278 95.7005C153.386 95.6231 153.469 95.5264 153.528 95.4176C153.749 95.3082 153.97 95.1994 154.19 95.09C155.058 94.6618 154.445 93.1476 153.543 93.4496Z" fill="#843723"/>
<path d="M143.12 122.24C140.479 123.107 138.061 123.455 135.714 121.569C133.985 120.178 132.864 118.197 131.765 116.243C132.194 116.005 132.663 115.831 133.174 115.744C134.241 115.562 133.788 113.832 132.727 114.013C130.809 114.341 129.125 115.72 128.334 117.612C127.896 118.657 129.346 119.572 129.787 118.518C129.964 118.096 130.187 117.72 130.446 117.385C131.828 119.828 133.34 122.309 135.724 123.749C138.288 125.296 140.866 124.858 143.567 123.971C144.599 123.633 144.159 121.899 143.12 122.24Z" fill="#843723"/>
<path d="M157.586 84.1876C156.56 83.7108 155.499 83.385 154.418 83.17C155.65 82.2861 156.687 81.1693 157.419 79.7812C160.096 74.7073 156.487 69.7549 151.647 66.8065C150.145 65.8919 148.618 65.2653 147.072 64.8749C142.547 67.2513 134.429 69.7767 131.917 71.2052C127.01 73.9956 121.645 79.4989 118.906 88.1895C119.665 88.9991 120.629 89.6666 121.713 90.1044C124.136 91.0823 127.002 90.9665 129.447 90.1133C130.456 89.7613 131.722 89.2775 132.32 88.4385C132.701 87.9047 132.719 87.3607 132.729 86.7988C136.641 89.2301 140.781 91.5841 145.592 92.3591C149.798 93.0369 156.339 93.0221 159.829 90.4788C162.979 88.1837 160.521 85.5527 157.586 84.1876Z" fill="#541A0F"/>
<path d="M114.346 224.903C102.405 228.623 105.61 239.132 105.61 239.132C105.61 239.132 109.719 242.527 114.14 245.695C118.561 248.863 124.536 250.664 124.536 250.664C124.536 250.664 132.669 250.641 142.65 248.057C151.872 245.67 118.962 227.884 114.346 224.903Z" fill="#D5754B"/>
<path d="M117.334 242.118C118.881 243.272 120.42 244.419 122.01 245.509C122.783 246.039 123.565 246.566 124.304 247.147C124.694 247.453 125.061 247.739 125.351 248.157C125.424 248.262 126.135 249.842 125.871 249.878C124.858 250.018 124.559 251.418 125.622 251.793C126.551 252.12 127.274 251.471 127.63 250.6C128.15 249.329 127.766 247.901 126.969 246.858C125.958 245.533 124.328 244.673 122.971 243.801C121.299 242.726 119.561 241.88 117.75 241.094C117.147 240.833 116.877 241.778 117.334 242.118Z" fill="#A34D2F"/>
<path d="M122.814 238.164C125.119 240.143 135.362 245.617 130.202 249.577C129.503 250.113 129.689 251.343 130.665 251.356C134.615 251.405 133.974 246.073 132.493 243.777C130.587 240.822 126.838 237.178 123.186 237.229C122.765 237.236 122.447 237.848 122.814 238.164Z" fill="#A34D2F"/>
<path d="M129.654 238.091C131.54 239.668 133.575 241.018 135.51 242.524C137.605 244.153 140.558 248.159 136.427 249.321C135.522 249.576 135.588 250.876 136.427 251.162C139.697 252.276 141.429 247.763 140.514 245.116C139.126 241.096 133.821 238.301 130.197 237.121C129.69 236.956 129.211 237.721 129.654 238.091Z" fill="#A34D2F"/>
<path d="M99.4613 167.387C99.4613 167.387 107.633 137.422 91.8731 138.045C76.1123 138.668 61.8113 199.375 59.7683 210.582C57.7253 221.79 106.347 241.048 106.347 241.048L117.169 224.591L83.6387 204.325L99.4613 167.387Z" fill="#514E4E"/>
<path d="M87.3389 204.074C86.6549 202.746 85.6361 201.669 84.4397 200.837C83.4857 198.269 80.5409 195.987 78.5207 194.81C75.2351 192.895 71.7473 192.725 68.3309 194.3C67.3115 194.769 68.0375 196.574 69.0869 196.212C72.2957 195.105 75.6401 195.829 78.3719 197.914C78.7355 198.191 79.0703 198.515 79.3883 198.864C78.8633 198.783 78.3401 198.732 77.8283 198.719C73.3175 198.608 70.1015 201.038 67.2065 204.485C66.2519 205.622 67.7231 207.207 68.7809 206.165C71.3015 203.68 73.8467 201.61 77.4395 201.745C80.7011 201.867 82.9403 203.578 85.2989 205.753C86.3921 206.762 88.0751 205.505 87.3389 204.074Z" fill="#191717"/>
<path d="M123.598 255.781L223.956 255.498L244.015 183.882L143.657 184.165L123.598 255.781Z" fill="#DDDDDD"/>
<path d="M197.538 213.35C198.414 208.275 195.064 204.161 190.054 204.161C185.045 204.161 180.274 208.275 179.398 213.35C178.783 216.918 180.26 220.003 182.929 221.526L182.303 225.153H183.319L183.924 221.649C183.946 221.523 184.064 221.421 184.188 221.421C184.312 221.421 184.395 221.523 184.373 221.649L183.769 225.153H185.204L185.809 221.649C185.83 221.523 185.948 221.421 186.073 221.421C186.197 221.421 186.28 221.523 186.258 221.649L185.653 225.153H187.088L187.693 221.649C187.715 221.523 187.833 221.421 187.957 221.421C188.081 221.421 188.164 221.523 188.143 221.649L187.538 225.153H188.973L189.578 221.649C189.599 221.523 189.718 221.421 189.842 221.421C189.966 221.421 190.049 221.523 190.027 221.649L189.422 225.153H190.559L191.185 221.526C194.38 220.003 196.922 216.918 197.538 213.35ZM184.006 218.038C182.532 218.038 181.546 216.828 181.804 215.334C182.062 213.841 183.465 212.631 184.939 212.631C186.412 212.631 187.398 213.841 187.14 215.334C186.883 216.828 185.479 218.038 184.006 218.038ZM186.204 219.324L187.811 217.16L188.671 219.324H186.204ZM191.314 218.038C189.84 218.038 188.855 216.828 189.112 215.334C189.37 213.841 190.773 212.631 192.247 212.631C193.72 212.631 194.706 213.841 194.448 215.334C194.191 216.828 192.787 218.038 191.314 218.038Z" fill="#442A21"/>
<path d="M196.519 219.085C196.1 219.372 195.694 219.708 195.316 219.975C194.486 220.56 193.773 221.172 193.023 221.862C192.443 222.396 192.925 223.128 193.595 222.835C194.516 222.431 195.343 222.033 196.215 221.502C196.414 221.38 196.625 221.263 196.839 221.143C196.961 221.269 197.115 221.363 197.306 221.393C198.137 221.524 198.861 221.941 199.695 222.023C200.851 222.136 201.881 220.364 201.105 219.598C200.663 219.162 200.052 218.933 199.404 218.799C199.675 217.988 199.916 217.172 199.847 216.374C199.79 215.723 198.896 215.38 198.335 215.95C197.689 216.607 197.307 217.349 196.947 218.129C196.836 218.332 196.732 218.54 196.635 218.757C196.607 218.82 196.588 218.884 196.571 218.948C196.563 218.964 196.556 218.98 196.549 218.997C196.537 219.027 196.531 219.056 196.519 219.085Z" fill="#442A21"/>
<path d="M199.207 224.855C198.345 224.936 197.477 225.353 196.601 225.485C196.4 225.516 196.214 225.61 196.048 225.736C195.875 225.615 195.704 225.498 195.547 225.376C194.861 224.847 194.166 224.446 193.387 224.044C192.823 223.752 192.08 224.477 192.479 225.016C192.992 225.709 193.49 226.317 194.12 226.903C194.41 227.173 194.696 227.509 195.016 227.796C195.017 227.824 195.013 227.853 195.016 227.882C195.018 227.898 195.02 227.913 195.022 227.929C195.017 227.993 195.013 228.058 195.02 228.122C195.041 228.34 195.074 228.548 195.115 228.751C195.206 229.53 195.332 230.273 195.751 230.929C196.115 231.498 197.128 231.156 197.409 230.505C197.755 229.704 197.795 228.891 197.803 228.08C198.497 227.945 199.187 227.717 199.78 227.281C200.814 226.518 200.409 224.741 199.207 224.855Z" fill="#442A21"/>
<path d="M178.484 219.976C178.195 219.706 177.907 219.37 177.589 219.083C177.587 219.055 177.592 219.026 177.588 218.997C177.586 218.981 177.584 218.966 177.583 218.95C177.587 218.886 177.591 218.821 177.584 218.757C177.563 218.539 177.53 218.331 177.489 218.127C177.398 217.348 177.272 216.605 176.853 215.95C176.489 215.38 175.477 215.723 175.195 216.374C174.849 217.175 174.809 217.988 174.801 218.799C174.107 218.934 173.417 219.162 172.825 219.598C171.79 220.36 172.196 222.137 173.398 222.023C174.26 221.942 175.127 221.525 176.004 221.393C176.205 221.363 176.39 221.268 176.557 221.142C176.729 221.263 176.9 221.38 177.058 221.501C177.744 222.031 178.439 222.431 179.218 222.834C179.782 223.126 180.524 222.4 180.126 221.862C179.612 221.17 179.114 220.562 178.484 219.976Z" fill="#442A21"/>
<path d="M179.009 224.044C178.088 224.447 177.261 224.845 176.389 225.376C176.189 225.498 175.978 225.615 175.765 225.735C175.642 225.609 175.489 225.516 175.297 225.485C174.466 225.354 173.743 224.937 172.909 224.855C171.753 224.742 170.723 226.514 171.499 227.28C171.941 227.716 172.552 227.945 173.2 228.079C172.928 228.891 172.687 229.706 172.757 230.504C172.813 231.155 173.708 231.498 174.268 230.928C174.914 230.271 175.297 229.529 175.657 228.749C175.768 228.546 175.872 228.339 175.969 228.121C175.997 228.058 176.015 227.994 176.033 227.93C176.041 227.914 176.047 227.898 176.055 227.881C176.069 227.852 176.074 227.823 176.086 227.793C176.505 227.506 176.911 227.17 177.289 226.903C178.119 226.319 178.832 225.706 179.582 225.016C180.161 224.482 179.679 223.749 179.009 224.044Z" fill="#442A21"/>
<path d="M69.8933 249.269C67.3523 247.846 63.4517 246.934 59.0747 246.934C54.6977 246.934 50.7971 247.846 48.2561 249.269H45.2111V253.16C45.2111 256.599 51.4181 259.387 59.0747 259.387C66.7313 259.387 72.9383 256.599 72.9383 253.16V249.269H69.8933Z" fill="#CC943A"/>
<path d="M59.0751 255.496C66.7317 255.496 72.9387 252.708 72.9387 249.269C72.9387 245.83 66.7317 243.043 59.0751 243.043C51.4184 243.043 45.2115 245.83 45.2115 249.269C45.2115 252.708 51.4184 255.496 59.0751 255.496Z" fill="#EFB348"/>
<path d="M69.1415 249.269C69.1415 251.418 64.6343 253.16 59.0747 253.16C53.5151 253.16 49.0079 251.418 49.0079 249.269C49.0079 247.12 53.5151 245.378 59.0747 245.378C64.6349 245.378 69.1415 247.12 69.1415 249.269Z" fill="#CC943A"/>
<path d="M69.8933 243.5C67.3523 242.077 63.4517 241.165 59.0747 241.165C54.6977 241.165 50.7971 242.077 48.2561 243.5H45.2111V247.391C45.2111 250.83 51.4181 253.618 59.0747 253.618C66.7313 253.618 72.9383 250.83 72.9383 247.391V243.5H69.8933Z" fill="#CC943A"/>
<path d="M59.0751 249.727C66.7317 249.727 72.9387 246.939 72.9387 243.5C72.9387 240.061 66.7317 237.274 59.0751 237.274C51.4184 237.274 45.2115 240.061 45.2115 243.5C45.2115 246.939 51.4184 249.727 59.0751 249.727Z" fill="#EFB348"/>
<path d="M69.1415 243.5C69.1415 245.649 64.6343 247.391 59.0747 247.391C53.5151 247.391 49.0079 245.649 49.0079 243.5C49.0079 241.351 53.5151 239.608 59.0747 239.608C64.6349 239.608 69.1415 241.351 69.1415 243.5Z" fill="#CC943A"/>
<path d="M69.8933 237.731C67.3523 236.309 63.4517 235.397 59.0747 235.397C54.6977 235.397 50.7971 236.309 48.2561 237.731H45.2111V241.622C45.2111 245.061 51.4181 247.849 59.0747 247.849C66.7313 247.849 72.9383 245.061 72.9383 241.622V237.731H69.8933Z" fill="#CC943A"/>
<path d="M59.0751 243.958C66.7317 243.958 72.9387 241.17 72.9387 237.731C72.9387 234.292 66.7317 231.505 59.0751 231.505C51.4184 231.505 45.2115 234.292 45.2115 237.731C45.2115 241.17 51.4184 243.958 59.0751 243.958Z" fill="#EFB348"/>
<path d="M69.1415 237.731C69.1415 239.88 64.6343 241.622 59.0747 241.622C53.5151 241.622 49.0079 239.88 49.0079 237.731C49.0079 235.582 53.5151 233.84 59.0747 233.84C64.6349 233.839 69.1415 235.581 69.1415 237.731Z" fill="#CC943A"/>
<path d="M69.8933 231.962C67.3523 230.539 63.4517 229.627 59.0747 229.627C54.6977 229.627 50.7971 230.539 48.2561 231.962H45.2111V235.853C45.2111 239.292 51.4181 242.079 59.0747 242.079C66.7313 242.079 72.9383 239.292 72.9383 235.853V231.962H69.8933Z" fill="#CC943A"/>
<path d="M59.0751 238.188C66.7317 238.188 72.9387 235.4 72.9387 231.962C72.9387 228.523 66.7317 225.735 59.0751 225.735C51.4184 225.735 45.2115 228.523 45.2115 231.962C45.2115 235.4 51.4184 238.188 59.0751 238.188Z" fill="#EFB348"/>
<path d="M69.1415 231.962C69.1415 234.111 64.6343 235.853 59.0747 235.853C53.5151 235.853 49.0079 234.111 49.0079 231.962C49.0079 229.812 53.5151 228.07 59.0747 228.07C64.6349 228.07 69.1415 229.812 69.1415 231.962Z" fill="#CC943A"/>
<path d="M69.8933 226.193C67.3523 224.77 63.4517 223.858 59.0747 223.858C54.6977 223.858 50.7971 224.77 48.2561 226.193H45.2111V230.084C45.2111 233.523 51.4181 236.31 59.0747 236.31C66.7313 236.31 72.9383 233.523 72.9383 230.084V226.193H69.8933Z" fill="#CC943A"/>
<path d="M59.0751 232.419C66.7317 232.419 72.9387 229.632 72.9387 226.193C72.9387 222.754 66.7317 219.966 59.0751 219.966C51.4184 219.966 45.2115 222.754 45.2115 226.193C45.2115 229.632 51.4184 232.419 59.0751 232.419Z" fill="#EFB348"/>
<path d="M69.1415 226.193C69.1415 228.342 64.6343 230.084 59.0747 230.084C53.5151 230.084 49.0079 228.342 49.0079 226.193C49.0079 224.044 53.5151 222.301 59.0747 222.301C64.6349 222.301 69.1415 224.044 69.1415 226.193Z" fill="#CC943A"/>
<path d="M69.8933 220.424C67.3523 219.001 63.4517 218.089 59.0747 218.089C54.6977 218.089 50.7971 219.001 48.2561 220.424H45.2111V224.315C45.2111 227.754 51.4181 230.541 59.0747 230.541C66.7313 230.541 72.9383 227.754 72.9383 224.315V220.424H69.8933Z" fill="#CC943A"/>
<path d="M59.0751 226.65C66.7317 226.65 72.9387 223.863 72.9387 220.424C72.9387 216.985 66.7317 214.197 59.0751 214.197C51.4184 214.197 45.2115 216.985 45.2115 220.424C45.2115 223.863 51.4184 226.65 59.0751 226.65Z" fill="#EFB348"/>
<path d="M69.1415 220.424C69.1415 222.573 64.6343 224.315 59.0747 224.315C53.5151 224.315 49.0079 222.573 49.0079 220.424C49.0079 218.275 53.5151 216.532 59.0747 216.532C64.6349 216.532 69.1415 218.274 69.1415 220.424Z" fill="#CC943A"/>
<path d="M69.8933 214.654C67.3523 213.231 63.4517 212.319 59.0747 212.319C54.6977 212.319 50.7971 213.231 48.2561 214.654H45.2111V218.545C45.2111 221.984 51.4181 224.772 59.0747 224.772C66.7313 224.772 72.9383 221.984 72.9383 218.545V214.654H69.8933Z" fill="#CC943A"/>
<path d="M59.0751 220.881C66.7317 220.881 72.9387 218.093 72.9387 214.654C72.9387 211.215 66.7317 208.428 59.0751 208.428C51.4184 208.428 45.2115 211.215 45.2115 214.654C45.2115 218.093 51.4184 220.881 59.0751 220.881Z" fill="#EFB348"/>
<path d="M69.1415 214.654C69.1415 216.803 64.6343 218.545 59.0747 218.545C53.5151 218.545 49.0079 216.803 49.0079 214.654C49.0079 212.505 53.5151 210.762 59.0747 210.762C64.6349 210.763 69.1415 212.505 69.1415 214.654Z" fill="#CC943A"/>
<path d="M69.8933 208.885C67.3523 207.462 63.4517 206.55 59.0747 206.55C54.6977 206.55 50.7971 207.462 48.2561 208.885H45.2111V212.776C45.2111 216.215 51.4181 219.003 59.0747 219.003C66.7313 219.003 72.9383 216.215 72.9383 212.776V208.885H69.8933Z" fill="#CC943A"/>
<path d="M59.0751 215.112C66.7317 215.112 72.9387 212.324 72.9387 208.885C72.9387 205.446 66.7317 202.659 59.0751 202.659C51.4184 202.659 45.2115 205.446 45.2115 208.885C45.2115 212.324 51.4184 215.112 59.0751 215.112Z" fill="#EFB348"/>
<path d="M69.1415 208.885C69.1415 211.034 64.6343 212.776 59.0747 212.776C53.5151 212.776 49.0079 211.034 49.0079 208.885C49.0079 206.736 53.5151 204.994 59.0747 204.994C64.6349 204.994 69.1415 206.736 69.1415 208.885Z" fill="#CC943A"/>
<path d="M69.8933 203.116C67.3523 201.693 63.4517 200.781 59.0747 200.781C54.6977 200.781 50.7971 201.693 48.2561 203.116H45.2111V207.007C45.2111 210.446 51.4181 213.234 59.0747 213.234C66.7313 213.234 72.9383 210.446 72.9383 207.007V203.116H69.8933Z" fill="#CC943A"/>
<path d="M59.0751 209.343C66.7317 209.343 72.9387 206.555 72.9387 203.116C72.9387 199.677 66.7317 196.89 59.0751 196.89C51.4184 196.89 45.2115 199.677 45.2115 203.116C45.2115 206.555 51.4184 209.343 59.0751 209.343Z" fill="#EFB348"/>
<path d="M69.1415 203.116C69.1415 205.265 64.6343 207.007 59.0747 207.007C53.5151 207.007 49.0079 205.265 49.0079 203.116C49.0079 200.967 53.5151 199.224 59.0747 199.224C64.6349 199.224 69.1415 200.967 69.1415 203.116Z" fill="#CC943A"/>
<path d="M92.6759 280.518C90.1355 279.095 86.2343 278.183 81.8573 278.183C77.4803 278.183 73.5797 279.095 71.0387 280.518H67.9937V284.409C67.9937 287.848 74.2007 290.636 81.8573 290.636C89.5139 290.636 95.7209 287.848 95.7209 284.409V280.518H92.6759Z" fill="#C18733"/>
<path d="M81.8573 286.744C89.514 286.744 95.7209 283.957 95.7209 280.518C95.7209 277.079 89.514 274.291 81.8573 274.291C74.2007 274.291 67.9937 277.079 67.9937 280.518C67.9937 283.957 74.2007 286.744 81.8573 286.744Z" fill="#FCC670"/>
<path d="M91.9241 280.518C91.9241 282.667 87.4169 284.409 81.8573 284.409C76.2977 284.409 71.7905 282.667 71.7905 280.518C71.7905 278.369 76.2977 276.627 81.8573 276.627C87.4169 276.627 91.9241 278.369 91.9241 280.518Z" fill="#CC943A"/>
<path d="M92.6759 274.749C90.1355 273.326 86.2343 272.414 81.8573 272.414C77.4803 272.414 73.5797 273.326 71.0387 274.749H67.9937V278.64C67.9937 282.079 74.2007 284.867 81.8573 284.867C89.5139 284.867 95.7209 282.079 95.7209 278.64V274.749H92.6759Z" fill="#C18733"/>
<path d="M81.8573 280.975C89.514 280.975 95.7209 278.188 95.7209 274.749C95.7209 271.31 89.514 268.522 81.8573 268.522C74.2007 268.522 67.9937 271.31 67.9937 274.749C67.9937 278.188 74.2007 280.975 81.8573 280.975Z" fill="#FCC670"/>
<path d="M91.9241 274.749C91.9241 276.898 87.4169 278.64 81.8573 278.64C76.2977 278.64 71.7905 276.898 71.7905 274.749C71.7905 272.6 76.2977 270.857 81.8573 270.857C87.4169 270.858 91.9241 272.6 91.9241 274.749Z" fill="#CC943A"/>
<path d="M92.6759 268.98C90.1355 267.557 86.2343 266.645 81.8573 266.645C77.4803 266.645 73.5797 267.557 71.0387 268.98H67.9937V272.871C67.9937 276.31 74.2007 279.098 81.8573 279.098C89.5139 279.098 95.7209 276.31 95.7209 272.871V268.98H92.6759Z" fill="#C18733"/>
<path d="M81.8573 275.206C89.514 275.206 95.7209 272.419 95.7209 268.98C95.7209 265.541 89.514 262.753 81.8573 262.753C74.2007 262.753 67.9937 265.541 67.9937 268.98C67.9937 272.419 74.2007 275.206 81.8573 275.206Z" fill="#FCC670"/>
<path d="M91.9241 268.98C91.9241 271.129 87.4169 272.871 81.8573 272.871C76.2977 272.871 71.7905 271.129 71.7905 268.98C71.7905 266.831 76.2977 265.088 81.8573 265.088C87.4169 265.088 91.9241 266.831 91.9241 268.98Z" fill="#CC943A"/>
<path d="M92.6759 263.211C90.1355 261.788 86.2343 260.876 81.8573 260.876C77.4803 260.876 73.5797 261.788 71.0387 263.211H67.9937V267.102C67.9937 270.541 74.2007 273.329 81.8573 273.329C89.5139 273.329 95.7209 270.541 95.7209 267.102V263.211H92.6759Z" fill="#C18733"/>
<path d="M81.8573 269.437C89.514 269.437 95.7209 266.649 95.7209 263.21C95.7209 259.771 89.514 256.984 81.8573 256.984C74.2007 256.984 67.9937 259.771 67.9937 263.21C67.9937 266.649 74.2007 269.437 81.8573 269.437Z" fill="#FCC670"/>
<path d="M91.9241 263.211C91.9241 265.36 87.4169 267.102 81.8573 267.102C76.2977 267.102 71.7905 265.36 71.7905 263.211C71.7905 261.062 76.2977 259.319 81.8573 259.319C87.4169 259.319 91.9241 261.061 91.9241 263.211Z" fill="#CC943A"/>
<path d="M92.6759 257.441C90.1355 256.019 86.2343 255.107 81.8573 255.107C77.4803 255.107 73.5797 256.019 71.0387 257.441H67.9937V261.333C67.9937 264.771 74.2007 267.559 81.8573 267.559C89.5139 267.559 95.7209 264.771 95.7209 261.333V257.441H92.6759Z" fill="#C18733"/>
<path d="M81.8573 263.668C89.514 263.668 95.7209 260.88 95.7209 257.441C95.7209 254.003 89.514 251.215 81.8573 251.215C74.2007 251.215 67.9937 254.003 67.9937 257.441C67.9937 260.88 74.2007 263.668 81.8573 263.668Z" fill="#FCC670"/>
<path d="M91.9241 257.441C91.9241 259.59 87.4169 261.333 81.8573 261.333C76.2977 261.333 71.7905 259.59 71.7905 257.441C71.7905 255.292 76.2977 253.549 81.8573 253.549C87.4169 253.55 91.9241 255.292 91.9241 257.441Z" fill="#CC943A"/>
<path d="M92.6759 251.672C90.1355 250.25 86.2343 249.338 81.8573 249.338C77.4803 249.338 73.5797 250.25 71.0387 251.672H67.9937V255.564C67.9937 259.002 74.2007 261.79 81.8573 261.79C89.5139 261.79 95.7209 259.002 95.7209 255.564V251.672H92.6759Z" fill="#C18733"/>
<path d="M81.8573 257.899C89.514 257.899 95.7209 255.111 95.7209 251.672C95.7209 248.234 89.514 245.446 81.8573 245.446C74.2007 245.446 67.9937 248.234 67.9937 251.672C67.9937 255.111 74.2007 257.899 81.8573 257.899Z" fill="#FCC670"/>
<path d="M91.9241 251.672C91.9241 253.821 87.4169 255.564 81.8573 255.564C76.2977 255.564 71.7905 253.821 71.7905 251.672C71.7905 249.523 76.2977 247.781 81.8573 247.781C87.4169 247.781 91.9241 249.523 91.9241 251.672Z" fill="#CC943A"/>
<path d="M266.687 251.672C264.146 250.25 260.246 249.338 255.869 249.338C251.492 249.338 247.591 250.25 245.05 251.672H242.005V255.564C242.005 259.002 248.212 261.79 255.869 261.79C263.525 261.79 269.732 259.002 269.732 255.564V251.672H266.687Z" fill="#CC943A"/>
<path d="M255.869 257.899C263.525 257.899 269.732 255.111 269.732 251.672C269.732 248.234 263.525 245.446 255.869 245.446C248.212 245.446 242.005 248.234 242.005 251.672C242.005 255.111 248.212 257.899 255.869 257.899Z" fill="#EFB348"/>
<path d="M265.936 251.672C265.936 253.821 261.428 255.564 255.869 255.564C250.309 255.564 245.802 253.821 245.802 251.672C245.802 249.523 250.309 247.781 255.869 247.781C261.428 247.781 265.936 249.523 265.936 251.672Z" fill="#CC943A"/>
<path d="M266.687 245.903C264.146 244.481 260.246 243.569 255.869 243.569C251.492 243.569 247.591 244.481 245.05 245.903H242.005V249.795C242.005 253.233 248.212 256.021 255.869 256.021C263.525 256.021 269.732 253.233 269.732 249.795V245.903H266.687Z" fill="#CC943A"/>
<path d="M255.869 252.13C263.525 252.13 269.732 249.342 269.732 245.903C269.732 242.465 263.525 239.677 255.869 239.677C248.212 239.677 242.005 242.465 242.005 245.903C242.005 249.342 248.212 252.13 255.869 252.13Z" fill="#EFB348"/>
<path d="M265.936 245.903C265.936 248.052 261.428 249.795 255.869 249.795C250.309 249.795 245.802 248.052 245.802 245.903C245.802 243.754 250.309 242.012 255.869 242.012C261.428 242.012 265.936 243.754 265.936 245.903Z" fill="#CC943A"/>
<path d="M266.687 240.134C264.146 238.711 260.246 237.799 255.869 237.799C251.492 237.799 247.591 238.711 245.05 240.134H242.005V244.025C242.005 247.464 248.212 250.252 255.869 250.252C263.525 250.252 269.732 247.464 269.732 244.025V240.134H266.687Z" fill="#CC943A"/>
<path d="M255.869 246.36C263.525 246.36 269.732 243.573 269.732 240.134C269.732 236.695 263.525 233.907 255.869 233.907C248.212 233.907 242.005 236.695 242.005 240.134C242.005 243.573 248.212 246.36 255.869 246.36Z" fill="#EFB348"/>
<path d="M265.936 240.134C265.936 242.283 261.428 244.025 255.869 244.025C250.309 244.025 245.802 242.283 245.802 240.134C245.802 237.985 250.309 236.243 255.869 236.243C261.428 236.243 265.936 237.985 265.936 240.134Z" fill="#CC943A"/>
<path d="M266.687 234.365C264.146 232.942 260.246 232.03 255.869 232.03C251.492 232.03 247.591 232.942 245.05 234.365H242.005V238.256C242.005 241.695 248.212 244.483 255.869 244.483C263.525 244.483 269.732 241.695 269.732 238.256V234.365H266.687Z" fill="#CC943A"/>
<path d="M255.869 240.591C263.525 240.591 269.732 237.804 269.732 234.365C269.732 230.926 263.525 228.138 255.869 228.138C248.212 228.138 242.005 230.926 242.005 234.365C242.005 237.804 248.212 240.591 255.869 240.591Z" fill="#EFB348"/>
<path d="M265.936 234.365C265.936 236.514 261.428 238.256 255.869 238.256C250.309 238.256 245.802 236.514 245.802 234.365C245.802 232.216 250.309 230.473 255.869 230.473C261.428 230.474 265.936 232.216 265.936 234.365Z" fill="#CC943A"/>
<path d="M266.687 228.596C264.146 227.173 260.246 226.261 255.869 226.261C251.492 226.261 247.591 227.173 245.05 228.596H242.005V232.487C242.005 235.926 248.212 238.714 255.869 238.714C263.525 238.714 269.732 235.926 269.732 232.487V228.596H266.687Z" fill="#CC943A"/>
<path d="M255.869 234.822C263.525 234.822 269.732 232.035 269.732 228.596C269.732 225.157 263.525 222.369 255.869 222.369C248.212 222.369 242.005 225.157 242.005 228.596C242.005 232.035 248.212 234.822 255.869 234.822Z" fill="#EFB348"/>
<path d="M265.936 228.596C265.936 230.745 261.428 232.487 255.869 232.487C250.309 232.487 245.802 230.745 245.802 228.596C245.802 226.447 250.309 224.704 255.869 224.704C261.428 224.704 265.936 226.447 265.936 228.596Z" fill="#CC943A"/>
<path d="M266.687 222.826C264.146 221.404 260.246 220.492 255.869 220.492C251.492 220.492 247.591 221.404 245.05 222.826H242.005V226.717C242.005 230.156 248.212 232.944 255.869 232.944C263.525 232.944 269.732 230.156 269.732 226.717V222.826H266.687Z" fill="#CC943A"/>
<path d="M255.869 229.053C263.525 229.053 269.732 226.265 269.732 222.826C269.732 219.387 263.525 216.6 255.869 216.6C248.212 216.6 242.005 219.387 242.005 222.826C242.005 226.265 248.212 229.053 255.869 229.053Z" fill="#EFB348"/>
<path d="M265.936 222.826C265.936 224.975 261.428 226.717 255.869 226.717C250.309 226.717 245.802 224.975 245.802 222.826C245.802 220.677 250.309 218.934 255.869 218.934C261.428 218.935 265.936 220.677 265.936 222.826Z" fill="#CC943A"/>
<path d="M266.687 217.057C264.146 215.635 260.246 214.723 255.869 214.723C251.492 214.723 247.591 215.635 245.05 217.057H242.005V220.949C242.005 224.387 248.212 227.175 255.869 227.175C263.525 227.175 269.732 224.387 269.732 220.949V217.057H266.687Z" fill="#CC943A"/>
<path d="M255.869 223.284C263.525 223.284 269.732 220.496 269.732 217.057C269.732 213.618 263.525 210.831 255.869 210.831C248.212 210.831 242.005 213.618 242.005 217.057C242.005 220.496 248.212 223.284 255.869 223.284Z" fill="#EFB348"/>
<path d="M265.936 217.057C265.936 219.206 261.428 220.948 255.869 220.948C250.309 220.948 245.802 219.206 245.802 217.057C245.802 214.908 250.309 213.165 255.869 213.165C261.428 213.166 265.936 214.908 265.936 217.057Z" fill="#CC943A"/>
<path d="M266.687 211.288C264.146 209.866 260.246 208.954 255.869 208.954C251.492 208.954 247.591 209.866 245.05 211.288H242.005V215.18C242.005 218.618 248.212 221.406 255.869 221.406C263.525 221.406 269.732 218.618 269.732 215.18V211.288H266.687Z" fill="#CC943A"/>
<path d="M255.869 217.515C263.525 217.515 269.732 214.727 269.732 211.288C269.732 207.849 263.525 205.062 255.869 205.062C248.212 205.062 242.005 207.849 242.005 211.288C242.005 214.727 248.212 217.515 255.869 217.515Z" fill="#EFB348"/>
<path d="M265.936 211.288C265.936 213.437 261.428 215.18 255.869 215.18C250.309 215.18 245.802 213.437 245.802 211.288C245.802 209.139 250.309 207.397 255.869 207.397C261.428 207.397 265.936 209.139 265.936 211.288Z" fill="#CC943A"/>
<path d="M266.687 205.519C264.146 204.097 260.246 203.185 255.869 203.185C251.492 203.185 247.591 204.097 245.05 205.519H242.005V209.411C242.005 212.849 248.212 215.637 255.869 215.637C263.525 215.637 269.732 212.849 269.732 209.411V205.519H266.687Z" fill="#CC943A"/>
<path d="M255.869 211.745C263.525 211.745 269.732 208.958 269.732 205.519C269.732 202.08 263.525 199.292 255.869 199.292C248.212 199.292 242.005 202.08 242.005 205.519C242.005 208.958 248.212 211.745 255.869 211.745Z" fill="#EFB348"/>
<path d="M255.869 209.411C261.428 209.411 265.936 207.669 265.936 205.519C265.936 203.37 261.428 201.628 255.869 201.628C250.309 201.628 245.802 203.37 245.802 205.519C245.802 207.669 250.309 209.411 255.869 209.411Z" fill="#CC943A"/>
<path d="M240.97 287.423C238.429 286 234.529 285.088 230.152 285.088C225.775 285.088 221.874 286 219.333 287.423H216.288V291.315C216.288 294.753 222.495 297.541 230.152 297.541C237.808 297.541 244.015 294.753 244.015 291.315V287.423H240.97Z" fill="#CC943A"/>
<path d="M230.152 293.649C237.808 293.649 244.015 290.862 244.015 287.423C244.015 283.984 237.808 281.196 230.152 281.196C222.495 281.196 216.288 283.984 216.288 287.423C216.288 290.862 222.495 293.649 230.152 293.649Z" fill="#EFB348"/>
<path d="M240.218 287.423C240.218 289.572 235.711 291.315 230.152 291.315C224.592 291.315 220.085 289.573 220.085 287.423C220.085 285.274 224.592 283.532 230.152 283.532C235.711 283.531 240.218 285.274 240.218 287.423Z" fill="#CC943A"/>
<path d="M240.97 269.461C238.429 268.038 234.529 267.126 230.152 267.126C225.775 267.126 221.874 268.038 219.333 269.461H216.288V273.353C216.288 276.792 222.495 279.58 230.152 279.58C237.808 279.58 244.015 276.792 244.015 273.353V269.461H240.97Z" fill="#C18733"/>
<path d="M230.152 275.688C237.808 275.688 244.015 272.9 244.015 269.461C244.015 266.022 237.808 263.235 230.152 263.235C222.495 263.235 216.288 266.022 216.288 269.461C216.288 272.9 222.495 275.688 230.152 275.688Z" fill="#FCC670"/>
<path d="M230.152 273.353C235.711 273.353 240.218 271.611 240.218 269.461C240.218 267.312 235.711 265.569 230.152 265.569C224.592 265.569 220.085 267.312 220.085 269.461C220.085 271.611 224.592 273.353 230.152 273.353Z" fill="#CC943A"/>
<path d="M240.97 263.692C238.429 262.269 234.529 261.357 230.152 261.357C225.775 261.357 221.874 262.269 219.333 263.692H216.288V267.584C216.288 271.023 222.495 273.811 230.152 273.811C237.808 273.811 244.015 271.023 244.015 267.584V263.692H240.97Z" fill="#C18733"/>
<path d="M230.152 269.919C237.808 269.919 244.015 267.131 244.015 263.692C244.015 260.253 237.808 257.466 230.152 257.466C222.495 257.466 216.288 260.253 216.288 263.692C216.288 267.131 222.495 269.919 230.152 269.919Z" fill="#FCC670"/>
<path d="M230.152 267.584C235.711 267.584 240.218 265.842 240.218 263.692C240.218 261.543 235.711 259.8 230.152 259.8C224.592 259.8 220.085 261.543 220.085 263.692C220.085 265.842 224.592 267.584 230.152 267.584Z" fill="#CC943A"/>
<path d="M240.97 257.923C238.429 256.501 234.529 255.589 230.152 255.589C225.775 255.589 221.874 256.501 219.333 257.923H216.288V261.815C216.288 265.254 222.495 268.042 230.152 268.042C237.808 268.042 244.015 265.254 244.015 261.815V257.923H240.97Z" fill="#C18733"/>
<path d="M230.152 264.15C237.808 264.15 244.015 261.362 244.015 257.923C244.015 254.484 237.808 251.697 230.152 251.697C222.495 251.697 216.288 254.484 216.288 257.923C216.288 261.362 222.495 264.15 230.152 264.15Z" fill="#FCC670"/>
<path d="M230.152 261.815C235.711 261.815 240.218 260.073 240.218 257.923C240.218 255.774 235.711 254.031 230.152 254.031C224.592 254.031 220.085 255.774 220.085 257.923C220.085 260.073 224.592 261.815 230.152 261.815Z" fill="#CC943A"/>
<path d="M240.97 252.154C238.429 250.731 234.529 249.819 230.152 249.819C225.775 249.819 221.874 250.731 219.333 252.154H216.288V256.045C216.288 259.484 222.495 262.272 230.152 262.272C237.808 262.272 244.015 259.484 244.015 256.045V252.154H240.97Z" fill="#C18733"/>
<path d="M230.152 258.38C237.808 258.38 244.015 255.592 244.015 252.154C244.015 248.715 237.808 245.927 230.152 245.927C222.495 245.927 216.288 248.715 216.288 252.154C216.288 255.592 222.495 258.38 230.152 258.38Z" fill="#FCC670"/>
<path d="M230.152 256.045C235.711 256.045 240.218 254.303 240.218 252.154C240.218 250.004 235.711 248.262 230.152 248.262C224.592 248.262 220.085 250.004 220.085 252.154C220.085 254.303 224.592 256.045 230.152 256.045Z" fill="#CC943A"/>
<path d="M240.97 246.385C238.429 244.962 234.529 244.05 230.152 244.05C225.775 244.05 221.874 244.962 219.333 246.385H216.288V250.276C216.288 253.715 222.495 256.502 230.152 256.502C237.808 256.502 244.015 253.715 244.015 250.276V246.385H240.97Z" fill="#C18733"/>
<path d="M230.152 252.611C237.808 252.611 244.015 249.824 244.015 246.385C244.015 242.946 237.808 240.158 230.152 240.158C222.495 240.158 216.288 242.946 216.288 246.385C216.288 249.824 222.495 252.611 230.152 252.611Z" fill="#FCC670"/>
<path d="M230.152 250.277C235.711 250.277 240.218 248.534 240.218 246.385C240.218 244.235 235.711 242.493 230.152 242.493C224.592 242.493 220.085 244.235 220.085 246.385C220.085 248.534 224.592 250.277 230.152 250.277Z" fill="#CC943A"/>
<path d="M240.97 240.616C238.429 239.193 234.529 238.281 230.152 238.281C225.775 238.281 221.874 239.193 219.333 240.616H216.288V244.508C216.288 247.946 222.495 250.734 230.152 250.734C237.808 250.734 244.015 247.946 244.015 244.508V240.616H240.97Z" fill="#C18733"/>
<path d="M230.152 246.842C237.808 246.842 244.015 244.055 244.015 240.616C244.015 237.177 237.808 234.389 230.152 234.389C222.495 234.389 216.288 237.177 216.288 240.616C216.288 244.055 222.495 246.842 230.152 246.842Z" fill="#FCC670"/>
<path d="M230.152 244.508C235.711 244.508 240.218 242.765 240.218 240.616C240.218 238.466 235.711 236.724 230.152 236.724C224.592 236.724 220.085 238.466 220.085 240.616C220.085 242.765 224.592 244.508 230.152 244.508Z" fill="#CC943A"/>
<path d="M274.162 273.742C271.621 272.319 267.72 271.407 263.343 271.407C258.966 271.407 255.065 272.319 252.524 273.742H249.479V277.633C249.479 281.072 255.686 283.86 263.343 283.86C271 283.86 277.207 281.072 277.207 277.633V273.742H274.162Z" fill="#C18733"/>
<path d="M263.343 279.969C271 279.969 277.207 277.181 277.207 273.742C277.207 270.303 271 267.516 263.343 267.516C255.686 267.516 249.479 270.303 249.479 273.742C249.479 277.181 255.686 279.969 263.343 279.969Z" fill="#FCC670"/>
<path d="M273.409 273.742C273.409 275.891 268.902 277.633 263.342 277.633C257.783 277.633 253.276 275.891 253.276 273.742C253.276 271.593 257.783 269.851 263.342 269.851C268.903 269.85 273.409 271.593 273.409 273.742Z" fill="#CC943A"/>
<path d="M270.646 296.198C268.105 294.775 264.204 293.863 259.827 293.863C255.45 293.863 251.549 294.775 249.008 296.198H245.963V300.09C245.963 303.528 252.17 306.316 259.827 306.316C267.484 306.316 273.691 303.528 273.691 300.09V296.198H270.646Z" fill="#C18733"/>
<path d="M259.827 302.424C267.484 302.424 273.691 299.637 273.691 296.198C273.691 292.759 267.484 289.971 259.827 289.971C252.171 289.971 245.964 292.759 245.964 296.198C245.964 299.637 252.171 302.424 259.827 302.424Z" fill="#FCC670"/>
<path d="M259.828 300.09C265.387 300.09 269.894 298.347 269.894 296.198C269.894 294.048 265.387 292.306 259.828 292.306C254.268 292.306 249.761 294.048 249.761 296.198C249.761 298.347 254.268 300.09 259.828 300.09Z" fill="#CC943A"/>
<path d="M199.735 287.333L163.414 288.681L148.769 272.277L185.09 270.928L199.735 287.333Z" fill="#C64720"/>
<path d="M182.946 275.235C184.113 276.543 183.569 277.658 181.73 277.726C179.891 277.795 177.455 276.79 176.287 275.482C175.12 274.175 175.664 273.06 177.503 272.991C179.342 272.924 181.778 273.928 182.946 275.235Z" fill="#F24C3B"/>
<path d="M187.293 275.074C188.46 276.381 187.916 277.496 186.077 277.565C184.239 277.633 181.802 276.628 180.635 275.321C179.468 274.013 180.012 272.899 181.85 272.83C183.689 272.762 186.125 273.766 187.293 275.074Z" fill="#EFA63C"/>
<path d="M196.803 284.049L160.483 285.397L157.783 282.374L194.104 281.025L196.803 284.049Z" fill="#EFBB75"/>
<path d="M166.16 279.327L129.839 280.675L115.195 264.271L151.516 262.922L166.16 279.327Z" fill="#09385B"/>
<path d="M149.371 267.23C150.538 268.538 149.994 269.653 148.156 269.721C146.317 269.789 143.881 268.785 142.713 267.477C141.546 266.17 142.09 265.055 143.929 264.986C145.768 264.918 148.204 265.923 149.371 267.23Z" fill="#F24C3B"/>
<path d="M153.718 267.069C154.885 268.376 154.341 269.491 152.503 269.56C150.664 269.628 148.228 268.623 147.06 267.316C145.893 266.008 146.437 264.893 148.276 264.825C150.115 264.757 152.551 265.761 153.718 267.069Z" fill="#EFA63C"/>
<path d="M163.229 276.044L126.908 277.392L124.208 274.368L160.529 273.02L163.229 276.044Z" fill="#EFBB75"/>
</g>
<defs>
<clipPath id="clip0_32_1545">
<rect width="300" height="320" fill="white"/>
</clipPath>
</defs>
</svg>
